<?xml version="1.0" encoding="utf-8"?>
<!-- Generator: Adobe Illustrator 23.0.4, SVG Export Plug-In . SVG Version: 6.00 Build 0)  -->
<svg version="1.1" id="Layer_1" xmlns="http://www.w3.org/2000/svg" xmlns:xlink="http://www.w3.org/1999/xlink" x="0px" y="0px"
	 viewBox="0 0 305.3 177.1" style="enable-background:new 0 0 305.3 177.1;" xml:space="preserve">
<style type="text/css">
	.st0{clip-path:url(#SVGID_2_);fill:none;stroke:#9C9B9B;stroke-width:0.55;}
	.st1{clip-path:url(#SVGID_2_);fill:#FFFFFF;}
</style>
<g>
	<defs>
		<rect id="SVGID_1_" width="305.3" height="177.1"/>
	</defs>
	<clipPath id="SVGID_2_">
		<use xlink:href="#SVGID_1_"  style="overflow:visible;"/>
	</clipPath>
	<path class="st0" d="M3.7,102.1l4.1-6.3c0,0,2.8-10.7,8.5-18.2c0,0,4.7-4.4,12.1-8.2c0,0,28.6-11.5,62.1-22.8c0,0,8.2-3.9,11.3-8
		c0,0,24.5-21.2,40.1-29.7c0,0,16.9-7.2,28.6-7.4c0,0,34.2-3.3,73.4,1.1c0,0,25,3.6,32.4,9.6l19,17.9c0,0,5.2,1.4,7.4,4.7
		c0,0,3,12.4,1.9,22.3c0,0-2.1,14.7-5.8,20.5c0,0,3-7.7,2.8-12.9c0,0-0.7-6.5-4.7-3.7c0,0-4.5,3.2-8.5,14.3c0,0-6.3,16.6-9.4,20.4
		c0,0-39.3,26.1-70.4,42.2c0,0,5.6-17.6,4.3-26.4c0,0-1.9-16.1-16.8-11.3c0,0-9.8,3.2-19,16.5c0,0-10.6,14.7-14.9,39.9
		c0,0-2.9,13.5-6.3,16.9c0,0-4-0.3-10.2-2.2c0,0-36.6,3.9-49.8,1.7c0,0-60.8-7.2-83.3-33.1c0,0-11.3-15.4-11-27.1
		C1.9,112.6-1.1,106.4,3.7,102.1z"/>
	<path class="st0" d="M71.8,133.1c0,0,27.4,5.9,56.9,3c0,0,4.4-1,4.4,1.2c0,0,0,4.3-3,4.7c0,0-30.2,4.4-60.9-2.6c0,0-7.6-1-6.5-3
		C62.7,136.4,64.1,131.4,71.8,133.1z"/>
	<path class="st0" d="M7.8,95.9c0,0-0.8,6,8.2,10.4c0,0,0.6-14.6,2.5-22.8c0,0,0.8-7.9,5.2-11.3"/>
	<path class="st0" d="M72.3,123.7c0,0,15-16.2,27.1-18.3c0,0,27.2-4.1,48.4-5.6c0,0-8.2,6.3-12.8,16.8c0,0-3.7,8.8-6.6,9.6
		C128.4,126.2,112.1,130.4,72.3,123.7z"/>
	<path class="st0" d="M17.9,92.9c0,0,30.5,6.7,66.1,18.3c0,0-10.2,8.1-12.9,11.8c0,0-38.9,1.4-54-15.8
		C17,107.2,16.8,100.5,17.9,92.9z"/>
	<path class="st0" d="M3.7,102.1c0,0-2.1,4.4,1.1,6.9l5.1,4.5l0.1,4.5c0,0,0.1,2.2-1.4,0.8c0,0-6.2-5-6.7-6.3"/>
	<path class="st0" d="M130.6,124.4c0,0,11.8,0,35.8-7.6h7.6l4.1-1.4"/>
	<path class="st0" d="M207.4,147.5c-4.1,18.1-15.2,31-24.8,28.8c-9.7-2.2-14.2-18.6-10.2-36.7c4.1-18.1,15.2-31,24.8-28.8
		C206.9,113,211.4,129.5,207.4,147.5z"/>
	<path class="st0" d="M202.5,147.4c-3.2,14.1-11.4,24.3-18.4,22.7c-6.9-1.6-9.9-14.3-6.7-28.4c3.2-14.1,11.4-24.3,18.4-22.7
		C202.7,120.5,205.7,133.3,202.5,147.4z"/>
	<path class="st0" d="M186.5,176.5c0,0-20.2,2.8-27.7-7.5"/>
	<path class="st0" d="M187.5,105.3c0,0,5.2-0.7,11.6,3.2c0,0,6.2,5,7.8,13.3"/>
	<path class="st0" d="M147.8,99.8c0,0,17.5-13.5,54.7-28.5c0,0,2.9-0.7,4.8-2.9c0,0,1.5-2.9,1.4-6.5c0,0,3-1.2,4.4-4.4
		c0,0,8.9-29.8,15.8-41.7c0,0-44.7-8.8-86.5-6.2c0,0-24.1,13.3-49.1,37.8c0,0,93.6,15.3,114.3,14.6"/>
	<path class="st0" d="M227.1,15.5c0,0,3.4-11.3,27.9-11"/>
	<path class="st0" d="M288.5,74.2c3-8.7,6.6-13.8,6.6-13.8c1.4-0.7-0.4-6.2-0.4-6.2l-0.4-7.3c-1.1-5.9-5.6-8.1-5.6-8.1
		c1-5.9-2.9-12.4-2.9-12.4c-8.4-12.8-18.4-16.7-18.4-16.7c-23.4-6.6-34.8,7.2-34.8,7.2c-15.9,32.6-14.8,48.6-14.8,48.6
		s8.8,15.6,4.5,37.7c0,0-3.4,21.2-5.6,26.4"/>
	<path class="st0" d="M300.6,61l1.2-1.1l-0.4-1.4c0,0,2.3-0.7,2.3-5.8l1.2-2.1"/>
	<path class="st0" d="M210.4,132.5c0,0,33.5-16.8,71.1-41"/>
	<path class="st0" d="M251.9,7.8c0,0,9.9,20.5,10.6,38.5c0,0,1.2,0.7,1,1.5c0,0,7.8,3.6,4.3,33c0,0-1.8,12.7-5.1,22.4"/>
	<path class="st0" d="M252,50.6l6.8-2.9l1.3-0.6c-1.5-19-8.5-36.7-8.5-36.7c-14.3,0.8-18.3,10.9-18.3,10.9
		C222.3,47,220.7,61,220.7,61c-1.1,4.7,3.4,2.1,3.4,2.1c4.5-3.2,13.9-4.3,13.9-4.3c2.6,0.3,11.3-1.1,11.3-1.1
		c3.1-0.4,2.6-4.8,2.2-6.7c0-0.1,0-0.2-0.1-0.3c-0.1-0.4-0.2-0.7-0.2-0.7c-0.3-3.3-5.5-4.3-5.5-4.3c-9.8-1.9-12.1-0.4-12.1-0.4
		c-3.6,1.4-4.4,5.6-4.4,5.6c-0.3-5.5-2.1-11.7-2.1-11.7s5.1-14.6,7.1-17.7c0,0,4-9.5,16.6-9.9"/>
	<path class="st0" d="M255.1,10.2c0,0,9.2,19.4,9.8,35.1l16.1-6c0,0-1.2-14.4-4.9-21.2C276.2,18.1,270.4,8.8,255.1,10.2z"/>
	<path class="st0" d="M278.2,19.7c0,0,4.8,13.6,4.1,19.1l5.4-1.7C287.8,37,288.6,29.1,278.2,19.7z"/>
	<path class="st0" d="M260.4,64.6c0,0,6.1-0.6,5.7-2.7l1.3-0.6c0,0,0.7,1.8,0,2.4c-0.6,0.5-0.5,0.7-0.5,0.7s-0.2,1.5-6.1,2.8
		C260.9,67.2,259.1,66.5,260.4,64.6z"/>
	<path class="st0" d="M260.9,67.2c0,0,0.1,3.6,2.3,2.3c0,0,1.9-0.6,1.9-3.5"/>
	<path class="st0" d="M260.9,64.5c0,0-0.6-4,1.3-4.6c0,0,2.2-1.2,2.4,0.8l0.4,2.7"/>
	<path class="st0" d="M288.6,50.9c0,0,3.8-0.5,3.6-1.6l-0.2-0.4l0.9-0.5c0,0,0.5,0.6,0.3,1.1l-0.2,0.1c0,0,0.6,2-4.1,2.4
		C288.9,52.1,288.1,52.2,288.6,50.9z"/>
	<path class="st0" d="M288.9,52.1c0,0-0.2,4.3,1.4,3.5c0,0,1.7-0.1,1.6-4.1"/>
	<path class="st0" d="M288.9,50.7c0,0-0.1-3.3,1.3-3.3c0,0,1.4-0.8,1.6,2.5"/>
	<path class="st0" d="M268.3,80.6c0,0,0,1.3-0.2,2.3c0,0,11.8-5.8,19-10.4c0,0,0.5-1.1-0.1-2C286.9,70.6,268.5,81.1,268.3,80.6z"/>
	<path class="st0" d="M266.9,81.4c0,0-24.6,12.6-43.9,20.9l-0.3,1.9c0,0,20.1-8.4,43.9-20.7C266.6,83.6,267,82,266.9,81.4z"/>
	<path class="st0" d="M296.9,88.6c-1.2,8.6-4.3,15.3-6.9,14.9c-2.5-0.4-3.6-7.6-2.4-16.2c1.2-8.6,4.3-15.3,6.9-14.9
		C297.1,72.7,298.2,80,296.9,88.6z"/>
	<path class="st0" d="M298.2,88.3c-1.8,11.1-5.9,19.7-9,19.2c-3.2-0.5-4.3-10-2.5-21.1c1.8-11.1,5.9-19.7,9-19.2
		C298.9,67.8,300,77.2,298.2,88.3z"/>
	<path class="st0" d="M296.6,67.6c0,0-1.7-1.7-3.8-1.5"/>
	<path class="st0" d="M290,107.5c0,0-9.2,1.8-13.8-0.7c0,0-2.5-1.9-3.6-6.9"/>
	<path class="st0" d="M234,22.2c0,0,4.9-0.2,5.4,1.4c0,0,5.7,10.7,1.7,12.6c0,0-6.7,1-12.7-0.3"/>
	<path class="st0" d="M239.9,36.3c0,0,8.9,1.1,9.5,4.9c0,0,1,3.9,1,6.9"/>
	<path class="st0" d="M260.1,22.7c0,0,7.8,0.2,8.2,1.6c0,0,1.5,4.5,1.2,8.3l-1.4,2.1c0,0,9,0.5,10.2,2.3l1.6,2.6"/>
	<path class="st0" d="M255.5,22.4c0,0-1,0.1-1.2,1c0,0-1.5,3.8-0.1,9.8c0,0-3.6-0.8-11.8-1.5"/>
	<path class="st0" d="M269.3,28.3c0,0,7.4,0.4,10.3,1.3"/>
	<path class="st0" d="M253.5,27.5c0,0-5.4-0.5-12.3,0"/>
	<path class="st0" d="M281.3,29.9c0,0,2.7,0.5,3.9,1c0,0,0.3-1.2-1.3-4.7"/>
	<path class="st0" d="M141.7,11.6c0,0,26.1-2.4,79.1,5.2c0,0,3.4,0.3,2.5,4.1c0,0-11.6,36-18.7,36.5c0,0-66.8-3.8-98.9-11
		c0,0-5.2-1.4-4.1-3.2C101.6,43.3,125.8,21.1,141.7,11.6z"/>
	<path class="st0" d="M102.4,44.9l11.7-0.8c0,0,1.2-0.5,1.6-1c0,0,22.8-6.8,30.2-3.8c0,0,5.7,2,7.8,9.2c0,0,14.7,1.1,52.7,8.2"/>
	<path class="st0" d="M140.6,38.3c0,0,3.7-8.1,13-3.9c0,0,9,3.4,11.6,15.2"/>
	<path class="st0" d="M143.2,38.5c0,0,2.8-5.3,9.4-1.9c0,0,5.2,2.6,6.8,6.4l-3.4,1.7c0,0-1.1-3.9-6.5-3.3"/>
	<line class="st0" x1="143.9" y1="37.6" x2="151.8" y2="36.2"/>
	<path class="st0" d="M154.3,34.6c0,0,4-12,11.5-23.1"/>
	<line class="st0" x1="140.7" y1="38.1" x2="136.6" y2="38.8"/>
	<path class="st0" d="M115.7,43.1c0,0-5.9,0.5-0.7-4c0,0,20.1-18.8,38.9-27.8"/>
	<path class="st0" d="M188.4,21.2L177,21.4c0,0-3.5,1.3-3.7,4.2c0,0-1.4,7.4,1.6,6.8l13.7,1.3C188.7,33.6,194.4,32.2,188.4,21.2z"/>
	<path class="st0" d="M174.5,32.4c0,0-5.4,0.7-6.2,2.9l-4.6,9.5"/>
	<path class="st0" d="M188.7,33.6c0,0,6,1.2,6.6,3.6l1.1,17.4"/>
	<path class="st0" d="M207.5,21.1c0,0,1.9-4.9,4.1-5.5"/>
	<path class="st0" d="M110.1,31.5c0,0-6.6-1.1-7.6,2.3c0,0-1.1,2.3-0.8,4.7"/>
	<path class="st0" d="M195.9,31.1c0,0,0.1-8.1,3-10.5l11.7,0.8c0,0,3.6,5.7,2,10c0,0,2.5-0.3,7.2-0.5"/>
	<path class="st0" d="M195.8,31c0.2,0-3.3,0.8-3.5,1.6l-1.3,1.6"/>
	<path class="st0" d="M172.2,12c-6.1,8.4-9.6,22.5-9.6,22.5l11.2-2.1"/>
	<path class="st0" d="M189.1,22.5c0,0,1.2-5.7,4.1-9"/>
	<path class="st0" d="M26.5,76c0,0,10.4-11,45.4-23.1"/>
	<path class="st0" d="M207.5,63.1c0,0-46.8,12.1-84.2,28.1"/>
	<path class="st0" d="M107.1,113.1c0,3.6-2.3,6.6-5.1,6.6c-2.8,0-5.1-3-5.1-6.6c0-3.6,2.3-6.6,5.1-6.6
		C104.8,106.5,107.1,109.5,107.1,113.1z"/>
	<ellipse class="st0" cx="118.7" cy="112.8" rx="7.1" ry="8.2"/>
	<path class="st0" d="M11.2,89c-0.5,3.2,0,6,1.1,6.2c1.1,0.2,2.4-2.3,2.9-5.5c0.5-3.2,0-6-1.1-6.2C13,83.3,11.6,85.8,11.2,89z"/>
	<path class="st0" d="M137.6,107.6c0.4,1.9-0.3,3.6-1.5,3.8c-1.2,0.2-2.5-1.1-2.8-3c-0.4-1.9,0.3-3.6,1.5-3.8
		C136,104.4,137.2,105.7,137.6,107.6z"/>
	<path class="st0" d="M133,118.3c0,1.1-0.7,1.9-1.6,1.9c-0.9,0-1.6-0.9-1.6-1.9c0-1.1,0.7-1.9,1.6-1.9
		C132.3,116.4,133,117.3,133,118.3z"/>
	<path class="st0" d="M15,121.8c0,0,7.9,5.4,39.4,13.7c0,0,1.6,0.5,1.6,1.3l1.2,12.1c0,0,0.1,1-1.4,0.8c0,0-25.1-6.7-39.9-15.1
		c0,0-0.7-0.3-1.1-1.6l-1.2-10.8C13.6,122.2,13.6,121.1,15,121.8z"/>
	<path class="st0" d="M70.9,154.5c0,3.6-2.3,6.6-5.1,6.6c-2.8,0-5.1-3-5.1-6.6c0-3.6,2.3-6.6,5.1-6.6
		C68.6,147.9,70.9,150.8,70.9,154.5z"/>
	<path class="st0" d="M11,134.5c0,3.1-1,5.6-2.3,5.6c-1.3,0-2.3-2.5-2.3-5.6c0-3.1,1-5.6,2.3-5.6C10,128.9,11,131.4,11,134.5z"/>
	<polyline class="st1" points="6.2,142.4 0,132.7 5.9,128.9 12.1,138.7 	"/>
	<polyline class="st1" points="7.8,131.7 5.8,132.7 4.8,130.8 6.7,129.7 	"/>
	<path class="st0" d="M69.7,158.2c0,0,44.8,9.6,92.9-2.8"/>
	<path class="st0" d="M60.9,156.6c0,0-37.3-8.7-49.9-22.1"/>
</g>
</svg>
