<svg version="1.1" id="Layer_1" xmlns="http://www.w3.org/2000/svg" xmlns:xlink="http://www.w3.org/1999/xlink" x="0px" y="0px"
   viewBox="0 0 493.7 130.3" style="enable-background:new 0 0 493.7 130.3;" xml:space="preserve">
<style type="text/css">
  .st0{clip-path:url(#SVGID_2_);fill:none;stroke:#6F6F6E;stroke-width:0.4;}
  .st1{clip-path:url(#SVGID_2_);fill:#FFFFFF;}
  .st2{clip-path:url(#SVGID_4_);fill:none;stroke:#6F6F6E;stroke-width:0.4;}
  .st3{clip-path:url(#SVGID_4_);fill:#FFFFFF;}
</style>
<g>
  <defs>
    <polyline id="SVGID_1_" points="7.5,1.5 7.5,130.3 229.6,130.3 229.6,1.5"/>
  </defs>
  <clipPath id="SVGID_2_">
    <use xlink:href="#SVGID_1_"  style="overflow:visible;"/>
  </clipPath>
  <path class="st0" d="M10.2,75.8l3-4.6c0,0,2-7.8,6.2-13.2c0,0,3.4-3.2,8.8-6c0,0,20.8-8.4,45.2-16.6c0,0,6-2.8,8.2-5.8
    c0,0,17.8-15.4,29.2-21.6c0,0,12.3-5.2,20.8-5.4c0,0,24.9-2.4,53.4,0.8c0,0,18.2,2.6,23.6,7l13.8,13c0,0,3.8,1,5.4,3.4
    c0,0,2.2,9,1.4,16.2c0,0-1.5,10.7-4.2,14.9c0,0,2.2-5.6,2-9.4c0,0-0.5-4.7-3.4-2.7c0,0-3.3,2.3-6.2,10.4c0,0-4.6,12.1-6.8,14.8
    c0,0-28.6,19-51.2,30.7c0,0,4.1-12.8,3.1-19.2c0,0-1.4-11.7-12.2-8.2c0,0-7.1,2.3-13.8,12c0,0-7.7,10.7-10.8,29
    c0,0-2.1,9.8-4.6,12.3c0,0-2.9-0.2-7.4-1.6c0,0-26.6,2.8-36.2,1.2c0,0-44.2-5.2-60.6-24.1c0,0-8.2-11.2-8-19.7
    C8.9,83.4,6.7,78.9,10.2,75.8z"/>
  <path class="st0" d="M59.7,98.3c0,0,19.9,4.3,41.4,2.2c0,0,3.2-0.7,3.2,0.9c0,0,0,3.1-2.2,3.4c0,0-22,3.2-44.3-1.9
    c0,0-5.5-0.7-4.7-2.2C53.1,100.7,54.1,97.1,59.7,98.3z"/>
  <path class="st0" d="M13.2,71.3c0,0-0.6,4.4,6,7.5c0,0,0.4-10.6,1.8-16.6c0,0,0.6-5.8,3.8-8.2"/>
  <path class="st0" d="M60.1,91.5c0,0,10.9-11.8,19.7-13.3c0,0,19.8-3,35.2-4.1c0,0-6,4.6-9.3,12.2c0,0-2.7,6.4-4.8,7
    C100.9,93.3,89,96.4,60.1,91.5z"/>
  <path class="st0" d="M20.5,69.1c0,0,22.2,4.9,48.1,13.3c0,0-7.4,5.9-9.4,8.6c0,0-28.3,1-39.3-11.5C19.9,79.5,19.7,74.6,20.5,69.1z"
    />
  <path class="st0" d="M10.2,75.8c0,0-1.5,3.2,0.8,5l3.7,3.3l0.1,3.3c0,0,0.1,1.6-1,0.6c0,0-4.5-3.6-4.9-4.6"/>
  <path class="st0" d="M102.5,92c0,0,8.5,0,26.1-5.5h5.5l3-1"/>
  <path class="st0" d="M158.3,108.8c-2.9,13.2-11,22.6-18.1,21c-7-1.6-10.3-13.5-7.4-26.7c2.9-13.2,11-22.6,18.1-21
    C158,83.7,161.3,95.7,158.3,108.8z"/>
  <path class="st0" d="M154.8,108.7c-2.3,10.3-8.3,17.7-13.4,16.5c-5-1.1-7.2-10.4-4.9-20.7c2.3-10.3,8.3-17.7,13.4-16.5
    C154.9,89.2,157.1,98.5,154.8,108.7z"/>
  <path class="st0" d="M143.2,129.9c0,0-14.7,2-20.2-5.5"/>
  <path class="st0" d="M143.9,78.1c0,0,3.8-0.5,8.4,2.3c0,0,4.5,3.6,5.7,9.7"/>
  <path class="st0" d="M115,74.1c0,0,12.7-9.8,39.8-20.7c0,0,2.1-0.5,3.5-2.1c0,0,1.1-2.1,1-4.7c0,0,2.2-0.9,3.2-3.2
    c0,0,6.5-21.7,11.5-30.3c0,0-32.5-6.4-62.9-4.5c0,0-17.5,9.7-35.7,27.5c0,0,68.1,11.1,83.1,10.6"/>
  <path class="st0" d="M172.7,12.8c0,0,2.5-8.2,20.3-8"/>
  <path class="st0" d="M217.3,55.5c2.2-6.3,4.8-10,4.8-10c1-0.5-0.3-4.5-0.3-4.5l-0.3-5.3c-0.8-4.3-4.1-5.9-4.1-5.9
    c0.7-4.3-2.1-9-2.1-9c-6.1-9.3-13.4-12.1-13.4-12.1c-17-4.8-25.3,5.2-25.3,5.2C165,37.4,165.8,49,165.8,49s6.4,11.3,3.3,27.4
    c0,0-2.5,15.5-4.1,19.2"/>
  <path class="st0" d="M226.1,45.9l0.9-0.8l-0.3-1c0,0,1.7-0.5,1.7-4.2l0.9-1.5"/>
  <path class="st0" d="M160.5,97.9c0,0,24.4-12.2,51.7-29.8"/>
  <path class="st0" d="M190.7,7.2c0,0,7.2,14.9,7.7,28c0,0,0.9,0.5,0.7,1.1c0,0,5.7,2.6,3.1,24c0,0-1.3,9.2-3.7,16.3"/>
  <path class="st0" d="M190.8,38.3l4.9-2.1l1-0.4c-1.1-13.8-6.2-26.7-6.2-26.7c-10.4,0.6-13.3,7.9-13.3,7.9
    c-8,18.7-9.2,28.9-9.2,28.9c-0.8,3.4,2.5,1.5,2.5,1.5c3.3-2.3,10.1-3.1,10.1-3.1c1.9,0.2,8.2-0.8,8.2-0.8c2.2-0.3,1.9-3.5,1.6-4.9
    c0-0.1,0-0.1,0-0.2c-0.1-0.3-0.1-0.5-0.1-0.5c-0.2-2.4-4-3.1-4-3.1c-7.1-1.4-8.8-0.3-8.8-0.3c-2.6,1-3.2,4.1-3.2,4.1
    c-0.2-4-1.5-8.5-1.5-8.5s3.7-10.6,5.2-12.9c0,0,2.9-6.9,12.1-7.2"/>
  <path class="st0" d="M193.1,8.9c0,0,6.7,14.1,7.1,25.5l11.7-4.3c0,0-0.9-10.5-3.5-15.4C208.4,14.7,204.2,7.9,193.1,8.9z"/>
  <path class="st0" d="M209.9,15.9c0,0,3.5,9.9,3,13.9l3.9-1.3C216.8,28.5,217.4,22.7,209.9,15.9z"/>
  <path class="st0" d="M196.9,48.5c0,0,4.5-0.5,4.1-1.9l0.9-0.4c0,0,0.5,1.3,0,1.7c-0.4,0.4-0.3,0.5-0.3,0.5s-0.1,1.1-4.4,2
    C197.3,50.4,196,49.9,196.9,48.5z"/>
  <path class="st0" d="M197.3,50.4c0,0,0.1,2.6,1.7,1.7c0,0,1.4-0.4,1.4-2.6"/>
  <path class="st0" d="M197.3,48.4c0,0-0.4-2.9,0.9-3.3c0,0,1.6-0.9,1.7,0.6l0.3,2"/>
  <path class="st0" d="M217.5,38.5c0,0,2.8-0.4,2.6-1.1l-0.1-0.3l0.7-0.4c0,0,0.4,0.4,0.2,0.8l-0.2,0.1c0,0,0.5,1.5-3,1.7
    C217.7,39.4,217.1,39.5,217.5,38.5z"/>
  <path class="st0" d="M217.7,39.4c0,0-0.2,3.1,1,2.5c0,0,1.3-0.1,1.2-3"/>
  <path class="st0" d="M217.6,38.4c0,0-0.1-2.4,1-2.4c0,0,1-0.6,1.2,1.8"/>
  <path class="st0" d="M202.7,60.2c0,0,0,1-0.2,1.7c0,0,8.6-4.2,13.8-7.5c0,0,0.4-0.8-0.1-1.4C216.2,52.9,202.8,60.5,202.7,60.2z"/>
  <path class="st0" d="M201.6,60.7c0,0-17.9,9.2-31.9,15.2l-0.2,1.4c0,0,14.6-6.1,31.9-15C201.4,62.3,201.7,61.2,201.6,60.7z"/>
  <path class="st0" d="M223.5,66c-0.9,6.3-3.1,11.1-5,10.8c-1.9-0.3-2.6-5.6-1.7-11.8c0.9-6.3,3.1-11.1,5-10.8
    C223.6,54.4,224.4,59.7,223.5,66z"/>
  <path class="st0" d="M224.4,65.7c-1.3,8.1-4.3,14.3-6.6,14c-2.3-0.4-3.1-7.2-1.8-15.3c1.3-8.1,4.3-14.3,6.6-14
    C224.9,50.8,225.7,57.7,224.4,65.7z"/>
  <path class="st0" d="M223.3,50.7c0,0-1.2-1.2-2.8-1.1"/>
  <path class="st0" d="M218.5,79.7c0,0-6.7,1.3-10-0.5c0,0-1.8-1.4-2.6-5"/>
  <path class="st0" d="M177.7,17.6c0,0,3.6-0.2,3.9,1c0,0,4.2,7.8,1.2,9.1c0,0-4.8,0.7-9.2-0.2"/>
  <path class="st0" d="M182,27.9c0,0,6.5,0.8,6.9,3.5c0,0,0.7,2.9,0.8,5"/>
  <path class="st0" d="M196.7,18c0,0,5.7,0.2,5.9,1.2c0,0,1.1,3.2,0.9,6l-1,1.5c0,0,6.5,0.4,7.4,1.7l1.2,1.9"/>
  <path class="st0" d="M193.3,17.8c0,0-0.8,0.1-0.9,0.7c0,0-1.1,2.8-0.1,7.1c0,0-2.6-0.6-8.6-1.1"/>
  <path class="st0" d="M203.4,22.1c0,0,5.4,0.3,7.5,0.9"/>
  <path class="st0" d="M191.9,21.5c0,0-3.9-0.4-8.9,0"/>
  <path class="st0" d="M212.1,23.3c0,0,1.9,0.4,2.8,0.7c0,0,0.2-0.8-0.9-3.5"/>
  <path class="st0" d="M110.6,10c0,0,19-1.8,57.5,3.8c0,0,2.5,0.2,1.9,3c0,0-8.4,26.1-13.6,26.5c0,0-48.6-2.8-71.9-8
    c0,0-3.8-1-2.9-2.3C81.4,33,99,16.8,110.6,10z"/>
  <path class="st0" d="M82,34.2l8.5-0.6c0,0,0.9-0.3,1.1-0.7c0,0,16.6-4.9,21.9-2.8c0,0,4.1,1.5,5.7,6.7c0,0,10.7,0.8,38.3,5.9"/>
  <path class="st0" d="M109.8,29.4c0,0,2.7-5.9,9.5-2.9c0,0,6.5,2.5,8.5,11.1"/>
  <path class="st0" d="M111.7,29.5c0,0,2-3.9,6.8-1.4c0,0,3.8,1.9,5,4.7l-2.5,1.3c0,0-0.8-2.9-4.8-2.4"/>
  <line class="st0" x1="112.2" y1="28.9" x2="118" y2="27.9"/>
  <path class="st0" d="M119.8,26.7c0,0,2.9-8.7,8.4-16.8"/>
  <line class="st0" x1="109.9" y1="29.3" x2="106.9" y2="29.7"/>
  <path class="st0" d="M91.7,32.9c0,0-4.3,0.3-0.5-2.9c0,0,14.6-13.7,28.3-20.2"/>
  <path class="st0" d="M144.6,16.9l-8.3,0.1c0,0-2.5,0.9-2.7,3.1c0,0-1,5.4,1.2,4.9l9.9,0.9C144.8,26,148.9,24.9,144.6,16.9z"/>
  <path class="st0" d="M134.4,25.1c0,0-3.9,0.5-4.5,2.1l-3.3,6.9"/>
  <path class="st0" d="M144.8,26c0,0,4.4,0.9,4.8,2.6l0.8,12.7"/>
  <path class="st0" d="M158.4,16.9c0,0,1.4-3.5,3-4"/>
  <path class="st0" d="M87.6,24.4c0,0-4.8-0.8-5.5,1.7c0,0-0.8,1.7-0.6,3.4"/>
  <path class="st0" d="M150,24.1c0,0,0.1-5.9,2.2-7.6l8.5,0.6c0,0,2.6,4.1,1.5,7.3c0,0,1.8-0.2,5.2-0.3"/>
  <path class="st0" d="M150,24.1c0.1,0-2.4,0.6-2.5,1.1l-0.9,1.1"/>
  <path class="st0" d="M132.8,10.3c-4.4,6.1-7,16.3-7,16.3l8.1-1.5"/>
  <path class="st0" d="M145,17.9c0,0,0.9-4.1,3-6.5"/>
  <path class="st0" d="M26.8,56.8c0,0,7.6-8,33-16.8"/>
  <path class="st0" d="M158.4,47.4c0,0-34,8.8-61.2,20.4"/>
  <ellipse class="st0" cx="81.7" cy="83.8" rx="3.7" ry="4.8"/>
  <ellipse class="st0" cx="93.8" cy="83.6" rx="5.2" ry="6"/>
  <path class="st0" d="M15.6,66.3c-0.4,2.3,0,4.4,0.8,4.5c0.8,0.1,1.8-1.7,2.1-4c0.4-2.3,0-4.4-0.8-4.5C17,62.1,16,63.9,15.6,66.3z"
    />
  <path class="st0" d="M107.6,79.8c0.3,1.4-0.2,2.6-1.1,2.8c-0.9,0.2-1.8-0.8-2.1-2.1c-0.3-1.4,0.2-2.6,1.1-2.8
    C106.4,77.5,107.3,78.4,107.6,79.8z"/>
  <path class="st0" d="M104.3,87.6c0,0.8-0.5,1.4-1.1,1.4c-0.6,0-1.1-0.6-1.1-1.4c0-0.8,0.5-1.4,1.1-1.4
    C103.7,86.2,104.3,86.8,104.3,87.6z"/>
  <path class="st0" d="M18.4,90.1c0,0,5.7,3.9,28.6,9.9c0,0,1.2,0.4,1.2,1l0.9,8.8c0,0,0.1,0.7-1,0.6c0,0-18.2-4.9-29-11
    c0,0-0.5-0.2-0.8-1.2l-0.9-7.9C17.4,90.4,17.4,89.6,18.4,90.1z"/>
  <ellipse class="st0" cx="55.4" cy="113.9" rx="3.7" ry="4.8"/>
  <path class="st0" d="M15.6,99.3c0,2.2-0.7,4.1-1.7,4.1c-0.9,0-1.7-1.8-1.7-4.1c0-2.2,0.7-4.1,1.7-4.1
    C14.8,95.3,15.6,97.1,15.6,99.3z"/>
  <polyline class="st1" points="12,105.1 7.5,98 11.8,95.3 16.3,102.4  "/>
  <polyline class="st1" points="13.2,97.3 11.8,98 11,96.6 12.4,95.9   "/>
  <path class="st0" d="M58.2,116.6c0,0,32.6,7,67.6-2"/>
  <path class="st0" d="M51.8,115.4c0,0-27.1-6.3-36.3-16.1"/>
</g>
<g>
  <defs>
    <polyline id="SVGID_3_" points="271.1,1.5 271.1,128.9 493.7,128.9 493.7,1.5     "/>
  </defs>
  <clipPath id="SVGID_4_">
    <use xlink:href="#SVGID_3_"  style="overflow:visible;"/>
  </clipPath>
  <path class="st2" d="M296.1,38.8l-15.2,4.5c0,0-3.3,6.3-1.9,18.5c0,0-0.5,0.5-0.3,1.9l-3.7,7.7c0,0-2.1,2-0.7,6
    c0,0,0.5,14.3,13.5,22.9h2.7c0,0,8.5,6.4,36.1,14.9c0,0,2.9,0.9,5.5,2.3c0,0,1.6,1.7,5.9,2.4c0,0,12.7,4.1,41.9-3.1
    c0,0,8.5-1.7,8.5-3.5c0,0,8.9-28.4,21.1-36.9c0,0,19.3-13.5,13.1,17.3c0,0,0.5,2,0.1,3.3c0,0,38.8-21.3,53.9-32.1
    c0,0,3.7-14.9,9.1-22.5c0,0,8.7-12.9,6,10.9c0,0,3.1-7.2,1.5-19.1c0,0,0-2.4-1.7-3.3c0,0-3.1-2-7.1-2.9c0,0-2.3-0.8-2.7-1.2
    c0,0-10-3.1-11.3-2.5c0,0-14.7-16.5-28.9-18.8c0,0-28.8-4.5-45.9-3.9c0,0-25.3-0.1-40.7,4.4c0,0-8.9,2.7-17.5,7.3
    C337.3,13.5,299.1,37.9,296.1,38.8z"/>
  <path class="st2" d="M343.7,10.4c31.5-5.7,58,6.3,58,6.3c-1.2-0.7-29.2,29.5-29.2,29.5c-6.3,6.8-20,11.2-20,11.2
    c-0.8,0.3-1.5,0.7-2.2,1.3c-2.3,2-3.8,5.1-3.8,5.1c-12.4,24-16,23.6-16,23.6C311.3,86.8,289,75.6,289,75.6
    c-8.4-3.5-8.1-32.3-8.1-32.3"/>
  <path class="st2" d="M297.1,38.3c0,0,0.8,7.9,67.5,13.6"/>
  <path class="st2" d="M286.2,51.9c0,0,14,1.5,43.9,10.9c0,0-6.4,17.1-10.7,15.6c0,0-10.7-2-20.7-5.5c0,0-8.9-2.9-9.7-5.9
    C289,67.1,286.1,56.3,286.2,51.9z"/>
  <path class="st2" d="M286.6,55.9c0,0,3.7,4.7,41.8,10.7"/>
  <path class="st2" d="M337.3,13.5c0,0,13.7-1.5,60.3,6.3h0.3"/>
  <path class="st2" d="M352.3,57.5c0,0,9.4,0,30.8,23.7c0,0,3.2,3.7,5.4,2.8l7.1-2c0,0,4.5-0.5,6.9-1.1l3-0.9"/>
  <path class="st2" d="M335.9,81.6c0,0,17.7,3.9,19.1,1.3c0,0,5.3,1.2,26.1-3.9"/>
  <path class="st2" d="M334.9,83.1c0,0,20.7,6.1,48.2-1.9"/>
  <path class="st2" d="M278.7,63.8c0,0,1.3,2.7,4.9,4.1c0,0-2.7,6.5-1.2,8.5c0,0,9.2,7.1,37.6,13.3c0,0,8.1,2.1,10.8-2.3"/>
  <path class="st2" d="M275,71.5c0,0-2.1,2.8,6.1,6.8c0,0,20,10.3,54.9,16.8c0,0,16.8,3.7,38.3-2.3l2.3,2.7c0,0-19.9,8.5-41.3,3.7
    c0,0-44.4-8.8-60.9-21.7"/>
  <path class="st2" d="M336.1,95.1c0,0-1.7,2.1-0.8,4.1"/>
  <path class="st2" d="M396.4,73.1c-0.3,3.9-2.5,6.9-5,6.8c-2.5-0.2-4.4-3.5-4.1-7.4c0.3-3.9,2.5-6.9,5-6.8
    C394.8,65.9,396.7,69.2,396.4,73.1z"/>
  <path class="st2" d="M449.5,79.2c5.3-13.4,4.1-28,4.1-28c-0.1-9.6-6-13.1-6-13.1c-0.1-0.7-0.9-1.1-0.9-1.1
    c-2.7-11.8-12.8-28.9-12.8-28.9s-16.7,1.6-19.7,9.4c0,0-8.8,16.7-7.3,21.7l1.6,7.5c0,0,0.7,1.3,2.4,2.9c0,0,4.3,8.6,4.7,15.4
    c0,0,0.9,2.7,2.7,5.5c0,0,12.8,2,6.8,22.1"/>
  <path class="st2" d="M422.5,93.9c0,0,32.4-17.1,53.3-30.7h1.1"/>
  <path class="st2" d="M418.7,106.1c-2.2,9.5-7.9,16.4-12.7,15.3c-4.8-1.1-6.9-9.7-4.7-19.3c2.2-9.5,7.9-16.4,12.7-15.3
    C418.8,88,420.9,96.6,418.7,106.1z"/>
  <path class="st2" d="M490,58.5c-0.8,6.2-3.1,11-5.2,10.7c-2.1-0.3-3.2-5.5-2.4-11.7c0.8-6.2,3.1-11,5.2-10.7
    C489.6,47.1,490.7,52.3,490,58.5z"/>
  <path class="st2" d="M429.4,73.9c0,0,21.9-9.5,23.2-10.4c0,0,0.1,1.2-0.1,1.6c0,0-10,5.2-22.9,10.5
    C429.5,75.6,428.7,75.1,429.4,73.9z"/>
  <path class="st2" d="M454.1,62.6c0,0,12.1-4.9,24.1-10.8c0,0,0,1-0.4,1.5c0,0-8,4.3-23.9,11.1C453.9,64.3,454.3,63.4,454.1,62.6z"
    />
  <path class="st2" d="M433.4,10.6c0,0,8.4,15.3,10.9,27.1c0,0-19.2,5.1-22,5.6c0,0-3.3-11.7-7.5-20.1
    C414.9,23.1,418.2,11.6,433.4,10.6z"/>
  <path class="st2" d="M413.8,25.1c0,0,4.5,10.3,7.1,18.4c0,0-2.8,1.1-9.3,2.7c0,0-3.5-7.1-1.9-12.1C409.7,34,412.2,27.6,413.8,25.1z
    "/>
  <path class="st2" d="M437.1,10c0,0,8.9,14.8,12.1,26.4l19.2-4.7c0,0-0.8-5.6-2.8-9.7c0,0-6.1-6.1-11.3-8.9
    C454.3,13.1,450.9,9.8,437.1,10z"/>
  <path class="st2" d="M470.2,24.4c0,0-1.5,1.3-0.5,5.1c0,0,0.5,2.9,2.5,2.6l4.4,0c0,0,3.1,6.1,3.1,10c0,0,0.3,9.6-3.9,21.1"/>
  <path class="st2" d="M474.8,25.1c0,0,3.5,1.3,3.7,3.1c0,0,1.3,3-0.9,3.8l-1,0.1"/>
  <path class="st2" d="M470.5,24.6c0,0-1.5,1.3-0.5,4.9c0,0,0.8,2.5,2,2.3l3.7-0.2c0,0,1.5,0,1.5-1.7c0,0-0.1-3.4-0.9-3.6
    C476.3,26.3,475.1,25.1,470.5,24.6z"/>
  <path class="st2" d="M433.9,8.2c0,0,11.4-1.5,17.9,2.2c0,0,9.7,5.6,18.1,14.3"/>
  <path class="st2" d="M418.4,57.5c0,0-0.3,1.7,0.4,2.5l2.3-0.7c0,0,4.6-0.5,7-2.2c0,0,0.5-1-0.3-2.1c0,0-1.9,1.4-6.9,1.8L418.4,57.5
    z"/>
  <path class="st2" d="M420.9,56.8c0,0,0.6,1.8,0.2,2.5"/>
  <path class="st2" d="M421.2,56.8c0,0-0.5-2.9,2.2-3.9c0,0,2.6-0.9,2.9,2.8"/>
  <path class="st2" d="M421.6,59.2c0,0,0.6,3.3,2.6,2.1c0,0,2.3-0.4,2.4-3.4"/>
  <path class="st2" d="M455,46.5l1.7-0.5c0,0,1.9,0.4,4.3-1.2c0,0,0.9,1-0.2,2.3c0,0-1.6,0.8-3.7,1.1l-1.9,0.3
    C455.2,48.5,454.3,47.7,455,46.5z"/>
  <path class="st2" d="M456.8,48.2c0,0,0.2,2.3,1.8,1.8c0,0,1.4-0.1,1.5-2.7"/>
  <path class="st2" d="M460,45l0,0.3c-0.1-2.9-2-2.2-2-2.2c-1.5,0.2-1.3,3-1.3,3"/>
  <line class="st2" x1="460" y1="45.1" x2="460" y2="45.4"/>
  <path class="st2" d="M491.5,53.5c0,0,0-12.3-5.9-11.2"/>
  <path class="st2" d="M472.3,67.9c0,0,1.2,5,6.3,5.1c0,0,3,0.4,5.7,0"/>
  <path class="st2" d="M415.1,23.7c0,0,1.2-2.5,2.7-3.3l8.9,1.1c0,0,4.6,2.5,3.2,9.1c0,0-1.8,1.5-4.1,1.4l-7.3-0.5"/>
  <path class="st2" d="M426.7,21.5c0,0-1.1,0.3-0.8,1.5l-0.1,7c0,0,0.1,1.7,0.7,2c0,0,4.1,0.3,7,3c0,0,1,0.9,0.9,5.2"/>
  <path class="st2" d="M433.3,34.8c0,0-1.3,0.2-1.5,1.5l-0.1,4.6"/>
  <path class="st2" d="M430.9,33.2c0,0,0.3-8.3,8.4-10.5"/>
  <path class="st2" d="M443.8,22.6c0,0,10.1,3.5,5.7,13.8"/>
  <path class="st2" d="M432.3,34.2c0,0,0.2-3.9,1.3-4.9c0,0,2.1,0.3,4.7,2.5c0,0,0.7,3.9-0.1,7.4"/>
  <path class="st2" d="M434.4,39c0,0,0.2,0.9,1.2,0.9"/>
  <path class="st2" d="M443.1,33c0,0-1.4,1.6-2.8,5.7"/>
  <path class="st2" d="M416.4,31.3c0,0-2.4-0.5-3.5,0.1c0,0-3.4,0.4-1.3,14.7"/>
  <path class="st2" d="M414.1,25.8c0,0-1.9,5.1,0.5,5.4"/>
  <path class="st2" d="M431.9,35.7c0,0-2-1.5-5.5-2.1"/>
  <line class="st2" x1="428.4" y1="31.4" x2="428.4" y2="32.3"/>
  <path class="st2" d="M439.8,24c0,0-3.2,0.9-4.7,3.2c0,0,2.1,2.1,3.6,3c0,0,1.7,0.8,3.9,1.3"/>
  <path class="st2" d="M444.7,24.3c0,0,5.1,3,4.6,7.2c0,0-0.5,0.4-1.4,0.4"/>
  <path class="st2" d="M448.4,33.6l0.4,0.3c0,0,0.1,0.3-0.1,0.7"/>
  <path class="st2" d="M437.2,29c0,0,1.6-2,3.8-1.9"/>
  <path class="st2" d="M436.5,30.4c0,0-1.3,3.7,2.1,5.1"/>
  <path class="st2" d="M441.4,35.8c0,0,1.5-0.1,2.1-1.1"/>
  <path class="st2" d="M445.5,23.4c0,0,16.5,2.1,22.1,4.3"/>
  <path class="st2" d="M439.3,22.7c0,0-6-0.7-12.2-1"/>
  <path class="st2" d="M456.6,46.1c0,0,0.5,0.9,0.1,2.1"/>
  <path class="st2" d="M455.3,34.9c0,0,0.3-2.7,2-3.2l6.6,0.6c0,0-0.3,0.3-0.1,0.5"/>
  <path class="st2" d="M463.8,30.3c0,0.4-0.7,0.7-1.6,0.7c-0.9,0-1.6-0.3-1.6-0.7c0-0.4,0.7-0.7,1.6-0.7
    C463.1,29.6,463.8,29.9,463.8,30.3z"/>
  <line class="st2" x1="416.9" y1="21" x2="415.7" y2="21"/>
  <path class="st2" d="M337.9,14.7c9.5-0.2,43.2,4.5,43.2,4.5c5,0.9,2.6,2.6,2.6,2.6C379,25.7,363,42,363,42c-6.7,8-18.8,6-18.8,6
    c-24.9-2.6-37.8-7-37.8-7s-4.8-1.9-3.8-3.1"/>
  <path class="st2" d="M380.7,19.1c0,0-2.9,3.1-0.7,5.9"/>
  <path class="st2" d="M366,38.9c-5.3-0.5-10.2-1.9-10.2-1.9c0.7-0.2,1-0.8,1-0.8l0.3-5.6c0.5-4-2.5-5.5-2.5-5.5l-10.5-1.6
    c0,0-6.2,6.6-3.5,10.5l-5.6-1l-22.6,4.3"/>
  <path class="st2" d="M344.1,23.5c0,0,0.6-6.8,3.9-8.3"/>
  <path class="st2" d="M357.1,29.1l12.7-1.7c0,0-0.3-5.8,1-9.6"/>
  <path class="st2" d="M374.5,18.3c0,0-1.6,5.2-0.1,8.5l4.3-0.4"/>
  <path class="st2" d="M422.4,97.3c0,0,1.3-18.7-14.7-19.5"/>
  <path class="st2" d="M383.6,116c0,0,0.8,5.8,3.4,7.6c0,0,5.2,3.5,15.3,4.6"/>
  <path class="st2" d="M420.8,108.3c-3.4,12.9-11.3,21.9-17.7,20.3c-6.4-1.7-8.9-13.5-5.5-26.4c3.4-12.9,11.3-21.9,17.7-20.3
    C421.7,83.6,424.2,95.4,420.8,108.3z"/>
  <path class="st2" d="M491,59.8c-1.3,7.8-4.6,13.7-7.4,13.2c-2.8-0.5-4.1-7.1-2.8-14.9c1.3-7.8,4.6-13.7,7.4-13.2
    C491,45.3,492.3,52,491,59.8z"/>
  <path class="st2" d="M402.9,15.7c0,0,9.2-7,23.4-9c0,0,7.4-1.1,18.2-0.4"/>
  <ellipse class="st2" cx="351.5" cy="75.6" rx="7.4" ry="7.4"/>
  <circle class="st2" cx="351.2" cy="75.6" r="3.2"/>
  <path class="st2" d="M278.8,56.7c0,1.4,0.2,2.5,0.5,2.5c0.2,0,0.4-1.1,0.4-2.5c0-1.4-0.2-2.5-0.4-2.5
    C279,54.2,278.8,55.3,278.8,56.7z"/>
  <path class="st2" d="M278.9,51.6c0,0,1.1-1.1,1.6,2.2c0,0,0.6,3.6,0.3,6.3c0,0-0.4,2.9-1.8,1.8"/>
  <path class="st2" d="M276.1,75c0,0-1.1,1.9-0.6,3.2"/>
  <path class="st2" d="M293.9,59.6l25.6,6.2c0,0,1.4,0.2,1.2,2.1l-1.1,7.4c0,0-0.2,1-1.3,0.6l-26.5-7.3c0,0-0.9-0.4-0.9-1.4l1-6.8
    C291.9,60.3,291.9,58.9,293.9,59.6z"/>
  <path class="st2" d="M491.6,41.1l0.7-1v-1.2c0,0,1-1,1-1.6"/>
  <path class="st2" d="M478.8,30.5c0,0,6.5-1.3,10.8-0.4"/>
  <path class="st2" d="M351.5,60l-4.6,6.8c0,0,9,3.2,17.8,0.2C364.7,67,357.9,62.2,351.5,60z"/>
  <path class="st2" d="M279.1,50c0,0,0.2,0.7,1.4,1.4l0-7.1"/>
  <path class="st2" d="M390.1,108.2c-10.6,3.4-28.4,7.4-28.4,7.4c-13.6,2.4-31.6-2-31.6-2c1.7,0.2-23.8-4.9-51-22.2"/>
  <path class="st3" d="M424.9,26.8c0,2.9,0.7,5.3,1.5,5.3s1.5-2.4,1.5-5.3c0-2.9-0.7-5.3-1.5-5.3S424.9,23.8,424.9,26.8"/>
  <path class="st2" d="M325.3,103.5c0,0,5.9,2,10.4,2.1c0,0,3.2,0.2-0.1,2.5c0,0-4.6,0.3-10.8-2.2
    C324.9,105.9,323.2,104.4,325.3,103.5z"/>
  <path class="st2" d="M272.5,80c0,0,3.6,3,6.8,4.3c0,0,2.2,1-0.7,1.7c0,0-3.3-1.1-7-4.4C271.6,81.5,270.8,80,272.5,80z"/>
  <polyline class="st3" points="272.6,86.7 275.9,86 274.4,79.3 271.1,80.1   "/>
  <polyline class="st3" points="275.5,85 275.8,84.9 275.6,84.3 275.3,84.4   "/>
</g>
</svg>
