<?xml version="1.0" encoding="utf-8"?>
<!-- Generator: Adobe Illustrator 23.0.4, SVG Export Plug-In . SVG Version: 6.00 Build 0)  -->
<svg version="1.1" id="Layer_1" xmlns="http://www.w3.org/2000/svg" xmlns:xlink="http://www.w3.org/1999/xlink" x="0px" y="0px"
	 viewBox="0 0 332.5 192.4" style="enable-background:new 0 0 332.5 192.4;" xml:space="preserve">
<style type="text/css">
	.st0{clip-path:url(#SVGID_2_);}
	.st1{clip-path:url(#SVGID_4_);fill:none;stroke:#9C9B9B;stroke-width:0.55;}
	.st2{clip-path:url(#SVGID_4_);fill:#FFFFFF;}
</style>
<g>
	<defs>
		<rect id="SVGID_1_" width="332.5" height="192.4"/>
	</defs>
	<clipPath id="SVGID_2_">
		<use xlink:href="#SVGID_1_"  style="overflow:visible;"/>
	</clipPath>
	<g class="st0">
		<defs>
			<rect id="SVGID_3_" x="-0.7" y="3.5" width="306.1" height="175.2"/>
		</defs>
		<clipPath id="SVGID_4_">
			<use xlink:href="#SVGID_3_"  style="overflow:visible;"/>
		</clipPath>
		<path class="st1" d="M33.7,54.9l-20.9,6.2c0,0-4.6,8.6-2.6,25.5c0,0-0.7,0.7-0.4,2.6L4.8,99.8c0,0-2.9,2.8-0.9,8.2
			c0,0,0.7,19.6,18.5,31.5H26c0,0,11.7,8.8,49.7,20.5c0,0,4,1.3,7.5,3.1c0,0,2.2,2.4,8.1,3.3c0,0,17.4,5.7,57.6-4.2
			c0,0,11.7-2.4,11.7-4.8c0,0,12.3-39.1,29-50.8c0,0,26.6-18.5,18,23.8c0,0,0.7,2.7,0.2,4.6c0,0,53.4-29.3,74.1-44.2
			c0,0,5.1-20.5,12.5-31c0,0,11.9-17.8,8.2,15c0,0,4.2-9.9,2-26.2c0,0,0-3.3-2.4-4.6c0,0-4.2-2.8-9.7-4c0,0-3.1-1.1-3.7-1.6
			c0,0-13.8-4.2-15.6-3.5c0,0-20.2-22.7-39.8-25.9c0,0-39.6-6.2-63.1-5.3c0,0-34.8-0.2-55.9,6c0,0-12.3,3.7-24,10.1
			C90.4,20,37.9,53.6,33.7,54.9z"/>
		<path class="st1" d="M99.2,15.8c43.3-7.9,79.8,8.6,79.8,8.6c-1.6-0.9-40.1,40.5-40.1,40.5c-8.6,9.3-27.5,15.4-27.5,15.4
			c-1.1,0.4-2.1,1-3,1.8c-3.2,2.7-5.2,7-5.2,7c-17.1,33-22,32.5-22,32.5c-26.4-0.7-57-16.1-57-16.1c-11.6-4.8-11.2-44.4-11.2-44.4"
			/>
		<path class="st1" d="M35.2,54.1c0,0,1.1,10.8,92.8,18.7"/>
		<path class="st1" d="M20.2,72.8c0,0,19.2,2,60.3,15c0,0-8.8,23.5-14.7,21.4c0,0-14.7-2.7-28.4-7.5c0,0-12.3-4-13.4-8.1
			C24,93.7,20,78.9,20.2,72.8z"/>
		<path class="st1" d="M20.7,78.3c0,0,5.1,6.4,57.4,14.7"/>
		<path class="st1" d="M90.4,20c0,0,18.9-2,82.9,8.6h0.4"/>
		<path class="st1" d="M111.1,80.5c0,0,12.9,0,42.3,32.6c0,0,4.4,5.1,7.4,3.9l9.8-2.8c0,0,6.2-0.7,9.4-1.5l4.2-1.3"/>
		<path class="st1" d="M88.5,113.7c0,0,24.4,5.3,26.2,1.8c0,0,7.3,1.6,35.9-5.3"/>
		<path class="st1" d="M87.1,115.7c0,0,28.5,8.4,66.3-2.6"/>
		<path class="st1" d="M9.9,89.2c0,0,1.8,3.7,6.8,5.6c0,0-3.7,8.9-1.7,11.6c0,0,12.7,9.7,51.7,18.3c0,0,11.2,2.9,14.9-3.1"/>
		<path class="st1" d="M4.8,99.8c0,0-2.9,3.8,8.4,9.3c0,0,27.5,14.1,75.5,23.1c0,0,23.1,5.1,52.6-3.1l3.1,3.7
			c0,0-27.3,11.7-56.8,5.1c0,0-61.1-12.1-83.8-29.9"/>
		<path class="st1" d="M88.7,132.2c0,0-2.4,2.9-1.1,5.7"/>
		<path class="st1" d="M171.7,101.9c-0.3,5.4-3.5,9.5-6.9,9.3c-3.5-0.2-6-4.8-5.7-10.1c0.3-5.4,3.5-9.5,6.9-9.3
			S172,96.6,171.7,101.9z"/>
		<path class="st1" d="M244.7,110.4c7.3-18.4,5.7-38.5,5.7-38.5c-0.2-13.2-8.2-18-8.2-18c-0.2-0.9-1.3-1.5-1.3-1.5
			c-3.7-16.2-17.6-39.7-17.6-39.7s-22.9,2.2-27.1,12.9c0,0-12.1,23-10.1,29.8l2.2,10.3c0,0,0.9,1.8,3.3,4c0,0,5.9,11.8,6.4,21.2
			c0,0,1.3,3.7,3.7,7.5c0,0,17.6,2.8,9.4,30.4"/>
		<path class="st1" d="M207.5,130.6c0,0,44.5-23.5,73.3-42.2h1.5"/>
		<path class="st1" d="M202.4,147.4c-3,13.1-10.8,22.5-17.4,21c-6.6-1.5-9.5-13.4-6.5-26.5c3-13.1,10.8-22.5,17.4-21
			C202.5,122.4,205.4,134.3,202.4,147.4z"/>
		<path class="st1" d="M300.3,81.9c-1.1,8.5-4.3,15.1-7.2,14.8c-2.9-0.4-4.4-7.6-3.3-16.1c1.1-8.5,4.3-15.1,7.2-14.8
			C299.9,66.2,301.4,73.4,300.3,81.9z"/>
		<path class="st1" d="M217.1,103.1c0,0,30.1-13,31.9-14.3c0,0,0.2,1.6-0.2,2.2c0,0-13.8,7.1-31.5,14.5
			C217.2,105.5,216.1,104.7,217.1,103.1z"/>
		<path class="st1" d="M251,87.5c0,0,16.7-6.8,33.2-14.9c0,0,0,1.4-0.5,2c0,0-11,5.9-32.8,15.2C250.8,89.9,251.3,88.7,251,87.5z"/>
		<path class="st1" d="M222.6,16c0,0,11.6,21.1,15,37.2c0,0-26.4,7-30.2,7.7c0,0-4.6-16.1-10.3-27.7C197.1,33.2,201.7,17.5,222.6,16
			z"/>
		<path class="st1" d="M195.6,36c0,0,6.2,14.1,9.7,25.3c0,0-3.9,1.5-12.8,3.7c0,0-4.8-9.7-2.6-16.7C189.9,48.3,193.4,39.5,195.6,36z
			"/>
		<path class="st1" d="M227.7,15.3c0,0,12.3,20.4,16.7,36.3l26.4-6.4c0,0-1.1-7.7-3.9-13.4c0,0-8.4-8.4-15.6-12.3
			C251.3,19.5,246.6,14.9,227.7,15.3z"/>
		<path class="st1" d="M273.2,35.1c0,0-2.1,1.8-0.7,7c0,0,0.7,4,3.4,3.6l6.1,0c0,0,4.2,8.4,4.2,13.8c0,0,0.4,13.2-5.3,29"/>
		<path class="st1" d="M279.4,36c0,0,4.8,1.8,5.1,4.2c0,0,1.8,4.2-1.2,5.3l-1.3,0.2"/>
		<path class="st1" d="M273.5,35.4c0,0-2.1,1.8-0.7,6.7c0,0,1.1,3.4,2.8,3.2l5.1-0.3c0,0,2.1,0,2.1-2.3c0,0-0.1-4.7-1.2-4.9
			C281.5,37.7,279.8,36,273.5,35.4z"/>
		<path class="st1" d="M223.3,12.7c0,0,15.7-2.1,24.7,3c0,0,13.3,7.7,24.9,19.7"/>
		<path class="st1" d="M201.9,80.6c0,0-0.4,2.3,0.5,3.4l3.2-1c0,0,6.3-0.7,9.6-3c0,0,0.7-1.4-0.4-2.9c0,0-2.6,1.9-9.5,2.5
			L201.9,80.6z"/>
		<path class="st1" d="M205.3,79.6c0,0,0.8,2.5,0.3,3.4"/>
		<path class="st1" d="M205.7,79.6c0,0-0.7-4.1,3-5.4c0,0,3.6-1.3,4,3.9"/>
		<path class="st1" d="M206.3,82.9c0,0,0.8,4.5,3.6,2.9c0,0,3.2-0.6,3.3-4.7"/>
		<path class="st1" d="M252.2,65.5l2.3-0.7c0,0,2.6,0.5,5.9-1.6c0,0,1.2,1.4-0.3,3.2c0,0-2.2,1.1-5.1,1.5l-2.6,0.4
			C252.5,68.2,251.2,67.1,252.2,65.5z"/>
		<path class="st1" d="M254.7,67.8c0,0,0.3,3.2,2.5,2.5c0,0,1.9-0.1,2.1-3.7"/>
		<path class="st1" d="M259.1,63.4l0,0.4c-0.1-4-2.7-3-2.7-3c-2.1,0.3-1.8,4.1-1.8,4.1"/>
		<line class="st1" x1="259.1" y1="63.5" x2="259.1" y2="63.9"/>
		<path class="st1" d="M302.5,75c0,0,0-17-8.1-15.4"/>
		<path class="st1" d="M276.1,94.8c0,0,1.7,6.9,8.6,7.1c0,0,4.1,0.5,7.8,0"/>
		<path class="st1" d="M197.4,34.1c0,0,1.6-3.4,3.7-4.5l12.3,1.5c0,0,6.3,3.5,4.4,12.6c0,0-2.5,2.1-5.7,1.9L202,44.8"/>
		<path class="st1" d="M213.4,31c0,0-1.5,0.4-1.1,2.1l-0.2,9.6c0,0,0.2,2.4,0.9,2.8c0,0,5.7,0.5,9.6,4.1c0,0,1.4,1.2,1.2,7.2"/>
		<path class="st1" d="M222.4,49.4c0,0-1.8,0.3-2.1,2l-0.2,6.3"/>
		<path class="st1" d="M219.2,47.2c0,0,0.4-11.4,11.5-14.5"/>
		<path class="st1" d="M236.9,32.5c0,0,13.9,4.8,7.9,19"/>
		<path class="st1" d="M221.1,48.5c0,0,0.3-5.4,1.8-6.7c0,0,2.9,0.5,6.4,3.4c0,0,1,5.4-0.1,10.2"/>
		<path class="st1" d="M223.8,55.1c0,0,0.3,1.2,1.6,1.3"/>
		<path class="st1" d="M235.8,46.9c0,0-1.9,2.1-3.9,7.8"/>
		<path class="st1" d="M199.2,44.5c0,0-3.3-0.6-4.9,0.2c0,0-4.6,0.6-1.8,20.3"/>
		<path class="st1" d="M196,36.9c0,0-2.6,6.9,0.6,7.4"/>
		<path class="st1" d="M220.4,50.6c0,0-2.8-2-7.6-2.8"/>
		<line class="st1" x1="215.7" y1="44.7" x2="215.7" y2="45.9"/>
		<path class="st1" d="M231.4,34.5c0,0-4.4,1.2-6.5,4.4c0,0,2.8,2.9,5,4.1c0,0,2.4,1.1,5.4,1.7"/>
		<path class="st1" d="M238,34.9c0,0,7.1,4.1,6.3,9.9c0,0-0.6,0.5-1.9,0.5"/>
		<path class="st1" d="M243.2,47.6l0.6,0.4c0,0,0.2,0.5-0.2,0.9"/>
		<path class="st1" d="M227.8,41.4c0,0,2.2-2.7,5.2-2.7"/>
		<path class="st1" d="M226.9,43.3c0,0-1.7,5.1,2.8,7"/>
		<path class="st1" d="M233.6,50.7c0,0,2.1-0.2,2.9-1.6"/>
		<path class="st1" d="M239.2,33.6c0,0,22.6,2.8,30.3,5.9"/>
		<path class="st1" d="M230.7,32.7c0,0-8.2-1-16.8-1.4"/>
		<path class="st1" d="M254.5,64.9c0,0,0.7,1.2,0.2,2.9"/>
		<path class="st1" d="M252.6,49.5c0,0,0.4-3.8,2.8-4.4l9.1,0.8c0,0-0.5,0.5-0.2,0.7"/>
		<path class="st1" d="M264.4,43.2c0,0.5-1,1-2.2,1c-1.2,0-2.2-0.4-2.2-1c0-0.5,1-1,2.2-1C263.4,42.2,264.4,42.7,264.4,43.2z"/>
		<line class="st1" x1="199.9" y1="30.4" x2="198.3" y2="30.4"/>
		<path class="st1" d="M91.2,21.7c13.1-0.3,59.4,6.2,59.4,6.2c6.9,1.2,3.6,3.6,3.6,3.6c-6.5,5.4-28.5,27.8-28.5,27.8
			c-9.2,11-25.9,8.2-25.9,8.2c-34.2-3.6-52-9.6-52-9.6s-6.6-2.6-5.2-4.3"/>
		<path class="st1" d="M150,27.8c0,0-4,4.3-1,8.1"/>
		<path class="st1" d="M129.8,55c-7.3-0.7-14-2.6-14-2.6c1-0.3,1.4-1.1,1.4-1.1l0.4-7.7c0.7-5.5-3.4-7.6-3.4-7.6l-14.4-2.2
			c0,0-8.5,9.1-4.8,14.4l-7.7-1.4l-31.1,5.9"/>
		<path class="st1" d="M99.7,33.8c0,0,0.8-9.4,5.4-11.4"/>
		<path class="st1" d="M117.6,41.5l17.5-2.3c0,0-0.4-8,1.4-13.2"/>
		<path class="st1" d="M141.6,26.7c0,0-2.2,7.1-0.1,11.7l5.9-0.6"/>
		<path class="st1" d="M207.4,135.3c0,0,1.8-25.7-20.2-26.8"/>
		<path class="st1" d="M154,161c0,0,1.1,8,4.7,10.4c0,0,7.1,4.8,21,6.3"/>
		<path class="st1" d="M205.2,150.4c-4.6,17.7-15.6,30.2-24.4,27.9c-8.8-2.3-12.2-18.5-7.6-36.2c4.6-17.7,15.6-30.2,24.4-27.9
			C206.5,116.4,209.9,132.7,205.2,150.4z"/>
		<path class="st1" d="M301.7,83.7c-1.8,10.7-6.3,18.8-10.2,18.2c-3.9-0.6-5.6-9.8-3.8-20.5c1.8-10.7,6.3-18.8,10.2-18.2
			C301.7,63.8,303.5,73,301.7,83.7z"/>
		<path class="st1" d="M180.6,23.1c0,0,12.6-9.6,32.2-12.4c0,0,10.2-1.6,25-0.5"/>
		<ellipse class="st1" cx="109.9" cy="105.4" rx="10.2" ry="10.1"/>
		<path class="st1" d="M114,105.4c0,2.5-2,4.5-4.5,4.5c-2.5,0-4.5-2-4.5-4.5c0-2.5,2-4.5,4.5-4.5C112,100.9,114,102.9,114,105.4z"/>
		<path class="st1" d="M9.9,79.5c0,1.9,0.3,3.4,0.6,3.4c0.3,0,0.6-1.5,0.6-3.4c0-1.9-0.3-3.4-0.6-3.4C10.2,76.1,9.9,77.6,9.9,79.5z"
			/>
		<path class="st1" d="M10.1,72.5c0,0,1.5-1.5,2.2,3c0,0,0.8,4.9,0.4,8.7c0,0-0.6,4-2.4,2.4"/>
		<path class="st1" d="M6.2,104.7c0,0-1.5,2.6-0.8,4.4"/>
		<path class="st1" d="M30.7,83.4l35.1,8.5c0,0,1.9,0.3,1.6,2.9L66,105c0,0-0.3,1.4-1.8,0.8l-36.4-10c0,0-1.2-0.6-1.2-2l1.3-9.4
			C27.9,84.4,28,82.5,30.7,83.4z"/>
		<path class="st1" d="M302.5,58l1-1.4v-1.6c0,0,1.3-1.4,1.4-2.2"/>
		<path class="st1" d="M285,43.5c0,0,8.9-1.8,14.8-0.5"/>
		<path class="st1" d="M109.9,84l-6.3,9.4c0,0,12.4,4.4,24.5,0.3C128,93.7,118.7,87.1,109.9,84z"/>
		<path class="st1" d="M10.3,70.2c0,0,0.2,0.9,2,2l-0.1-9.7"/>
		<path class="st1" d="M163,150.3c-14.6,4.7-39.1,10.2-39.1,10.2c-18.7,3.3-43.4-2.8-43.4-2.8c2.3,0.3-32.7-6.7-70.1-30.5"/>
		<path class="st2" d="M210.8,38.3c0,4,0.9,7.2,2.1,7.2c1.2,0,2.1-3.2,2.1-7.2c0-4-0.9-7.2-2.1-7.2C211.8,31,210.8,34.3,210.8,38.3"
			/>
		<path class="st1" d="M73.9,143.8c0,0,8.2,2.8,14.3,2.9c0,0,4.4,0.2-0.1,3.4c0,0-6.3,0.4-14.8-3C73.4,147.1,71,145,73.9,143.8z"/>
		<path class="st1" d="M1.3,111.5c0,0,5,4.2,9.3,5.9c0,0,3,1.4-1,2.4c0,0-4.5-1.4-9.6-6.1C0.1,113.6-1,111.5,1.3,111.5z"/>
		<polyline class="st2" points="1.4,120.7 5.9,119.7 3.9,110.6 -0.7,111.6 		"/>
		<polyline class="st2" points="5.4,118.3 5.8,118.2 5.6,117.4 5.2,117.5 		"/>
	</g>
</g>
</svg>
