<?xml version="1.0" encoding="UTF-8"?>
<svg width="44px" height="44px" viewBox="0 0 44 44" version="1.1" xmlns="http://www.w3.org/2000/svg">
    <!-- Generator: Sketch 41 (35326) - http://www.bohemiancoding.com/sketch -->
    <title>Artboard</title>
    <desc>Created with Sketch.</desc>
    <defs></defs>
    <g id="Page-1" stroke="none" stroke-width="1" fill="none" fill-rule="evenodd">
        <g id="Artboard" fill="#FFFFFF">
            <path d="M31.2016994,18.1050783 C30.1470588,15.6454032 28.3552615,13.8565277 25.8764052,12.7987143 C24.637451,12.2700529 23.3504575,12 21.9946405,12 C20.6385621,12 19.3503922,12.2675024 18.1126144,12.7987143 C15.6545752,13.8537483 13.8436275,15.6414467 12.7873203,18.1050783 C12.2582353,19.3393301 12,20.6324384 12,21.9890135 C12,23.3458175 12.2582353,24.6496506 12.7873203,25.8841313 C13.8436275,28.3477957 15.6545752,30.1462517 18.1126471,31.2014492 C19.3504248,31.7327265 20.6385948,32 21.9946732,32 C23.3504902,32 24.6374837,31.7299145 25.8764379,31.2014492 C28.3552942,30.1436685 30.1470915,28.3435776 31.201732,25.8841313 C31.7326471,24.6456942 32,23.3458175 32,21.9890135 C32,20.6324384 31.7326471,19.3435482 31.2016994,18.1050783 Z M30.0864052,25.4135742 C29.6224183,26.4947013 29.0065359,27.4405239 28.2164052,28.2254724 C27.4318955,29.0050584 26.4887582,29.6259282 25.4061111,30.0962891 C24.3236928,30.5668462 23.1864379,30.7964843 21.9946078,30.7964843 C20.4089869,30.7964843 18.9437908,30.4027022 17.5986928,29.6149417 C16.2538235,28.8271812 15.1798039,27.7563213 14.3948039,26.4093268 C13.6051634,25.0538962 13.2136928,23.5754555 13.2136928,21.9889808 C13.2136928,20.4024733 13.6074837,18.936458 14.3948039,17.5908367 C15.1821242,16.2449866 16.2538235,15.1729496 17.5986928,14.3851891 C18.9437908,13.5974286 20.4090196,13.2034176 21.9946078,13.2034176 C23.1864379,13.2034176 24.3236928,13.4330884 25.4061111,13.9036455 C26.4887582,14.3742026 27.4262745,15.0004349 28.2164052,15.785416 C29.0009477,16.565002 29.6223856,17.5051679 30.0864052,18.5863277 C30.5517974,19.6714438 30.7862418,20.7964843 30.7862418,21.9889808 C30.7862418,23.1817715 30.5518301,24.3284908 30.0864052,25.4135742 Z" id="Shape"></path>
            <path d="M24.8211125,19.7799968 C24.7700797,19.6271315 24.655117,19.4771549 24.4988962,19.4382018 L17.7231609,17.0364744 C17.5129893,16.9619238 17.3326088,16.9973171 17.1472389,17.1829205 C17.000822,17.3293374 16.9608185,17.5640771 17.039775,17.7590468 L19.6856084,24.2809014 C19.7416308,24.4185356 19.8397575,24.5204263 19.9784714,24.573706 L26.3247307,27.0144156 C26.3636838,27.043769 26.4319902,27.0535729 26.5198754,27.0535729 C26.6662923,27.0535729 26.7900085,27.0012562 26.8812492,26.9169016 C27.0536931,26.7571502 27.0914207,26.5805629 27.0178913,26.360354 L24.8211125,19.7799968 Z M20.6033255,23.6559597 L21.5212468,22.718664 C21.4918642,22.7088601 21.4625108,22.6795066 21.4235577,22.6405828 C21.0232309,22.2402268 21.0232309,21.5762153 21.4235577,21.1761219 C21.8238845,20.7757952 22.4778878,20.7757952 22.8782146,21.1761219 C22.9075972,21.2053003 22.9367463,21.2444285 22.9563542,21.2833815 L23.883846,20.3558897 L25.6413448,25.5988285 L20.6033255,23.6559597 Z" id="Shape"></path>
        </g>
    </g>
</svg>