<svg width="655px" height="366px" viewBox="0 0 655 366" version="1.1" xmlns="http://www.w3.org/2000/svg" xmlns:xlink="http://www.w3.org/1999/xlink">
	<g id="animation_it" stroke="none" stroke-width="1" fill="none" fill-rule="evenodd">
		<g id="x-axis" transform="translate(124.000000, 337.000000)">
			<polygon id="x-axis-2" fill="#5C5C5B" transform="translate(525.900000, 3.000000) rotate(90.000000) translate(-525.900000, -3.000000) " points="525.9 -2 528.9 8 522.9 8"></polygon>
			<line x1="0" y1="3" x2="521" y2="3" id="x-axis-1" stroke="#5C5C5B" stroke-width="2"></line>
		</g>
		<g id="y-axis" transform="translate(122.000000, 0.000000)">
			<polygon id="y-axis-2" fill="#5C5C5B" points="3 0.1 6 10.1 0 10.1"></polygon>
			<line x1="3" y1="340" x2="3" y2="10" id="y-axis-1" stroke="#5C5C5B" stroke-width="2"></line>
		</g>
		<g id="x-labels" transform="translate(238.000000, 349.000000)" fill="#5C5C5B" fill-rule="nonzero">
			<path d="M4.251,12.13 C5.07433333,12.13 5.75466667,11.935 6.292,11.545 C6.82933333,11.155 7.228,10.6003333 7.488,9.881 C7.748,9.16166667 7.878,8.31666667 7.878,7.346 C7.878,6.36666667 7.748,5.5195 7.488,4.8045 C7.228,4.0895 6.8315,3.53916667 6.2985,3.1535 C5.7655,2.76783333 5.08733333,2.575 4.264,2.575 C3.05066667,2.575 2.14066667,2.98883333 1.534,3.8165 C0.927333333,4.64416667 0.624,5.81633333 0.624,7.333 C0.624,8.31233333 0.754,9.1595 1.014,9.8745 C1.274,10.5895 1.67266667,11.1441667 2.21,11.5385 C2.74733333,11.9328333 3.42766667,12.13 4.251,12.13 Z M4.251,10.531 C3.67033333,10.531 3.23916667,10.2601667 2.9575,9.7185 C2.67583333,9.17683333 2.535,8.386 2.535,7.346 C2.535,6.306 2.67583333,5.513 2.9575,4.967 C3.23916667,4.421 3.67466667,4.148 4.264,4.148 C4.85333333,4.148 5.2845,4.41666667 5.5575,4.954 C5.8305,5.49133333 5.967,6.28866667 5.967,7.346 C5.967,8.40333333 5.82833333,9.1985 5.551,9.7315 C5.27366667,10.2645 4.84033333,10.531 4.251,10.531 Z M11.5453,15.12 C12.6373,15.12 13.4411333,14.8296667 13.9568,14.249 C14.4724667,13.6683333 14.7303,12.8363333 14.7303,11.753 L14.7303,11.753 L14.7303,4.889 L13.2223,4.889 L13.0793,5.799 L12.9883,5.799 C12.7803,5.42633333 12.5441333,5.15983333 12.2798,4.9995 C12.0154667,4.83916667 11.6969667,4.759 11.3243,4.759 C10.6049667,4.759 10.0438,5.084 9.6408,5.734 C9.2378,6.384 9.0363,7.29833333 9.0363,8.477 C9.0363,9.62966667 9.23346667,10.5266667 9.6278,11.168 C10.0221333,11.8093333 10.5703,12.13 11.2723,12.13 C11.6449667,12.13 11.9699667,12.0455 12.2473,11.8765 C12.5246333,11.7075 12.7673,11.4366667 12.9753,11.064 L12.9753,11.064 L13.0273,11.064 C13.0099667,11.2113333 12.9969667,11.3781667 12.9883,11.5645 C12.9796333,11.7508333 12.9753,11.9133333 12.9753,12.052 L12.9753,12.052 L12.9753,12.182 C12.9753,12.7193333 12.8496333,13.1028333 12.5983,13.3325 C12.3469667,13.5621667 11.9959667,13.677 11.5453,13.677 C10.8259667,13.677 10.1066333,13.4993333 9.3873,13.144 L9.3873,13.144 L9.3873,14.652 C10.0113,14.964 10.7306333,15.12 11.5453,15.12 Z M11.8833,10.648 C11.1813,10.648 10.8303,9.933 10.8303,8.503 C10.8303,7.01233333 11.1726333,6.267 11.8573,6.267 C12.2559667,6.267 12.5484667,6.43383333 12.7348,6.7675 C12.9211333,7.10116667 13.0143,7.645 13.0143,8.399 L13.0143,8.399 L13.0143,8.724 C13.0143,9.4 12.9211333,9.88966667 12.7348,10.193 C12.5484667,10.4963333 12.2646333,10.648 11.8833,10.648 Z M18.5926,15.12 C19.6846,15.12 20.4884333,14.8296667 21.0041,14.249 C21.5197667,13.6683333 21.7776,12.8363333 21.7776,11.753 L21.7776,11.753 L21.7776,4.889 L20.2696,4.889 L20.1266,5.799 L20.0356,5.799 C19.8276,5.42633333 19.5914333,5.15983333 19.3271,4.9995 C19.0627667,4.83916667 18.7442667,4.759 18.3716,4.759 C17.6522667,4.759 17.0911,5.084 16.6881,5.734 C16.2851,6.384 16.0836,7.29833333 16.0836,8.477 C16.0836,9.62966667 16.2807667,10.5266667 16.6751,11.168 C17.0694333,11.8093333 17.6176,12.13 18.3196,12.13 C18.6922667,12.13 19.0172667,12.0455 19.2946,11.8765 C19.5719333,11.7075 19.8146,11.4366667 20.0226,11.064 L20.0226,11.064 L20.0746,11.064 C20.0572667,11.2113333 20.0442667,11.3781667 20.0356,11.5645 C20.0269333,11.7508333 20.0226,11.9133333 20.0226,12.052 L20.0226,12.052 L20.0226,12.182 C20.0226,12.7193333 19.8969333,13.1028333 19.6456,13.3325 C19.3942667,13.5621667 19.0432667,13.677 18.5926,13.677 C17.8732667,13.677 17.1539333,13.4993333 16.4346,13.144 L16.4346,13.144 L16.4346,14.652 C17.0586,14.964 17.7779333,15.12 18.5926,15.12 Z M18.9306,10.648 C18.2286,10.648 17.8776,9.933 17.8776,8.503 C17.8776,7.01233333 18.2199333,6.267 18.9046,6.267 C19.3032667,6.267 19.5957667,6.43383333 19.7821,6.7675 C19.9684333,7.10116667 20.0616,7.645 20.0616,8.399 L20.0616,8.399 L20.0616,8.724 C20.0616,9.4 19.9684333,9.88966667 19.7821,10.193 C19.5957667,10.4963333 19.3119333,10.648 18.9306,10.648 Z M24.3269,4.018 C24.6302333,4.018 24.8664,3.94 25.0354,3.784 C25.2044,3.628 25.2889,3.38966667 25.2889,3.069 C25.2889,2.42766667 24.9682333,2.107 24.3269,2.107 C24.0235667,2.107 23.7874,2.18283333 23.6184,2.3345 C23.4494,2.48616667 23.3649,2.731 23.3649,3.069 C23.3649,3.38966667 23.4515667,3.628 23.6249,3.784 C23.7982333,3.94 24.0322333,4.018 24.3269,4.018 Z M25.2109,12 L25.2109,4.889 L23.4429,4.889 L23.4429,12 L25.2109,12 Z" id="x-labels-1"></path>
			<path d="M122.769,12.13 C123.375667,12.13 123.897833,12.013 124.3355,11.779 C124.773167,11.545 125.111167,11.2156667 125.3495,10.791 C125.587833,10.3663333 125.707,9.87666667 125.707,9.322 C125.707,8.68066667 125.5445,8.1585 125.2195,7.7555 C124.8945,7.3525 124.424333,6.982 123.809,6.644 C123.445,6.44466667 123.156833,6.2735 122.9445,6.1305 C122.732167,5.9875 122.582667,5.838 122.496,5.682 C122.409333,5.526 122.366,5.33966667 122.366,5.123 C122.366,4.85433333 122.452667,4.6355 122.626,4.4665 C122.799333,4.2975 123.046333,4.213 123.367,4.213 C123.635667,4.213 123.913,4.2585 124.199,4.3495 C124.485,4.4405 124.797,4.577 125.135,4.759 L125.135,4.759 L125.681,3.186 C125.299667,2.99533333 124.916167,2.848 124.5305,2.744 C124.144833,2.64 123.748333,2.588 123.341,2.588 C122.465667,2.57933333 121.778833,2.81333333 121.2805,3.29 C120.782167,3.76666667 120.537333,4.408 120.546,5.214 C120.546,5.72533333 120.632667,6.14783333 120.806,6.4815 C120.979333,6.81516667 121.211167,7.09466667 121.5015,7.32 C121.791833,7.54533333 122.106,7.75333333 122.444,7.944 C122.964,8.23866667 123.330167,8.49 123.5425,8.698 C123.754833,8.906 123.861,9.166 123.861,9.478 C123.861,9.764 123.772167,10.0045 123.5945,10.1995 C123.416833,10.3945 123.137333,10.492 122.756,10.492 C122.392,10.492 122.012833,10.427 121.6185,10.297 C121.224167,10.167 120.840667,9.998 120.468,9.79 L120.468,9.79 L120.468,11.61 C120.823333,11.8006667 121.191667,11.935 121.573,12.013 C121.954333,12.091 122.353,12.13 122.769,12.13 Z M130.210506,12 L132.368506,4.889 L130.535506,4.889 L129.521506,8.802 C129.452173,9.07933333 129.398006,9.33933333 129.359006,9.582 C129.320006,9.82466667 129.296173,10.0456667 129.287506,10.245 L129.287506,10.245 L129.235506,10.245 C129.209506,9.99366667 129.177006,9.74233333 129.138006,9.491 C129.099006,9.23966667 129.044839,8.98833333 128.975506,8.737 L128.975506,8.737 L128.000506,4.889 L126.167506,4.889 L128.325506,12 L130.210506,12 Z M134.116012,4.018 C134.419345,4.018 134.655512,3.94 134.824512,3.784 C134.993512,3.628 135.078012,3.38966667 135.078012,3.069 C135.078012,2.42766667 134.757345,2.107 134.116012,2.107 C133.812678,2.107 133.576512,2.18283333 133.407512,2.3345 C133.238512,2.48616667 133.154012,2.731 133.154012,3.069 C133.154012,3.38966667 133.240678,3.628 133.414012,3.784 C133.587345,3.94 133.821345,4.018 134.116012,4.018 Z M135.000012,12 L135.000012,4.889 L133.232012,4.889 L133.232012,12 L135.000012,12 Z M138.398518,12 L138.398518,2.12 L136.643518,2.12 L136.643518,12 L138.398518,12 Z M142.096024,12.13 C142.477357,12.13 142.81969,12.0433333 143.123024,11.87 C143.426357,11.6966667 143.669024,11.4366667 143.851024,11.09 L143.851024,11.09 L143.942024,11.09 L144.163024,12 L145.528024,12 L145.528024,4.889 L143.773024,4.889 L143.773024,8.425 C143.773024,9.127 143.695024,9.6665 143.539024,10.0435 C143.383024,10.4205 143.071024,10.609 142.603024,10.609 C142.308357,10.609 142.09819,10.4768333 141.972524,10.2125 C141.846857,9.94816667 141.784024,9.556 141.784024,9.036 L141.784024,9.036 L141.784024,4.889 L140.016024,4.889 L140.016024,9.53 C140.016024,10.3793333 140.195857,11.025 140.555524,11.467 C140.91519,11.909 141.42869,12.13 142.096024,12.13 Z M148.926529,15.12 L148.926529,12.273 C148.926529,12.1256667 148.922196,11.9566667 148.913529,11.766 C148.904863,11.5753333 148.887529,11.3586667 148.861529,11.116 L148.861529,11.116 L148.939529,11.116 C149.121529,11.4453333 149.351196,11.6966667 149.628529,11.87 C149.905863,12.0433333 150.235196,12.13 150.616529,12.13 C151.309863,12.13 151.858029,11.8071667 152.261029,11.1615 C152.664029,10.5158333 152.865529,9.61233333 152.865529,8.451 C152.865529,7.26366667 152.666196,6.3515 152.267529,5.7145 C151.868863,5.0775 151.314196,4.759 150.603529,4.759 C150.230863,4.759 149.912363,4.8435 149.648029,5.0125 C149.383696,5.1815 149.147529,5.45233333 148.939529,5.825 L148.939529,5.825 L148.848529,5.825 L148.588529,4.889 L147.171529,4.889 L147.171529,15.12 L148.926529,15.12 Z M150.044529,10.635 C149.645863,10.635 149.359863,10.466 149.186529,10.128 C149.013196,9.79 148.926529,9.27 148.926529,8.568 L148.926529,8.568 L148.926529,8.256 C148.935196,7.554 149.024029,7.0405 149.193029,6.7155 C149.362029,6.3905 149.645863,6.228 150.044529,6.228 C150.729196,6.228 151.071529,6.97333333 151.071529,8.464 C151.071529,9.91133333 150.729196,10.635 150.044529,10.635 Z M155.952035,15.12 L155.952035,12.273 C155.952035,12.1256667 155.947702,11.9566667 155.939035,11.766 C155.930369,11.5753333 155.913035,11.3586667 155.887035,11.116 L155.887035,11.116 L155.965035,11.116 C156.147035,11.4453333 156.376702,11.6966667 156.654035,11.87 C156.931369,12.0433333 157.260702,12.13 157.642035,12.13 C158.335369,12.13 158.883535,11.8071667 159.286535,11.1615 C159.689535,10.5158333 159.891035,9.61233333 159.891035,8.451 C159.891035,7.26366667 159.691702,6.3515 159.293035,5.7145 C158.894369,5.0775 158.339702,4.759 157.629035,4.759 C157.256369,4.759 156.937869,4.8435 156.673535,5.0125 C156.409202,5.1815 156.173035,5.45233333 155.965035,5.825 L155.965035,5.825 L155.874035,5.825 L155.614035,4.889 L154.197035,4.889 L154.197035,15.12 L155.952035,15.12 Z M157.070035,10.635 C156.671369,10.635 156.385369,10.466 156.212035,10.128 C156.038702,9.79 155.952035,9.27 155.952035,8.568 L155.952035,8.568 L155.952035,8.256 C155.960702,7.554 156.049535,7.0405 156.218535,6.7155 C156.387535,6.3905 156.671369,6.228 157.070035,6.228 C157.754702,6.228 158.097035,6.97333333 158.097035,8.464 C158.097035,9.91133333 157.754702,10.635 157.070035,10.635 Z M163.809541,12.13 C164.485541,12.13 165.040208,11.9675 165.473541,11.6425 C165.906875,11.3175 166.229708,10.8755 166.442041,10.3165 C166.654375,9.7575 166.760541,9.127 166.760541,8.425 C166.760541,7.24633333 166.494041,6.34066667 165.961041,5.708 C165.428041,5.07533333 164.723875,4.759 163.848541,4.759 C163.181208,4.759 162.630875,4.91283333 162.197541,5.2205 C161.764208,5.52816667 161.441375,5.955 161.229041,6.501 C161.016708,7.047 160.910541,7.68833333 160.910541,8.425 C160.910541,9.127 161.021041,9.7575 161.242041,10.3165 C161.463041,10.8755 161.790208,11.3175 162.223541,11.6425 C162.656875,11.9675 163.185541,12.13 163.809541,12.13 Z M163.835541,10.661 C163.436875,10.661 163.148708,10.4746667 162.971041,10.102 C162.793375,9.72933333 162.704541,9.179 162.704541,8.451 C162.704541,7.70566667 162.793375,7.14883333 162.971041,6.7805 C163.148708,6.41216667 163.436875,6.228 163.835541,6.228 C164.234208,6.228 164.520208,6.41 164.693541,6.774 C164.866875,7.138 164.953541,7.68833333 164.953541,8.425 C164.953541,9.17033333 164.866875,9.72933333 164.693541,10.102 C164.520208,10.4746667 164.234208,10.661 163.835541,10.661 Z M172.686553,12.13 C173.08522,12.13 173.41022,12.0476667 173.661553,11.883 C173.912886,11.7183333 174.142553,11.4843333 174.350553,11.181 L174.350553,11.181 L174.441553,11.181 L174.714553,12 L176.105553,12 L176.105553,2.12 L174.350553,2.12 L174.350553,4.538 C174.350553,4.71133333 174.35922,4.9085 174.376553,5.1295 C174.393886,5.3505 174.41122,5.57366667 174.428553,5.799 L174.428553,5.799 L174.363553,5.799 C174.172886,5.46966667 173.93672,5.214 173.655053,5.032 C173.373386,4.85 173.041886,4.759 172.660553,4.759 C171.96722,4.759 171.419053,5.07966667 171.016053,5.721 C170.613053,6.36233333 170.411553,7.27233333 170.411553,8.451 C170.411553,9.621 170.613053,10.5266667 171.016053,11.168 C171.419053,11.8093333 171.975886,12.13 172.686553,12.13 Z M173.245553,10.674 C172.543553,10.674 172.192553,9.92866667 172.192553,8.438 C172.192553,7.72733333 172.281386,7.18783333 172.459053,6.8195 C172.63672,6.45116667 172.894553,6.267 173.232553,6.267 C173.648553,6.267 173.945386,6.436 174.123053,6.774 C174.30072,7.112 174.389553,7.62766667 174.389553,8.321 L174.389553,8.321 L174.389553,8.672 C174.380886,9.35666667 174.28772,9.8615 174.110053,10.1865 C173.932386,10.5115 173.64422,10.674 173.245553,10.674 Z M180.466059,12.13 C180.899392,12.13 181.285059,12.091 181.623059,12.013 C181.961059,11.935 182.281725,11.8093333 182.585059,11.636 L182.585059,11.636 L182.585059,10.206 C182.255725,10.3966667 181.939392,10.531 181.636059,10.609 C181.332725,10.687 181.007725,10.726 180.661059,10.726 C179.699059,10.726 179.209392,10.128 179.192059,8.932 L179.192059,8.932 L182.936059,8.932 L182.936059,7.983 C182.936059,6.98633333 182.699892,6.202 182.227559,5.63 C181.755225,5.058 181.094392,4.772 180.245059,4.772 C179.352392,4.772 178.661225,5.08833333 178.171559,5.721 C177.681892,6.35366667 177.437059,7.27666667 177.437059,8.49 C177.437059,9.65133333 177.690559,10.5483333 178.197559,11.181 C178.704559,11.8136667 179.460725,12.13 180.466059,12.13 Z M181.285059,7.684 L179.205059,7.684 C179.222392,7.12933333 179.328559,6.7285 179.523559,6.4815 C179.718559,6.2345 179.967725,6.111 180.271059,6.111 C180.600392,6.111 180.851725,6.254 181.025059,6.54 C181.198392,6.826 181.285059,7.20733333 181.285059,7.684 L181.285059,7.684 Z M185.970565,12 L185.970565,2.12 L184.215565,2.12 L184.215565,12 L185.970565,12 Z M192.013576,12 L192.013576,8.62 C192.013576,7.85733333 192.08941,7.27666667 192.241076,6.878 C192.392743,6.47933333 192.676576,6.28 193.092576,6.28 C193.621243,6.28 193.885576,6.79133333 193.885576,7.814 L193.885576,7.814 L193.885576,12 L195.653576,12 L195.653576,8.412 C195.653576,7.70133333 195.731576,7.16833333 195.887576,6.813 C196.043576,6.45766667 196.316576,6.28 196.706576,6.28 C197.252576,6.28 197.525576,6.79566667 197.525576,7.827 L197.525576,7.827 L197.525576,12 L199.280576,12 L199.280576,7.333 C199.280576,6.45766667 199.113743,5.80983333 198.780076,5.3895 C198.44641,4.96916667 197.950243,4.759 197.291576,4.759 C196.47691,4.759 195.896243,5.10133333 195.549576,5.786 L195.549576,5.786 L195.419576,5.786 C195.28091,5.474 195.07291,5.22483333 194.795576,5.0385 C194.518243,4.85216667 194.158576,4.759 193.716576,4.759 C193.31791,4.759 192.962576,4.84566667 192.650576,5.019 C192.338576,5.19233333 192.104576,5.45233333 191.948576,5.799 L191.948576,5.799 L191.844576,5.799 L191.636576,4.889 L190.258576,4.889 L190.258576,12 L192.013576,12 Z M203.615082,12.13 C204.048416,12.13 204.434082,12.091 204.772082,12.013 C205.110082,11.935 205.430749,11.8093333 205.734082,11.636 L205.734082,11.636 L205.734082,10.206 C205.404749,10.3966667 205.088416,10.531 204.785082,10.609 C204.481749,10.687 204.156749,10.726 203.810082,10.726 C202.848082,10.726 202.358416,10.128 202.341082,8.932 L202.341082,8.932 L206.085082,8.932 L206.085082,7.983 C206.085082,6.98633333 205.848916,6.202 205.376582,5.63 C204.904249,5.058 204.243416,4.772 203.394082,4.772 C202.501416,4.772 201.810249,5.08833333 201.320582,5.721 C200.830916,6.35366667 200.586082,7.27666667 200.586082,8.49 C200.586082,9.65133333 200.839582,10.5483333 201.346582,11.181 C201.853582,11.8136667 202.609749,12.13 203.615082,12.13 Z M204.434082,7.684 L202.354082,7.684 C202.371416,7.12933333 202.477582,6.7285 202.672582,6.4815 C202.867582,6.2345 203.116749,6.111 203.420082,6.111 C203.749416,6.111 204.000749,6.254 204.174082,6.54 C204.347416,6.826 204.434082,7.20733333 204.434082,7.684 L204.434082,7.684 Z M209.132588,12 L209.132588,8.373 C209.132588,7.79233333 209.264755,7.346 209.529088,7.034 C209.793422,6.722 210.142255,6.566 210.575588,6.566 C210.818255,6.566 211.017588,6.59633333 211.173588,6.657 L211.173588,6.657 L211.316588,4.837 C211.108588,4.785 210.909255,4.759 210.718588,4.759 C210.337255,4.759 210.005755,4.89116667 209.724088,5.1555 C209.442422,5.41983333 209.219255,5.72533333 209.054588,6.072 L209.054588,6.072 L208.976588,6.072 L208.716588,4.889 L207.364588,4.889 L207.364588,12 L209.132588,12 Z M214.663094,12.13 C215.365094,12.13 215.958761,11.9523333 216.444094,11.597 L216.444094,11.597 L216.444094,10.089 C216.192761,10.2623333 215.934927,10.3966667 215.670594,10.492 C215.406261,10.5873333 215.126761,10.635 214.832094,10.635 C214.008761,10.635 213.597094,9.91566667 213.597094,8.477 C213.597094,6.995 214.004427,6.254 214.819094,6.254 C215.027094,6.254 215.237261,6.28866667 215.449594,6.358 C215.661927,6.42733333 215.880761,6.51833333 216.106094,6.631 L216.106094,6.631 L216.613094,5.24 C216.361761,5.09266667 216.082261,4.97566667 215.774594,4.889 C215.466927,4.80233333 215.118094,4.759 214.728094,4.759 C213.766094,4.759 213.038094,5.09266667 212.544094,5.76 C212.050094,6.42733333 211.803094,7.333 211.803094,8.477 C211.803094,9.725 212.043594,10.6458333 212.524594,11.2395 C213.005594,11.8331667 213.718427,12.13 214.663094,12.13 Z M219.1796,12.13 C219.656267,12.13 220.035433,12.0433333 220.3171,11.87 C220.598767,11.6966667 220.865267,11.4236667 221.1166,11.051 L221.1166,11.051 L221.1556,11.051 L221.4546,12 L222.7286,12 L222.7286,7.281 C222.7286,6.44033333 222.5271,5.80983333 222.1241,5.3895 C221.7211,4.96916667 221.133933,4.759 220.3626,4.759 C219.4526,4.759 218.650933,4.96266667 217.9576,5.37 L217.9576,5.37 L218.4776,6.644 C218.772267,6.47933333 219.053933,6.35583333 219.3226,6.2735 C219.591267,6.19116667 219.846933,6.15 220.0896,6.15 C220.678933,6.15 220.9736,6.527 220.9736,7.281 L220.9736,7.281 L220.9736,7.567 L219.9856,7.606 C219.136267,7.64066667 218.488433,7.84433333 218.0421,8.217 C217.595767,8.58966667 217.3726,9.14866667 217.3726,9.894 C217.3726,10.5266667 217.524267,11.0575 217.8276,11.4865 C218.130933,11.9155 218.5816,12.13 219.1796,12.13 Z M219.8816,10.752 C219.656267,10.752 219.4786,10.6805 219.3486,10.5375 C219.2186,10.3945 219.1536,10.1626667 219.1536,9.842 C219.1536,9.49533333 219.253267,9.22666667 219.4526,9.036 C219.651933,8.84533333 219.968267,8.74133333 220.4016,8.724 L220.4016,8.724 L220.9736,8.698 L220.9736,9.335 C220.9736,9.777 220.8696,10.1236667 220.6616,10.375 C220.4536,10.6263333 220.1936,10.752 219.8816,10.752 Z M226.361106,12.13 C226.647106,12.13 226.913606,12.0996667 227.160606,12.039 C227.407606,11.9783333 227.630773,11.9003333 227.830106,11.805 L227.830106,11.805 L227.830106,10.427 C227.509439,10.557 227.201773,10.622 226.907106,10.622 C226.465106,10.622 226.244106,10.349 226.244106,9.803 L226.244106,9.803 L226.244106,6.306 L227.739106,6.306 L227.739106,4.889 L226.244106,4.889 L226.244106,3.394 L225.074106,3.394 L224.619106,4.928 L223.722106,5.435 L223.722106,6.306 L224.489106,6.306 L224.489106,9.855 C224.489106,10.661 224.647273,11.2416667 224.963606,11.597 C225.279939,11.9523333 225.745773,12.13 226.361106,12.13 Z M231.514612,12.13 C232.190612,12.13 232.745278,11.9675 233.178612,11.6425 C233.611945,11.3175 233.934778,10.8755 234.147112,10.3165 C234.359445,9.7575 234.465612,9.127 234.465612,8.425 C234.465612,7.24633333 234.199112,6.34066667 233.666112,5.708 C233.133112,5.07533333 232.428945,4.759 231.553612,4.759 C230.886278,4.759 230.335945,4.91283333 229.902612,5.2205 C229.469278,5.52816667 229.146445,5.955 228.934112,6.501 C228.721778,7.047 228.615612,7.68833333 228.615612,8.425 C228.615612,9.127 228.726112,9.7575 228.947112,10.3165 C229.168112,10.8755 229.495278,11.3175 229.928612,11.6425 C230.361945,11.9675 230.890612,12.13 231.514612,12.13 Z M231.540612,10.661 C231.141945,10.661 230.853778,10.4746667 230.676112,10.102 C230.498445,9.72933333 230.409612,9.179 230.409612,8.451 C230.409612,7.70566667 230.498445,7.14883333 230.676112,6.7805 C230.853778,6.41216667 231.141945,6.228 231.540612,6.228 C231.939278,6.228 232.225278,6.41 232.398612,6.774 C232.571945,7.138 232.658612,7.68833333 232.658612,8.425 C232.658612,9.17033333 232.571945,9.72933333 232.398612,10.102 C232.225278,10.4746667 231.939278,10.661 231.540612,10.661 Z" id="x-labels-2"></path>
			<path d="M323.25,12 C324.567333,12 325.581333,11.5905 326.292,10.7715 C327.002667,9.9525 327.358,8.76733333 327.358,7.216 C327.358,5.75133333 327.011333,4.6355 326.318,3.8685 C325.624667,3.1015 324.662667,2.718 323.432,2.718 L323.432,2.718 L320.936,2.718 L320.936,12 L323.25,12 Z M323.302,10.414 L322.769,10.414 L322.769,4.278 L323.445,4.278 C324.103667,4.278 324.604167,4.52066667 324.9465,5.006 C325.288833,5.49133333 325.46,6.24966667 325.46,7.281 C325.46,8.33833333 325.2845,9.12483333 324.9335,9.6405 C324.5825,10.1561667 324.038667,10.414 323.302,10.414 L323.302,10.414 Z M331.384941,12.13 C332.060941,12.13 332.615608,11.9675 333.048941,11.6425 C333.482275,11.3175 333.805108,10.8755 334.017441,10.3165 C334.229775,9.7575 334.335941,9.127 334.335941,8.425 C334.335941,7.24633333 334.069441,6.34066667 333.536441,5.708 C333.003441,5.07533333 332.299275,4.759 331.423941,4.759 C330.756608,4.759 330.206275,4.91283333 329.772941,5.2205 C329.339608,5.52816667 329.016775,5.955 328.804441,6.501 C328.592108,7.047 328.485941,7.68833333 328.485941,8.425 C328.485941,9.127 328.596441,9.7575 328.817441,10.3165 C329.038441,10.8755 329.365608,11.3175 329.798941,11.6425 C330.232275,11.9675 330.760941,12.13 331.384941,12.13 Z M331.410941,10.661 C331.012275,10.661 330.724108,10.4746667 330.546441,10.102 C330.368775,9.72933333 330.279941,9.179 330.279941,8.451 C330.279941,7.70566667 330.368775,7.14883333 330.546441,6.7805 C330.724108,6.41216667 331.012275,6.228 331.410941,6.228 C331.809608,6.228 332.095608,6.41 332.268941,6.774 C332.442275,7.138 332.528941,7.68833333 332.528941,8.425 C332.528941,9.17033333 332.442275,9.72933333 332.268941,10.102 C332.095608,10.4746667 331.809608,10.661 331.410941,10.661 Z M337.413882,12 L337.413882,8.62 C337.413882,7.85733333 337.489716,7.27666667 337.641382,6.878 C337.793049,6.47933333 338.076882,6.28 338.492882,6.28 C339.021549,6.28 339.285882,6.79133333 339.285882,7.814 L339.285882,7.814 L339.285882,12 L341.053882,12 L341.053882,8.412 C341.053882,7.70133333 341.131882,7.16833333 341.287882,6.813 C341.443882,6.45766667 341.716882,6.28 342.106882,6.28 C342.652882,6.28 342.925882,6.79566667 342.925882,7.827 L342.925882,7.827 L342.925882,12 L344.680882,12 L344.680882,7.333 C344.680882,6.45766667 344.514049,5.80983333 344.180382,5.3895 C343.846716,4.96916667 343.350549,4.759 342.691882,4.759 C341.877216,4.759 341.296549,5.10133333 340.949882,5.786 L340.949882,5.786 L340.819882,5.786 C340.681216,5.474 340.473216,5.22483333 340.195882,5.0385 C339.918549,4.85216667 339.558882,4.759 339.116882,4.759 C338.718216,4.759 338.362882,4.84566667 338.050882,5.019 C337.738882,5.19233333 337.504882,5.45233333 337.348882,5.799 L337.348882,5.799 L337.244882,5.799 L337.036882,4.889 L335.658882,4.889 L335.658882,12 L337.413882,12 Z M347.719824,12.13 C348.19649,12.13 348.575657,12.0433333 348.857324,11.87 C349.13899,11.6966667 349.40549,11.4236667 349.656824,11.051 L349.656824,11.051 L349.695824,11.051 L349.994824,12 L351.268824,12 L351.268824,7.281 C351.268824,6.44033333 351.067324,5.80983333 350.664324,5.3895 C350.261324,4.96916667 349.674157,4.759 348.902824,4.759 C347.992824,4.759 347.191157,4.96266667 346.497824,5.37 L346.497824,5.37 L347.017824,6.644 C347.31249,6.47933333 347.594157,6.35583333 347.862824,6.2735 C348.13149,6.19116667 348.387157,6.15 348.629824,6.15 C349.219157,6.15 349.513824,6.527 349.513824,7.281 L349.513824,7.281 L349.513824,7.567 L348.525824,7.606 C347.67649,7.64066667 347.028657,7.84433333 346.582324,8.217 C346.13599,8.58966667 345.912824,9.14866667 345.912824,9.894 C345.912824,10.5266667 346.06449,11.0575 346.367824,11.4865 C346.671157,11.9155 347.121824,12.13 347.719824,12.13 Z M348.421824,10.752 C348.19649,10.752 348.018824,10.6805 347.888824,10.5375 C347.758824,10.3945 347.693824,10.1626667 347.693824,9.842 C347.693824,9.49533333 347.79349,9.22666667 347.992824,9.036 C348.192157,8.84533333 348.50849,8.74133333 348.941824,8.724 L348.941824,8.724 L349.513824,8.698 L349.513824,9.335 C349.513824,9.777 349.409824,10.1236667 349.201824,10.375 C348.993824,10.6263333 348.733824,10.752 348.421824,10.752 Z M354.645765,12 L354.645765,8.607 C354.645765,7.78366667 354.728098,7.19 354.892765,6.826 C355.057431,6.462 355.356431,6.28 355.789765,6.28 C356.101765,6.28 356.320598,6.41 356.446265,6.67 C356.571931,6.93 356.634765,7.31133333 356.634765,7.814 L356.634765,7.814 L356.634765,12 L358.402765,12 L358.402765,7.32 C358.402765,6.47066667 358.218598,5.8315 357.850265,5.4025 C357.481931,4.9735 356.977098,4.759 356.335765,4.759 C355.954431,4.759 355.609931,4.84566667 355.302265,5.019 C354.994598,5.19233333 354.754098,5.45233333 354.580765,5.799 L354.580765,5.799 L354.476765,5.799 L354.268765,4.889 L352.890765,4.889 L352.890765,12 L354.645765,12 Z M360.908706,4.018 C361.212039,4.018 361.448206,3.94 361.617206,3.784 C361.786206,3.628 361.870706,3.38966667 361.870706,3.069 C361.870706,2.42766667 361.550039,2.107 360.908706,2.107 C360.605373,2.107 360.369206,2.18283333 360.200206,2.3345 C360.031206,2.48616667 359.946706,2.731 359.946706,3.069 C359.946706,3.38966667 360.033373,3.628 360.206706,3.784 C360.380039,3.94 360.614039,4.018 360.908706,4.018 Z M361.792706,12 L361.792706,4.889 L360.024706,4.889 L360.024706,12 L361.792706,12 Z" id="x-labels-3"></path>
		</g>
		<g id="y-labels" transform="translate(16.000000, 62.000000)" fill="#5C5C5B" fill-rule="nonzero">
			<path d="M3.57917647,214 L3.57917647,209.359 C3.57917647,209.038333 3.56834314,208.661333 3.54667647,208.228 C3.5250098,207.794667 3.50117647,207.391667 3.47517647,207.019 L3.47517647,207.019 L3.52717647,207.019 L5.49017647,214 L6.99817647,214 L9.01317647,207.032 L9.06517647,207.032 C9.03917647,207.396 9.01967647,207.786 9.00667647,208.202 C8.99367647,208.618 8.98717647,208.990667 8.98717647,209.32 L8.98717647,209.32 L8.98717647,214 L10.7291765,214 L10.7291765,204.718 L8.20717647,204.718 L6.30917647,211.296 L6.27017647,211.296 L4.41117647,204.718 L1.88917647,204.718 L1.88917647,214 L3.57917647,214 Z M15.0861647,214.13 C15.7621647,214.13 16.3168314,213.9675 16.7501647,213.6425 C17.183498,213.3175 17.5063314,212.8755 17.7186647,212.3165 C17.930998,211.7575 18.0371647,211.127 18.0371647,210.425 C18.0371647,209.246333 17.7706647,208.340667 17.2376647,207.708 C16.7046647,207.075333 16.000498,206.759 15.1251647,206.759 C14.4578314,206.759 13.907498,206.912833 13.4741647,207.2205 C13.0408314,207.528167 12.717998,207.955 12.5056647,208.501 C12.2933314,209.047 12.1871647,209.688333 12.1871647,210.425 C12.1871647,211.127 12.2976647,211.7575 12.5186647,212.3165 C12.7396647,212.8755 13.0668314,213.3175 13.5001647,213.6425 C13.933498,213.9675 14.4621647,214.13 15.0861647,214.13 Z M15.1121647,212.661 C14.713498,212.661 14.4253314,212.474667 14.2476647,212.102 C14.069998,211.729333 13.9811647,211.179 13.9811647,210.451 C13.9811647,209.705667 14.069998,209.148833 14.2476647,208.7805 C14.4253314,208.412167 14.713498,208.228 15.1121647,208.228 C15.5108314,208.228 15.7968314,208.41 15.9701647,208.774 C16.143498,209.138 16.2301647,209.688333 16.2301647,210.425 C16.2301647,211.170333 16.143498,211.729333 15.9701647,212.102 C15.7968314,212.474667 15.5108314,212.661 15.1121647,212.661 Z M21.1331529,214 L21.1331529,210.607 C21.1331529,209.783667 21.2154863,209.19 21.3801529,208.826 C21.5448196,208.462 21.8438196,208.28 22.2771529,208.28 C22.5891529,208.28 22.8079863,208.41 22.9336529,208.67 C23.0593196,208.93 23.1221529,209.311333 23.1221529,209.814 L23.1221529,209.814 L23.1221529,214 L24.8901529,214 L24.8901529,209.32 C24.8901529,208.470667 24.7059863,207.8315 24.3376529,207.4025 C23.9693196,206.9735 23.4644863,206.759 22.8231529,206.759 C22.4418196,206.759 22.0973196,206.845667 21.7896529,207.019 C21.4819863,207.192333 21.2414863,207.452333 21.0681529,207.799 L21.0681529,207.799 L20.9641529,207.799 L20.7561529,206.889 L19.3781529,206.889 L19.3781529,214 L21.1331529,214 Z M28.4931412,214.13 C28.8918078,214.13 29.2168078,214.047667 29.4681412,213.883 C29.7194745,213.718333 29.9491412,213.484333 30.1571412,213.181 L30.1571412,213.181 L30.2481412,213.181 L30.5211412,214 L31.9121412,214 L31.9121412,204.12 L30.1571412,204.12 L30.1571412,206.538 C30.1571412,206.711333 30.1658078,206.9085 30.1831412,207.1295 C30.2004745,207.3505 30.2178078,207.573667 30.2351412,207.799 L30.2351412,207.799 L30.1701412,207.799 C29.9794745,207.469667 29.7433078,207.214 29.4616412,207.032 C29.1799745,206.85 28.8484745,206.759 28.4671412,206.759 C27.7738078,206.759 27.2256412,207.079667 26.8226412,207.721 C26.4196412,208.362333 26.2181412,209.272333 26.2181412,210.451 C26.2181412,211.621 26.4196412,212.526667 26.8226412,213.168 C27.2256412,213.809333 27.7824745,214.13 28.4931412,214.13 Z M29.0521412,212.674 C28.3501412,212.674 27.9991412,211.928667 27.9991412,210.438 C27.9991412,209.727333 28.0879745,209.187833 28.2656412,208.8195 C28.4433078,208.451167 28.7011412,208.267 29.0391412,208.267 C29.4551412,208.267 29.7519745,208.436 29.9296412,208.774 C30.1073078,209.112 30.1961412,209.627667 30.1961412,210.321 L30.1961412,210.321 L30.1961412,210.672 C30.1874745,211.356667 30.0943078,211.8615 29.9166412,212.1865 C29.7389745,212.5115 29.4508078,212.674 29.0521412,212.674 Z M36.1651294,214.13 C36.8411294,214.13 37.3957961,213.9675 37.8291294,213.6425 C38.2624627,213.3175 38.5852961,212.8755 38.7976294,212.3165 C39.0099627,211.7575 39.1161294,211.127 39.1161294,210.425 C39.1161294,209.246333 38.8496294,208.340667 38.3166294,207.708 C37.7836294,207.075333 37.0794627,206.759 36.2041294,206.759 C35.5367961,206.759 34.9864627,206.912833 34.5531294,207.2205 C34.1197961,207.528167 33.7969627,207.955 33.5846294,208.501 C33.3722961,209.047 33.2661294,209.688333 33.2661294,210.425 C33.2661294,211.127 33.3766294,211.7575 33.5976294,212.3165 C33.8186294,212.8755 34.1457961,213.3175 34.5791294,213.6425 C35.0124627,213.9675 35.5411294,214.13 36.1651294,214.13 Z M36.1911294,212.661 C35.7924627,212.661 35.5042961,212.474667 35.3266294,212.102 C35.1489627,211.729333 35.0601294,211.179 35.0601294,210.451 C35.0601294,209.705667 35.1489627,209.148833 35.3266294,208.7805 C35.5042961,208.412167 35.7924627,208.228 36.1911294,208.228 C36.5897961,208.228 36.8757961,208.41 37.0491294,208.774 C37.2224627,209.138 37.3091294,209.688333 37.3091294,210.425 C37.3091294,211.170333 37.2224627,211.729333 37.0491294,212.102 C36.8757961,212.474667 36.5897961,212.661 36.1911294,212.661 Z M44.5411059,214.13 C45.0177725,214.13 45.3969392,214.043333 45.6786059,213.87 C45.9602725,213.696667 46.2267725,213.423667 46.4781059,213.051 L46.4781059,213.051 L46.5171059,213.051 L46.8161059,214 L48.0901059,214 L48.0901059,209.281 C48.0901059,208.440333 47.8886059,207.809833 47.4856059,207.3895 C47.0826059,206.969167 46.4954392,206.759 45.7241059,206.759 C44.8141059,206.759 44.0124392,206.962667 43.3191059,207.37 L43.3191059,207.37 L43.8391059,208.644 C44.1337725,208.479333 44.4154392,208.355833 44.6841059,208.2735 C44.9527725,208.191167 45.2084392,208.15 45.4511059,208.15 C46.0404392,208.15 46.3351059,208.527 46.3351059,209.281 L46.3351059,209.281 L46.3351059,209.567 L45.3471059,209.606 C44.4977725,209.640667 43.8499392,209.844333 43.4036059,210.217 C42.9572725,210.589667 42.7341059,211.148667 42.7341059,211.894 C42.7341059,212.526667 42.8857725,213.0575 43.1891059,213.4865 C43.4924392,213.9155 43.9431059,214.13 44.5411059,214.13 Z M45.2431059,212.752 C45.0177725,212.752 44.8401059,212.6805 44.7101059,212.5375 C44.5801059,212.3945 44.5151059,212.162667 44.5151059,211.842 C44.5151059,211.495333 44.6147725,211.226667 44.8141059,211.036 C45.0134392,210.845333 45.3297725,210.741333 45.7631059,210.724 L45.7631059,210.724 L46.3351059,210.698 L46.3351059,211.335 C46.3351059,211.777 46.2311059,212.123667 46.0231059,212.375 C45.8151059,212.626333 45.5551059,212.752 45.2431059,212.752 Z M51.4850941,214 L51.4850941,210.607 C51.4850941,209.783667 51.5674275,209.19 51.7320941,208.826 C51.8967608,208.462 52.1957608,208.28 52.6290941,208.28 C52.9410941,208.28 53.1599275,208.41 53.2855941,208.67 C53.4112608,208.93 53.4740941,209.311333 53.4740941,209.814 L53.4740941,209.814 L53.4740941,214 L55.2420941,214 L55.2420941,209.32 C55.2420941,208.470667 55.0579275,207.8315 54.6895941,207.4025 C54.3212608,206.9735 53.8164275,206.759 53.1750941,206.759 C52.7937608,206.759 52.4492608,206.845667 52.1415941,207.019 C51.8339275,207.192333 51.5934275,207.452333 51.4200941,207.799 L51.4200941,207.799 L51.3160941,207.799 L51.1080941,206.889 L49.7300941,206.889 L49.7300941,214 L51.4850941,214 Z M58.2990824,214.13 C58.775749,214.13 59.1549157,214.043333 59.4365824,213.87 C59.718249,213.696667 59.984749,213.423667 60.2360824,213.051 L60.2360824,213.051 L60.2750824,213.051 L60.5740824,214 L61.8480824,214 L61.8480824,209.281 C61.8480824,208.440333 61.6465824,207.809833 61.2435824,207.3895 C60.8405824,206.969167 60.2534157,206.759 59.4820824,206.759 C58.5720824,206.759 57.7704157,206.962667 57.0770824,207.37 L57.0770824,207.37 L57.5970824,208.644 C57.891749,208.479333 58.1734157,208.355833 58.4420824,208.2735 C58.710749,208.191167 58.9664157,208.15 59.2090824,208.15 C59.7984157,208.15 60.0930824,208.527 60.0930824,209.281 L60.0930824,209.281 L60.0930824,209.567 L59.1050824,209.606 C58.255749,209.640667 57.6079157,209.844333 57.1615824,210.217 C56.715249,210.589667 56.4920824,211.148667 56.4920824,211.894 C56.4920824,212.526667 56.643749,213.0575 56.9470824,213.4865 C57.2504157,213.9155 57.7010824,214.13 58.2990824,214.13 Z M59.0010824,212.752 C58.775749,212.752 58.5980824,212.6805 58.4680824,212.5375 C58.3380824,212.3945 58.2730824,212.162667 58.2730824,211.842 C58.2730824,211.495333 58.372749,211.226667 58.5720824,211.036 C58.7714157,210.845333 59.087749,210.741333 59.5210824,210.724 L59.5210824,210.724 L60.0930824,210.698 L60.0930824,211.335 C60.0930824,211.777 59.9890824,212.123667 59.7810824,212.375 C59.5730824,212.626333 59.3130824,212.752 59.0010824,212.752 Z M65.2430706,214 L65.2430706,204.12 L63.4880706,204.12 L63.4880706,214 L65.2430706,214 Z M69.4960588,214.13 C70.1720588,214.13 70.7267255,213.9675 71.1600588,213.6425 C71.5933922,213.3175 71.9162255,212.8755 72.1285588,212.3165 C72.3408922,211.7575 72.4470588,211.127 72.4470588,210.425 C72.4470588,209.246333 72.1805588,208.340667 71.6475588,207.708 C71.1145588,207.075333 70.4103922,206.759 69.5350588,206.759 C68.8677255,206.759 68.3173922,206.912833 67.8840588,207.2205 C67.4507255,207.528167 67.1278922,207.955 66.9155588,208.501 C66.7032255,209.047 66.5970588,209.688333 66.5970588,210.425 C66.5970588,211.127 66.7075588,211.7575 66.9285588,212.3165 C67.1495588,212.8755 67.4767255,213.3175 67.9100588,213.6425 C68.3433922,213.9675 68.8720588,214.13 69.4960588,214.13 Z M69.5220588,212.661 C69.1233922,212.661 68.8352255,212.474667 68.6575588,212.102 C68.4798922,211.729333 68.3910588,211.179 68.3910588,210.451 C68.3910588,209.705667 68.4798922,209.148833 68.6575588,208.7805 C68.8352255,208.412167 69.1233922,208.228 69.5220588,208.228 C69.9207255,208.228 70.2067255,208.41 70.3800588,208.774 C70.5533922,209.138 70.6400588,209.688333 70.6400588,210.425 C70.6400588,211.170333 70.5533922,211.729333 70.3800588,212.102 C70.2067255,212.474667 69.9207255,212.661 69.5220588,212.661 Z M75.9850471,217.12 C77.0770471,217.12 77.8808804,216.829667 78.3965471,216.249 C78.9122137,215.668333 79.1700471,214.836333 79.1700471,213.753 L79.1700471,213.753 L79.1700471,206.889 L77.6620471,206.889 L77.5190471,207.799 L77.4280471,207.799 C77.2200471,207.426333 76.9838804,207.159833 76.7195471,206.9995 C76.4552137,206.839167 76.1367137,206.759 75.7640471,206.759 C75.0447137,206.759 74.4835471,207.084 74.0805471,207.734 C73.6775471,208.384 73.4760471,209.298333 73.4760471,210.477 C73.4760471,211.629667 73.6732137,212.526667 74.0675471,213.168 C74.4618804,213.809333 75.0100471,214.13 75.7120471,214.13 C76.0847137,214.13 76.4097137,214.0455 76.6870471,213.8765 C76.9643804,213.7075 77.2070471,213.436667 77.4150471,213.064 L77.4150471,213.064 L77.4670471,213.064 C77.4497137,213.211333 77.4367137,213.378167 77.4280471,213.5645 C77.4193804,213.750833 77.4150471,213.913333 77.4150471,214.052 L77.4150471,214.052 L77.4150471,214.182 C77.4150471,214.719333 77.2893804,215.102833 77.0380471,215.3325 C76.7867137,215.562167 76.4357137,215.677 75.9850471,215.677 C75.2657137,215.677 74.5463804,215.499333 73.8270471,215.144 L73.8270471,215.144 L73.8270471,216.652 C74.4510471,216.964 75.1703804,217.12 75.9850471,217.12 Z M76.3230471,212.648 C75.6210471,212.648 75.2700471,211.933 75.2700471,210.503 C75.2700471,209.012333 75.6123804,208.267 76.2970471,208.267 C76.6957137,208.267 76.9882137,208.433833 77.1745471,208.7675 C77.3608804,209.101167 77.4540471,209.645 77.4540471,210.399 L77.4540471,210.399 L77.4540471,210.724 C77.4540471,211.4 77.3608804,211.889667 77.1745471,212.193 C76.9882137,212.496333 76.7043804,212.648 76.3230471,212.648 Z M81.7200353,206.018 C82.0233686,206.018 82.2595353,205.94 82.4285353,205.784 C82.5975353,205.628 82.6820353,205.389667 82.6820353,205.069 C82.6820353,204.427667 82.3613686,204.107 81.7200353,204.107 C81.416702,204.107 81.1805353,204.182833 81.0115353,204.3345 C80.8425353,204.486167 80.7580353,204.731 80.7580353,205.069 C80.7580353,205.389667 80.844702,205.628 81.0180353,205.784 C81.1913686,205.94 81.4253686,206.018 81.7200353,206.018 Z M82.6040353,214 L82.6040353,206.889 L80.8360353,206.889 L80.8360353,214 L82.6040353,214 Z M86.8180235,214.13 C87.5200235,214.13 88.1136902,213.952333 88.5990235,213.597 L88.5990235,213.597 L88.5990235,212.089 C88.3476902,212.262333 88.0898569,212.396667 87.8255235,212.492 C87.5611902,212.587333 87.2816902,212.635 86.9870235,212.635 C86.1636902,212.635 85.7520235,211.915667 85.7520235,210.477 C85.7520235,208.995 86.1593569,208.254 86.9740235,208.254 C87.1820235,208.254 87.3921902,208.288667 87.6045235,208.358 C87.8168569,208.427333 88.0356902,208.518333 88.2610235,208.631 L88.2610235,208.631 L88.7680235,207.24 C88.5166902,207.092667 88.2371902,206.975667 87.9295235,206.889 C87.6218569,206.802333 87.2730235,206.759 86.8830235,206.759 C85.9210235,206.759 85.1930235,207.092667 84.6990235,207.76 C84.2050235,208.427333 83.9580235,209.333 83.9580235,210.477 C83.9580235,211.725 84.1985235,212.645833 84.6795235,213.2395 C85.1605235,213.833167 85.8733569,214.13 86.8180235,214.13 Z M92.5270118,214.13 C93.2030118,214.13 93.7576784,213.9675 94.1910118,213.6425 C94.6243451,213.3175 94.9471784,212.8755 95.1595118,212.3165 C95.3718451,211.7575 95.4780118,211.127 95.4780118,210.425 C95.4780118,209.246333 95.2115118,208.340667 94.6785118,207.708 C94.1455118,207.075333 93.4413451,206.759 92.5660118,206.759 C91.8986784,206.759 91.3483451,206.912833 90.9150118,207.2205 C90.4816784,207.528167 90.1588451,207.955 89.9465118,208.501 C89.7341784,209.047 89.6280118,209.688333 89.6280118,210.425 C89.6280118,211.127 89.7385118,211.7575 89.9595118,212.3165 C90.1805118,212.8755 90.5076784,213.3175 90.9410118,213.6425 C91.3743451,213.9675 91.9030118,214.13 92.5270118,214.13 Z M92.5530118,212.661 C92.1543451,212.661 91.8661784,212.474667 91.6885118,212.102 C91.5108451,211.729333 91.4220118,211.179 91.4220118,210.451 C91.4220118,209.705667 91.5108451,209.148833 91.6885118,208.7805 C91.8661784,208.412167 92.1543451,208.228 92.5530118,208.228 C92.9516784,208.228 93.2376784,208.41 93.4110118,208.774 C93.5843451,209.138 93.6710118,209.688333 93.6710118,210.425 C93.6710118,211.170333 93.5843451,211.729333 93.4110118,212.102 C93.2376784,212.474667 92.9516784,212.661 92.5530118,212.661 Z" id="y-labels-1"></path>
			<path d="M42.7107059,114 L42.7107059,112.427 L40.0197059,112.427 L40.0197059,109.957 L42.5157059,109.957 L42.5157059,108.41 L40.0197059,108.41 L40.0197059,106.265 L42.7107059,106.265 L42.7107059,104.718 L38.1867059,104.718 L38.1867059,114 L42.7107059,114 Z M47.3922353,114 L49.5502353,106.889 L47.7172353,106.889 L46.7032353,110.802 C46.633902,111.079333 46.5797353,111.339333 46.5407353,111.582 C46.5017353,111.824667 46.477902,112.045667 46.4692353,112.245 L46.4692353,112.245 L46.4172353,112.245 C46.3912353,111.993667 46.3587353,111.742333 46.3197353,111.491 C46.2807353,111.239667 46.2265686,110.988333 46.1572353,110.737 L46.1572353,110.737 L45.1822353,106.889 L43.3492353,106.889 L45.5072353,114 L47.3922353,114 Z M52.9967647,114.13 C53.6727647,114.13 54.2274314,113.9675 54.6607647,113.6425 C55.094098,113.3175 55.4169314,112.8755 55.6292647,112.3165 C55.841598,111.7575 55.9477647,111.127 55.9477647,110.425 C55.9477647,109.246333 55.6812647,108.340667 55.1482647,107.708 C54.6152647,107.075333 53.911098,106.759 53.0357647,106.759 C52.3684314,106.759 51.818098,106.912833 51.3847647,107.2205 C50.9514314,107.528167 50.628598,107.955 50.4162647,108.501 C50.2039314,109.047 50.0977647,109.688333 50.0977647,110.425 C50.0977647,111.127 50.2082647,111.7575 50.4292647,112.3165 C50.6502647,112.8755 50.9774314,113.3175 51.4107647,113.6425 C51.844098,113.9675 52.3727647,114.13 52.9967647,114.13 Z M53.0227647,112.661 C52.624098,112.661 52.3359314,112.474667 52.1582647,112.102 C51.980598,111.729333 51.8917647,111.179 51.8917647,110.451 C51.8917647,109.705667 51.980598,109.148833 52.1582647,108.7805 C52.3359314,108.412167 52.624098,108.228 53.0227647,108.228 C53.4214314,108.228 53.7074314,108.41 53.8807647,108.774 C54.054098,109.138 54.1407647,109.688333 54.1407647,110.425 C54.1407647,111.170333 54.054098,111.729333 53.8807647,112.102 C53.7074314,112.474667 53.4214314,112.661 53.0227647,112.661 Z M59.0172941,114 L59.0172941,104.12 L57.2622941,104.12 L57.2622941,114 L59.0172941,114 Z M62.7108235,114.13 C63.0921569,114.13 63.4344902,114.043333 63.7378235,113.87 C64.0411569,113.696667 64.2838235,113.436667 64.4658235,113.09 L64.4658235,113.09 L64.5568235,113.09 L64.7778235,114 L66.1428235,114 L66.1428235,106.889 L64.3878235,106.889 L64.3878235,110.425 C64.3878235,111.127 64.3098235,111.6665 64.1538235,112.0435 C63.9978235,112.4205 63.6858235,112.609 63.2178235,112.609 C62.9231569,112.609 62.7129902,112.476833 62.5873235,112.2125 C62.4616569,111.948167 62.3988235,111.556 62.3988235,111.036 L62.3988235,111.036 L62.3988235,106.889 L60.6308235,106.889 L60.6308235,111.53 C60.6308235,112.379333 60.8106569,113.025 61.1703235,113.467 C61.5299902,113.909 62.0434902,114.13 62.7108235,114.13 Z M71.8643529,114 L71.8643529,112.57 L69.3163529,112.57 L71.7473529,108.072 L71.7473529,106.889 L67.4053529,106.889 L67.4053529,108.332 L69.7843529,108.332 L67.2493529,112.921 L67.2493529,114 L71.8643529,114 Z M73.8548824,106.018 C74.1582157,106.018 74.3943824,105.94 74.5633824,105.784 C74.7323824,105.628 74.8168824,105.389667 74.8168824,105.069 C74.8168824,104.427667 74.4962157,104.107 73.8548824,104.107 C73.551549,104.107 73.3153824,104.182833 73.1463824,104.3345 C72.9773824,104.486167 72.8928824,104.731 72.8928824,105.069 C72.8928824,105.389667 72.979549,105.628 73.1528824,105.784 C73.3262157,105.94 73.5602157,106.018 73.8548824,106.018 Z M74.7388824,114 L74.7388824,106.889 L72.9708824,106.889 L72.9708824,114 L74.7388824,114 Z M78.9654118,114.13 C79.6414118,114.13 80.1960784,113.9675 80.6294118,113.6425 C81.0627451,113.3175 81.3855784,112.8755 81.5979118,112.3165 C81.8102451,111.7575 81.9164118,111.127 81.9164118,110.425 C81.9164118,109.246333 81.6499118,108.340667 81.1169118,107.708 C80.5839118,107.075333 79.8797451,106.759 79.0044118,106.759 C78.3370784,106.759 77.7867451,106.912833 77.3534118,107.2205 C76.9200784,107.528167 76.5972451,107.955 76.3849118,108.501 C76.1725784,109.047 76.0664118,109.688333 76.0664118,110.425 C76.0664118,111.127 76.1769118,111.7575 76.3979118,112.3165 C76.6189118,112.8755 76.9460784,113.3175 77.3794118,113.6425 C77.8127451,113.9675 78.3414118,114.13 78.9654118,114.13 Z M78.9914118,112.661 C78.5927451,112.661 78.3045784,112.474667 78.1269118,112.102 C77.9492451,111.729333 77.8604118,111.179 77.8604118,110.451 C77.8604118,109.705667 77.9492451,109.148833 78.1269118,108.7805 C78.3045784,108.412167 78.5927451,108.228 78.9914118,108.228 C79.3900784,108.228 79.6760784,108.41 79.8494118,108.774 C80.0227451,109.138 80.1094118,109.688333 80.1094118,110.425 C80.1094118,111.170333 80.0227451,111.729333 79.8494118,112.102 C79.6760784,112.474667 79.3900784,112.661 78.9914118,112.661 Z M84.9859412,114 L84.9859412,110.607 C84.9859412,109.783667 85.0682745,109.19 85.2329412,108.826 C85.3976078,108.462 85.6966078,108.28 86.1299412,108.28 C86.4419412,108.28 86.6607745,108.41 86.7864412,108.67 C86.9121078,108.93 86.9749412,109.311333 86.9749412,109.814 L86.9749412,109.814 L86.9749412,114 L88.7429412,114 L88.7429412,109.32 C88.7429412,108.470667 88.5587745,107.8315 88.1904412,107.4025 C87.8221078,106.9735 87.3172745,106.759 86.6759412,106.759 C86.2946078,106.759 85.9501078,106.845667 85.6424412,107.019 C85.3347745,107.192333 85.0942745,107.452333 84.9209412,107.799 L84.9209412,107.799 L84.8169412,107.799 L84.6089412,106.889 L83.2309412,106.889 L83.2309412,114 L84.9859412,114 Z M93.0734706,114.13 C93.5068039,114.13 93.8924706,114.091 94.2304706,114.013 C94.5684706,113.935 94.8891373,113.809333 95.1924706,113.636 L95.1924706,113.636 L95.1924706,112.206 C94.8631373,112.396667 94.5468039,112.531 94.2434706,112.609 C93.9401373,112.687 93.6151373,112.726 93.2684706,112.726 C92.3064706,112.726 91.8168039,112.128 91.7994706,110.932 L91.7994706,110.932 L95.5434706,110.932 L95.5434706,109.983 C95.5434706,108.986333 95.3073039,108.202 94.8349706,107.63 C94.3626373,107.058 93.7018039,106.772 92.8524706,106.772 C91.9598039,106.772 91.2686373,107.088333 90.7789706,107.721 C90.2893039,108.353667 90.0444706,109.276667 90.0444706,110.49 C90.0444706,111.651333 90.2979706,112.548333 90.8049706,113.181 C91.3119706,113.813667 92.0681373,114.13 93.0734706,114.13 Z M93.8924706,109.684 L91.8124706,109.684 C91.8298039,109.129333 91.9359706,108.7285 92.1309706,108.4815 C92.3259706,108.2345 92.5751373,108.111 92.8784706,108.111 C93.2078039,108.111 93.4591373,108.254 93.6324706,108.54 C93.8058039,108.826 93.8924706,109.207333 93.8924706,109.684 L93.8924706,109.684 Z" id="y-labels-2"></path>
			<path d="M15.5199059,12 L15.5199059,7.359 C15.5199059,7.03833333 15.5090725,6.66133333 15.4874059,6.228 C15.4657392,5.79466667 15.4419059,5.39166667 15.4159059,5.019 L15.4159059,5.019 L15.4679059,5.019 L17.4309059,12 L18.9389059,12 L20.9539059,5.032 L21.0059059,5.032 C20.9799059,5.396 20.9604059,5.786 20.9474059,6.202 C20.9344059,6.618 20.9279059,6.99066667 20.9279059,7.32 L20.9279059,7.32 L20.9279059,12 L22.6699059,12 L22.6699059,2.718 L20.1479059,2.718 L18.2499059,9.296 L18.2109059,9.296 L16.3519059,2.718 L13.8299059,2.718 L13.8299059,12 L15.5199059,12 Z M27.0033412,12.13 C27.6793412,12.13 28.2340078,11.9675 28.6673412,11.6425 C29.1006745,11.3175 29.4235078,10.8755 29.6358412,10.3165 C29.8481745,9.7575 29.9543412,9.127 29.9543412,8.425 C29.9543412,7.24633333 29.6878412,6.34066667 29.1548412,5.708 C28.6218412,5.07533333 27.9176745,4.759 27.0423412,4.759 C26.3750078,4.759 25.8246745,4.91283333 25.3913412,5.2205 C24.9580078,5.52816667 24.6351745,5.955 24.4228412,6.501 C24.2105078,7.047 24.1043412,7.68833333 24.1043412,8.425 C24.1043412,9.127 24.2148412,9.7575 24.4358412,10.3165 C24.6568412,10.8755 24.9840078,11.3175 25.4173412,11.6425 C25.8506745,11.9675 26.3793412,12.13 27.0033412,12.13 Z M27.0293412,10.661 C26.6306745,10.661 26.3425078,10.4746667 26.1648412,10.102 C25.9871745,9.72933333 25.8983412,9.179 25.8983412,8.451 C25.8983412,7.70566667 25.9871745,7.14883333 26.1648412,6.7805 C26.3425078,6.41216667 26.6306745,6.228 27.0293412,6.228 C27.4280078,6.228 27.7140078,6.41 27.8873412,6.774 C28.0606745,7.138 28.1473412,7.68833333 28.1473412,8.425 C28.1473412,9.17033333 28.0606745,9.72933333 27.8873412,10.102 C27.7140078,10.4746667 27.4280078,10.661 27.0293412,10.661 Z M33.0267765,12 L33.0267765,8.607 C33.0267765,7.78366667 33.1091098,7.19 33.2737765,6.826 C33.4384431,6.462 33.7374431,6.28 34.1707765,6.28 C34.4827765,6.28 34.7016098,6.41 34.8272765,6.67 C34.9529431,6.93 35.0157765,7.31133333 35.0157765,7.814 L35.0157765,7.814 L35.0157765,12 L36.7837765,12 L36.7837765,7.32 C36.7837765,6.47066667 36.5996098,5.8315 36.2312765,5.4025 C35.8629431,4.9735 35.3581098,4.759 34.7167765,4.759 C34.3354431,4.759 33.9909431,4.84566667 33.6832765,5.019 C33.3756098,5.19233333 33.1351098,5.45233333 32.9617765,5.799 L32.9617765,5.799 L32.8577765,5.799 L32.6497765,4.889 L31.2717765,4.889 L31.2717765,12 L33.0267765,12 Z M40.3632118,12.13 C40.7618784,12.13 41.0868784,12.0476667 41.3382118,11.883 C41.5895451,11.7183333 41.8192118,11.4843333 42.0272118,11.181 L42.0272118,11.181 L42.1182118,11.181 L42.3912118,12 L43.7822118,12 L43.7822118,2.12 L42.0272118,2.12 L42.0272118,4.538 C42.0272118,4.71133333 42.0358784,4.9085 42.0532118,5.1295 C42.0705451,5.3505 42.0878784,5.57366667 42.1052118,5.799 L42.1052118,5.799 L42.0402118,5.799 C41.8495451,5.46966667 41.6133784,5.214 41.3317118,5.032 C41.0500451,4.85 40.7185451,4.759 40.3372118,4.759 C39.6438784,4.759 39.0957118,5.07966667 38.6927118,5.721 C38.2897118,6.36233333 38.0882118,7.27233333 38.0882118,8.451 C38.0882118,9.621 38.2897118,10.5266667 38.6927118,11.168 C39.0957118,11.8093333 39.6525451,12.13 40.3632118,12.13 Z M40.9222118,10.674 C40.2202118,10.674 39.8692118,9.92866667 39.8692118,8.438 C39.8692118,7.72733333 39.9580451,7.18783333 40.1357118,6.8195 C40.3133784,6.45116667 40.5712118,6.267 40.9092118,6.267 C41.3252118,6.267 41.6220451,6.436 41.7997118,6.774 C41.9773784,7.112 42.0662118,7.62766667 42.0662118,8.321 L42.0662118,8.321 L42.0662118,8.672 C42.0575451,9.35666667 41.9643784,9.8615 41.7867118,10.1865 C41.6090451,10.5115 41.3208784,10.674 40.9222118,10.674 Z M48.0116471,12.13 C48.6876471,12.13 49.2423137,11.9675 49.6756471,11.6425 C50.1089804,11.3175 50.4318137,10.8755 50.6441471,10.3165 C50.8564804,9.7575 50.9626471,9.127 50.9626471,8.425 C50.9626471,7.24633333 50.6961471,6.34066667 50.1631471,5.708 C49.6301471,5.07533333 48.9259804,4.759 48.0506471,4.759 C47.3833137,4.759 46.8329804,4.91283333 46.3996471,5.2205 C45.9663137,5.52816667 45.6434804,5.955 45.4311471,6.501 C45.2188137,7.047 45.1126471,7.68833333 45.1126471,8.425 C45.1126471,9.127 45.2231471,9.7575 45.4441471,10.3165 C45.6651471,10.8755 45.9923137,11.3175 46.4256471,11.6425 C46.8589804,11.9675 47.3876471,12.13 48.0116471,12.13 Z M48.0376471,10.661 C47.6389804,10.661 47.3508137,10.4746667 47.1731471,10.102 C46.9954804,9.72933333 46.9066471,9.179 46.9066471,8.451 C46.9066471,7.70566667 46.9954804,7.14883333 47.1731471,6.7805 C47.3508137,6.41216667 47.6389804,6.228 48.0376471,6.228 C48.4363137,6.228 48.7223137,6.41 48.8956471,6.774 C49.0689804,7.138 49.1556471,7.68833333 49.1556471,8.425 C49.1556471,9.17033333 49.0689804,9.72933333 48.8956471,10.102 C48.7223137,10.4746667 48.4363137,10.661 48.0376471,10.661 Z M56.8865176,12.13 C57.2851843,12.13 57.6101843,12.0476667 57.8615176,11.883 C58.112851,11.7183333 58.3425176,11.4843333 58.5505176,11.181 L58.5505176,11.181 L58.6415176,11.181 L58.9145176,12 L60.3055176,12 L60.3055176,2.12 L58.5505176,2.12 L58.5505176,4.538 C58.5505176,4.71133333 58.5591843,4.9085 58.5765176,5.1295 C58.593851,5.3505 58.6111843,5.57366667 58.6285176,5.799 L58.6285176,5.799 L58.5635176,5.799 C58.372851,5.46966667 58.1366843,5.214 57.8550176,5.032 C57.573351,4.85 57.241851,4.759 56.8605176,4.759 C56.1671843,4.759 55.6190176,5.07966667 55.2160176,5.721 C54.8130176,6.36233333 54.6115176,7.27233333 54.6115176,8.451 C54.6115176,9.621 54.8130176,10.5266667 55.2160176,11.168 C55.6190176,11.8093333 56.175851,12.13 56.8865176,12.13 Z M57.4455176,10.674 C56.7435176,10.674 56.3925176,9.92866667 56.3925176,8.438 C56.3925176,7.72733333 56.481351,7.18783333 56.6590176,6.8195 C56.8366843,6.45116667 57.0945176,6.267 57.4325176,6.267 C57.8485176,6.267 58.145351,6.436 58.3230176,6.774 C58.5006843,7.112 58.5895176,7.62766667 58.5895176,8.321 L58.5895176,8.321 L58.5895176,8.672 C58.580851,9.35666667 58.4876843,9.8615 58.3100176,10.1865 C58.132351,10.5115 57.8441843,10.674 57.4455176,10.674 Z M62.8319529,4.018 C63.1352863,4.018 63.3714529,3.94 63.5404529,3.784 C63.7094529,3.628 63.7939529,3.38966667 63.7939529,3.069 C63.7939529,2.42766667 63.4732863,2.107 62.8319529,2.107 C62.5286196,2.107 62.2924529,2.18283333 62.1234529,2.3345 C61.9544529,2.48616667 61.8699529,2.731 61.8699529,3.069 C61.8699529,3.38966667 61.9566196,3.628 62.1299529,3.784 C62.3032863,3.94 62.5372863,4.018 62.8319529,4.018 Z M63.7159529,12 L63.7159529,4.889 L61.9479529,4.889 L61.9479529,12 L63.7159529,12 Z M67.5553882,15.12 C68.6473882,15.12 69.4512216,14.8296667 69.9668882,14.249 C70.4825549,13.6683333 70.7403882,12.8363333 70.7403882,11.753 L70.7403882,11.753 L70.7403882,4.889 L69.2323882,4.889 L69.0893882,5.799 L68.9983882,5.799 C68.7903882,5.42633333 68.5542216,5.15983333 68.2898882,4.9995 C68.0255549,4.83916667 67.7070549,4.759 67.3343882,4.759 C66.6150549,4.759 66.0538882,5.084 65.6508882,5.734 C65.2478882,6.384 65.0463882,7.29833333 65.0463882,8.477 C65.0463882,9.62966667 65.2435549,10.5266667 65.6378882,11.168 C66.0322216,11.8093333 66.5803882,12.13 67.2823882,12.13 C67.6550549,12.13 67.9800549,12.0455 68.2573882,11.8765 C68.5347216,11.7075 68.7773882,11.4366667 68.9853882,11.064 L68.9853882,11.064 L69.0373882,11.064 C69.0200549,11.2113333 69.0070549,11.3781667 68.9983882,11.5645 C68.9897216,11.7508333 68.9853882,11.9133333 68.9853882,12.052 L68.9853882,12.052 L68.9853882,12.182 C68.9853882,12.7193333 68.8597216,13.1028333 68.6083882,13.3325 C68.3570549,13.5621667 68.0060549,13.677 67.5553882,13.677 C66.8360549,13.677 66.1167216,13.4993333 65.3973882,13.144 L65.3973882,13.144 L65.3973882,14.652 C66.0213882,14.964 66.7407216,15.12 67.5553882,15.12 Z M67.8933882,10.648 C67.1913882,10.648 66.8403882,9.933 66.8403882,8.503 C66.8403882,7.01233333 67.1827216,6.267 67.8673882,6.267 C68.2660549,6.267 68.5585549,6.43383333 68.7448882,6.7675 C68.9312216,7.10116667 69.0243882,7.645 69.0243882,8.399 L69.0243882,8.399 L69.0243882,8.724 C69.0243882,9.4 68.9312216,9.88966667 68.7448882,10.193 C68.5585549,10.4963333 68.2747216,10.648 67.8933882,10.648 Z M73.2668235,4.018 C73.5701569,4.018 73.8063235,3.94 73.9753235,3.784 C74.1443235,3.628 74.2288235,3.38966667 74.2288235,3.069 C74.2288235,2.42766667 73.9081569,2.107 73.2668235,2.107 C72.9634902,2.107 72.7273235,2.18283333 72.5583235,2.3345 C72.3893235,2.48616667 72.3048235,2.731 72.3048235,3.069 C72.3048235,3.38966667 72.3914902,3.628 72.5648235,3.784 C72.7381569,3.94 72.9721569,4.018 73.2668235,4.018 Z M74.1508235,12 L74.1508235,4.889 L72.3828235,4.889 L72.3828235,12 L74.1508235,12 Z M77.8082588,12.13 C78.0942588,12.13 78.3607588,12.0996667 78.6077588,12.039 C78.8547588,11.9783333 79.0779255,11.9003333 79.2772588,11.805 L79.2772588,11.805 L79.2772588,10.427 C78.9565922,10.557 78.6489255,10.622 78.3542588,10.622 C77.9122588,10.622 77.6912588,10.349 77.6912588,9.803 L77.6912588,9.803 L77.6912588,6.306 L79.1862588,6.306 L79.1862588,4.889 L77.6912588,4.889 L77.6912588,3.394 L76.5212588,3.394 L76.0662588,4.928 L75.1692588,5.435 L75.1692588,6.306 L75.9362588,6.306 L75.9362588,9.855 C75.9362588,10.661 76.0944255,11.2416667 76.4107588,11.597 C76.7270922,11.9523333 77.1929255,12.13 77.8082588,12.13 Z M81.7906941,12.13 C82.2673608,12.13 82.6465275,12.0433333 82.9281941,11.87 C83.2098608,11.6966667 83.4763608,11.4236667 83.7276941,11.051 L83.7276941,11.051 L83.7666941,11.051 L84.0656941,12 L85.3396941,12 L85.3396941,7.281 C85.3396941,6.44033333 85.1381941,5.80983333 84.7351941,5.3895 C84.3321941,4.96916667 83.7450275,4.759 82.9736941,4.759 C82.0636941,4.759 81.2620275,4.96266667 80.5686941,5.37 L80.5686941,5.37 L81.0886941,6.644 C81.3833608,6.47933333 81.6650275,6.35583333 81.9336941,6.2735 C82.2023608,6.19116667 82.4580275,6.15 82.7006941,6.15 C83.2900275,6.15 83.5846941,6.527 83.5846941,7.281 L83.5846941,7.281 L83.5846941,7.567 L82.5966941,7.606 C81.7473608,7.64066667 81.0995275,7.84433333 80.6531941,8.217 C80.2068608,8.58966667 79.9836941,9.14866667 79.9836941,9.894 C79.9836941,10.5266667 80.1353608,11.0575 80.4386941,11.4865 C80.7420275,11.9155 81.1926941,12.13 81.7906941,12.13 Z M82.4926941,10.752 C82.2673608,10.752 82.0896941,10.6805 81.9596941,10.5375 C81.8296941,10.3945 81.7646941,10.1626667 81.7646941,9.842 C81.7646941,9.49533333 81.8643608,9.22666667 82.0636941,9.036 C82.2630275,8.84533333 82.5793608,8.74133333 83.0126941,8.724 L83.0126941,8.724 L83.5846941,8.698 L83.5846941,9.335 C83.5846941,9.777 83.4806941,10.1236667 83.2726941,10.375 C83.0646941,10.6263333 82.8046941,10.752 82.4926941,10.752 Z M88.7111294,12 L88.7111294,2.12 L86.9561294,2.12 L86.9561294,12 L88.7111294,12 Z M93.0705647,12.13 C93.503898,12.13 93.8895647,12.091 94.2275647,12.013 C94.5655647,11.935 94.8862314,11.8093333 95.1895647,11.636 L95.1895647,11.636 L95.1895647,10.206 C94.8602314,10.3966667 94.543898,10.531 94.2405647,10.609 C93.9372314,10.687 93.6122314,10.726 93.2655647,10.726 C92.3035647,10.726 91.813898,10.128 91.7965647,8.932 L91.7965647,8.932 L95.5405647,8.932 L95.5405647,7.983 C95.5405647,6.98633333 95.304398,6.202 94.8320647,5.63 C94.3597314,5.058 93.698898,4.772 92.8495647,4.772 C91.956898,4.772 91.2657314,5.08833333 90.7760647,5.721 C90.286398,6.35366667 90.0415647,7.27666667 90.0415647,8.49 C90.0415647,9.65133333 90.2950647,10.5483333 90.8020647,11.181 C91.3090647,11.8136667 92.0652314,12.13 93.0705647,12.13 Z M93.8895647,7.684 L91.8095647,7.684 C91.826898,7.12933333 91.9330647,6.7285 92.1280647,6.4815 C92.3230647,6.2345 92.5722314,6.111 92.8755647,6.111 C93.204898,6.111 93.4562314,6.254 93.6295647,6.54 C93.802898,6.826 93.8895647,7.20733333 93.8895647,7.684 L93.8895647,7.684 Z" id="y-labels-3"></path>
		</g>
		<path id="pfeil-1" d="M362.5,203.5 L353.982062,216.631821 L350.94,211.46 L311.145086,234.868954 L310.131046,233.145086 L349.926,209.736 L346.88378,204.564742 L362.5,203.5 Z" fill="#5C5C5B" fill-rule="nonzero"></path>
		<path id="pfeil-2" d="M523.5,109.5 L514.982062,122.631821 L511.94,117.46 L472.145086,140.868954 L471.131046,139.145086 L510.926,115.736 L507.88378,110.564742 L523.5,109.5 Z" fill="#5C5C5B" fill-rule="nonzero"></path>
		<g id="Group" transform="translate(210.621401, -14.772637)">
			<path d="M1,146.105542 C42.3831806,93.5736838 88.5003889,67.3320617 139.351625,67.3806753 C190.202861,67.4300141 240.633432,90.6932115 290.643339,137.170268" id="pfeil-3" stroke="#5C5C5B" stroke-width="2" stroke-linecap="square" transform="translate(145.821669, 106.743109) rotate(-30.000000) translate(-145.821669, -106.743109) "></path>
			<polygon id="pfeil-3-1" fill="#5C5C5B" transform="translate(293.197796, 61.999020) rotate(102.000000) translate(-293.197796, -61.999020) " points="293.237582 55 300.157366 68.9980403 286.238226 68.9685343"></polygon>
		</g>
		<g id="einzahlungsschein" transform="translate(201.000000, 220.000000)">
			<circle id="Oval" fill="#ADA398" cx="50" cy="50" r="50"></circle>
			<path d="M24.52,46 L24.52,42.205 L25.21,42.205 C26.04,42.205 26.72,42.05 27.25,41.74 C27.78,41.43 28.1675,41.005 28.4125,40.465 C28.6575,39.925 28.78,39.31 28.78,38.62 C28.78,37.55 28.5,36.7275 27.94,36.1525 C27.38,35.5775 26.51,35.29 25.33,35.29 L25.33,35.29 L22.405,35.29 L22.405,46 L24.52,46 Z M25,40.42 L24.52,40.42 L24.52,37.075 L25.195,37.075 C26.175,37.075 26.665,37.6 26.665,38.65 C26.665,39.28 26.52,39.7325 26.23,40.0075 C25.94,40.2825 25.53,40.42 25,40.42 L25,40.42 Z M33.22,46.15 C34,46.15 34.64,45.9625 35.14,45.5875 C35.64,45.2125 36.0125,44.7025 36.2575,44.0575 C36.5025,43.4125 36.625,42.685 36.625,41.875 C36.625,40.515 36.3175,39.47 35.7025,38.74 C35.0875,38.01 34.275,37.645 33.265,37.645 C32.495,37.645 31.86,37.8225 31.36,38.1775 C30.86,38.5325 30.4875,39.025 30.2425,39.655 C29.9975,40.285 29.875,41.025 29.875,41.875 C29.875,42.685 30.0025,43.4125 30.2575,44.0575 C30.5125,44.7025 30.89,45.2125 31.39,45.5875 C31.89,45.9625 32.5,46.15 33.22,46.15 Z M33.25,44.455 C32.79,44.455 32.4575,44.24 32.2525,43.81 C32.0475,43.38 31.945,42.745 31.945,41.905 C31.945,41.045 32.0475,40.4025 32.2525,39.9775 C32.4575,39.5525 32.79,39.34 33.25,39.34 C33.71,39.34 34.04,39.55 34.24,39.97 C34.44,40.39 34.54,41.025 34.54,41.875 C34.54,42.735 34.44,43.38 34.24,43.81 C34.04,44.24 33.71,44.455 33.25,44.455 Z M40.165,46 L40.165,34.6 L38.14,34.6 L38.14,46 L40.165,46 Z M43.075,36.79 C43.425,36.79 43.6975,36.7 43.8925,36.52 C44.0875,36.34 44.185,36.065 44.185,35.695 C44.185,34.955 43.815,34.585 43.075,34.585 C42.725,34.585 42.4525,34.6725 42.2575,34.8475 C42.0625,35.0225 41.965,35.305 41.965,35.695 C41.965,36.065 42.065,36.34 42.265,36.52 C42.465,36.7 42.735,36.79 43.075,36.79 Z M44.095,46 L44.095,37.795 L42.055,37.795 L42.055,46 L44.095,46 Z M50.695,46 L50.695,44.35 L47.755,44.35 L50.56,39.16 L50.56,37.795 L45.55,37.795 L45.55,39.46 L48.295,39.46 L45.37,44.755 L45.37,46 L50.695,46 Z M56.68,46 L56.68,44.35 L53.74,44.35 L56.545,39.16 L56.545,37.795 L51.535,37.795 L51.535,39.46 L54.28,39.46 L51.355,44.755 L51.355,46 L56.68,46 Z M59.59,46.15 C60.14,46.15 60.5775,46.05 60.9025,45.85 C61.2275,45.65 61.535,45.335 61.825,44.905 L61.825,44.905 L61.87,44.905 L62.215,46 L63.685,46 L63.685,40.555 C63.685,39.585 63.4525,38.8575 62.9875,38.3725 C62.5225,37.8875 61.845,37.645 60.955,37.645 C59.905,37.645 58.98,37.88 58.18,38.35 L58.18,38.35 L58.78,39.82 C59.12,39.63 59.445,39.4875 59.755,39.3925 C60.065,39.2975 60.36,39.25 60.64,39.25 C61.32,39.25 61.66,39.685 61.66,40.555 L61.66,40.555 L61.66,40.885 L60.52,40.93 C59.54,40.97 58.7925,41.205 58.2775,41.635 C57.7625,42.065 57.505,42.71 57.505,43.57 C57.505,44.3 57.68,44.9125 58.03,45.4075 C58.38,45.9025 58.9,46.15 59.59,46.15 Z M60.4,44.56 C60.14,44.56 59.935,44.4775 59.785,44.3125 C59.635,44.1475 59.56,43.88 59.56,43.51 C59.56,43.11 59.675,42.8 59.905,42.58 C60.135,42.36 60.5,42.24 61,42.22 L61,42.22 L61.66,42.19 L61.66,42.925 C61.66,43.435 61.54,43.835 61.3,44.125 C61.06,44.415 60.76,44.56 60.4,44.56 Z M70.855,46.15 C71.315,46.15 71.69,46.055 71.98,45.865 C72.27,45.675 72.535,45.405 72.775,45.055 L72.775,45.055 L72.88,45.055 L73.195,46 L74.8,46 L74.8,34.6 L72.775,34.6 L72.775,37.39 C72.775,37.59 72.785,37.8175 72.805,38.0725 C72.825,38.3275 72.845,38.585 72.865,38.845 L72.865,38.845 L72.79,38.845 C72.57,38.465 72.2975,38.17 71.9725,37.96 C71.6475,37.75 71.265,37.645 70.825,37.645 C70.025,37.645 69.3925,38.015 68.9275,38.755 C68.4625,39.495 68.23,40.545 68.23,41.905 C68.23,43.255 68.4625,44.3 68.9275,45.04 C69.3925,45.78 70.035,46.15 70.855,46.15 Z M71.5,44.47 C70.69,44.47 70.285,43.61 70.285,41.89 C70.285,41.07 70.3875,40.4475 70.5925,40.0225 C70.7975,39.5975 71.095,39.385 71.485,39.385 C71.965,39.385 72.3075,39.58 72.5125,39.97 C72.7175,40.36 72.82,40.955 72.82,41.755 L72.82,41.755 L72.82,42.16 C72.81,42.95 72.7025,43.5325 72.4975,43.9075 C72.2925,44.2825 71.96,44.47 71.5,44.47 Z M77.71,36.79 C78.06,36.79 78.3325,36.7 78.5275,36.52 C78.7225,36.34 78.82,36.065 78.82,35.695 C78.82,34.955 78.45,34.585 77.71,34.585 C77.36,34.585 77.0875,34.6725 76.8925,34.8475 C76.6975,35.0225 76.6,35.305 76.6,35.695 C76.6,36.065 76.7,36.34 76.9,36.52 C77.1,36.7 77.37,36.79 77.71,36.79 Z M78.73,46 L78.73,37.795 L76.69,37.795 L76.69,46 L78.73,46 Z M17.5675,66 L20.0575,57.795 L17.9425,57.795 L16.7725,62.31 C16.6925,62.63 16.63,62.93 16.585,63.21 C16.54,63.49 16.5125,63.745 16.5025,63.975 L16.5025,63.975 L16.4425,63.975 C16.4125,63.685 16.375,63.395 16.33,63.105 C16.285,62.815 16.2225,62.525 16.1425,62.235 L16.1425,62.235 L15.0175,57.795 L12.9025,57.795 L15.3925,66 L17.5675,66 Z M24.1825,66.15 C24.6825,66.15 25.1275,66.105 25.5175,66.015 C25.9075,65.925 26.2775,65.78 26.6275,65.58 L26.6275,65.58 L26.6275,63.93 C26.2475,64.15 25.8825,64.305 25.5325,64.395 C25.1825,64.485 24.8075,64.53 24.4075,64.53 C23.2975,64.53 22.7325,63.84 22.7125,62.46 L22.7125,62.46 L27.0325,62.46 L27.0325,61.365 C27.0325,60.215 26.76,59.31 26.215,58.65 C25.67,57.99 24.9075,57.66 23.9275,57.66 C22.8975,57.66 22.1,58.025 21.535,58.755 C20.97,59.485 20.6875,60.55 20.6875,61.95 C20.6875,63.29 20.98,64.325 21.565,65.055 C22.15,65.785 23.0225,66.15 24.1825,66.15 Z M25.1275,61.02 L22.7275,61.02 C22.7475,60.38 22.87,59.9175 23.095,59.6325 C23.32,59.3475 23.6075,59.205 23.9575,59.205 C24.3375,59.205 24.6275,59.37 24.8275,59.7 C25.0275,60.03 25.1275,60.47 25.1275,61.02 L25.1275,61.02 Z M30.5425,66 L30.5425,61.815 C30.5425,61.145 30.695,60.63 31,60.27 C31.305,59.91 31.7075,59.73 32.2075,59.73 C32.4875,59.73 32.7175,59.765 32.8975,59.835 L32.8975,59.835 L33.0625,57.735 C32.8225,57.675 32.5925,57.645 32.3725,57.645 C31.9325,57.645 31.55,57.7975 31.225,58.1025 C30.9,58.4075 30.6425,58.76 30.4525,59.16 L30.4525,59.16 L30.3625,59.16 L30.0625,57.795 L28.5025,57.795 L28.5025,66 L30.5425,66 Z M36.0625,66.15 C36.9825,66.15 37.695,65.93 38.2,65.49 C38.705,65.05 38.9575,64.415 38.9575,63.585 C38.9575,62.935 38.785,62.425 38.44,62.055 C38.095,61.685 37.6425,61.355 37.0825,61.065 C36.7025,60.855 36.415,60.69 36.22,60.57 C36.025,60.45 35.895,60.3375 35.83,60.2325 C35.765,60.1275 35.7325,60.005 35.7325,59.865 C35.7325,59.455 36.0025,59.25 36.5425,59.25 C36.8425,59.25 37.1375,59.305 37.4275,59.415 C37.7175,59.525 38.0025,59.66 38.2825,59.82 L38.2825,59.82 L38.8675,58.29 C38.4775,58.08 38.09,57.92 37.705,57.81 C37.32,57.7 36.9125,57.645 36.4825,57.645 C35.6325,57.645 34.9625,57.8475 34.4725,58.2525 C33.9825,58.6575 33.7375,59.225 33.7375,59.955 C33.7375,60.585 33.89,61.0925 34.195,61.4775 C34.5,61.8625 34.9475,62.2 35.5375,62.49 C35.9475,62.69 36.25,62.855 36.445,62.985 C36.64,63.115 36.77,63.24 36.835,63.36 C36.9,63.48 36.9325,63.605 36.9325,63.735 C36.9325,64.225 36.6075,64.47 35.9575,64.47 C35.5975,64.47 35.22,64.405 34.825,64.275 C34.43,64.145 34.0725,63.99 33.7525,63.81 L33.7525,63.81 L33.7525,65.685 C34.0925,65.845 34.45,65.9625 34.825,66.0375 C35.2,66.1125 35.6125,66.15 36.0625,66.15 Z M41.9875,66.15 C42.5375,66.15 42.975,66.05 43.3,65.85 C43.625,65.65 43.9325,65.335 44.2225,64.905 L44.2225,64.905 L44.2675,64.905 L44.6125,66 L46.0825,66 L46.0825,60.555 C46.0825,59.585 45.85,58.8575 45.385,58.3725 C44.92,57.8875 44.2425,57.645 43.3525,57.645 C42.3025,57.645 41.3775,57.88 40.5775,58.35 L40.5775,58.35 L41.1775,59.82 C41.5175,59.63 41.8425,59.4875 42.1525,59.3925 C42.4625,59.2975 42.7575,59.25 43.0375,59.25 C43.7175,59.25 44.0575,59.685 44.0575,60.555 L44.0575,60.555 L44.0575,60.885 L42.9175,60.93 C41.9375,60.97 41.19,61.205 40.675,61.635 C40.16,62.065 39.9025,62.71 39.9025,63.57 C39.9025,64.3 40.0775,64.9125 40.4275,65.4075 C40.7775,65.9025 41.2975,66.15 41.9875,66.15 Z M42.7975,64.56 C42.5375,64.56 42.3325,64.4775 42.1825,64.3125 C42.0325,64.1475 41.9575,63.88 41.9575,63.51 C41.9575,63.11 42.0725,62.8 42.3025,62.58 C42.5325,62.36 42.8975,62.24 43.3975,62.22 L43.3975,62.22 L44.0575,62.19 L44.0575,62.925 C44.0575,63.435 43.9375,63.835 43.6975,64.125 C43.4575,64.415 43.1575,64.56 42.7975,64.56 Z M49.9675,66 L49.9675,62.1 C49.9675,61.22 50.055,60.55 50.23,60.09 C50.405,59.63 50.7325,59.4 51.2125,59.4 C51.8225,59.4 52.1275,59.99 52.1275,61.17 L52.1275,61.17 L52.1275,66 L54.1675,66 L54.1675,61.86 C54.1675,61.04 54.2575,60.425 54.4375,60.015 C54.6175,59.605 54.9325,59.4 55.3825,59.4 C56.0125,59.4 56.3275,59.995 56.3275,61.185 L56.3275,61.185 L56.3275,66 L58.3525,66 L58.3525,60.615 C58.3525,59.605 58.16,58.8575 57.775,58.3725 C57.39,57.8875 56.8175,57.645 56.0575,57.645 C55.1175,57.645 54.4475,58.04 54.0475,58.83 L54.0475,58.83 L53.8975,58.83 C53.7375,58.47 53.4975,58.1825 53.1775,57.9675 C52.8575,57.7525 52.4425,57.645 51.9325,57.645 C51.4725,57.645 51.0625,57.745 50.7025,57.945 C50.3425,58.145 50.0725,58.445 49.8925,58.845 L49.8925,58.845 L49.7725,58.845 L49.5325,57.795 L47.9425,57.795 L47.9425,66 L49.9675,66 Z M63.3475,66.15 C63.8475,66.15 64.2925,66.105 64.6825,66.015 C65.0725,65.925 65.4425,65.78 65.7925,65.58 L65.7925,65.58 L65.7925,63.93 C65.4125,64.15 65.0475,64.305 64.6975,64.395 C64.3475,64.485 63.9725,64.53 63.5725,64.53 C62.4625,64.53 61.8975,63.84 61.8775,62.46 L61.8775,62.46 L66.1975,62.46 L66.1975,61.365 C66.1975,60.215 65.925,59.31 65.38,58.65 C64.835,57.99 64.0725,57.66 63.0925,57.66 C62.0625,57.66 61.265,58.025 60.7,58.755 C60.135,59.485 59.8525,60.55 59.8525,61.95 C59.8525,63.29 60.145,64.325 60.73,65.055 C61.315,65.785 62.1875,66.15 63.3475,66.15 Z M64.2925,61.02 L61.8925,61.02 C61.9125,60.38 62.035,59.9175 62.26,59.6325 C62.485,59.3475 62.7725,59.205 63.1225,59.205 C63.5025,59.205 63.7925,59.37 63.9925,59.7 C64.1925,60.03 64.2925,60.47 64.2925,61.02 L64.2925,61.02 Z M69.6925,66 L69.6925,62.085 C69.6925,61.135 69.7875,60.45 69.9775,60.03 C70.1675,59.61 70.5125,59.4 71.0125,59.4 C71.3725,59.4 71.625,59.55 71.77,59.85 C71.915,60.15 71.9875,60.59 71.9875,61.17 L71.9875,61.17 L71.9875,66 L74.0275,66 L74.0275,60.6 C74.0275,59.62 73.815,58.8825 73.39,58.3875 C72.965,57.8925 72.3825,57.645 71.6425,57.645 C71.2025,57.645 70.805,57.745 70.45,57.945 C70.095,58.145 69.8175,58.445 69.6175,58.845 L69.6175,58.845 L69.4975,58.845 L69.2575,57.795 L67.6675,57.795 L67.6675,66 L69.6925,66 Z M78.2125,66.15 C78.5425,66.15 78.85,66.115 79.135,66.045 C79.42,65.975 79.6775,65.885 79.9075,65.775 L79.9075,65.775 L79.9075,64.185 C79.5375,64.335 79.1825,64.41 78.8425,64.41 C78.3325,64.41 78.0775,64.095 78.0775,63.465 L78.0775,63.465 L78.0775,59.43 L79.8025,59.43 L79.8025,57.795 L78.0775,57.795 L78.0775,56.07 L76.7275,56.07 L76.2025,57.84 L75.1675,58.425 L75.1675,59.43 L76.0525,59.43 L76.0525,63.525 C76.0525,64.455 76.235,65.125 76.6,65.535 C76.965,65.945 77.5025,66.15 78.2125,66.15 Z M84.1525,66.15 C84.9325,66.15 85.5725,65.9625 86.0725,65.5875 C86.5725,65.2125 86.945,64.7025 87.19,64.0575 C87.435,63.4125 87.5575,62.685 87.5575,61.875 C87.5575,60.515 87.25,59.47 86.635,58.74 C86.02,58.01 85.2075,57.645 84.1975,57.645 C83.4275,57.645 82.7925,57.8225 82.2925,58.1775 C81.7925,58.5325 81.42,59.025 81.175,59.655 C80.93,60.285 80.8075,61.025 80.8075,61.875 C80.8075,62.685 80.935,63.4125 81.19,64.0575 C81.445,64.7025 81.8225,65.2125 82.3225,65.5875 C82.8225,65.9625 83.4325,66.15 84.1525,66.15 Z M84.1825,64.455 C83.7225,64.455 83.39,64.24 83.185,63.81 C82.98,63.38 82.8775,62.745 82.8775,61.905 C82.8775,61.045 82.98,60.4025 83.185,59.9775 C83.39,59.5525 83.7225,59.34 84.1825,59.34 C84.6425,59.34 84.9725,59.55 85.1725,59.97 C85.3725,60.39 85.4725,61.025 85.4725,61.875 C85.4725,62.735 85.3725,63.38 85.1725,63.81 C84.9725,64.24 84.6425,64.455 84.1825,64.455 Z" id="einzahlungsschein-text" fill="#FFFFFF" fill-rule="nonzero"></path>
		</g>
		<g id="qr-rechnung" transform="translate(365.000000, 120.000000)">
			<circle id="Oval" fill="#002C5F" cx="50" cy="50" r="50"></circle>
			<path d="M47.57,48.55 L45.575,45.655 C46.285,45.265 46.815,44.6425 47.165,43.7875 C47.515,42.9325 47.69,41.88 47.69,40.63 C47.69,38.87 47.3425,37.5125 46.6475,36.5575 C45.9525,35.6025 44.91,35.125 43.52,35.125 C42.12,35.125 41.07,35.6025 40.37,36.5575 C39.67,37.5125 39.32,38.865 39.32,40.615 C39.32,41.695 39.465,42.65 39.755,43.48 C40.045,44.31 40.49,44.96 41.09,45.43 C41.69,45.9 42.455,46.135 43.385,46.135 L43.385,46.135 L43.565,46.135 L45.065,48.55 L47.57,48.55 Z M43.505,44.305 C42.835,44.305 42.3375,43.9925 42.0125,43.3675 C41.6875,42.7425 41.525,41.83 41.525,40.63 C41.525,39.43 41.6875,38.515 42.0125,37.885 C42.3375,37.255 42.84,36.94 43.52,36.94 C44.2,36.94 44.6975,37.25 45.0125,37.87 C45.3275,38.49 45.485,39.41 45.485,40.63 C45.485,41.85 45.325,42.7675 45.005,43.3825 C44.685,43.9975 44.185,44.305 43.505,44.305 Z M51.605,46 L51.605,41.83 L52.4,41.83 L54.395,46 L56.735,46 L54.245,41.305 C54.775,41.015 55.185,40.6325 55.475,40.1575 C55.765,39.6825 55.91,39.105 55.91,38.425 C55.91,37.375 55.6025,36.59 54.9875,36.07 C54.3725,35.55 53.43,35.29 52.16,35.29 L52.16,35.29 L49.49,35.29 L49.49,46 L51.605,46 Z M52.145,40.135 L51.605,40.135 L51.605,37.06 L52.1,37.06 C52.66,37.06 53.075,37.1775 53.345,37.4125 C53.615,37.6475 53.75,38.015 53.75,38.515 C53.75,39.595 53.215,40.135 52.145,40.135 L52.145,40.135 Z M60.98,42.91 L60.98,41.05 L57.185,41.05 L57.185,42.91 L60.98,42.91 Z M31.085,66 L31.085,59.43 L32.585,59.43 L32.585,57.795 L31.085,57.795 L31.085,57.375 C31.085,56.965 31.1375,56.6675 31.2425,56.4825 C31.3475,56.2975 31.52,56.205 31.76,56.205 C31.93,56.205 32.0875,56.2225 32.2325,56.2575 C32.3775,56.2925 32.525,56.335 32.675,56.385 L32.675,56.385 L33.14,54.855 C32.85,54.745 32.5725,54.6625 32.3075,54.6075 C32.0425,54.5525 31.745,54.525 31.415,54.525 C30.615,54.525 30.02,54.7525 29.63,55.2075 C29.24,55.6625 29.045,56.405 29.045,57.435 L29.045,57.435 L29.045,57.795 L28.025,58.38 L28.025,59.43 L29.045,59.43 L29.045,66 L31.085,66 Z M35.3,66.15 C35.85,66.15 36.2875,66.05 36.6125,65.85 C36.9375,65.65 37.245,65.335 37.535,64.905 L37.535,64.905 L37.58,64.905 L37.925,66 L39.395,66 L39.395,60.555 C39.395,59.585 39.1625,58.8575 38.6975,58.3725 C38.2325,57.8875 37.555,57.645 36.665,57.645 C35.615,57.645 34.69,57.88 33.89,58.35 L33.89,58.35 L34.49,59.82 C34.83,59.63 35.155,59.4875 35.465,59.3925 C35.775,59.2975 36.07,59.25 36.35,59.25 C37.03,59.25 37.37,59.685 37.37,60.555 L37.37,60.555 L37.37,60.885 L36.23,60.93 C35.25,60.97 34.5025,61.205 33.9875,61.635 C33.4725,62.065 33.215,62.71 33.215,63.57 C33.215,64.3 33.39,64.9125 33.74,65.4075 C34.09,65.9025 34.61,66.15 35.3,66.15 Z M36.11,64.56 C35.85,64.56 35.645,64.4775 35.495,64.3125 C35.345,64.1475 35.27,63.88 35.27,63.51 C35.27,63.11 35.385,62.8 35.615,62.58 C35.845,62.36 36.21,62.24 36.71,62.22 L36.71,62.22 L37.37,62.19 L37.37,62.925 C37.37,63.435 37.25,63.835 37.01,64.125 C36.77,64.415 36.47,64.56 36.11,64.56 Z M43.58,66.15 C43.91,66.15 44.2175,66.115 44.5025,66.045 C44.7875,65.975 45.045,65.885 45.275,65.775 L45.275,65.775 L45.275,64.185 C44.905,64.335 44.55,64.41 44.21,64.41 C43.7,64.41 43.445,64.095 43.445,63.465 L43.445,63.465 L43.445,59.43 L45.17,59.43 L45.17,57.795 L43.445,57.795 L43.445,56.07 L42.095,56.07 L41.57,57.84 L40.535,58.425 L40.535,59.43 L41.42,59.43 L41.42,63.525 C41.42,64.455 41.6025,65.125 41.9675,65.535 C42.3325,65.945 42.87,66.15 43.58,66.15 Z M48.86,66.15 C49.19,66.15 49.4975,66.115 49.7825,66.045 C50.0675,65.975 50.325,65.885 50.555,65.775 L50.555,65.775 L50.555,64.185 C50.185,64.335 49.83,64.41 49.49,64.41 C48.98,64.41 48.725,64.095 48.725,63.465 L48.725,63.465 L48.725,59.43 L50.45,59.43 L50.45,57.795 L48.725,57.795 L48.725,56.07 L47.375,56.07 L46.85,57.84 L45.815,58.425 L45.815,59.43 L46.7,59.43 L46.7,63.525 C46.7,64.455 46.8825,65.125 47.2475,65.535 C47.6125,65.945 48.15,66.15 48.86,66.15 Z M54.185,66.15 C54.625,66.15 55.02,66.05 55.37,65.85 C55.72,65.65 56,65.35 56.21,64.95 L56.21,64.95 L56.315,64.95 L56.57,66 L58.145,66 L58.145,57.795 L56.12,57.795 L56.12,61.875 C56.12,62.685 56.03,63.3075 55.85,63.7425 C55.67,64.1775 55.31,64.395 54.77,64.395 C54.43,64.395 54.1875,64.2425 54.0425,63.9375 C53.8975,63.6325 53.825,63.18 53.825,62.58 L53.825,62.58 L53.825,57.795 L51.785,57.795 L51.785,63.15 C51.785,64.13 51.9925,64.875 52.4075,65.385 C52.8225,65.895 53.415,66.15 54.185,66.15 Z M62.075,66 L62.075,61.815 C62.075,61.145 62.2275,60.63 62.5325,60.27 C62.8375,59.91 63.24,59.73 63.74,59.73 C64.02,59.73 64.25,59.765 64.43,59.835 L64.43,59.835 L64.595,57.735 C64.355,57.675 64.125,57.645 63.905,57.645 C63.465,57.645 63.0825,57.7975 62.7575,58.1025 C62.4325,58.4075 62.175,58.76 61.985,59.16 L61.985,59.16 L61.895,59.16 L61.595,57.795 L60.035,57.795 L60.035,66 L62.075,66 Z M67.145,66.15 C67.695,66.15 68.1325,66.05 68.4575,65.85 C68.7825,65.65 69.09,65.335 69.38,64.905 L69.38,64.905 L69.425,64.905 L69.77,66 L71.24,66 L71.24,60.555 C71.24,59.585 71.0075,58.8575 70.5425,58.3725 C70.0775,57.8875 69.4,57.645 68.51,57.645 C67.46,57.645 66.535,57.88 65.735,58.35 L65.735,58.35 L66.335,59.82 C66.675,59.63 67,59.4875 67.31,59.3925 C67.62,59.2975 67.915,59.25 68.195,59.25 C68.875,59.25 69.215,59.685 69.215,60.555 L69.215,60.555 L69.215,60.885 L68.075,60.93 C67.095,60.97 66.3475,61.205 65.8325,61.635 C65.3175,62.065 65.06,62.71 65.06,63.57 C65.06,64.3 65.235,64.9125 65.585,65.4075 C65.935,65.9025 66.455,66.15 67.145,66.15 Z M67.955,64.56 C67.695,64.56 67.49,64.4775 67.34,64.3125 C67.19,64.1475 67.115,63.88 67.115,63.51 C67.115,63.11 67.23,62.8 67.46,62.58 C67.69,62.36 68.055,62.24 68.555,62.22 L68.555,62.22 L69.215,62.19 L69.215,62.925 C69.215,63.435 69.095,63.835 68.855,64.125 C68.615,64.415 68.315,64.56 67.955,64.56 Z" id="qr-rechnung-text" fill="#FFFFFF" fill-rule="nonzero"></path>
		</g>
		<g id="ebill" transform="translate(529.000000, 24.000000)">
			<circle id="Oval" fill="#25B9D4" cx="50" cy="50" r="50"></circle>
			<path d="M39.9425,47.66 C40.9225049,47.66 41.6849973,47.9899967 42.23,48.65 C42.7750027,49.3100033 43.0475,50.2149943 43.0475,51.365 L43.0475,52.46 L38.7275,52.46 C38.7475001,53.8400069 39.3124945,54.53 40.4225,54.53 C40.822502,54.53 41.1974983,54.4850005 41.5475,54.395 C41.8975017,54.3049995 42.2624981,54.1500011 42.6425,53.93 L42.6425,55.58 C42.2924983,55.780001 41.9225019,55.9249995 41.5325,56.015 C41.1424981,56.1050004 40.6975025,56.15 40.1975,56.15 C39.0374942,56.15 38.1650029,55.7850037 37.58,55.055 C36.9949971,54.3249963 36.7025,53.2900067 36.7025,51.95 C36.7025,50.549993 36.9849972,49.4850037 37.55,48.755 C38.1150028,48.0249964 38.9124949,47.66 39.9425,47.66 Z M39.9725,49.205 C39.6224982,49.205 39.3350011,49.3474986 39.11,49.6325 C38.8849989,49.9175014 38.7625001,50.3799968 38.7425,51.02 L41.1425,51.02 C41.1425,50.4699972 41.042501,50.0300017 40.8425,49.7 C40.642499,49.3699984 40.3525019,49.205 39.9725,49.205 Z M44.6525,45.29 L47.6225,45.29 C48.822506,45.29 49.724997,45.5024979 50.33,45.9275 C50.935003,46.3525021 51.2375,47.0299954 51.2375,47.96 C51.2375,48.5800031 51.1050013,49.0999979 50.84,49.52 C50.5749987,49.9400021 50.2025024,50.2049995 49.7225,50.315 L49.7225,50.39 C50.2825028,50.5300007 50.7099985,50.799998 51.005,51.2 C51.3000015,51.600002 51.4475,52.1649964 51.4475,52.895 C51.4475,53.8550048 51.147503,54.6124972 50.5475,55.1675 C49.947497,55.7225028 49.1175053,56 48.0575,56 L44.6525,56 L44.6525,45.29 Z M46.7675,49.595 L47.6975,49.595 C48.1875024,49.595 48.5424989,49.4800011 48.7625,49.25 C48.9825011,49.0199989 49.0925,48.6850022 49.0925,48.245 C49.0925,47.434996 48.6075048,47.03 47.6375,47.03 L46.7675,47.03 L46.7675,49.595 Z M46.7675,51.29 L46.7675,54.23 L47.8625,54.23 C48.3625025,54.23 48.7224989,54.1000013 48.9425,53.84 C49.1625011,53.5799987 49.2725,53.2050025 49.2725,52.715 C49.2725,52.2649977 49.1525012,51.9150013 48.9125,51.665 C48.6724988,51.4149987 48.2975025,51.29 47.7875,51.29 L46.7675,51.29 Z M54.0875,44.585 C54.8275037,44.585 55.1975,44.9549963 55.1975,45.695 C55.1975,46.0650019 55.100001,46.3399991 54.905,46.52 C54.709999,46.7000009 54.4375017,46.79 54.0875,46.79 C53.7474983,46.79 53.4775,46.7000009 53.2775,46.52 C53.077499,46.3399991 52.9775,46.0650019 52.9775,45.695 C52.9775,45.3049981 53.074999,45.0225009 53.27,44.8475 C53.465001,44.6724991 53.7374982,44.585 54.0875,44.585 Z M55.1075,47.795 L55.1075,56 L53.0675,56 L53.0675,47.795 L55.1075,47.795 Z M59.0225,56 L56.9975,56 L56.9975,44.6 L59.0225,44.6 L59.0225,56 Z M62.9375,56 L60.9125,56 L60.9125,44.6 L62.9375,44.6 L62.9375,56 Z" id="ebill-text" fill="#FFFFFF" fill-rule="nonzero"></path>
		</g>
	</g>
</svg>

