<svg width="655px" height="366px" viewBox="0 0 655 366" version="1.1" xmlns="http://www.w3.org/2000/svg" xmlns:xlink="http://www.w3.org/1999/xlink">
	<g id="animation_en" stroke="none" stroke-width="1" fill="none" fill-rule="evenodd">
		<g id="x-axis" transform="translate(124.000000, 337.000000)">
			<polygon id="x-axis-2" fill="#5C5C5B" transform="translate(525.900000, 3.000000) rotate(90.000000) translate(-525.900000, -3.000000) " points="525.9 -2 528.9 8 522.9 8"></polygon>
			<line x1="0" y1="3" x2="521" y2="3" id="x-axis-1" stroke="#5C5C5B" stroke-width="2"></line>
		</g>
		<g id="y-axis" transform="translate(122.000000, 0.000000)">
			<polygon id="y-axis-2" fill="#5C5C5B" points="3 0.1 6 10.1 0 10.1"></polygon>
			<line x1="3" y1="340" x2="3" y2="10" id="y-axis-1" stroke="#5C5C5B" stroke-width="2"></line>
		</g>
		<g id="x-labels" transform="translate(235.000000, 349.000000)" fill="#5C5C5B" fill-rule="nonzero">
			<path d="M3.991,12 L3.991,4.291 L5.954,4.291 L5.954,2.718 L0.208,2.718 L0.208,4.291 L2.171,4.291 L2.171,12 L3.991,12 Z M8.9453,12.13 C9.6213,12.13 10.1759667,11.9675 10.6093,11.6425 C11.0426333,11.3175 11.3654667,10.8755 11.5778,10.3165 C11.7901333,9.7575 11.8963,9.127 11.8963,8.425 C11.8963,7.24633333 11.6298,6.34066667 11.0968,5.708 C10.5638,5.07533333 9.85963333,4.759 8.9843,4.759 C8.31696667,4.759 7.76663333,4.91283333 7.3333,5.2205 C6.89996667,5.52816667 6.57713333,5.955 6.3648,6.501 C6.15246667,7.047 6.0463,7.68833333 6.0463,8.425 C6.0463,9.127 6.1568,9.7575 6.3778,10.3165 C6.5988,10.8755 6.92596667,11.3175 7.3593,11.6425 C7.79263333,11.9675 8.3213,12.13 8.9453,12.13 Z M8.9713,10.661 C8.57263333,10.661 8.28446667,10.4746667 8.1068,10.102 C7.92913333,9.72933333 7.8403,9.179 7.8403,8.451 C7.8403,7.70566667 7.92913333,7.14883333 8.1068,6.7805 C8.28446667,6.41216667 8.57263333,6.228 8.9713,6.228 C9.36996667,6.228 9.65596667,6.41 9.8293,6.774 C10.0026333,7.138 10.0893,7.68833333 10.0893,8.425 C10.0893,9.17033333 10.0026333,9.72933333 9.8293,10.102 C9.65596667,10.4746667 9.36996667,10.661 8.9713,10.661 Z M15.1996,12.13 C15.5982667,12.13 15.9232667,12.0476667 16.1746,11.883 C16.4259333,11.7183333 16.6556,11.4843333 16.8636,11.181 L16.8636,11.181 L16.9546,11.181 L17.2276,12 L18.6186,12 L18.6186,2.12 L16.8636,2.12 L16.8636,4.538 C16.8636,4.71133333 16.8722667,4.9085 16.8896,5.1295 C16.9069333,5.3505 16.9242667,5.57366667 16.9416,5.799 L16.9416,5.799 L16.8766,5.799 C16.6859333,5.46966667 16.4497667,5.214 16.1681,5.032 C15.8864333,4.85 15.5549333,4.759 15.1736,4.759 C14.4802667,4.759 13.9321,5.07966667 13.5291,5.721 C13.1261,6.36233333 12.9246,7.27233333 12.9246,8.451 C12.9246,9.621 13.1261,10.5266667 13.5291,11.168 C13.9321,11.8093333 14.4889333,12.13 15.1996,12.13 Z M15.7586,10.674 C15.0566,10.674 14.7056,9.92866667 14.7056,8.438 C14.7056,7.72733333 14.7944333,7.18783333 14.9721,6.8195 C15.1497667,6.45116667 15.4076,6.267 15.7456,6.267 C16.1616,6.267 16.4584333,6.436 16.6361,6.774 C16.8137667,7.112 16.9026,7.62766667 16.9026,8.321 L16.9026,8.321 L16.9026,8.672 C16.8939333,9.35666667 16.8007667,9.8615 16.6231,10.1865 C16.4454333,10.5115 16.1572667,10.674 15.7586,10.674 Z M21.7009,12.13 C22.1775667,12.13 22.5567333,12.0433333 22.8384,11.87 C23.1200667,11.6966667 23.3865667,11.4236667 23.6379,11.051 L23.6379,11.051 L23.6769,11.051 L23.9759,12 L25.2499,12 L25.2499,7.281 C25.2499,6.44033333 25.0484,5.80983333 24.6454,5.3895 C24.2424,4.96916667 23.6552333,4.759 22.8839,4.759 C21.9739,4.759 21.1722333,4.96266667 20.4789,5.37 L20.4789,5.37 L20.9989,6.644 C21.2935667,6.47933333 21.5752333,6.35583333 21.8439,6.2735 C22.1125667,6.19116667 22.3682333,6.15 22.6109,6.15 C23.2002333,6.15 23.4949,6.527 23.4949,7.281 L23.4949,7.281 L23.4949,7.567 L22.5069,7.606 C21.6575667,7.64066667 21.0097333,7.84433333 20.5634,8.217 C20.1170667,8.58966667 19.8939,9.14866667 19.8939,9.894 C19.8939,10.5266667 20.0455667,11.0575 20.3489,11.4865 C20.6522333,11.9155 21.1029,12.13 21.7009,12.13 Z M22.4029,10.752 C22.1775667,10.752 21.9999,10.6805 21.8699,10.5375 C21.7399,10.3945 21.6749,10.1626667 21.6749,9.842 C21.6749,9.49533333 21.7745667,9.22666667 21.9739,9.036 C22.1732333,8.84533333 22.4895667,8.74133333 22.9229,8.724 L22.9229,8.724 L23.4949,8.698 L23.4949,9.335 C23.4949,9.777 23.3909,10.1236667 23.1829,10.375 C22.9749,10.6263333 22.7149,10.752 22.4029,10.752 Z M27.3962,15.12 C28.0028667,15.12 28.5120333,14.9336667 28.9237,14.561 C29.3353667,14.1883333 29.6668667,13.586 29.9182,12.754 L29.9182,12.754 L32.2972,4.889 L30.4512,4.889 L29.5152,8.516 C29.4458667,8.76733333 29.3895333,8.99916667 29.3462,9.2115 C29.3028667,9.42383333 29.2682,9.62533333 29.2422,9.816 L29.2422,9.816 L29.2032,9.816 C29.1858667,9.61666667 29.1533667,9.40216667 29.1057,9.1725 C29.0580333,8.94283333 29.0082,8.71966667 28.9562,8.503 L28.9562,8.503 L27.9682,4.889 L26.0962,4.889 L28.3712,11.935 L28.2672,12.338 C28.1198667,12.7973333 27.9682,13.1223333 27.8122,13.313 C27.6562,13.5036667 27.4265333,13.599 27.1232,13.599 C27.0278667,13.599 26.9282,13.5903333 26.8242,13.573 C26.7202,13.5556667 26.6248667,13.534 26.5382,13.508 L26.5382,13.508 L26.5382,15.016 C26.6682,15.0506667 26.8025333,15.0766667 26.9412,15.094 C27.0798667,15.1113333 27.2315333,15.12 27.3962,15.12 Z" id="x-labels-1"></path>
			<path d="M125.626,13 L125.626,8.359 C125.626,8.03833333 125.615167,7.66133333 125.5935,7.228 C125.571833,6.79466667 125.548,6.39166667 125.522,6.019 L125.522,6.019 L125.574,6.019 L127.537,13 L129.045,13 L131.06,6.032 L131.112,6.032 C131.086,6.396 131.0665,6.786 131.0535,7.202 C131.0405,7.618 131.034,7.99066667 131.034,8.32 L131.034,8.32 L131.034,13 L132.776,13 L132.776,3.718 L130.254,3.718 L128.356,10.296 L128.317,10.296 L126.458,3.718 L123.936,3.718 L123.936,13 L125.626,13 Z M135.940506,13.13 C136.417173,13.13 136.796339,13.0433333 137.078006,12.87 C137.359673,12.6966667 137.626173,12.4236667 137.877506,12.051 L137.877506,12.051 L137.916506,12.051 L138.215506,13 L139.489506,13 L139.489506,8.281 C139.489506,7.44033333 139.288006,6.80983333 138.885006,6.3895 C138.482006,5.96916667 137.894839,5.759 137.123506,5.759 C136.213506,5.759 135.411839,5.96266667 134.718506,6.37 L134.718506,6.37 L135.238506,7.644 C135.533173,7.47933333 135.814839,7.35583333 136.083506,7.2735 C136.352173,7.19116667 136.607839,7.15 136.850506,7.15 C137.439839,7.15 137.734506,7.527 137.734506,8.281 L137.734506,8.281 L137.734506,8.567 L136.746506,8.606 C135.897173,8.64066667 135.249339,8.84433333 134.803006,9.217 C134.356673,9.58966667 134.133506,10.1486667 134.133506,10.894 C134.133506,11.5266667 134.285173,12.0575 134.588506,12.4865 C134.891839,12.9155 135.342506,13.13 135.940506,13.13 Z M136.642506,11.752 C136.417173,11.752 136.239506,11.6805 136.109506,11.5375 C135.979506,11.3945 135.914506,11.1626667 135.914506,10.842 C135.914506,10.4953333 136.014173,10.2266667 136.213506,10.036 C136.412839,9.84533333 136.729173,9.74133333 137.162506,9.724 L137.162506,9.724 L137.734506,9.698 L137.734506,10.335 C137.734506,10.777 137.630506,11.1236667 137.422506,11.375 C137.214506,11.6263333 136.954506,11.752 136.642506,11.752 Z M142.875012,13 L142.875012,9.373 C142.875012,8.79233333 143.007178,8.346 143.271512,8.034 C143.535845,7.722 143.884678,7.566 144.318012,7.566 C144.560678,7.566 144.760012,7.59633333 144.916012,7.657 L144.916012,7.657 L145.059012,5.837 C144.851012,5.785 144.651678,5.759 144.461012,5.759 C144.079678,5.759 143.748178,5.89116667 143.466512,6.1555 C143.184845,6.41983333 142.961678,6.72533333 142.797012,7.072 L142.797012,7.072 L142.719012,7.072 L142.459012,5.889 L141.107012,5.889 L141.107012,13 L142.875012,13 Z M147.794518,13 L147.794518,10.738 L148.509518,10.088 L150.004518,13 L151.954518,13 L149.705518,8.853 L151.850518,5.889 L149.913518,5.889 L148.353518,8.151 C148.162851,8.437 147.963518,8.77066667 147.755518,9.152 L147.755518,9.152 L147.716518,9.152 C147.768518,8.59733333 147.794518,8.034 147.794518,7.462 L147.794518,7.462 L147.794518,3.12 L146.039518,3.12 L146.039518,13 L147.794518,13 Z M155.483024,13.13 C155.916357,13.13 156.302024,13.091 156.640024,13.013 C156.978024,12.935 157.29869,12.8093333 157.602024,12.636 L157.602024,12.636 L157.602024,11.206 C157.27269,11.3966667 156.956357,11.531 156.653024,11.609 C156.34969,11.687 156.02469,11.726 155.678024,11.726 C154.716024,11.726 154.226357,11.128 154.209024,9.932 L154.209024,9.932 L157.953024,9.932 L157.953024,8.983 C157.953024,7.98633333 157.716857,7.202 157.244524,6.63 C156.77219,6.058 156.111357,5.772 155.262024,5.772 C154.369357,5.772 153.67819,6.08833333 153.188524,6.721 C152.698857,7.35366667 152.454024,8.27666667 152.454024,9.49 C152.454024,10.6513333 152.707524,11.5483333 153.214524,12.181 C153.721524,12.8136667 154.47769,13.13 155.483024,13.13 Z M156.302024,8.684 L154.222024,8.684 C154.239357,8.12933333 154.345524,7.7285 154.540524,7.4815 C154.735524,7.2345 154.98469,7.111 155.288024,7.111 C155.617357,7.111 155.86869,7.254 156.042024,7.54 C156.215357,7.826 156.302024,8.20733333 156.302024,8.684 L156.302024,8.684 Z M161.247529,13.13 C161.533529,13.13 161.800029,13.0996667 162.047029,13.039 C162.294029,12.9783333 162.517196,12.9003333 162.716529,12.805 L162.716529,12.805 L162.716529,11.427 C162.395863,11.557 162.088196,11.622 161.793529,11.622 C161.351529,11.622 161.130529,11.349 161.130529,10.803 L161.130529,10.803 L161.130529,7.306 L162.625529,7.306 L162.625529,5.889 L161.130529,5.889 L161.130529,4.394 L159.960529,4.394 L159.505529,5.928 L158.608529,6.435 L158.608529,7.306 L159.375529,7.306 L159.375529,10.855 C159.375529,11.661 159.533696,12.2416667 159.850029,12.597 C160.166363,12.9523333 160.632196,13.13 161.247529,13.13 Z M168.421541,13.13 C168.820208,13.13 169.145208,13.0476667 169.396541,12.883 C169.647875,12.7183333 169.877541,12.4843333 170.085541,12.181 L170.085541,12.181 L170.176541,12.181 L170.449541,13 L171.840541,13 L171.840541,3.12 L170.085541,3.12 L170.085541,5.538 C170.085541,5.71133333 170.094208,5.9085 170.111541,6.1295 C170.128875,6.3505 170.146208,6.57366667 170.163541,6.799 L170.163541,6.799 L170.098541,6.799 C169.907875,6.46966667 169.671708,6.214 169.390041,6.032 C169.108375,5.85 168.776875,5.759 168.395541,5.759 C167.702208,5.759 167.154041,6.07966667 166.751041,6.721 C166.348041,7.36233333 166.146541,8.27233333 166.146541,9.451 C166.146541,10.621 166.348041,11.5266667 166.751041,12.168 C167.154041,12.8093333 167.710875,13.13 168.421541,13.13 Z M168.980541,11.674 C168.278541,11.674 167.927541,10.9286667 167.927541,9.438 C167.927541,8.72733333 168.016375,8.18783333 168.194041,7.8195 C168.371708,7.45116667 168.629541,7.267 168.967541,7.267 C169.383541,7.267 169.680375,7.436 169.858041,7.774 C170.035708,8.112 170.124541,8.62766667 170.124541,9.321 L170.124541,9.321 L170.124541,9.672 C170.115875,10.3566667 170.022708,10.8615 169.845041,11.1865 C169.667375,11.5115 169.379208,11.674 168.980541,11.674 Z M176.201047,13.13 C176.63438,13.13 177.020047,13.091 177.358047,13.013 C177.696047,12.935 178.016714,12.8093333 178.320047,12.636 L178.320047,12.636 L178.320047,11.206 C177.990714,11.3966667 177.67438,11.531 177.371047,11.609 C177.067714,11.687 176.742714,11.726 176.396047,11.726 C175.434047,11.726 174.94438,11.128 174.927047,9.932 L174.927047,9.932 L178.671047,9.932 L178.671047,8.983 C178.671047,7.98633333 178.43488,7.202 177.962547,6.63 C177.490214,6.058 176.82938,5.772 175.980047,5.772 C175.08738,5.772 174.396214,6.08833333 173.906547,6.721 C173.41688,7.35366667 173.172047,8.27666667 173.172047,9.49 C173.172047,10.6513333 173.425547,11.5483333 173.932547,12.181 C174.439547,12.8136667 175.195714,13.13 176.201047,13.13 Z M177.020047,8.684 L174.940047,8.684 C174.95738,8.12933333 175.063547,7.7285 175.258547,7.4815 C175.453547,7.2345 175.702714,7.111 176.006047,7.111 C176.33538,7.111 176.586714,7.254 176.760047,7.54 C176.93338,7.826 177.020047,8.20733333 177.020047,8.684 L177.020047,8.684 Z M183.018553,13 L185.176553,5.889 L183.343553,5.889 L182.329553,9.802 C182.26022,10.0793333 182.206053,10.3393333 182.167053,10.582 C182.128053,10.8246667 182.10422,11.0456667 182.095553,11.245 L182.095553,11.245 L182.043553,11.245 C182.017553,10.9936667 181.985053,10.7423333 181.946053,10.491 C181.907053,10.2396667 181.852886,9.98833333 181.783553,9.737 L181.783553,9.737 L180.808553,5.889 L178.975553,5.889 L181.133553,13 L183.018553,13 Z M188.757059,13.13 C189.190392,13.13 189.576059,13.091 189.914059,13.013 C190.252059,12.935 190.572725,12.8093333 190.876059,12.636 L190.876059,12.636 L190.876059,11.206 C190.546725,11.3966667 190.230392,11.531 189.927059,11.609 C189.623725,11.687 189.298725,11.726 188.952059,11.726 C187.990059,11.726 187.500392,11.128 187.483059,9.932 L187.483059,9.932 L191.227059,9.932 L191.227059,8.983 C191.227059,7.98633333 190.990892,7.202 190.518559,6.63 C190.046225,6.058 189.385392,5.772 188.536059,5.772 C187.643392,5.772 186.952225,6.08833333 186.462559,6.721 C185.972892,7.35366667 185.728059,8.27666667 185.728059,9.49 C185.728059,10.6513333 185.981559,11.5483333 186.488559,12.181 C186.995559,12.8136667 187.751725,13.13 188.757059,13.13 Z M189.576059,8.684 L187.496059,8.684 C187.513392,8.12933333 187.619559,7.7285 187.814559,7.4815 C188.009559,7.2345 188.258725,7.111 188.562059,7.111 C188.891392,7.111 189.142725,7.254 189.316059,7.54 C189.489392,7.826 189.576059,8.20733333 189.576059,8.684 L189.576059,8.684 Z M194.261565,13 L194.261565,3.12 L192.506565,3.12 L192.506565,13 L194.261565,13 Z M198.492071,13.13 C199.168071,13.13 199.722737,12.9675 200.156071,12.6425 C200.589404,12.3175 200.912237,11.8755 201.124571,11.3165 C201.336904,10.7575 201.443071,10.127 201.443071,9.425 C201.443071,8.24633333 201.176571,7.34066667 200.643571,6.708 C200.110571,6.07533333 199.406404,5.759 198.531071,5.759 C197.863737,5.759 197.313404,5.91283333 196.880071,6.2205 C196.446737,6.52816667 196.123904,6.955 195.911571,7.501 C195.699237,8.047 195.593071,8.68833333 195.593071,9.425 C195.593071,10.127 195.703571,10.7575 195.924571,11.3165 C196.145571,11.8755 196.472737,12.3175 196.906071,12.6425 C197.339404,12.9675 197.868071,13.13 198.492071,13.13 Z M198.518071,11.661 C198.119404,11.661 197.831237,11.4746667 197.653571,11.102 C197.475904,10.7293333 197.387071,10.179 197.387071,9.451 C197.387071,8.70566667 197.475904,8.14883333 197.653571,7.7805 C197.831237,7.41216667 198.119404,7.228 198.518071,7.228 C198.916737,7.228 199.202737,7.41 199.376071,7.774 C199.549404,8.138 199.636071,8.68833333 199.636071,9.425 C199.636071,10.1703333 199.549404,10.7293333 199.376071,11.102 C199.202737,11.4746667 198.916737,11.661 198.518071,11.661 Z M204.516576,16.12 L204.516576,13.273 C204.516576,13.1256667 204.512243,12.9566667 204.503576,12.766 C204.49491,12.5753333 204.477576,12.3586667 204.451576,12.116 L204.451576,12.116 L204.529576,12.116 C204.711576,12.4453333 204.941243,12.6966667 205.218576,12.87 C205.49591,13.0433333 205.825243,13.13 206.206576,13.13 C206.89991,13.13 207.448076,12.8071667 207.851076,12.1615 C208.254076,11.5158333 208.455576,10.6123333 208.455576,9.451 C208.455576,8.26366667 208.256243,7.3515 207.857576,6.7145 C207.45891,6.0775 206.904243,5.759 206.193576,5.759 C205.82091,5.759 205.50241,5.8435 205.238076,6.0125 C204.973743,6.1815 204.737576,6.45233333 204.529576,6.825 L204.529576,6.825 L204.438576,6.825 L204.178576,5.889 L202.761576,5.889 L202.761576,16.12 L204.516576,16.12 Z M205.634576,11.635 C205.23591,11.635 204.94991,11.466 204.776576,11.128 C204.603243,10.79 204.516576,10.27 204.516576,9.568 L204.516576,9.568 L204.516576,9.256 C204.525243,8.554 204.614076,8.0405 204.783076,7.7155 C204.952076,7.3905 205.23591,7.228 205.634576,7.228 C206.319243,7.228 206.661576,7.97333333 206.661576,9.464 C206.661576,10.9113333 206.319243,11.635 205.634576,11.635 Z M211.542082,13 L211.542082,9.62 C211.542082,8.85733333 211.617916,8.27666667 211.769582,7.878 C211.921249,7.47933333 212.205082,7.28 212.621082,7.28 C213.149749,7.28 213.414082,7.79133333 213.414082,8.814 L213.414082,8.814 L213.414082,13 L215.182082,13 L215.182082,9.412 C215.182082,8.70133333 215.260082,8.16833333 215.416082,7.813 C215.572082,7.45766667 215.845082,7.28 216.235082,7.28 C216.781082,7.28 217.054082,7.79566667 217.054082,8.827 L217.054082,8.827 L217.054082,13 L218.809082,13 L218.809082,8.333 C218.809082,7.45766667 218.642249,6.80983333 218.308582,6.3895 C217.974916,5.96916667 217.478749,5.759 216.820082,5.759 C216.005416,5.759 215.424749,6.10133333 215.078082,6.786 L215.078082,6.786 L214.948082,6.786 C214.809416,6.474 214.601416,6.22483333 214.324082,6.0385 C214.046749,5.85216667 213.687082,5.759 213.245082,5.759 C212.846416,5.759 212.491082,5.84566667 212.179082,6.019 C211.867082,6.19233333 211.633082,6.45233333 211.477082,6.799 L211.477082,6.799 L211.373082,6.799 L211.165082,5.889 L209.787082,5.889 L209.787082,13 L211.542082,13 Z M223.143588,13.13 C223.576922,13.13 223.962588,13.091 224.300588,13.013 C224.638588,12.935 224.959255,12.8093333 225.262588,12.636 L225.262588,12.636 L225.262588,11.206 C224.933255,11.3966667 224.616922,11.531 224.313588,11.609 C224.010255,11.687 223.685255,11.726 223.338588,11.726 C222.376588,11.726 221.886922,11.128 221.869588,9.932 L221.869588,9.932 L225.613588,9.932 L225.613588,8.983 C225.613588,7.98633333 225.377422,7.202 224.905088,6.63 C224.432755,6.058 223.771922,5.772 222.922588,5.772 C222.029922,5.772 221.338755,6.08833333 220.849088,6.721 C220.359422,7.35366667 220.114588,8.27666667 220.114588,9.49 C220.114588,10.6513333 220.368088,11.5483333 220.875088,12.181 C221.382088,12.8136667 222.138255,13.13 223.143588,13.13 Z M223.962588,8.684 L221.882588,8.684 C221.899922,8.12933333 222.006088,7.7285 222.201088,7.4815 C222.396088,7.2345 222.645255,7.111 222.948588,7.111 C223.277922,7.111 223.529255,7.254 223.702588,7.54 C223.875922,7.826 223.962588,8.20733333 223.962588,8.684 L223.962588,8.684 Z M228.648094,13 L228.648094,9.607 C228.648094,8.78366667 228.730427,8.19 228.895094,7.826 C229.059761,7.462 229.358761,7.28 229.792094,7.28 C230.104094,7.28 230.322927,7.41 230.448594,7.67 C230.574261,7.93 230.637094,8.31133333 230.637094,8.814 L230.637094,8.814 L230.637094,13 L232.405094,13 L232.405094,8.32 C232.405094,7.47066667 232.220927,6.8315 231.852594,6.4025 C231.484261,5.9735 230.979427,5.759 230.338094,5.759 C229.956761,5.759 229.612261,5.84566667 229.304594,6.019 C228.996927,6.19233333 228.756427,6.45233333 228.583094,6.799 L228.583094,6.799 L228.479094,6.799 L228.271094,5.889 L226.893094,5.889 L226.893094,13 L228.648094,13 Z M236.0376,13.13 C236.3236,13.13 236.5901,13.0996667 236.8371,13.039 C237.0841,12.9783333 237.307267,12.9003333 237.5066,12.805 L237.5066,12.805 L237.5066,11.427 C237.185933,11.557 236.878267,11.622 236.5836,11.622 C236.1416,11.622 235.9206,11.349 235.9206,10.803 L235.9206,10.803 L235.9206,7.306 L237.4156,7.306 L237.4156,5.889 L235.9206,5.889 L235.9206,4.394 L234.7506,4.394 L234.2956,5.928 L233.3986,6.435 L233.3986,7.306 L234.1656,7.306 L234.1656,10.855 C234.1656,11.661 234.323767,12.2416667 234.6401,12.597 C234.956433,12.9523333 235.422267,13.13 236.0376,13.13 Z" id="x-labels-2"></path>
			<path d="M319.991,12 L319.991,4.291 L321.954,4.291 L321.954,2.718 L316.208,2.718 L316.208,4.291 L318.171,4.291 L318.171,12 L319.991,12 Z M324.927941,12.13 C325.603941,12.13 326.158608,11.9675 326.591941,11.6425 C327.025275,11.3175 327.348108,10.8755 327.560441,10.3165 C327.772775,9.7575 327.878941,9.127 327.878941,8.425 C327.878941,7.24633333 327.612441,6.34066667 327.079441,5.708 C326.546441,5.07533333 325.842275,4.759 324.966941,4.759 C324.299608,4.759 323.749275,4.91283333 323.315941,5.2205 C322.882608,5.52816667 322.559775,5.955 322.347441,6.501 C322.135108,7.047 322.028941,7.68833333 322.028941,8.425 C322.028941,9.127 322.139441,9.7575 322.360441,10.3165 C322.581441,10.8755 322.908608,11.3175 323.341941,11.6425 C323.775275,11.9675 324.303941,12.13 324.927941,12.13 Z M324.953941,10.661 C324.555275,10.661 324.267108,10.4746667 324.089441,10.102 C323.911775,9.72933333 323.822941,9.179 323.822941,8.451 C323.822941,7.70566667 323.911775,7.14883333 324.089441,6.7805 C324.267108,6.41216667 324.555275,6.228 324.953941,6.228 C325.352608,6.228 325.638608,6.41 325.811941,6.774 C325.985275,7.138 326.071941,7.68833333 326.071941,8.425 C326.071941,9.17033333 325.985275,9.72933333 325.811941,10.102 C325.638608,10.4746667 325.352608,10.661 324.953941,10.661 Z M330.956882,12 L330.956882,8.62 C330.956882,7.85733333 331.032716,7.27666667 331.184382,6.878 C331.336049,6.47933333 331.619882,6.28 332.035882,6.28 C332.564549,6.28 332.828882,6.79133333 332.828882,7.814 L332.828882,7.814 L332.828882,12 L334.596882,12 L334.596882,8.412 C334.596882,7.70133333 334.674882,7.16833333 334.830882,6.813 C334.986882,6.45766667 335.259882,6.28 335.649882,6.28 C336.195882,6.28 336.468882,6.79566667 336.468882,7.827 L336.468882,7.827 L336.468882,12 L338.223882,12 L338.223882,7.333 C338.223882,6.45766667 338.057049,5.80983333 337.723382,5.3895 C337.389716,4.96916667 336.893549,4.759 336.234882,4.759 C335.420216,4.759 334.839549,5.10133333 334.492882,5.786 L334.492882,5.786 L334.362882,5.786 C334.224216,5.474 334.016216,5.22483333 333.738882,5.0385 C333.461549,4.85216667 333.101882,4.759 332.659882,4.759 C332.261216,4.759 331.905882,4.84566667 331.593882,5.019 C331.281882,5.19233333 331.047882,5.45233333 330.891882,5.799 L330.891882,5.799 L330.787882,5.799 L330.579882,4.889 L329.201882,4.889 L329.201882,12 L330.956882,12 Z M342.432824,12.13 C343.108824,12.13 343.66349,11.9675 344.096824,11.6425 C344.530157,11.3175 344.85299,10.8755 345.065324,10.3165 C345.277657,9.7575 345.383824,9.127 345.383824,8.425 C345.383824,7.24633333 345.117324,6.34066667 344.584324,5.708 C344.051324,5.07533333 343.347157,4.759 342.471824,4.759 C341.80449,4.759 341.254157,4.91283333 340.820824,5.2205 C340.38749,5.52816667 340.064657,5.955 339.852324,6.501 C339.63999,7.047 339.533824,7.68833333 339.533824,8.425 C339.533824,9.127 339.644324,9.7575 339.865324,10.3165 C340.086324,10.8755 340.41349,11.3175 340.846824,11.6425 C341.280157,11.9675 341.808824,12.13 342.432824,12.13 Z M342.458824,10.661 C342.060157,10.661 341.77199,10.4746667 341.594324,10.102 C341.416657,9.72933333 341.327824,9.179 341.327824,8.451 C341.327824,7.70566667 341.416657,7.14883333 341.594324,6.7805 C341.77199,6.41216667 342.060157,6.228 342.458824,6.228 C342.85749,6.228 343.14349,6.41 343.316824,6.774 C343.490157,7.138 343.576824,7.68833333 343.576824,8.425 C343.576824,9.17033333 343.490157,9.72933333 343.316824,10.102 C343.14349,10.4746667 342.85749,10.661 342.458824,10.661 Z M348.474765,12 L348.474765,8.373 C348.474765,7.79233333 348.606931,7.346 348.871265,7.034 C349.135598,6.722 349.484431,6.566 349.917765,6.566 C350.160431,6.566 350.359765,6.59633333 350.515765,6.657 L350.515765,6.657 L350.658765,4.837 C350.450765,4.785 350.251431,4.759 350.060765,4.759 C349.679431,4.759 349.347931,4.89116667 349.066265,5.1555 C348.784598,5.41983333 348.561431,5.72533333 348.396765,6.072 L348.396765,6.072 L348.318765,6.072 L348.058765,4.889 L346.706765,4.889 L346.706765,12 L348.474765,12 Z M353.411706,12 L353.411706,8.373 C353.411706,7.79233333 353.543873,7.346 353.808206,7.034 C354.072539,6.722 354.421373,6.566 354.854706,6.566 C355.097373,6.566 355.296706,6.59633333 355.452706,6.657 L355.452706,6.657 L355.595706,4.837 C355.387706,4.785 355.188373,4.759 354.997706,4.759 C354.616373,4.759 354.284873,4.89116667 354.003206,5.1555 C353.721539,5.41983333 353.498373,5.72533333 353.333706,6.072 L353.333706,6.072 L353.255706,6.072 L352.995706,4.889 L351.643706,4.889 L351.643706,12 L353.411706,12 Z M358.985647,12.13 C359.661647,12.13 360.216314,11.9675 360.649647,11.6425 C361.08298,11.3175 361.405814,10.8755 361.618147,10.3165 C361.83048,9.7575 361.936647,9.127 361.936647,8.425 C361.936647,7.24633333 361.670147,6.34066667 361.137147,5.708 C360.604147,5.07533333 359.89998,4.759 359.024647,4.759 C358.357314,4.759 357.80698,4.91283333 357.373647,5.2205 C356.940314,5.52816667 356.61748,5.955 356.405147,6.501 C356.192814,7.047 356.086647,7.68833333 356.086647,8.425 C356.086647,9.127 356.197147,9.7575 356.418147,10.3165 C356.639147,10.8755 356.966314,11.3175 357.399647,11.6425 C357.83298,11.9675 358.361647,12.13 358.985647,12.13 Z M359.011647,10.661 C358.61298,10.661 358.324814,10.4746667 358.147147,10.102 C357.96948,9.72933333 357.880647,9.179 357.880647,8.451 C357.880647,7.70566667 357.96948,7.14883333 358.147147,6.7805 C358.324814,6.41216667 358.61298,6.228 359.011647,6.228 C359.410314,6.228 359.696314,6.41 359.869647,6.774 C360.04298,7.138 360.129647,7.68833333 360.129647,8.425 C360.129647,9.17033333 360.04298,9.72933333 359.869647,10.102 C359.696314,10.4746667 359.410314,10.661 359.011647,10.661 Z M365.976588,12 L366.613588,8.75 C366.648255,8.57666667 366.689422,8.35133333 366.737088,8.074 C366.784755,7.79666667 366.834588,7.515 366.886588,7.229 C366.938588,6.943 366.981922,6.70466667 367.016588,6.514 L367.016588,6.514 L367.055588,6.514 C367.081588,6.696 367.118422,6.92566667 367.166088,7.203 C367.213755,7.48033333 367.263588,7.75983333 367.315588,8.0415 C367.367588,8.32316667 367.410922,8.55933333 367.445588,8.75 L367.445588,8.75 L368.056588,12 L370.045588,12 L371.722588,4.889 L369.993588,4.889 L369.330588,7.944 C369.261255,8.29933333 369.198422,8.68066667 369.142088,9.088 C369.085755,9.49533333 369.048922,9.83766667 369.031588,10.115 L369.031588,10.115 L368.979588,10.115 C368.953588,9.803 368.910255,9.44116667 368.849588,9.0295 C368.788922,8.61783333 368.728255,8.25166667 368.667588,7.931 L368.667588,7.931 L368.043588,4.889 L366.054588,4.889 L365.404588,7.892 C365.335255,8.24733333 365.270255,8.63083333 365.209588,9.0425 C365.148922,9.45416667 365.105588,9.81166667 365.079588,10.115 L365.079588,10.115 L365.040588,10.115 C365.005922,9.75966667 364.960422,9.36533333 364.904088,8.932 C364.847755,8.49866667 364.784922,8.10433333 364.715588,7.749 L364.715588,7.749 L364.117588,4.889 L362.349588,4.889 L364.000588,12 L365.976588,12 Z" id="x-labels-3"></path>
		</g>
		<g id="y-labels" transform="translate(38.000000, 62.000000)" fill="#5C5C5B" fill-rule="nonzero">
			<path d="M6.33714118,214 L5.80414118,211.777 L3.33414118,211.777 L2.80114118,214 L0.825141176,214 L3.38614118,204.705 L5.71314118,204.705 L8.30014118,214 L6.33714118,214 Z M5.46614118,210.191 L4.90714118,207.825 L4.85225225,207.541889 L4.85225225,207.541889 L4.72514118,206.941 C4.6558075,206.628998 4.60380802,206.351668 4.56914118,206.109 L4.50414124,206.494125 C4.47814131,206.633874 4.44780802,206.784999 4.41314118,206.9475 L4.31239116,207.407375 L4.31239116,207.407375 L3.67214118,210.191 L5.46614118,210.191 Z M12.5921294,206.759 C13.233466,206.759 13.7382942,206.973498 14.1066294,207.4025 C14.4749646,207.831502 14.6591294,208.470662 14.6591294,209.32 L14.6591294,214 L12.8911294,214 L12.8911294,209.814 C12.8911294,209.311331 12.8282967,208.930001 12.7026294,208.67 C12.5769621,208.409999 12.358131,208.28 12.0461294,208.28 C11.6127939,208.28 11.3137969,208.461998 11.1491294,208.826 C10.9844619,209.190002 10.9021294,209.783663 10.9021294,210.607 L10.9021294,214 L9.14712941,214 L9.14712941,206.889 L10.5251294,206.889 L10.7331294,207.799 L10.8371294,207.799 C11.0104636,207.452332 11.2509612,207.192334 11.5586294,207.019 C11.8662976,206.845666 12.2107942,206.759 12.5921294,206.759 Z M18.8991176,206.759 C19.6704548,206.759 20.2576156,206.969165 20.6606176,207.3895 C21.0636197,207.809835 21.2651176,208.440329 21.2651176,209.281 L21.2651176,214 L19.9911176,214 L19.6921176,213.051 L19.6531176,213.051 C19.4017831,213.423669 19.1352857,213.696666 18.8536176,213.87 C18.5719496,214.043334 18.1927867,214.13 17.7161176,214.13 C17.1181147,214.13 16.6674525,213.915502 16.3641176,213.4865 C16.0607828,213.057498 15.9091176,212.52667 15.9091176,211.894 C15.9091176,211.148663 16.1322821,210.589669 16.5786176,210.217 C17.0249532,209.844331 17.6727801,209.640667 18.5221176,209.606 L19.5101176,209.567 L19.5101176,209.281 C19.5101176,208.526996 19.2154539,208.15 18.6261176,208.15 C18.3834498,208.15 18.1277857,208.191166 17.8591176,208.2735 C17.5904496,208.355834 17.3087858,208.479333 17.0141176,208.644 L16.4941176,207.37 C17.1874544,206.962665 17.9891131,206.759 18.8991176,206.759 Z M19.5101176,210.698 L18.9381176,210.724 C18.5047821,210.741333 18.188452,210.845332 17.9891176,211.036 C17.7897833,211.226668 17.6901176,211.495332 17.6901176,211.842 C17.6901176,212.162668 17.755117,212.394499 17.8851176,212.5375 C18.0151183,212.680501 18.1927832,212.752 18.4181176,212.752 C18.7301192,212.752 18.9901166,212.626335 19.1981176,212.375 C19.4061187,212.123665 19.5101176,211.777002 19.5101176,211.335 L19.5101176,210.698 Z M24.6601059,214 L22.9051059,214 L22.9051059,204.12 L24.6601059,204.12 L24.6601059,214 Z M31.8640941,210.425 C31.8640941,211.127004 31.7579285,211.757497 31.5455941,212.3165 C31.3332597,212.875503 31.0104296,213.317498 30.5770941,213.6425 C30.1437586,213.967502 29.5890975,214.13 28.9130941,214.13 C28.289091,214.13 27.7604296,213.967502 27.3270941,213.6425 C26.8937586,213.317498 26.5665952,212.875503 26.3455941,212.3165 C26.124593,211.757497 26.0140941,211.127004 26.0140941,210.425 C26.0140941,209.68833 26.1202597,209.047003 26.3325941,208.501 C26.5449285,207.954997 26.8677586,207.528168 27.3010941,207.2205 C27.7344296,206.912832 28.2847574,206.759 28.9520941,206.759 C29.8274318,206.759 30.5315915,207.07533 31.0645941,207.708 C31.5975968,208.34067 31.8640941,209.246327 31.8640941,210.425 Z M27.8080941,210.451 C27.8080941,211.179004 27.8969266,211.729331 28.0745941,212.102 C28.2522617,212.474669 28.5404255,212.661 28.9390941,212.661 C29.3377628,212.661 29.6237599,212.474669 29.7970941,212.102 C29.9704283,211.729331 30.0570941,211.170337 30.0570941,210.425 C30.0570941,209.68833 29.9704283,209.138002 29.7970941,208.774 C29.6237599,208.409998 29.3377628,208.228 28.9390941,208.228 C28.5404255,208.228 28.2522617,208.412165 28.0745941,208.7805 C27.8969266,209.148835 27.8080941,209.705663 27.8080941,210.451 Z M35.1810824,206.759 C35.5537509,206.759 35.8722477,206.839166 36.1365824,206.9995 C36.400917,207.159834 36.6370813,207.426331 36.8450824,207.799 L36.9360824,207.799 L37.0790824,206.889 L38.5870824,206.889 L38.5870824,213.753 C38.5870824,214.836339 38.3292516,215.66833 37.8135824,216.249 C37.2979131,216.82967 36.4940878,217.12 35.4020824,217.12 C34.5874116,217.12 33.8680855,216.964002 33.2440824,216.652 L33.2440824,215.144 C33.9634193,215.499335 34.6827454,215.677 35.4020824,215.677 C35.8527513,215.677 36.2037478,215.562168 36.4550824,215.3325 C36.7064169,215.102832 36.8320824,214.719336 36.8320824,214.182 L36.8320824,214.052 C36.8320824,213.959555 36.8340083,213.856519 36.8378601,213.742889 L36.8450824,213.5645 C36.8537491,213.378166 36.8667489,213.211334 36.8840824,213.064 L36.8320824,213.064 C36.6240813,213.436669 36.3814171,213.707499 36.1040824,213.8765 C35.8267476,214.045501 35.5017509,214.13 35.1290824,214.13 C34.4270788,214.13 33.8789177,213.809337 33.4845824,213.168 C33.090247,212.526663 32.8930824,211.629672 32.8930824,210.477 C32.8930824,209.298327 33.0945803,208.384003 33.4975824,207.734 C33.9005844,207.083997 34.4617454,206.759 35.1810824,206.759 Z M35.7140824,208.267 C35.0294123,208.267 34.6870824,209.012326 34.6870824,210.503 C34.6870824,211.933007 35.0380788,212.648 35.7400824,212.648 C36.1214176,212.648 36.4052481,212.496335 36.5915824,212.193 C36.7779166,211.889665 36.8710824,211.400003 36.8710824,210.724 L36.8710824,210.399 C36.8710824,209.644996 36.7779166,209.101168 36.5915824,208.7675 C36.4052481,208.433832 36.112751,208.267 35.7140824,208.267 Z M49.8880588,214 L47.8990588,214 L47.1580588,210.0415 L47.1580588,210.0415 L47.0816838,209.620625 L47.0816838,209.620625 L47.0085588,209.203 C46.9608919,208.925665 46.924059,208.696001 46.8980588,208.514 L46.8590588,208.514 L46.6526838,209.65475 L46.6526838,209.65475 L46.5795588,210.074 C46.5318919,210.351335 46.4907257,210.576666 46.4560588,210.75 L45.8190588,214 L43.8430588,214 L42.1920588,206.889 L43.9600588,206.889 L44.5580588,209.749 C44.6273925,210.104335 44.6902252,210.498664 44.7465588,210.932 L44.8229339,211.55275 C44.8456838,211.749916 44.8657254,211.937332 44.8830588,212.115 L44.9220588,212.115 C44.9428589,211.872332 44.974752,211.595001 45.0177387,211.283001 L45.0520588,211.0425 C45.1127258,210.630831 45.1777251,210.247335 45.2470588,209.892 L45.8970588,206.889 L47.8860588,206.889 L48.5100588,209.931 L48.6010588,210.446125 C48.6313921,210.629208 48.6617253,210.823666 48.6920588,211.0295 C48.7527258,211.441169 48.7960587,211.802998 48.8220588,212.115 L48.8740588,212.115 C48.8913922,211.837665 48.9282252,211.495335 48.9845588,211.088 C49.0408924,210.680665 49.1037251,210.299335 49.1730588,209.944 L49.8360588,206.889 L51.5650588,206.889 L49.8880588,214 Z M58.0540471,210.425 C58.0540471,211.127004 57.9478815,211.757497 57.7355471,212.3165 C57.5232127,212.875503 57.2003826,213.317498 56.7670471,213.6425 C56.3337116,213.967502 55.7790504,214.13 55.1030471,214.13 C54.4790439,214.13 53.9503826,213.967502 53.5170471,213.6425 C53.0837116,213.317498 52.7565482,212.875503 52.5355471,212.3165 C52.314546,211.757497 52.2040471,211.127004 52.2040471,210.425 C52.2040471,209.68833 52.3102127,209.047003 52.5225471,208.501 C52.7348815,207.954997 53.0577116,207.528168 53.4910471,207.2205 C53.9243826,206.912832 54.4747104,206.759 55.1420471,206.759 C56.0173848,206.759 56.7215444,207.07533 57.2545471,207.708 C57.7875497,208.34067 58.0540471,209.246327 58.0540471,210.425 Z M53.9980471,210.451 C53.9980471,211.179004 54.0868795,211.729331 54.2645471,212.102 C54.4422146,212.474669 54.7303784,212.661 55.1290471,212.661 C55.5277157,212.661 55.8137129,212.474669 55.9870471,212.102 C56.1603813,211.729331 56.2470471,211.170337 56.2470471,210.425 C56.2470471,209.68833 56.1603813,209.138002 55.9870471,208.774 C55.8137129,208.409998 55.5277157,208.228 55.1290471,208.228 C54.7303784,208.228 54.4422146,208.412165 54.2645471,208.7805 C54.0868795,209.148835 53.9980471,209.705663 53.9980471,210.451 Z M62.7490353,206.759 C62.9397029,206.759 63.1390343,206.785 63.3470353,206.837 L63.2040353,208.657 C63.0480345,208.596333 62.8487032,208.566 62.6060353,208.566 C62.1726998,208.566 61.8238699,208.721998 61.5595353,209.034 C61.2952006,209.346002 61.1630353,209.79233 61.1630353,210.373 L61.1630353,214 L59.3950353,214 L59.3950353,206.889 L60.7470353,206.889 L61.0070353,208.072 L61.0850353,208.072 C61.2497028,207.725332 61.4728672,207.419835 61.7545353,207.1555 C62.0362034,206.891165 62.3677001,206.759 62.7490353,206.759 Z M66.1050235,214 L64.3500235,214 L64.3500235,204.12 L66.1050235,204.12 L66.1050235,214 Z M73.1530118,204.12 L73.1530118,214 L71.7620118,214 L71.4890118,213.181 L71.3980118,213.181 C71.1900107,213.484335 70.9603464,213.718333 70.7090118,213.883 C70.4576772,214.047667 70.1326804,214.13 69.7340118,214.13 C69.0233415,214.13 68.4665138,213.809337 68.0635118,213.168 C67.6605097,212.526663 67.4590118,211.621006 67.4590118,210.451 C67.4590118,209.272327 67.6605097,208.362337 68.0635118,207.721 C68.4665138,207.079663 69.014675,206.759 69.7080118,206.759 C70.089347,206.759 70.4208437,206.849999 70.7025118,207.032 C70.9841798,207.214001 71.2203441,207.469665 71.4110118,207.799 L71.4760118,207.799 L71.4240118,207.1295 C71.4066783,206.908499 71.3980118,206.711334 71.3980118,206.538 L71.3980118,204.12 L73.1530118,204.12 Z M70.2800118,208.267 C69.9420101,208.267 69.6841793,208.451165 69.5065118,208.8195 C69.3288442,209.187835 69.2400118,209.72733 69.2400118,210.438 C69.2400118,211.928674 69.5910083,212.674 70.2930118,212.674 C70.6916804,212.674 70.9798442,212.511502 71.1575118,212.1865 C71.3351793,211.861498 71.4283451,211.35667 71.4370118,210.672 L71.4370118,210.672 L71.4370118,210.321 C71.4370118,209.627663 71.3481793,209.112002 71.1705118,208.774 C70.9928442,208.435998 70.6960138,208.267 70.2800118,208.267 Z" id="y-labels-1"></path>
			<path d="M27.8882353,114 L27.8882353,112.427 L25.1972353,112.427 L25.1972353,109.957 L27.6932353,109.957 L27.6932353,108.41 L25.1972353,108.41 L25.1972353,106.265 L27.8882353,106.265 L27.8882353,104.718 L23.3642353,104.718 L23.3642353,114 L27.8882353,114 Z M32.5697647,114 L34.7277647,106.889 L32.8947647,106.889 L31.8807647,110.802 C31.8114314,111.079333 31.7572647,111.339333 31.7182647,111.582 C31.6792647,111.824667 31.6554314,112.045667 31.6467647,112.245 L31.6467647,112.245 L31.5947647,112.245 C31.5687647,111.993667 31.5362647,111.742333 31.4972647,111.491 C31.4582647,111.239667 31.404098,110.988333 31.3347647,110.737 L31.3347647,110.737 L30.3597647,106.889 L28.5267647,106.889 L30.6847647,114 L32.5697647,114 Z M38.0962941,114.13 C38.7722941,114.13 39.3269608,113.9675 39.7602941,113.6425 C40.1936275,113.3175 40.5164608,112.8755 40.7287941,112.3165 C40.9411275,111.7575 41.0472941,111.127 41.0472941,110.425 C41.0472941,109.246333 40.7807941,108.340667 40.2477941,107.708 C39.7147941,107.075333 39.0106275,106.759 38.1352941,106.759 C37.4679608,106.759 36.9176275,106.912833 36.4842941,107.2205 C36.0509608,107.528167 35.7281275,107.955 35.5157941,108.501 C35.3034608,109.047 35.1972941,109.688333 35.1972941,110.425 C35.1972941,111.127 35.3077941,111.7575 35.5287941,112.3165 C35.7497941,112.8755 36.0769608,113.3175 36.5102941,113.6425 C36.9436275,113.9675 37.4722941,114.13 38.0962941,114.13 Z M38.1222941,112.661 C37.7236275,112.661 37.4354608,112.474667 37.2577941,112.102 C37.0801275,111.729333 36.9912941,111.179 36.9912941,110.451 C36.9912941,109.705667 37.0801275,109.148833 37.2577941,108.7805 C37.4354608,108.412167 37.7236275,108.228 38.1222941,108.228 C38.5209608,108.228 38.8069608,108.41 38.9802941,108.774 C39.1536275,109.138 39.2402941,109.688333 39.2402941,110.425 C39.2402941,111.170333 39.1536275,111.729333 38.9802941,112.102 C38.8069608,112.474667 38.5209608,112.661 38.1222941,112.661 Z M44.1298235,114 L44.1298235,104.12 L42.3748235,104.12 L42.3748235,114 L44.1298235,114 Z M47.7843529,114.13 C48.1656863,114.13 48.5080196,114.043333 48.8113529,113.87 C49.1146863,113.696667 49.3573529,113.436667 49.5393529,113.09 L49.5393529,113.09 L49.6303529,113.09 L49.8513529,114 L51.2163529,114 L51.2163529,106.889 L49.4613529,106.889 L49.4613529,110.425 C49.4613529,111.127 49.3833529,111.6665 49.2273529,112.0435 C49.0713529,112.4205 48.7593529,112.609 48.2913529,112.609 C47.9966863,112.609 47.7865196,112.476833 47.6608529,112.2125 C47.5351863,111.948167 47.4723529,111.556 47.4723529,111.036 L47.4723529,111.036 L47.4723529,106.889 L45.7043529,106.889 L45.7043529,111.53 C45.7043529,112.379333 45.8841863,113.025 46.2438529,113.467 C46.6035196,113.909 47.1170196,114.13 47.7843529,114.13 Z M54.8708824,114.13 C55.1568824,114.13 55.4233824,114.099667 55.6703824,114.039 C55.9173824,113.978333 56.140549,113.900333 56.3398824,113.805 L56.3398824,113.805 L56.3398824,112.427 C56.0192157,112.557 55.711549,112.622 55.4168824,112.622 C54.9748824,112.622 54.7538824,112.349 54.7538824,111.803 L54.7538824,111.803 L54.7538824,108.306 L56.2488824,108.306 L56.2488824,106.889 L54.7538824,106.889 L54.7538824,105.394 L53.5838824,105.394 L53.1288824,106.928 L52.2318824,107.435 L52.2318824,108.306 L52.9988824,108.306 L52.9988824,111.855 C52.9988824,112.661 53.157049,113.241667 53.4733824,113.597 C53.7897157,113.952333 54.255549,114.13 54.8708824,114.13 Z M58.3174118,106.018 C58.6207451,106.018 58.8569118,105.94 59.0259118,105.784 C59.1949118,105.628 59.2794118,105.389667 59.2794118,105.069 C59.2794118,104.427667 58.9587451,104.107 58.3174118,104.107 C58.0140784,104.107 57.7779118,104.182833 57.6089118,104.3345 C57.4399118,104.486167 57.3554118,104.731 57.3554118,105.069 C57.3554118,105.389667 57.4420784,105.628 57.6154118,105.784 C57.7887451,105.94 58.0227451,106.018 58.3174118,106.018 Z M59.2014118,114 L59.2014118,106.889 L57.4334118,106.889 L57.4334118,114 L59.2014118,114 Z M63.4149412,114.13 C64.0909412,114.13 64.6456078,113.9675 65.0789412,113.6425 C65.5122745,113.3175 65.8351078,112.8755 66.0474412,112.3165 C66.2597745,111.7575 66.3659412,111.127 66.3659412,110.425 C66.3659412,109.246333 66.0994412,108.340667 65.5664412,107.708 C65.0334412,107.075333 64.3292745,106.759 63.4539412,106.759 C62.7866078,106.759 62.2362745,106.912833 61.8029412,107.2205 C61.3696078,107.528167 61.0467745,107.955 60.8344412,108.501 C60.6221078,109.047 60.5159412,109.688333 60.5159412,110.425 C60.5159412,111.127 60.6264412,111.7575 60.8474412,112.3165 C61.0684412,112.8755 61.3956078,113.3175 61.8289412,113.6425 C62.2622745,113.9675 62.7909412,114.13 63.4149412,114.13 Z M63.4409412,112.661 C63.0422745,112.661 62.7541078,112.474667 62.5764412,112.102 C62.3987745,111.729333 62.3099412,111.179 62.3099412,110.451 C62.3099412,109.705667 62.3987745,109.148833 62.5764412,108.7805 C62.7541078,108.412167 63.0422745,108.228 63.4409412,108.228 C63.8396078,108.228 64.1256078,108.41 64.2989412,108.774 C64.4722745,109.138 64.5589412,109.688333 64.5589412,110.425 C64.5589412,111.170333 64.4722745,111.729333 64.2989412,112.102 C64.1256078,112.474667 63.8396078,112.661 63.4409412,112.661 Z M69.4484706,114 L69.4484706,110.607 C69.4484706,109.783667 69.5308039,109.19 69.6954706,108.826 C69.8601373,108.462 70.1591373,108.28 70.5924706,108.28 C70.9044706,108.28 71.1233039,108.41 71.2489706,108.67 C71.3746373,108.93 71.4374706,109.311333 71.4374706,109.814 L71.4374706,109.814 L71.4374706,114 L73.2054706,114 L73.2054706,109.32 C73.2054706,108.470667 73.0213039,107.8315 72.6529706,107.4025 C72.2846373,106.9735 71.7798039,106.759 71.1384706,106.759 C70.7571373,106.759 70.4126373,106.845667 70.1049706,107.019 C69.7973039,107.192333 69.5568039,107.452333 69.3834706,107.799 L69.3834706,107.799 L69.2794706,107.799 L69.0714706,106.889 L67.6934706,106.889 L67.6934706,114 L69.4484706,114 Z" id="y-labels-2"></path>
			<path d="M6.44634118,12 C7.76367451,12 8.77767451,11.5905 9.48834118,10.7715 C10.1990078,9.9525 10.5543412,8.76733333 10.5543412,7.216 C10.5543412,5.75133333 10.2076745,4.6355 9.51434118,3.8685 C8.82100784,3.1015 7.85900784,2.718 6.62834118,2.718 L6.62834118,2.718 L4.13234118,2.718 L4.13234118,12 L6.44634118,12 Z M6.49834118,10.414 L5.96534118,10.414 L5.96534118,4.278 L6.64134118,4.278 C7.30000784,4.278 7.80050784,4.52066667 8.14284118,5.006 C8.48517451,5.49133333 8.65634118,6.24966667 8.65634118,7.281 C8.65634118,8.33833333 8.48084118,9.12483333 8.12984118,9.6405 C7.77884118,10.1561667 7.23500784,10.414 6.49834118,10.414 L6.49834118,10.414 Z M12.8727765,4.018 C13.1761098,4.018 13.4122765,3.94 13.5812765,3.784 C13.7502765,3.628 13.8347765,3.38966667 13.8347765,3.069 C13.8347765,2.42766667 13.5141098,2.107 12.8727765,2.107 C12.5694431,2.107 12.3332765,2.18283333 12.1642765,2.3345 C11.9952765,2.48616667 11.9107765,2.731 11.9107765,3.069 C11.9107765,3.38966667 11.9974431,3.628 12.1707765,3.784 C12.3441098,3.94 12.5781098,4.018 12.8727765,4.018 Z M13.7567765,12 L13.7567765,4.889 L11.9887765,4.889 L11.9887765,12 L13.7567765,12 Z M17.5962118,15.12 C18.6882118,15.12 19.4920451,14.8296667 20.0077118,14.249 C20.5233784,13.6683333 20.7812118,12.8363333 20.7812118,11.753 L20.7812118,11.753 L20.7812118,4.889 L19.2732118,4.889 L19.1302118,5.799 L19.0392118,5.799 C18.8312118,5.42633333 18.5950451,5.15983333 18.3307118,4.9995 C18.0663784,4.83916667 17.7478784,4.759 17.3752118,4.759 C16.6558784,4.759 16.0947118,5.084 15.6917118,5.734 C15.2887118,6.384 15.0872118,7.29833333 15.0872118,8.477 C15.0872118,9.62966667 15.2843784,10.5266667 15.6787118,11.168 C16.0730451,11.8093333 16.6212118,12.13 17.3232118,12.13 C17.6958784,12.13 18.0208784,12.0455 18.2982118,11.8765 C18.5755451,11.7075 18.8182118,11.4366667 19.0262118,11.064 L19.0262118,11.064 L19.0782118,11.064 C19.0608784,11.2113333 19.0478784,11.3781667 19.0392118,11.5645 C19.0305451,11.7508333 19.0262118,11.9133333 19.0262118,12.052 L19.0262118,12.052 L19.0262118,12.182 C19.0262118,12.7193333 18.9005451,13.1028333 18.6492118,13.3325 C18.3978784,13.5621667 18.0468784,13.677 17.5962118,13.677 C16.8768784,13.677 16.1575451,13.4993333 15.4382118,13.144 L15.4382118,13.144 L15.4382118,14.652 C16.0622118,14.964 16.7815451,15.12 17.5962118,15.12 Z M17.9342118,10.648 C17.2322118,10.648 16.8812118,9.933 16.8812118,8.503 C16.8812118,7.01233333 17.2235451,6.267 17.9082118,6.267 C18.3068784,6.267 18.5993784,6.43383333 18.7857118,6.7675 C18.9720451,7.10116667 19.0652118,7.645 19.0652118,8.399 L19.0652118,8.399 L19.0652118,8.724 C19.0652118,9.4 18.9720451,9.88966667 18.7857118,10.193 C18.5993784,10.4963333 18.3155451,10.648 17.9342118,10.648 Z M23.3076471,4.018 C23.6109804,4.018 23.8471471,3.94 24.0161471,3.784 C24.1851471,3.628 24.2696471,3.38966667 24.2696471,3.069 C24.2696471,2.42766667 23.9489804,2.107 23.3076471,2.107 C23.0043137,2.107 22.7681471,2.18283333 22.5991471,2.3345 C22.4301471,2.48616667 22.3456471,2.731 22.3456471,3.069 C22.3456471,3.38966667 22.4323137,3.628 22.6056471,3.784 C22.7789804,3.94 23.0129804,4.018 23.3076471,4.018 Z M24.1916471,12 L24.1916471,4.889 L22.4236471,4.889 L22.4236471,12 L24.1916471,12 Z M27.8490824,12.13 C28.1350824,12.13 28.4015824,12.0996667 28.6485824,12.039 C28.8955824,11.9783333 29.118749,11.9003333 29.3180824,11.805 L29.3180824,11.805 L29.3180824,10.427 C28.9974157,10.557 28.689749,10.622 28.3950824,10.622 C27.9530824,10.622 27.7320824,10.349 27.7320824,9.803 L27.7320824,9.803 L27.7320824,6.306 L29.2270824,6.306 L29.2270824,4.889 L27.7320824,4.889 L27.7320824,3.394 L26.5620824,3.394 L26.1070824,4.928 L25.2100824,5.435 L25.2100824,6.306 L25.9770824,6.306 L25.9770824,9.855 C25.9770824,10.661 26.135249,11.2416667 26.4515824,11.597 C26.7679157,11.9523333 27.233749,12.13 27.8490824,12.13 Z M31.8315176,12.13 C32.3081843,12.13 32.687351,12.0433333 32.9690176,11.87 C33.2506843,11.6966667 33.5171843,11.4236667 33.7685176,11.051 L33.7685176,11.051 L33.8075176,11.051 L34.1065176,12 L35.3805176,12 L35.3805176,7.281 C35.3805176,6.44033333 35.1790176,5.80983333 34.7760176,5.3895 C34.3730176,4.96916667 33.785851,4.759 33.0145176,4.759 C32.1045176,4.759 31.302851,4.96266667 30.6095176,5.37 L30.6095176,5.37 L31.1295176,6.644 C31.4241843,6.47933333 31.705851,6.35583333 31.9745176,6.2735 C32.2431843,6.19116667 32.498851,6.15 32.7415176,6.15 C33.330851,6.15 33.6255176,6.527 33.6255176,7.281 L33.6255176,7.281 L33.6255176,7.567 L32.6375176,7.606 C31.7881843,7.64066667 31.140351,7.84433333 30.6940176,8.217 C30.2476843,8.58966667 30.0245176,9.14866667 30.0245176,9.894 C30.0245176,10.5266667 30.1761843,11.0575 30.4795176,11.4865 C30.782851,11.9155 31.2335176,12.13 31.8315176,12.13 Z M32.5335176,10.752 C32.3081843,10.752 32.1305176,10.6805 32.0005176,10.5375 C31.8705176,10.3945 31.8055176,10.1626667 31.8055176,9.842 C31.8055176,9.49533333 31.9051843,9.22666667 32.1045176,9.036 C32.303851,8.84533333 32.6201843,8.74133333 33.0535176,8.724 L33.0535176,8.724 L33.6255176,8.698 L33.6255176,9.335 C33.6255176,9.777 33.5215176,10.1236667 33.3135176,10.375 C33.1055176,10.6263333 32.8455176,10.752 32.5335176,10.752 Z M38.7519529,12 L38.7519529,2.12 L36.9969529,2.12 L36.9969529,12 L38.7519529,12 Z M45.9368235,12 L46.5738235,8.75 C46.6084902,8.57666667 46.6496569,8.35133333 46.6973235,8.074 C46.7449902,7.79666667 46.7948235,7.515 46.8468235,7.229 C46.8988235,6.943 46.9421569,6.70466667 46.9768235,6.514 L46.9768235,6.514 L47.0158235,6.514 C47.0418235,6.696 47.0786569,6.92566667 47.1263235,7.203 C47.1739902,7.48033333 47.2238235,7.75983333 47.2758235,8.0415 C47.3278235,8.32316667 47.3711569,8.55933333 47.4058235,8.75 L47.4058235,8.75 L48.0168235,12 L50.0058235,12 L51.6828235,4.889 L49.9538235,4.889 L49.2908235,7.944 C49.2214902,8.29933333 49.1586569,8.68066667 49.1023235,9.088 C49.0459902,9.49533333 49.0091569,9.83766667 48.9918235,10.115 L48.9918235,10.115 L48.9398235,10.115 C48.9138235,9.803 48.8704902,9.44116667 48.8098235,9.0295 C48.7491569,8.61783333 48.6884902,8.25166667 48.6278235,7.931 L48.6278235,7.931 L48.0038235,4.889 L46.0148235,4.889 L45.3648235,7.892 C45.2954902,8.24733333 45.2304902,8.63083333 45.1698235,9.0425 C45.1091569,9.45416667 45.0658235,9.81166667 45.0398235,10.115 L45.0398235,10.115 L45.0008235,10.115 C44.9661569,9.75966667 44.9206569,9.36533333 44.8643235,8.932 C44.8079902,8.49866667 44.7451569,8.10433333 44.6758235,7.749 L44.6758235,7.749 L44.0778235,4.889 L42.3098235,4.889 L43.9608235,12 L45.9368235,12 Z M55.1972588,12.13 C55.8732588,12.13 56.4279255,11.9675 56.8612588,11.6425 C57.2945922,11.3175 57.6174255,10.8755 57.8297588,10.3165 C58.0420922,9.7575 58.1482588,9.127 58.1482588,8.425 C58.1482588,7.24633333 57.8817588,6.34066667 57.3487588,5.708 C56.8157588,5.07533333 56.1115922,4.759 55.2362588,4.759 C54.5689255,4.759 54.0185922,4.91283333 53.5852588,5.2205 C53.1519255,5.52816667 52.8290922,5.955 52.6167588,6.501 C52.4044255,7.047 52.2982588,7.68833333 52.2982588,8.425 C52.2982588,9.127 52.4087588,9.7575 52.6297588,10.3165 C52.8507588,10.8755 53.1779255,11.3175 53.6112588,11.6425 C54.0445922,11.9675 54.5732588,12.13 55.1972588,12.13 Z M55.2232588,10.661 C54.8245922,10.661 54.5364255,10.4746667 54.3587588,10.102 C54.1810922,9.72933333 54.0922588,9.179 54.0922588,8.451 C54.0922588,7.70566667 54.1810922,7.14883333 54.3587588,6.7805 C54.5364255,6.41216667 54.8245922,6.228 55.2232588,6.228 C55.6219255,6.228 55.9079255,6.41 56.0812588,6.774 C56.2545922,7.138 56.3412588,7.68833333 56.3412588,8.425 C56.3412588,9.17033333 56.2545922,9.72933333 56.0812588,10.102 C55.9079255,10.4746667 55.6219255,10.661 55.2232588,10.661 Z M61.2336941,12 L61.2336941,8.373 C61.2336941,7.79233333 61.3658608,7.346 61.6301941,7.034 C61.8945275,6.722 62.2433608,6.566 62.6766941,6.566 C62.9193608,6.566 63.1186941,6.59633333 63.2746941,6.657 L63.2746941,6.657 L63.4176941,4.837 C63.2096941,4.785 63.0103608,4.759 62.8196941,4.759 C62.4383608,4.759 62.1068608,4.89116667 61.8251941,5.1555 C61.5435275,5.41983333 61.3203608,5.72533333 61.1556941,6.072 L61.1556941,6.072 L61.0776941,6.072 L60.8176941,4.889 L59.4656941,4.889 L59.4656941,12 L61.2336941,12 Z M66.1521294,12 L66.1521294,2.12 L64.3971294,2.12 L64.3971294,12 L66.1521294,12 Z M69.7575647,12.13 C70.1562314,12.13 70.4812314,12.0476667 70.7325647,11.883 C70.983898,11.7183333 71.2135647,11.4843333 71.4215647,11.181 L71.4215647,11.181 L71.5125647,11.181 L71.7855647,12 L73.1765647,12 L73.1765647,2.12 L71.4215647,2.12 L71.4215647,4.538 C71.4215647,4.71133333 71.4302314,4.9085 71.4475647,5.1295 C71.464898,5.3505 71.4822314,5.57366667 71.4995647,5.799 L71.4995647,5.799 L71.4345647,5.799 C71.243898,5.46966667 71.0077314,5.214 70.7260647,5.032 C70.444398,4.85 70.112898,4.759 69.7315647,4.759 C69.0382314,4.759 68.4900647,5.07966667 68.0870647,5.721 C67.6840647,6.36233333 67.4825647,7.27233333 67.4825647,8.451 C67.4825647,9.621 67.6840647,10.5266667 68.0870647,11.168 C68.4900647,11.8093333 69.046898,12.13 69.7575647,12.13 Z M70.3165647,10.674 C69.6145647,10.674 69.2635647,9.92866667 69.2635647,8.438 C69.2635647,7.72733333 69.352398,7.18783333 69.5300647,6.8195 C69.7077314,6.45116667 69.9655647,6.267 70.3035647,6.267 C70.7195647,6.267 71.016398,6.436 71.1940647,6.774 C71.3717314,7.112 71.4605647,7.62766667 71.4605647,8.321 L71.4605647,8.321 L71.4605647,8.672 C71.451898,9.35666667 71.3587314,9.8615 71.1810647,10.1865 C71.003398,10.5115 70.7152314,10.674 70.3165647,10.674 Z" id="y-labels-3"></path>
		</g>
		<path id="pfeil-1" d="M362.5,203.5 L353.982062,216.631821 L350.94,211.46 L311.145086,234.868954 L310.131046,233.145086 L349.926,209.736 L346.88378,204.564742 L362.5,203.5 Z" fill="#5C5C5B" fill-rule="nonzero"></path>
		<path id="pfeil-2" d="M523.5,109.5 L514.982062,122.631821 L511.94,117.46 L472.145086,140.868954 L471.131046,139.145086 L510.926,115.736 L507.88378,110.564742 L523.5,109.5 Z" fill="#5C5C5B" fill-rule="nonzero"></path>
		<g id="Group" transform="translate(210.621401, -14.772637)">
			<path d="M1,146.105542 C42.3831806,93.5736838 88.5003889,67.3320617 139.351625,67.3806753 C190.202861,67.4300141 240.633432,90.6932115 290.643339,137.170268" id="pfeil-3" stroke="#5C5C5B" stroke-width="2" stroke-linecap="square" transform="translate(145.821669, 106.743109) rotate(-30.000000) translate(-145.821669, -106.743109) "></path>
			<polygon id="pfeil-3-1" fill="#5C5C5B" transform="translate(293.197796, 61.999020) rotate(102.000000) translate(-293.197796, -61.999020) " points="293.237582 55 300.157366 68.9980403 286.238226 68.9685343"></polygon>
		</g>
		<g id="einzahlungsschein" transform="translate(201.000000, 220.000000)">
			<circle id="Oval" fill="#ADA398" cx="50" cy="50" r="50"></circle>
			<path d="M25.69,46 L25.69,42.205 L26.38,42.205 C27.21,42.205 27.89,42.05 28.42,41.74 C28.95,41.43 29.3375,41.005 29.5825,40.465 C29.8275,39.925 29.95,39.31 29.95,38.62 C29.95,37.55 29.67,36.7275 29.11,36.1525 C28.55,35.5775 27.68,35.29 26.5,35.29 L26.5,35.29 L23.575,35.29 L23.575,46 L25.69,46 Z M26.17,40.42 L25.69,40.42 L25.69,37.075 L26.365,37.075 C27.345,37.075 27.835,37.6 27.835,38.65 C27.835,39.28 27.69,39.7325 27.4,40.0075 C27.11,40.2825 26.7,40.42 26.17,40.42 L26.17,40.42 Z M33.04,46.15 C33.59,46.15 34.0275,46.05 34.3525,45.85 C34.6775,45.65 34.985,45.335 35.275,44.905 L35.275,44.905 L35.32,44.905 L35.665,46 L37.135,46 L37.135,40.555 C37.135,39.585 36.9025,38.8575 36.4375,38.3725 C35.9725,37.8875 35.295,37.645 34.405,37.645 C33.355,37.645 32.43,37.88 31.63,38.35 L31.63,38.35 L32.23,39.82 C32.57,39.63 32.895,39.4875 33.205,39.3925 C33.515,39.2975 33.81,39.25 34.09,39.25 C34.77,39.25 35.11,39.685 35.11,40.555 L35.11,40.555 L35.11,40.885 L33.97,40.93 C32.99,40.97 32.2425,41.205 31.7275,41.635 C31.2125,42.065 30.955,42.71 30.955,43.57 C30.955,44.3 31.13,44.9125 31.48,45.4075 C31.83,45.9025 32.35,46.15 33.04,46.15 Z M33.85,44.56 C33.59,44.56 33.385,44.4775 33.235,44.3125 C33.085,44.1475 33.01,43.88 33.01,43.51 C33.01,43.11 33.125,42.8 33.355,42.58 C33.585,42.36 33.95,42.24 34.45,42.22 L34.45,42.22 L35.11,42.19 L35.11,42.925 C35.11,43.435 34.99,43.835 34.75,44.125 C34.51,44.415 34.21,44.56 33.85,44.56 Z M39.58,49.6 C40.28,49.6 40.8675,49.385 41.3425,48.955 C41.8175,48.525 42.2,47.83 42.49,46.87 L42.49,46.87 L45.235,37.795 L43.105,37.795 L42.025,41.98 C41.945,42.27 41.88,42.5375 41.83,42.7825 C41.78,43.0275 41.74,43.26 41.71,43.48 L41.71,43.48 L41.665,43.48 C41.645,43.25 41.6075,43.0025 41.5525,42.7375 C41.4975,42.4725 41.44,42.215 41.38,41.965 L41.38,41.965 L40.24,37.795 L38.08,37.795 L40.705,45.925 L40.585,46.39 C40.415,46.92 40.24,47.295 40.06,47.515 C39.88,47.735 39.615,47.845 39.265,47.845 C39.155,47.845 39.04,47.835 38.92,47.815 C38.8,47.795 38.69,47.77 38.59,47.74 L38.59,47.74 L38.59,49.48 C38.74,49.52 38.895,49.55 39.055,49.57 C39.215,49.59 39.39,49.6 39.58,49.6 Z M48.25,46 L48.25,42.1 C48.25,41.22 48.3375,40.55 48.5125,40.09 C48.6875,39.63 49.015,39.4 49.495,39.4 C50.105,39.4 50.41,39.99 50.41,41.17 L50.41,41.17 L50.41,46 L52.45,46 L52.45,41.86 C52.45,41.04 52.54,40.425 52.72,40.015 C52.9,39.605 53.215,39.4 53.665,39.4 C54.295,39.4 54.61,39.995 54.61,41.185 L54.61,41.185 L54.61,46 L56.635,46 L56.635,40.615 C56.635,39.605 56.4425,38.8575 56.0575,38.3725 C55.6725,37.8875 55.1,37.645 54.34,37.645 C53.4,37.645 52.73,38.04 52.33,38.83 L52.33,38.83 L52.18,38.83 C52.02,38.47 51.78,38.1825 51.46,37.9675 C51.14,37.7525 50.725,37.645 50.215,37.645 C49.755,37.645 49.345,37.745 48.985,37.945 C48.625,38.145 48.355,38.445 48.175,38.845 L48.175,38.845 L48.055,38.845 L47.815,37.795 L46.225,37.795 L46.225,46 L48.25,46 Z M61.63,46.15 C62.13,46.15 62.575,46.105 62.965,46.015 C63.355,45.925 63.725,45.78 64.075,45.58 L64.075,45.58 L64.075,43.93 C63.695,44.15 63.33,44.305 62.98,44.395 C62.63,44.485 62.255,44.53 61.855,44.53 C60.745,44.53 60.18,43.84 60.16,42.46 L60.16,42.46 L64.48,42.46 L64.48,41.365 C64.48,40.215 64.2075,39.31 63.6625,38.65 C63.1175,37.99 62.355,37.66 61.375,37.66 C60.345,37.66 59.5475,38.025 58.9825,38.755 C58.4175,39.485 58.135,40.55 58.135,41.95 C58.135,43.29 58.4275,44.325 59.0125,45.055 C59.5975,45.785 60.47,46.15 61.63,46.15 Z M62.575,41.02 L60.175,41.02 C60.195,40.38 60.3175,39.9175 60.5425,39.6325 C60.7675,39.3475 61.055,39.205 61.405,39.205 C61.785,39.205 62.075,39.37 62.275,39.7 C62.475,40.03 62.575,40.47 62.575,41.02 L62.575,41.02 Z M67.975,46 L67.975,42.085 C67.975,41.135 68.07,40.45 68.26,40.03 C68.45,39.61 68.795,39.4 69.295,39.4 C69.655,39.4 69.9075,39.55 70.0525,39.85 C70.1975,40.15 70.27,40.59 70.27,41.17 L70.27,41.17 L70.27,46 L72.31,46 L72.31,40.6 C72.31,39.62 72.0975,38.8825 71.6725,38.3875 C71.2475,37.8925 70.665,37.645 69.925,37.645 C69.485,37.645 69.0875,37.745 68.7325,37.945 C68.3775,38.145 68.1,38.445 67.9,38.845 L67.9,38.845 L67.78,38.845 L67.54,37.795 L65.95,37.795 L65.95,46 L67.975,46 Z M76.495,46.15 C76.825,46.15 77.1325,46.115 77.4175,46.045 C77.7025,45.975 77.96,45.885 78.19,45.775 L78.19,45.775 L78.19,44.185 C77.82,44.335 77.465,44.41 77.125,44.41 C76.615,44.41 76.36,44.095 76.36,43.465 L76.36,43.465 L76.36,39.43 L78.085,39.43 L78.085,37.795 L76.36,37.795 L76.36,36.07 L75.01,36.07 L74.485,37.84 L73.45,38.425 L73.45,39.43 L74.335,39.43 L74.335,43.525 C74.335,44.455 74.5175,45.125 74.8825,45.535 C75.2475,45.945 75.785,46.15 76.495,46.15 Z M42.265,66.15 C43.185,66.15 43.8975,65.93 44.4025,65.49 C44.9075,65.05 45.16,64.415 45.16,63.585 C45.16,62.935 44.9875,62.425 44.6425,62.055 C44.2975,61.685 43.845,61.355 43.285,61.065 C42.905,60.855 42.6175,60.69 42.4225,60.57 C42.2275,60.45 42.0975,60.3375 42.0325,60.2325 C41.9675,60.1275 41.935,60.005 41.935,59.865 C41.935,59.455 42.205,59.25 42.745,59.25 C43.045,59.25 43.34,59.305 43.63,59.415 C43.92,59.525 44.205,59.66 44.485,59.82 L44.485,59.82 L45.07,58.29 C44.68,58.08 44.2925,57.92 43.9075,57.81 C43.5225,57.7 43.115,57.645 42.685,57.645 C41.835,57.645 41.165,57.8475 40.675,58.2525 C40.185,58.6575 39.94,59.225 39.94,59.955 C39.94,60.585 40.0925,61.0925 40.3975,61.4775 C40.7025,61.8625 41.15,62.2 41.74,62.49 C42.15,62.69 42.4525,62.855 42.6475,62.985 C42.8425,63.115 42.9725,63.24 43.0375,63.36 C43.1025,63.48 43.135,63.605 43.135,63.735 C43.135,64.225 42.81,64.47 42.16,64.47 C41.8,64.47 41.4225,64.405 41.0275,64.275 C40.6325,64.145 40.275,63.99 39.955,63.81 L39.955,63.81 L39.955,65.685 C40.295,65.845 40.6525,65.9625 41.0275,66.0375 C41.4025,66.1125 41.815,66.15 42.265,66.15 Z M48.58,66 L48.58,54.6 L46.555,54.6 L46.555,66 L48.58,66 Z M51.49,56.79 C51.84,56.79 52.1125,56.7 52.3075,56.52 C52.5025,56.34 52.6,56.065 52.6,55.695 C52.6,54.955 52.23,54.585 51.49,54.585 C51.14,54.585 50.8675,54.6725 50.6725,54.8475 C50.4775,55.0225 50.38,55.305 50.38,55.695 C50.38,56.065 50.48,56.34 50.68,56.52 C50.88,56.7 51.15,56.79 51.49,56.79 Z M52.51,66 L52.51,57.795 L50.47,57.795 L50.47,66 L52.51,66 Z M56.425,69.6 L56.425,66.315 C56.425,66.145 56.42,65.95 56.41,65.73 C56.4,65.51 56.38,65.26 56.35,64.98 L56.35,64.98 L56.44,64.98 C56.65,65.36 56.915,65.65 57.235,65.85 C57.555,66.05 57.935,66.15 58.375,66.15 C59.175,66.15 59.8075,65.7775 60.2725,65.0325 C60.7375,64.2875 60.97,63.245 60.97,61.905 C60.97,60.535 60.74,59.4825 60.28,58.7475 C59.82,58.0125 59.18,57.645 58.36,57.645 C57.93,57.645 57.5625,57.7425 57.2575,57.9375 C56.9525,58.1325 56.68,58.445 56.44,58.875 L56.44,58.875 L56.335,58.875 L56.035,57.795 L54.4,57.795 L54.4,69.6 L56.425,69.6 Z M57.715,64.425 C57.255,64.425 56.925,64.23 56.725,63.84 C56.525,63.45 56.425,62.85 56.425,62.04 L56.425,62.04 L56.425,61.68 C56.435,60.87 56.5375,60.2775 56.7325,59.9025 C56.9275,59.5275 57.255,59.34 57.715,59.34 C58.505,59.34 58.9,60.2 58.9,61.92 C58.9,63.59 58.505,64.425 57.715,64.425 Z" id="einzahlungsschein-text" fill="#FFFFFF" fill-rule="nonzero"></path>
		</g>
		<g id="qr-rechnung" transform="translate(365.000000, 120.000000)">
			<circle id="Oval" fill="#002C5F" cx="50" cy="50" r="50"></circle>
			<path d="M37.64,58.55 L35.645,55.655 C36.355,55.265 36.885,54.6425 37.235,53.7875 C37.585,52.9325 37.76,51.88 37.76,50.63 C37.76,48.87 37.4125,47.5125 36.7175,46.5575 C36.0225,45.6025 34.98,45.125 33.59,45.125 C32.19,45.125 31.14,45.6025 30.44,46.5575 C29.74,47.5125 29.39,48.865 29.39,50.615 C29.39,51.695 29.535,52.65 29.825,53.48 C30.115,54.31 30.56,54.96 31.16,55.43 C31.76,55.9 32.525,56.135 33.455,56.135 L33.455,56.135 L33.635,56.135 L35.135,58.55 L37.64,58.55 Z M33.575,54.305 C32.905,54.305 32.4075,53.9925 32.0825,53.3675 C31.7575,52.7425 31.595,51.83 31.595,50.63 C31.595,49.43 31.7575,48.515 32.0825,47.885 C32.4075,47.255 32.91,46.94 33.59,46.94 C34.27,46.94 34.7675,47.25 35.0825,47.87 C35.3975,48.49 35.555,49.41 35.555,50.63 C35.555,51.85 35.395,52.7675 35.075,53.3825 C34.755,53.9975 34.255,54.305 33.575,54.305 Z M41.675,56 L41.675,51.83 L42.47,51.83 L44.465,56 L46.805,56 L44.315,51.305 C44.845,51.015 45.255,50.6325 45.545,50.1575 C45.835,49.6825 45.98,49.105 45.98,48.425 C45.98,47.375 45.6725,46.59 45.0575,46.07 C44.4425,45.55 43.5,45.29 42.23,45.29 L42.23,45.29 L39.56,45.29 L39.56,56 L41.675,56 Z M42.215,50.135 L41.675,50.135 L41.675,47.06 L42.17,47.06 C42.73,47.06 43.145,47.1775 43.415,47.4125 C43.685,47.6475 43.82,48.015 43.82,48.515 C43.82,49.595 43.285,50.135 42.215,50.135 L42.215,50.135 Z M51.05,52.91 L51.05,51.05 L47.255,51.05 L47.255,52.91 L51.05,52.91 Z M56.36,56.15 C57.18,56.15 57.8225,55.7775 58.2875,55.0325 C58.7525,54.2875 58.985,53.235 58.985,51.875 C58.985,50.525 58.7525,49.485 58.2875,48.755 C57.8225,48.025 57.195,47.66 56.405,47.66 C55.965,47.66 55.585,47.7625 55.265,47.9675 C54.945,48.1725 54.675,48.47 54.455,48.86 L54.455,48.86 L54.38,48.86 C54.4,48.59 54.415,48.3275 54.425,48.0725 C54.435,47.8175 54.44,47.59 54.44,47.39 L54.44,47.39 L54.44,44.6 L52.415,44.6 L52.415,56 L54.02,56 L54.335,55.115 L54.455,55.115 C54.705,55.465 54.975,55.725 55.265,55.895 C55.555,56.065 55.92,56.15 56.36,56.15 Z M55.745,54.455 C55.275,54.455 54.94,54.2525 54.74,53.8475 C54.54,53.4425 54.44,52.83 54.44,52.01 L54.44,52.01 L54.44,51.65 C54.45,50.91 54.5475,50.345 54.7325,49.955 C54.9175,49.565 55.25,49.37 55.73,49.37 C56.52,49.37 56.915,50.2 56.915,51.86 C56.915,53.59 56.525,54.455 55.745,54.455 Z M61.535,46.79 C61.885,46.79 62.1575,46.7 62.3525,46.52 C62.5475,46.34 62.645,46.065 62.645,45.695 C62.645,44.955 62.275,44.585 61.535,44.585 C61.185,44.585 60.9125,44.6725 60.7175,44.8475 C60.5225,45.0225 60.425,45.305 60.425,45.695 C60.425,46.065 60.525,46.34 60.725,46.52 C60.925,46.7 61.195,46.79 61.535,46.79 Z M62.555,56 L62.555,47.795 L60.515,47.795 L60.515,56 L62.555,56 Z M66.47,56 L66.47,44.6 L64.445,44.6 L64.445,56 L66.47,56 Z M70.385,56 L70.385,44.6 L68.36,44.6 L68.36,56 L70.385,56 Z" id="qr-rechnung-text" fill="#FFFFFF" fill-rule="nonzero"></path>
		</g>
		<g id="ebill" transform="translate(529.000000, 24.000000)">
			<circle id="Oval" fill="#25B9D4" cx="50" cy="50" r="50"></circle>
			<path d="M39.9425,47.66 C40.9225049,47.66 41.6849973,47.9899967 42.23,48.65 C42.7750027,49.3100033 43.0475,50.2149943 43.0475,51.365 L43.0475,52.46 L38.7275,52.46 C38.7475001,53.8400069 39.3124945,54.53 40.4225,54.53 C40.822502,54.53 41.1974983,54.4850005 41.5475,54.395 C41.8975017,54.3049995 42.2624981,54.1500011 42.6425,53.93 L42.6425,55.58 C42.2924983,55.780001 41.9225019,55.9249995 41.5325,56.015 C41.1424981,56.1050004 40.6975025,56.15 40.1975,56.15 C39.0374942,56.15 38.1650029,55.7850037 37.58,55.055 C36.9949971,54.3249963 36.7025,53.2900067 36.7025,51.95 C36.7025,50.549993 36.9849972,49.4850037 37.55,48.755 C38.1150028,48.0249964 38.9124949,47.66 39.9425,47.66 Z M39.9725,49.205 C39.6224982,49.205 39.3350011,49.3474986 39.11,49.6325 C38.8849989,49.9175014 38.7625001,50.3799968 38.7425,51.02 L41.1425,51.02 C41.1425,50.4699972 41.042501,50.0300017 40.8425,49.7 C40.642499,49.3699984 40.3525019,49.205 39.9725,49.205 Z M44.6525,45.29 L47.6225,45.29 C48.822506,45.29 49.724997,45.5024979 50.33,45.9275 C50.935003,46.3525021 51.2375,47.0299954 51.2375,47.96 C51.2375,48.5800031 51.1050013,49.0999979 50.84,49.52 C50.5749987,49.9400021 50.2025024,50.2049995 49.7225,50.315 L49.7225,50.39 C50.2825028,50.5300007 50.7099985,50.799998 51.005,51.2 C51.3000015,51.600002 51.4475,52.1649964 51.4475,52.895 C51.4475,53.8550048 51.147503,54.6124972 50.5475,55.1675 C49.947497,55.7225028 49.1175053,56 48.0575,56 L44.6525,56 L44.6525,45.29 Z M46.7675,49.595 L47.6975,49.595 C48.1875024,49.595 48.5424989,49.4800011 48.7625,49.25 C48.9825011,49.0199989 49.0925,48.6850022 49.0925,48.245 C49.0925,47.434996 48.6075048,47.03 47.6375,47.03 L46.7675,47.03 L46.7675,49.595 Z M46.7675,51.29 L46.7675,54.23 L47.8625,54.23 C48.3625025,54.23 48.7224989,54.1000013 48.9425,53.84 C49.1625011,53.5799987 49.2725,53.2050025 49.2725,52.715 C49.2725,52.2649977 49.1525012,51.9150013 48.9125,51.665 C48.6724988,51.4149987 48.2975025,51.29 47.7875,51.29 L46.7675,51.29 Z M54.0875,44.585 C54.8275037,44.585 55.1975,44.9549963 55.1975,45.695 C55.1975,46.0650019 55.100001,46.3399991 54.905,46.52 C54.709999,46.7000009 54.4375017,46.79 54.0875,46.79 C53.7474983,46.79 53.4775,46.7000009 53.2775,46.52 C53.077499,46.3399991 52.9775,46.0650019 52.9775,45.695 C52.9775,45.3049981 53.074999,45.0225009 53.27,44.8475 C53.465001,44.6724991 53.7374982,44.585 54.0875,44.585 Z M55.1075,47.795 L55.1075,56 L53.0675,56 L53.0675,47.795 L55.1075,47.795 Z M59.0225,56 L56.9975,56 L56.9975,44.6 L59.0225,44.6 L59.0225,56 Z M62.9375,56 L60.9125,56 L60.9125,44.6 L62.9375,44.6 L62.9375,56 Z" id="ebill-text" fill="#FFFFFF" fill-rule="nonzero"></path>
		</g>
	</g>
</svg>

