<svg width="655px" height="366px" viewBox="0 0 655 366" version="1.1" xmlns="http://www.w3.org/2000/svg" xmlns:xlink="http://www.w3.org/1999/xlink">
	<g id="animation_fr" stroke="none" stroke-width="1" fill="none" fill-rule="evenodd">
		<g id="x-axis" transform="translate(124.000000, 337.000000)">
			<polygon id="x-axis-2" fill="#5C5C5B" transform="translate(525.900000, 3.000000) rotate(90.000000) translate(-525.900000, -3.000000) " points="525.9 -2 528.9 8 522.9 8"></polygon>
			<line x1="0" y1="3" x2="521" y2="3" id="x-axis-1" stroke="#5C5C5B" stroke-width="2"></line>
		</g>
		<g id="y-axis" transform="translate(122.000000, 0.000000)">
			<polygon id="y-axis-2" fill="#5C5C5B" points="3 0.1 6 10.1 0 10.1"></polygon>
			<line x1="3" y1="340" x2="3" y2="10" id="y-axis-1" stroke="#5C5C5B" stroke-width="2"></line>
		</g>
		<g id="x-labels" transform="translate(219.000000, 349.000000)" fill="#5C5C5B" fill-rule="nonzero">
			<path d="M1.976,12 L2.509,9.777 L4.979,9.777 L5.512,12 L7.475,12 L4.888,2.705 L2.561,2.705 L0,12 L1.976,12 Z M4.641,8.191 L2.847,8.191 L3.393,5.812 C3.45366667,5.56066667 3.51866667,5.2725 3.588,4.9475 C3.65733333,4.6225 3.70933333,4.343 3.744,4.109 C3.77866667,4.35166667 3.83066667,4.629 3.9,4.941 C3.96933333,5.253 4.03,5.54766667 4.082,5.825 L4.082,5.825 L4.641,8.191 Z M10.3753,12.13 C10.7566333,12.13 11.0989667,12.0433333 11.4023,11.87 C11.7056333,11.6966667 11.9483,11.4366667 12.1303,11.09 L12.1303,11.09 L12.2213,11.09 L12.4423,12 L13.8073,12 L13.8073,4.889 L12.0523,4.889 L12.0523,8.425 C12.0523,9.127 11.9743,9.6665 11.8183,10.0435 C11.6623,10.4205 11.3503,10.609 10.8823,10.609 C10.5876333,10.609 10.3774667,10.4768333 10.2518,10.2125 C10.1261333,9.94816667 10.0633,9.556 10.0633,9.036 L10.0633,9.036 L10.0633,4.889 L8.2953,4.889 L8.2953,9.53 C8.2953,10.3793333 8.47513333,11.025 8.8348,11.467 C9.19446667,11.909 9.70796667,12.13 10.3753,12.13 Z M16.3566,4.018 C16.6599333,4.018 16.8961,3.94 17.0651,3.784 C17.2341,3.628 17.3186,3.38966667 17.3186,3.069 C17.3186,2.42766667 16.9979333,2.107 16.3566,2.107 C16.0532667,2.107 15.8171,2.18283333 15.6481,2.3345 C15.4791,2.48616667 15.3946,2.731 15.3946,3.069 C15.3946,3.38966667 15.4812667,3.628 15.6546,3.784 C15.8279333,3.94 16.0619333,4.018 16.3566,4.018 Z M15.1736,15.12 C15.8669333,15.1113333 16.3847667,14.9076667 16.7271,14.509 C17.0694333,14.1103333 17.2406,13.5296667 17.2406,12.767 L17.2406,12.767 L17.2406,4.889 L15.4726,4.889 L15.4726,12.624 C15.4726,12.9706667 15.4141,13.222 15.2971,13.378 C15.1801,13.534 15.0132667,13.612 14.7966,13.612 C14.5799333,13.612 14.3632667,13.573 14.1466,13.495 L14.1466,13.495 L14.1466,14.977 C14.4586,15.0723333 14.8009333,15.12 15.1736,15.12 Z M21.4929,12.13 C22.1689,12.13 22.7235667,11.9675 23.1569,11.6425 C23.5902333,11.3175 23.9130667,10.8755 24.1254,10.3165 C24.3377333,9.7575 24.4439,9.127 24.4439,8.425 C24.4439,7.24633333 24.1774,6.34066667 23.6444,5.708 C23.1114,5.07533333 22.4072333,4.759 21.5319,4.759 C20.8645667,4.759 20.3142333,4.91283333 19.8809,5.2205 C19.4475667,5.52816667 19.1247333,5.955 18.9124,6.501 C18.7000667,7.047 18.5939,7.68833333 18.5939,8.425 C18.5939,9.127 18.7044,9.7575 18.9254,10.3165 C19.1464,10.8755 19.4735667,11.3175 19.9069,11.6425 C20.3402333,11.9675 20.8689,12.13 21.4929,12.13 Z M21.5189,10.661 C21.1202333,10.661 20.8320667,10.4746667 20.6544,10.102 C20.4767333,9.72933333 20.3879,9.179 20.3879,8.451 C20.3879,7.70566667 20.4767333,7.14883333 20.6544,6.7805 C20.8320667,6.41216667 21.1202333,6.228 21.5189,6.228 C21.9175667,6.228 22.2035667,6.41 22.3769,6.774 C22.5502333,7.138 22.6369,7.68833333 22.6369,8.425 C22.6369,9.17033333 22.5502333,9.72933333 22.3769,10.102 C22.2035667,10.4746667 21.9175667,10.661 21.5189,10.661 Z M27.8382,12.13 C28.2195333,12.13 28.5618667,12.0433333 28.8652,11.87 C29.1685333,11.6966667 29.4112,11.4366667 29.5932,11.09 L29.5932,11.09 L29.6842,11.09 L29.9052,12 L31.2702,12 L31.2702,4.889 L29.5152,4.889 L29.5152,8.425 C29.5152,9.127 29.4372,9.6665 29.2812,10.0435 C29.1252,10.4205 28.8132,10.609 28.3452,10.609 C28.0505333,10.609 27.8403667,10.4768333 27.7147,10.2125 C27.5890333,9.94816667 27.5262,9.556 27.5262,9.036 L27.5262,9.036 L27.5262,4.889 L25.7582,4.889 L25.7582,9.53 C25.7582,10.3793333 25.9380333,11.025 26.2977,11.467 C26.6573667,11.909 27.1708667,12.13 27.8382,12.13 Z M34.7035,12 L34.7035,8.373 C34.7035,7.79233333 34.8356667,7.346 35.1,7.034 C35.3643333,6.722 35.7131667,6.566 36.1465,6.566 C36.3891667,6.566 36.5885,6.59633333 36.7445,6.657 L36.7445,6.657 L36.8875,4.837 C36.6795,4.785 36.4801667,4.759 36.2895,4.759 C35.9081667,4.759 35.5766667,4.89116667 35.295,5.1555 C35.0133333,5.41983333 34.7901667,5.72533333 34.6255,6.072 L34.6255,6.072 L34.5475,6.072 L34.2875,4.889 L32.9355,4.889 L32.9355,12 L34.7035,12 Z M39.6708,12.13 C40.0694667,12.13 40.3944667,12.0476667 40.6458,11.883 C40.8971333,11.7183333 41.1268,11.4843333 41.3348,11.181 L41.3348,11.181 L41.4258,11.181 L41.6988,12 L43.0898,12 L43.0898,2.12 L41.3348,2.12 L41.3348,4.538 C41.3348,4.71133333 41.3434667,4.9085 41.3608,5.1295 C41.3781333,5.3505 41.3954667,5.57366667 41.4128,5.799 L41.4128,5.799 L41.3478,5.799 C41.1571333,5.46966667 40.9209667,5.214 40.6393,5.032 C40.3576333,4.85 40.0261333,4.759 39.6448,4.759 C38.9514667,4.759 38.4033,5.07966667 38.0003,5.721 C37.5973,6.36233333 37.3958,7.27233333 37.3958,8.451 C37.3958,9.621 37.5973,10.5266667 38.0003,11.168 C38.4033,11.8093333 38.9601333,12.13 39.6708,12.13 Z M40.2298,10.674 C39.5278,10.674 39.1768,9.92866667 39.1768,8.438 C39.1768,7.72733333 39.2656333,7.18783333 39.4433,6.8195 C39.6209667,6.45116667 39.8788,6.267 40.2168,6.267 C40.6328,6.267 40.9296333,6.436 41.1073,6.774 C41.2849667,7.112 41.3738,7.62766667 41.3738,8.321 L41.3738,8.321 L41.3738,8.672 C41.3651333,9.35666667 41.2719667,9.8615 41.0943,10.1865 C40.9166333,10.5115 40.6284667,10.674 40.2298,10.674 Z M45.6521,6.124 C45.8514333,5.64733333 46.0356,5.13166667 46.2046,4.577 C46.3736,4.02233333 46.5101,3.45033333 46.6141,2.861 L46.6141,2.861 L46.5361,2.718 L44.8331,2.718 C44.8071,3.01266667 44.7637667,3.36366667 44.7031,3.771 C44.6424333,4.17833333 44.5752667,4.59 44.5016,5.006 C44.4279333,5.422 44.3521,5.79466667 44.2741,6.124 L44.2741,6.124 L45.6521,6.124 Z M49.5664,12 L49.5664,8.607 C49.5664,7.827 49.6487333,7.24633333 49.8134,6.865 C49.9780667,6.48366667 50.2857333,6.293 50.7364,6.293 C51.0224,6.293 51.2304,6.4165 51.3604,6.6635 C51.4904,6.9105 51.5554,7.294 51.5554,7.814 L51.5554,7.814 L51.5554,12 L53.3234,12 L53.3234,7.32 C53.3234,6.47066667 53.1414,5.8315 52.7774,5.4025 C52.4134,4.9735 51.9020667,4.759 51.2434,4.759 C50.8707333,4.759 50.5370667,4.84566667 50.2424,5.019 C49.9477333,5.19233333 49.7180667,5.45233333 49.5534,5.799 L49.5534,5.799 L49.4494,5.799 C49.4927333,5.59966667 49.5230667,5.3635 49.5404,5.0905 C49.5577333,4.8175 49.5664,4.54233333 49.5664,4.265 L49.5664,4.265 L49.5664,2.12 L47.8114,2.12 L47.8114,12 L49.5664,12 Z M57.0167,12.13 C57.3980333,12.13 57.7403667,12.0433333 58.0437,11.87 C58.3470333,11.6966667 58.5897,11.4366667 58.7717,11.09 L58.7717,11.09 L58.8627,11.09 L59.0837,12 L60.4487,12 L60.4487,4.889 L58.6937,4.889 L58.6937,8.425 C58.6937,9.127 58.6157,9.6665 58.4597,10.0435 C58.3037,10.4205 57.9917,10.609 57.5237,10.609 C57.2290333,10.609 57.0188667,10.4768333 56.8932,10.2125 C56.7675333,9.94816667 56.7047,9.556 56.7047,9.036 L56.7047,9.036 L56.7047,4.889 L54.9367,4.889 L54.9367,9.53 C54.9367,10.3793333 55.1165333,11.025 55.4762,11.467 C55.8358667,11.909 56.3493667,12.13 57.0167,12.13 Z M62.998,4.018 C63.3013333,4.018 63.5375,3.94 63.7065,3.784 C63.8755,3.628 63.96,3.38966667 63.96,3.069 C63.96,2.42766667 63.6393333,2.107 62.998,2.107 C62.6946667,2.107 62.4585,2.18283333 62.2895,2.3345 C62.1205,2.48616667 62.036,2.731 62.036,3.069 C62.036,3.38966667 62.1226667,3.628 62.296,3.784 C62.4693333,3.94 62.7033333,4.018 62.998,4.018 Z M63.882,12 L63.882,4.889 L62.114,4.889 L62.114,12 L63.882,12 Z" id="x-labels-1"></path>
			<path d="M143.51,1.99 C143.709333,1.81666667 143.939,1.6065 144.199,1.3595 C144.459,1.1125 144.703833,0.869833333 144.9335,0.6315 C145.163167,0.393166667 145.343,0.191666667 145.473,0.027 L145.473,0.027 L145.473,-0.09 L143.471,-0.09 C143.315,0.204666667 143.133,0.518833333 142.925,0.8525 C142.717,1.18616667 142.500333,1.509 142.275,1.821 L142.275,1.821 L142.275,1.99 L143.51,1.99 Z M145.46,12 L145.46,10.427 L142.769,10.427 L142.769,7.957 L145.265,7.957 L145.265,6.41 L142.769,6.41 L142.769,4.265 L145.46,4.265 L145.46,2.718 L140.936,2.718 L140.936,12 L145.46,12 Z M150.145506,12 L152.303506,4.889 L150.470506,4.889 L149.456506,8.802 C149.387173,9.07933333 149.333006,9.33933333 149.294006,9.582 C149.255006,9.82466667 149.231173,10.0456667 149.222506,10.245 L149.222506,10.245 L149.170506,10.245 C149.144506,9.99366667 149.112006,9.74233333 149.073006,9.491 C149.034006,9.23966667 148.979839,8.98833333 148.910506,8.737 L148.910506,8.737 L147.935506,4.889 L146.102506,4.889 L148.260506,12 L150.145506,12 Z M155.754012,12.13 C156.430012,12.13 156.984678,11.9675 157.418012,11.6425 C157.851345,11.3175 158.174178,10.8755 158.386512,10.3165 C158.598845,9.7575 158.705012,9.127 158.705012,8.425 C158.705012,7.24633333 158.438512,6.34066667 157.905512,5.708 C157.372512,5.07533333 156.668345,4.759 155.793012,4.759 C155.125678,4.759 154.575345,4.91283333 154.142012,5.2205 C153.708678,5.52816667 153.385845,5.955 153.173512,6.501 C152.961178,7.047 152.855012,7.68833333 152.855012,8.425 C152.855012,9.127 152.965512,9.7575 153.186512,10.3165 C153.407512,10.8755 153.734678,11.3175 154.168012,11.6425 C154.601345,11.9675 155.130012,12.13 155.754012,12.13 Z M155.780012,10.661 C155.381345,10.661 155.093178,10.4746667 154.915512,10.102 C154.737845,9.72933333 154.649012,9.179 154.649012,8.451 C154.649012,7.70566667 154.737845,7.14883333 154.915512,6.7805 C155.093178,6.41216667 155.381345,6.228 155.780012,6.228 C156.178678,6.228 156.464678,6.41 156.638012,6.774 C156.811345,7.138 156.898012,7.68833333 156.898012,8.425 C156.898012,9.17033333 156.811345,9.72933333 156.638012,10.102 C156.464678,10.4746667 156.178678,10.661 155.780012,10.661 Z M161.778518,12 L161.778518,2.12 L160.023518,2.12 L160.023518,12 L161.778518,12 Z M165.476024,12.13 C165.857357,12.13 166.19969,12.0433333 166.503024,11.87 C166.806357,11.6966667 167.049024,11.4366667 167.231024,11.09 L167.231024,11.09 L167.322024,11.09 L167.543024,12 L168.908024,12 L168.908024,4.889 L167.153024,4.889 L167.153024,8.425 C167.153024,9.127 167.075024,9.6665 166.919024,10.0435 C166.763024,10.4205 166.451024,10.609 165.983024,10.609 C165.688357,10.609 165.47819,10.4768333 165.352524,10.2125 C165.226857,9.94816667 165.164024,9.556 165.164024,9.036 L165.164024,9.036 L165.164024,4.889 L163.396024,4.889 L163.396024,9.53 C163.396024,10.3793333 163.575857,11.025 163.935524,11.467 C164.29519,11.909 164.80869,12.13 165.476024,12.13 Z M172.566529,12.13 C172.852529,12.13 173.119029,12.0996667 173.366029,12.039 C173.613029,11.9783333 173.836196,11.9003333 174.035529,11.805 L174.035529,11.805 L174.035529,10.427 C173.714863,10.557 173.407196,10.622 173.112529,10.622 C172.670529,10.622 172.449529,10.349 172.449529,9.803 L172.449529,9.803 L172.449529,6.306 L173.944529,6.306 L173.944529,4.889 L172.449529,4.889 L172.449529,3.394 L171.279529,3.394 L170.824529,4.928 L169.927529,5.435 L169.927529,6.306 L170.694529,6.306 L170.694529,9.855 C170.694529,10.661 170.852696,11.2416667 171.169029,11.597 C171.485363,11.9523333 171.951196,12.13 172.566529,12.13 Z M176.017035,4.018 C176.320369,4.018 176.556535,3.94 176.725535,3.784 C176.894535,3.628 176.979035,3.38966667 176.979035,3.069 C176.979035,2.42766667 176.658369,2.107 176.017035,2.107 C175.713702,2.107 175.477535,2.18283333 175.308535,2.3345 C175.139535,2.48616667 175.055035,2.731 175.055035,3.069 C175.055035,3.38966667 175.141702,3.628 175.315035,3.784 C175.488369,3.94 175.722369,4.018 176.017035,4.018 Z M176.901035,12 L176.901035,4.889 L175.133035,4.889 L175.133035,12 L176.901035,12 Z M181.131541,12.13 C181.807541,12.13 182.362208,11.9675 182.795541,11.6425 C183.228875,11.3175 183.551708,10.8755 183.764041,10.3165 C183.976375,9.7575 184.082541,9.127 184.082541,8.425 C184.082541,7.24633333 183.816041,6.34066667 183.283041,5.708 C182.750041,5.07533333 182.045875,4.759 181.170541,4.759 C180.503208,4.759 179.952875,4.91283333 179.519541,5.2205 C179.086208,5.52816667 178.763375,5.955 178.551041,6.501 C178.338708,7.047 178.232541,7.68833333 178.232541,8.425 C178.232541,9.127 178.343041,9.7575 178.564041,10.3165 C178.785041,10.8755 179.112208,11.3175 179.545541,11.6425 C179.978875,11.9675 180.507541,12.13 181.131541,12.13 Z M181.157541,10.661 C180.758875,10.661 180.470708,10.4746667 180.293041,10.102 C180.115375,9.72933333 180.026541,9.179 180.026541,8.451 C180.026541,7.70566667 180.115375,7.14883333 180.293041,6.7805 C180.470708,6.41216667 180.758875,6.228 181.157541,6.228 C181.556208,6.228 181.842208,6.41 182.015541,6.774 C182.188875,7.138 182.275541,7.68833333 182.275541,8.425 C182.275541,9.17033333 182.188875,9.72933333 182.015541,10.102 C181.842208,10.4746667 181.556208,10.661 181.157541,10.661 Z M187.156047,12 L187.156047,8.607 C187.156047,7.78366667 187.23838,7.19 187.403047,6.826 C187.567714,6.462 187.866714,6.28 188.300047,6.28 C188.612047,6.28 188.83088,6.41 188.956547,6.67 C189.082214,6.93 189.145047,7.31133333 189.145047,7.814 L189.145047,7.814 L189.145047,12 L190.913047,12 L190.913047,7.32 C190.913047,6.47066667 190.72888,5.8315 190.360547,5.4025 C189.992214,4.9735 189.48738,4.759 188.846047,4.759 C188.464714,4.759 188.120214,4.84566667 187.812547,5.019 C187.50488,5.19233333 187.26438,5.45233333 187.091047,5.799 L187.091047,5.799 L186.987047,5.799 L186.779047,4.889 L185.401047,4.889 L185.401047,12 L187.156047,12 Z M197.138059,12.13 C197.536725,12.13 197.861725,12.0476667 198.113059,11.883 C198.364392,11.7183333 198.594059,11.4843333 198.802059,11.181 L198.802059,11.181 L198.893059,11.181 L199.166059,12 L200.557059,12 L200.557059,2.12 L198.802059,2.12 L198.802059,4.538 C198.802059,4.71133333 198.810725,4.9085 198.828059,5.1295 C198.845392,5.3505 198.862725,5.57366667 198.880059,5.799 L198.880059,5.799 L198.815059,5.799 C198.624392,5.46966667 198.388225,5.214 198.106559,5.032 C197.824892,4.85 197.493392,4.759 197.112059,4.759 C196.418725,4.759 195.870559,5.07966667 195.467559,5.721 C195.064559,6.36233333 194.863059,7.27233333 194.863059,8.451 C194.863059,9.621 195.064559,10.5266667 195.467559,11.168 C195.870559,11.8093333 196.427392,12.13 197.138059,12.13 Z M197.697059,10.674 C196.995059,10.674 196.644059,9.92866667 196.644059,8.438 C196.644059,7.72733333 196.732892,7.18783333 196.910559,6.8195 C197.088225,6.45116667 197.346059,6.267 197.684059,6.267 C198.100059,6.267 198.396892,6.436 198.574559,6.774 C198.752225,7.112 198.841059,7.62766667 198.841059,8.321 L198.841059,8.321 L198.841059,8.672 C198.832392,9.35666667 198.739225,9.8615 198.561559,10.1865 C198.383892,10.5115 198.095725,10.674 197.697059,10.674 Z M204.254565,12.13 C204.635898,12.13 204.978231,12.0433333 205.281565,11.87 C205.584898,11.6966667 205.827565,11.4366667 206.009565,11.09 L206.009565,11.09 L206.100565,11.09 L206.321565,12 L207.686565,12 L207.686565,4.889 L205.931565,4.889 L205.931565,8.425 C205.931565,9.127 205.853565,9.6665 205.697565,10.0435 C205.541565,10.4205 205.229565,10.609 204.761565,10.609 C204.466898,10.609 204.256731,10.4768333 204.131065,10.2125 C204.005398,9.94816667 203.942565,9.556 203.942565,9.036 L203.942565,9.036 L203.942565,4.889 L202.174565,4.889 L202.174565,9.53 C202.174565,10.3793333 202.354398,11.025 202.714065,11.467 C203.073731,11.909 203.587231,12.13 204.254565,12.13 Z M213.729576,12 L213.729576,8.62 C213.729576,7.85733333 213.80541,7.27666667 213.957076,6.878 C214.108743,6.47933333 214.392576,6.28 214.808576,6.28 C215.337243,6.28 215.601576,6.79133333 215.601576,7.814 L215.601576,7.814 L215.601576,12 L217.369576,12 L217.369576,8.412 C217.369576,7.70133333 217.447576,7.16833333 217.603576,6.813 C217.759576,6.45766667 218.032576,6.28 218.422576,6.28 C218.968576,6.28 219.241576,6.79566667 219.241576,7.827 L219.241576,7.827 L219.241576,12 L220.996576,12 L220.996576,7.333 C220.996576,6.45766667 220.829743,5.80983333 220.496076,5.3895 C220.16241,4.96916667 219.666243,4.759 219.007576,4.759 C218.19291,4.759 217.612243,5.10133333 217.265576,5.786 L217.265576,5.786 L217.135576,5.786 C216.99691,5.474 216.78891,5.22483333 216.511576,5.0385 C216.234243,4.85216667 215.874576,4.759 215.432576,4.759 C215.03391,4.759 214.678576,4.84566667 214.366576,5.019 C214.054576,5.19233333 213.820576,5.45233333 213.664576,5.799 L213.664576,5.799 L213.560576,5.799 L213.352576,4.889 L211.974576,4.889 L211.974576,12 L213.729576,12 Z M224.031082,12.13 C224.507749,12.13 224.886916,12.0433333 225.168582,11.87 C225.450249,11.6966667 225.716749,11.4236667 225.968082,11.051 L225.968082,11.051 L226.007082,11.051 L226.306082,12 L227.580082,12 L227.580082,7.281 C227.580082,6.44033333 227.378582,5.80983333 226.975582,5.3895 C226.572582,4.96916667 225.985416,4.759 225.214082,4.759 C224.304082,4.759 223.502416,4.96266667 222.809082,5.37 L222.809082,5.37 L223.329082,6.644 C223.623749,6.47933333 223.905416,6.35583333 224.174082,6.2735 C224.442749,6.19116667 224.698416,6.15 224.941082,6.15 C225.530416,6.15 225.825082,6.527 225.825082,7.281 L225.825082,7.281 L225.825082,7.567 L224.837082,7.606 C223.987749,7.64066667 223.339916,7.84433333 222.893582,8.217 C222.447249,8.58966667 222.224082,9.14866667 222.224082,9.894 C222.224082,10.5266667 222.375749,11.0575 222.679082,11.4865 C222.982416,11.9155 223.433082,12.13 224.031082,12.13 Z M224.733082,10.752 C224.507749,10.752 224.330082,10.6805 224.200082,10.5375 C224.070082,10.3945 224.005082,10.1626667 224.005082,9.842 C224.005082,9.49533333 224.104749,9.22666667 224.304082,9.036 C224.503416,8.84533333 224.819749,8.74133333 225.253082,8.724 L225.253082,8.724 L225.825082,8.698 L225.825082,9.335 C225.825082,9.777 225.721082,10.1236667 225.513082,10.375 C225.305082,10.6263333 225.045082,10.752 224.733082,10.752 Z M230.965588,12 L230.965588,8.373 C230.965588,7.79233333 231.097755,7.346 231.362088,7.034 C231.626422,6.722 231.975255,6.566 232.408588,6.566 C232.651255,6.566 232.850588,6.59633333 233.006588,6.657 L233.006588,6.657 L233.149588,4.837 C232.941588,4.785 232.742255,4.759 232.551588,4.759 C232.170255,4.759 231.838755,4.89116667 231.557088,5.1555 C231.275422,5.41983333 231.052255,5.72533333 230.887588,6.072 L230.887588,6.072 L230.809588,6.072 L230.549588,4.889 L229.197588,4.889 L229.197588,12 L230.965588,12 Z M236.496094,12.13 C237.198094,12.13 237.791761,11.9523333 238.277094,11.597 L238.277094,11.597 L238.277094,10.089 C238.025761,10.2623333 237.767927,10.3966667 237.503594,10.492 C237.239261,10.5873333 236.959761,10.635 236.665094,10.635 C235.841761,10.635 235.430094,9.91566667 235.430094,8.477 C235.430094,6.995 235.837427,6.254 236.652094,6.254 C236.860094,6.254 237.070261,6.28866667 237.282594,6.358 C237.494927,6.42733333 237.713761,6.51833333 237.939094,6.631 L237.939094,6.631 L238.446094,5.24 C238.194761,5.09266667 237.915261,4.97566667 237.607594,4.889 C237.299927,4.80233333 236.951094,4.759 236.561094,4.759 C235.599094,4.759 234.871094,5.09266667 234.377094,5.76 C233.883094,6.42733333 233.636094,7.333 233.636094,8.477 C233.636094,9.725 233.876594,10.6458333 234.357594,11.2395 C234.838594,11.8331667 235.551427,12.13 236.496094,12.13 Z M241.3506,12 L241.3506,8.607 C241.3506,7.827 241.432933,7.24633333 241.5976,6.865 C241.762267,6.48366667 242.069933,6.293 242.5206,6.293 C242.8066,6.293 243.0146,6.4165 243.1446,6.6635 C243.2746,6.9105 243.3396,7.294 243.3396,7.814 L243.3396,7.814 L243.3396,12 L245.1076,12 L245.1076,7.32 C245.1076,6.47066667 244.9256,5.8315 244.5616,5.4025 C244.1976,4.9735 243.686267,4.759 243.0276,4.759 C242.654933,4.759 242.321267,4.84566667 242.0266,5.019 C241.731933,5.19233333 241.502267,5.45233333 241.3376,5.799 L241.3376,5.799 L241.2336,5.799 C241.276933,5.59966667 241.307267,5.3635 241.3246,5.0905 C241.341933,4.8175 241.3506,4.54233333 241.3506,4.265 L241.3506,4.265 L241.3506,2.12 L239.5956,2.12 L239.5956,12 L241.3506,12 Z M249.429106,4.122 C249.628439,3.94866667 249.858106,3.7385 250.118106,3.4915 C250.378106,3.2445 250.622939,3.00183333 250.852606,2.7635 C251.082273,2.52516667 251.262106,2.32366667 251.392106,2.159 L251.392106,2.159 L251.392106,2.042 L249.390106,2.042 C249.234106,2.33666667 249.052106,2.65083333 248.844106,2.9845 C248.636106,3.31816667 248.419439,3.641 248.194106,3.953 L248.194106,3.953 L248.194106,4.122 L249.429106,4.122 Z M249.442106,12.13 C249.875439,12.13 250.261106,12.091 250.599106,12.013 C250.937106,11.935 251.257773,11.8093333 251.561106,11.636 L251.561106,11.636 L251.561106,10.206 C251.231773,10.3966667 250.915439,10.531 250.612106,10.609 C250.308773,10.687 249.983773,10.726 249.637106,10.726 C248.675106,10.726 248.185439,10.128 248.168106,8.932 L248.168106,8.932 L251.912106,8.932 L251.912106,7.983 C251.912106,6.98633333 251.675939,6.202 251.203606,5.63 C250.731273,5.058 250.070439,4.772 249.221106,4.772 C248.328439,4.772 247.637273,5.08833333 247.147606,5.721 C246.657939,6.35366667 246.413106,7.27666667 246.413106,8.49 C246.413106,9.65133333 246.666606,10.5483333 247.173606,11.181 C247.680606,11.8136667 248.436773,12.13 249.442106,12.13 Z M250.261106,7.684 L248.181106,7.684 C248.198439,7.12933333 248.304606,6.7285 248.499606,6.4815 C248.694606,6.2345 248.943773,6.111 249.247106,6.111 C249.576439,6.111 249.827773,6.254 250.001106,6.54 C250.174439,6.826 250.261106,7.20733333 250.261106,7.684 L250.261106,7.684 Z" id="x-labels-2"></path>
			<path d="M342.25,12 C343.567333,12 344.581333,11.5905 345.292,10.7715 C346.002667,9.9525 346.358,8.76733333 346.358,7.216 C346.358,5.75133333 346.011333,4.6355 345.318,3.8685 C344.624667,3.1015 343.662667,2.718 342.432,2.718 L342.432,2.718 L339.936,2.718 L339.936,12 L342.25,12 Z M342.302,10.414 L341.769,10.414 L341.769,4.278 L342.445,4.278 C343.103667,4.278 343.604167,4.52066667 343.9465,5.006 C344.288833,5.49133333 344.46,6.24966667 344.46,7.281 C344.46,8.33833333 344.2845,9.12483333 343.9335,9.6405 C343.5825,10.1561667 343.038667,10.414 342.302,10.414 L342.302,10.414 Z M350.514941,12.13 C350.948275,12.13 351.333941,12.091 351.671941,12.013 C352.009941,11.935 352.330608,11.8093333 352.633941,11.636 L352.633941,11.636 L352.633941,10.206 C352.304608,10.3966667 351.988275,10.531 351.684941,10.609 C351.381608,10.687 351.056608,10.726 350.709941,10.726 C349.747941,10.726 349.258275,10.128 349.240941,8.932 L349.240941,8.932 L352.984941,8.932 L352.984941,7.983 C352.984941,6.98633333 352.748775,6.202 352.276441,5.63 C351.804108,5.058 351.143275,4.772 350.293941,4.772 C349.401275,4.772 348.710108,5.08833333 348.220441,5.721 C347.730775,6.35366667 347.485941,7.27666667 347.485941,8.49 C347.485941,9.65133333 347.739441,10.5483333 348.246441,11.181 C348.753441,11.8136667 349.509608,12.13 350.514941,12.13 Z M351.333941,7.684 L349.253941,7.684 C349.271275,7.12933333 349.377441,6.7285 349.572441,6.4815 C349.767441,6.2345 350.016608,6.111 350.319941,6.111 C350.649275,6.111 350.900608,6.254 351.073941,6.54 C351.247275,6.826 351.333941,7.20733333 351.333941,7.684 L351.333941,7.684 Z M356.023882,12 L356.023882,8.62 C356.023882,7.85733333 356.099716,7.27666667 356.251382,6.878 C356.403049,6.47933333 356.686882,6.28 357.102882,6.28 C357.631549,6.28 357.895882,6.79133333 357.895882,7.814 L357.895882,7.814 L357.895882,12 L359.663882,12 L359.663882,8.412 C359.663882,7.70133333 359.741882,7.16833333 359.897882,6.813 C360.053882,6.45766667 360.326882,6.28 360.716882,6.28 C361.262882,6.28 361.535882,6.79566667 361.535882,7.827 L361.535882,7.827 L361.535882,12 L363.290882,12 L363.290882,7.333 C363.290882,6.45766667 363.124049,5.80983333 362.790382,5.3895 C362.456716,4.96916667 361.960549,4.759 361.301882,4.759 C360.487216,4.759 359.906549,5.10133333 359.559882,5.786 L359.559882,5.786 L359.429882,5.786 C359.291216,5.474 359.083216,5.22483333 358.805882,5.0385 C358.528549,4.85216667 358.168882,4.759 357.726882,4.759 C357.328216,4.759 356.972882,4.84566667 356.660882,5.019 C356.348882,5.19233333 356.114882,5.45233333 355.958882,5.799 L355.958882,5.799 L355.854882,5.799 L355.646882,4.889 L354.268882,4.889 L354.268882,12 L356.023882,12 Z M366.329824,12.13 C366.80649,12.13 367.185657,12.0433333 367.467324,11.87 C367.74899,11.6966667 368.01549,11.4236667 368.266824,11.051 L368.266824,11.051 L368.305824,11.051 L368.604824,12 L369.878824,12 L369.878824,7.281 C369.878824,6.44033333 369.677324,5.80983333 369.274324,5.3895 C368.871324,4.96916667 368.284157,4.759 367.512824,4.759 C366.602824,4.759 365.801157,4.96266667 365.107824,5.37 L365.107824,5.37 L365.627824,6.644 C365.92249,6.47933333 366.204157,6.35583333 366.472824,6.2735 C366.74149,6.19116667 366.997157,6.15 367.239824,6.15 C367.829157,6.15 368.123824,6.527 368.123824,7.281 L368.123824,7.281 L368.123824,7.567 L367.135824,7.606 C366.28649,7.64066667 365.638657,7.84433333 365.192324,8.217 C364.74599,8.58966667 364.522824,9.14866667 364.522824,9.894 C364.522824,10.5266667 364.67449,11.0575 364.977824,11.4865 C365.281157,11.9155 365.731824,12.13 366.329824,12.13 Z M367.031824,10.752 C366.80649,10.752 366.628824,10.6805 366.498824,10.5375 C366.368824,10.3945 366.303824,10.1626667 366.303824,9.842 C366.303824,9.49533333 366.40349,9.22666667 366.602824,9.036 C366.802157,8.84533333 367.11849,8.74133333 367.551824,8.724 L367.551824,8.724 L368.123824,8.698 L368.123824,9.335 C368.123824,9.777 368.019824,10.1236667 367.811824,10.375 C367.603824,10.6263333 367.343824,10.752 367.031824,10.752 Z M372.384765,4.018 C372.688098,4.018 372.924265,3.94 373.093265,3.784 C373.262265,3.628 373.346765,3.38966667 373.346765,3.069 C373.346765,2.42766667 373.026098,2.107 372.384765,2.107 C372.081431,2.107 371.845265,2.18283333 371.676265,2.3345 C371.507265,2.48616667 371.422765,2.731 371.422765,3.069 C371.422765,3.38966667 371.509431,3.628 371.682765,3.784 C371.856098,3.94 372.090098,4.018 372.384765,4.018 Z M373.268765,12 L373.268765,4.889 L371.500765,4.889 L371.500765,12 L373.268765,12 Z M376.671706,12 L376.671706,8.607 C376.671706,7.78366667 376.754039,7.19 376.918706,6.826 C377.083373,6.462 377.382373,6.28 377.815706,6.28 C378.127706,6.28 378.346539,6.41 378.472206,6.67 C378.597873,6.93 378.660706,7.31133333 378.660706,7.814 L378.660706,7.814 L378.660706,12 L380.428706,12 L380.428706,7.32 C380.428706,6.47066667 380.244539,5.8315 379.876206,5.4025 C379.507873,4.9735 379.003039,4.759 378.361706,4.759 C377.980373,4.759 377.635873,4.84566667 377.328206,5.019 C377.020539,5.19233333 376.780039,5.45233333 376.606706,5.799 L376.606706,5.799 L376.502706,5.799 L376.294706,4.889 L374.916706,4.889 L374.916706,12 L376.671706,12 Z" id="x-labels-3"></path>
		</g>
		<g id="y-labels" transform="translate(7.000000, 62.000000)" fill="#5C5C5B" fill-rule="nonzero">
			<path d="M4.92722353,203.99 L4.92722353,203.821 C4.82322353,203.673667 4.6953902,203.487333 4.54372353,203.262 C4.39205686,203.036667 4.24255686,202.802667 4.09522353,202.56 C3.9478902,202.317333 3.82655686,202.100667 3.73122353,201.91 L3.73122353,201.91 L1.72922353,201.91 L1.72922353,202.027 C1.82455686,202.148333 1.95672353,202.297833 2.12572353,202.4755 C2.29472353,202.653167 2.47672353,202.8395 2.67172353,203.0345 C2.86672353,203.2295 3.05522353,203.4115 3.23722353,203.5805 C3.41922353,203.7495 3.57522353,203.886 3.70522353,203.99 L3.70522353,203.99 L4.92722353,203.99 Z M6.14922353,214 L6.14922353,212.427 L3.45822353,212.427 L3.45822353,209.957 L5.95422353,209.957 L5.95422353,208.41 L3.45822353,208.41 L3.45822353,206.265 L6.14922353,206.265 L6.14922353,204.718 L1.62522353,204.718 L1.62522353,214 L6.14922353,214 Z M9.37521176,214 L9.37521176,210.373 C9.37521176,209.792333 9.50737843,209.346 9.77171176,209.034 C10.0360451,208.722 10.3848784,208.566 10.8182118,208.566 C11.0608784,208.566 11.2602118,208.596333 11.4162118,208.657 L11.4162118,208.657 L11.5592118,206.837 C11.3512118,206.785 11.1518784,206.759 10.9612118,206.759 C10.5798784,206.759 10.2483784,206.891167 9.96671176,207.1555 C9.6850451,207.419833 9.46187843,207.725333 9.29721176,208.072 L9.29721176,208.072 L9.21921176,208.072 L8.95921176,206.889 L7.60721176,206.889 L7.60721176,214 L9.37521176,214 Z M15.0972,214.13 C15.5305333,214.13 15.9162,214.091 16.2542,214.013 C16.5922,213.935 16.9128667,213.809333 17.2162,213.636 L17.2162,213.636 L17.2162,212.206 C16.8868667,212.396667 16.5705333,212.531 16.2672,212.609 C15.9638667,212.687 15.6388667,212.726 15.2922,212.726 C14.3302,212.726 13.8405333,212.128 13.8232,210.932 L13.8232,210.932 L17.5672,210.932 L17.5672,209.983 C17.5672,208.986333 17.3310333,208.202 16.8587,207.63 C16.3863667,207.058 15.7255333,206.772 14.8762,206.772 C13.9835333,206.772 13.2923667,207.088333 12.8027,207.721 C12.3130333,208.353667 12.0682,209.276667 12.0682,210.49 C12.0682,211.651333 12.3217,212.548333 12.8287,213.181 C13.3357,213.813667 14.0918667,214.13 15.0972,214.13 Z M15.9162,209.684 L13.8362,209.684 C13.8535333,209.129333 13.9597,208.7285 14.1547,208.4815 C14.3497,208.2345 14.5988667,208.111 14.9022,208.111 C15.2315333,208.111 15.4828667,208.254 15.6562,208.54 C15.8295333,208.826 15.9162,209.207333 15.9162,209.684 L15.9162,209.684 Z M23.4991765,214.13 C23.8978431,214.13 24.2228431,214.047667 24.4741765,213.883 C24.7255098,213.718333 24.9551765,213.484333 25.1631765,213.181 L25.1631765,213.181 L25.2541765,213.181 L25.5271765,214 L26.9181765,214 L26.9181765,204.12 L25.1631765,204.12 L25.1631765,206.538 C25.1631765,206.711333 25.1718431,206.9085 25.1891765,207.1295 C25.2065098,207.3505 25.2238431,207.573667 25.2411765,207.799 L25.2411765,207.799 L25.1761765,207.799 C24.9855098,207.469667 24.7493431,207.214 24.4676765,207.032 C24.1860098,206.85 23.8545098,206.759 23.4731765,206.759 C22.7798431,206.759 22.2316765,207.079667 21.8286765,207.721 C21.4256765,208.362333 21.2241765,209.272333 21.2241765,210.451 C21.2241765,211.621 21.4256765,212.526667 21.8286765,213.168 C22.2316765,213.809333 22.7885098,214.13 23.4991765,214.13 Z M24.0581765,212.674 C23.3561765,212.674 23.0051765,211.928667 23.0051765,210.438 C23.0051765,209.727333 23.0940098,209.187833 23.2716765,208.8195 C23.4493431,208.451167 23.7071765,208.267 24.0451765,208.267 C24.4611765,208.267 24.7580098,208.436 24.9356765,208.774 C25.1133431,209.112 25.2021765,209.627667 25.2021765,210.321 L25.2021765,210.321 L25.2021765,210.672 C25.1935098,211.356667 25.1003431,211.8615 24.9226765,212.1865 C24.7450098,212.5115 24.4568431,212.674 24.0581765,212.674 Z M31.3011647,214.13 C31.734498,214.13 32.1201647,214.091 32.4581647,214.013 C32.7961647,213.935 33.1168314,213.809333 33.4201647,213.636 L33.4201647,213.636 L33.4201647,212.206 C33.0908314,212.396667 32.774498,212.531 32.4711647,212.609 C32.1678314,212.687 31.8428314,212.726 31.4961647,212.726 C30.5341647,212.726 30.044498,212.128 30.0271647,210.932 L30.0271647,210.932 L33.7711647,210.932 L33.7711647,209.983 C33.7711647,208.986333 33.534998,208.202 33.0626647,207.63 C32.5903314,207.058 31.929498,206.772 31.0801647,206.772 C30.187498,206.772 29.4963314,207.088333 29.0066647,207.721 C28.516998,208.353667 28.2721647,209.276667 28.2721647,210.49 C28.2721647,211.651333 28.5256647,212.548333 29.0326647,213.181 C29.5396647,213.813667 30.2958314,214.13 31.3011647,214.13 Z M32.1201647,209.684 L30.0401647,209.684 C30.057498,209.129333 30.1636647,208.7285 30.3586647,208.4815 C30.5536647,208.2345 30.8028314,208.111 31.1061647,208.111 C31.435498,208.111 31.6868314,208.254 31.8601647,208.54 C32.033498,208.826 32.1201647,209.207333 32.1201647,209.684 L32.1201647,209.684 Z M39.4951412,214 L39.4951412,204.12 L37.7401412,204.12 L37.7401412,214 L39.4951412,214 Z M42.5911294,208.072 L42.8511294,204.718 L41.0181294,204.718 L41.2651294,208.072 L42.5911294,208.072 Z M45.4011176,214.13 C45.8777843,214.13 46.256951,214.043333 46.5386176,213.87 C46.8202843,213.696667 47.0867843,213.423667 47.3381176,213.051 L47.3381176,213.051 L47.3771176,213.051 L47.6761176,214 L48.9501176,214 L48.9501176,209.281 C48.9501176,208.440333 48.7486176,207.809833 48.3456176,207.3895 C47.9426176,206.969167 47.355451,206.759 46.5841176,206.759 C45.6741176,206.759 44.872451,206.962667 44.1791176,207.37 L44.1791176,207.37 L44.6991176,208.644 C44.9937843,208.479333 45.275451,208.355833 45.5441176,208.2735 C45.8127843,208.191167 46.068451,208.15 46.3111176,208.15 C46.900451,208.15 47.1951176,208.527 47.1951176,209.281 L47.1951176,209.281 L47.1951176,209.567 L46.2071176,209.606 C45.3577843,209.640667 44.709951,209.844333 44.2636176,210.217 C43.8172843,210.589667 43.5941176,211.148667 43.5941176,211.894 C43.5941176,212.526667 43.7457843,213.0575 44.0491176,213.4865 C44.352451,213.9155 44.8031176,214.13 45.4011176,214.13 Z M46.1031176,212.752 C45.8777843,212.752 45.7001176,212.6805 45.5701176,212.5375 C45.4401176,212.3945 45.3751176,212.162667 45.3751176,211.842 C45.3751176,211.495333 45.4747843,211.226667 45.6741176,211.036 C45.873451,210.845333 46.1897843,210.741333 46.6231176,210.724 L46.6231176,210.724 L47.1951176,210.698 L47.1951176,211.335 C47.1951176,211.777 47.0911176,212.123667 46.8831176,212.375 C46.6751176,212.626333 46.4151176,212.752 46.1031176,212.752 Z M52.3451059,214 L52.3451059,210.607 C52.3451059,209.783667 52.4274392,209.19 52.5921059,208.826 C52.7567725,208.462 53.0557725,208.28 53.4891059,208.28 C53.8011059,208.28 54.0199392,208.41 54.1456059,208.67 C54.2712725,208.93 54.3341059,209.311333 54.3341059,209.814 L54.3341059,209.814 L54.3341059,214 L56.1021059,214 L56.1021059,209.32 C56.1021059,208.470667 55.9179392,207.8315 55.5496059,207.4025 C55.1812725,206.9735 54.6764392,206.759 54.0351059,206.759 C53.6537725,206.759 53.3092725,206.845667 53.0016059,207.019 C52.6939392,207.192333 52.4534392,207.452333 52.2801059,207.799 L52.2801059,207.799 L52.1761059,207.799 L51.9681059,206.889 L50.5901059,206.889 L50.5901059,214 L52.3451059,214 Z M59.1590941,214.13 C59.6357608,214.13 60.0149275,214.043333 60.2965941,213.87 C60.5782608,213.696667 60.8447608,213.423667 61.0960941,213.051 L61.0960941,213.051 L61.1350941,213.051 L61.4340941,214 L62.7080941,214 L62.7080941,209.281 C62.7080941,208.440333 62.5065941,207.809833 62.1035941,207.3895 C61.7005941,206.969167 61.1134275,206.759 60.3420941,206.759 C59.4320941,206.759 58.6304275,206.962667 57.9370941,207.37 L57.9370941,207.37 L58.4570941,208.644 C58.7517608,208.479333 59.0334275,208.355833 59.3020941,208.2735 C59.5707608,208.191167 59.8264275,208.15 60.0690941,208.15 C60.6584275,208.15 60.9530941,208.527 60.9530941,209.281 L60.9530941,209.281 L60.9530941,209.567 L59.9650941,209.606 C59.1157608,209.640667 58.4679275,209.844333 58.0215941,210.217 C57.5752608,210.589667 57.3520941,211.148667 57.3520941,211.894 C57.3520941,212.526667 57.5037608,213.0575 57.8070941,213.4865 C58.1104275,213.9155 58.5610941,214.13 59.1590941,214.13 Z M59.8610941,212.752 C59.6357608,212.752 59.4580941,212.6805 59.3280941,212.5375 C59.1980941,212.3945 59.1330941,212.162667 59.1330941,211.842 C59.1330941,211.495333 59.2327608,211.226667 59.4320941,211.036 C59.6314275,210.845333 59.9477608,210.741333 60.3810941,210.724 L60.3810941,210.724 L60.9530941,210.698 L60.9530941,211.335 C60.9530941,211.777 60.8490941,212.123667 60.6410941,212.375 C60.4330941,212.626333 60.1730941,212.752 59.8610941,212.752 Z M66.1030824,214 L66.1030824,204.12 L64.3480824,204.12 L64.3480824,214 L66.1030824,214 Z M70.3560706,214.13 C71.0320706,214.13 71.5867373,213.9675 72.0200706,213.6425 C72.4534039,213.3175 72.7762373,212.8755 72.9885706,212.3165 C73.2009039,211.7575 73.3070706,211.127 73.3070706,210.425 C73.3070706,209.246333 73.0405706,208.340667 72.5075706,207.708 C71.9745706,207.075333 71.2704039,206.759 70.3950706,206.759 C69.7277373,206.759 69.1774039,206.912833 68.7440706,207.2205 C68.3107373,207.528167 67.9879039,207.955 67.7755706,208.501 C67.5632373,209.047 67.4570706,209.688333 67.4570706,210.425 C67.4570706,211.127 67.5675706,211.7575 67.7885706,212.3165 C68.0095706,212.8755 68.3367373,213.3175 68.7700706,213.6425 C69.2034039,213.9675 69.7320706,214.13 70.3560706,214.13 Z M70.3820706,212.661 C69.9834039,212.661 69.6952373,212.474667 69.5175706,212.102 C69.3399039,211.729333 69.2510706,211.179 69.2510706,210.451 C69.2510706,209.705667 69.3399039,209.148833 69.5175706,208.7805 C69.6952373,208.412167 69.9834039,208.228 70.3820706,208.228 C70.7807373,208.228 71.0667373,208.41 71.2400706,208.774 C71.4134039,209.138 71.5000706,209.688333 71.5000706,210.425 C71.5000706,211.170333 71.4134039,211.729333 71.2400706,212.102 C71.0667373,212.474667 70.7807373,212.661 70.3820706,212.661 Z M76.8450588,217.12 C77.9370588,217.12 78.7408922,216.829667 79.2565588,216.249 C79.7722255,215.668333 80.0300588,214.836333 80.0300588,213.753 L80.0300588,213.753 L80.0300588,206.889 L78.5220588,206.889 L78.3790588,207.799 L78.2880588,207.799 C78.0800588,207.426333 77.8438922,207.159833 77.5795588,206.9995 C77.3152255,206.839167 76.9967255,206.759 76.6240588,206.759 C75.9047255,206.759 75.3435588,207.084 74.9405588,207.734 C74.5375588,208.384 74.3360588,209.298333 74.3360588,210.477 C74.3360588,211.629667 74.5332255,212.526667 74.9275588,213.168 C75.3218922,213.809333 75.8700588,214.13 76.5720588,214.13 C76.9447255,214.13 77.2697255,214.0455 77.5470588,213.8765 C77.8243922,213.7075 78.0670588,213.436667 78.2750588,213.064 L78.2750588,213.064 L78.3270588,213.064 C78.3097255,213.211333 78.2967255,213.378167 78.2880588,213.5645 C78.2793922,213.750833 78.2750588,213.913333 78.2750588,214.052 L78.2750588,214.052 L78.2750588,214.182 C78.2750588,214.719333 78.1493922,215.102833 77.8980588,215.3325 C77.6467255,215.562167 77.2957255,215.677 76.8450588,215.677 C76.1257255,215.677 75.4063922,215.499333 74.6870588,215.144 L74.6870588,215.144 L74.6870588,216.652 C75.3110588,216.964 76.0303922,217.12 76.8450588,217.12 Z M77.1830588,212.648 C76.4810588,212.648 76.1300588,211.933 76.1300588,210.503 C76.1300588,209.012333 76.4723922,208.267 77.1570588,208.267 C77.5557255,208.267 77.8482255,208.433833 78.0345588,208.7675 C78.2208922,209.101167 78.3140588,209.645 78.3140588,210.399 L78.3140588,210.399 L78.3140588,210.724 C78.3140588,211.4 78.2208922,211.889667 78.0345588,212.193 C77.8482255,212.496333 77.5643922,212.648 77.1830588,212.648 Z M82.5800471,206.018 C82.8833804,206.018 83.1195471,205.94 83.2885471,205.784 C83.4575471,205.628 83.5420471,205.389667 83.5420471,205.069 C83.5420471,204.427667 83.2213804,204.107 82.5800471,204.107 C82.2767137,204.107 82.0405471,204.182833 81.8715471,204.3345 C81.7025471,204.486167 81.6180471,204.731 81.6180471,205.069 C81.6180471,205.389667 81.7047137,205.628 81.8780471,205.784 C82.0513804,205.94 82.2853804,206.018 82.5800471,206.018 Z M83.4640471,214 L83.4640471,206.889 L81.6960471,206.889 L81.6960471,214 L83.4640471,214 Z M90.5120353,217.12 L90.5120353,206.889 L89.0040353,206.889 L88.8610353,207.799 L88.7700353,207.799 C88.570702,207.443667 88.3410353,207.1815 88.0810353,207.0125 C87.8210353,206.8435 87.4960353,206.759 87.1060353,206.759 C86.3953686,206.759 85.8363686,207.081833 85.4290353,207.7275 C85.021702,208.373167 84.8180353,209.289667 84.8180353,210.477 C84.8180353,211.647 85.0195353,212.548333 85.4225353,213.181 C85.8255353,213.813667 86.3693686,214.13 87.0540353,214.13 C87.8080353,214.13 88.375702,213.774667 88.7570353,213.064 L88.7570353,213.064 L88.8220353,213.064 C88.804702,213.332667 88.7895353,213.568833 88.7765353,213.7725 C88.7635353,213.976167 88.7570353,214.151667 88.7570353,214.299 L88.7570353,214.299 L88.7570353,217.12 L90.5120353,217.12 Z M87.6650353,212.648 C86.9630353,212.648 86.6120353,211.933 86.6120353,210.503 C86.6120353,209.012333 86.9543686,208.267 87.6390353,208.267 C88.0550353,208.267 88.3518686,208.438167 88.5295353,208.7805 C88.707202,209.122833 88.7960353,209.662333 88.7960353,210.399 L88.7960353,210.399 L88.7960353,210.724 C88.7873686,211.374 88.694202,211.857167 88.5165353,212.1735 C88.3388686,212.489833 88.0550353,212.648 87.6650353,212.648 Z M94.2320235,214.13 C94.6133569,214.13 94.9556902,214.043333 95.2590235,213.87 C95.5623569,213.696667 95.8050235,213.436667 95.9870235,213.09 L95.9870235,213.09 L96.0780235,213.09 L96.2990235,214 L97.6640235,214 L97.6640235,206.889 L95.9090235,206.889 L95.9090235,210.425 C95.9090235,211.127 95.8310235,211.6665 95.6750235,212.0435 C95.5190235,212.4205 95.2070235,212.609 94.7390235,212.609 C94.4443569,212.609 94.2341902,212.476833 94.1085235,212.2125 C93.9828569,211.948167 93.9200235,211.556 93.9200235,211.036 L93.9200235,211.036 L93.9200235,206.889 L92.1520235,206.889 L92.1520235,211.53 C92.1520235,212.379333 92.3318569,213.025 92.6915235,213.467 C93.0511902,213.909 93.5646902,214.13 94.2320235,214.13 Z M102.047012,214.13 C102.480345,214.13 102.866012,214.091 103.204012,214.013 C103.542012,213.935 103.862678,213.809333 104.166012,213.636 L104.166012,213.636 L104.166012,212.206 C103.836678,212.396667 103.520345,212.531 103.217012,212.609 C102.913678,212.687 102.588678,212.726 102.242012,212.726 C101.280012,212.726 100.790345,212.128 100.773012,210.932 L100.773012,210.932 L104.517012,210.932 L104.517012,209.983 C104.517012,208.986333 104.280845,208.202 103.808512,207.63 C103.336178,207.058 102.675345,206.772 101.826012,206.772 C100.933345,206.772 100.242178,207.088333 99.7525118,207.721 C99.2628451,208.353667 99.0180118,209.276667 99.0180118,210.49 C99.0180118,211.651333 99.2715118,212.548333 99.7785118,213.181 C100.285512,213.813667 101.041678,214.13 102.047012,214.13 Z M102.866012,209.684 L100.786012,209.684 C100.803345,209.129333 100.909512,208.7285 101.104512,208.4815 C101.299512,208.2345 101.548678,208.111 101.852012,208.111 C102.181345,208.111 102.432678,208.254 102.606012,208.54 C102.779345,208.826 102.866012,209.207333 102.866012,209.684 L102.866012,209.684 Z" id="y-labels-1"></path>
			<path d="M56.8342353,103.99 C57.0335686,103.816667 57.2632353,103.6065 57.5232353,103.3595 C57.7832353,103.1125 58.0280686,102.869833 58.2577353,102.6315 C58.487402,102.393167 58.6672353,102.191667 58.7972353,102.027 L58.7972353,102.027 L58.7972353,101.91 L56.7952353,101.91 C56.6392353,102.204667 56.4572353,102.518833 56.2492353,102.8525 C56.0412353,103.186167 55.8245686,103.509 55.5992353,103.821 L55.5992353,103.821 L55.5992353,103.99 L56.8342353,103.99 Z M58.7842353,114 L58.7842353,112.427 L56.0932353,112.427 L56.0932353,109.957 L58.5892353,109.957 L58.5892353,108.41 L56.0932353,108.41 L56.0932353,106.265 L58.7842353,106.265 L58.7842353,104.718 L54.2602353,104.718 L54.2602353,114 L58.7842353,114 Z M63.4657647,114 L65.6237647,106.889 L63.7907647,106.889 L62.7767647,110.802 C62.7074314,111.079333 62.6532647,111.339333 62.6142647,111.582 C62.5752647,111.824667 62.5514314,112.045667 62.5427647,112.245 L62.5427647,112.245 L62.4907647,112.245 C62.4647647,111.993667 62.4322647,111.742333 62.3932647,111.491 C62.3542647,111.239667 62.300098,110.988333 62.2307647,110.737 L62.2307647,110.737 L61.2557647,106.889 L59.4227647,106.889 L61.5807647,114 L63.4657647,114 Z M69.0702941,114.13 C69.7462941,114.13 70.3009608,113.9675 70.7342941,113.6425 C71.1676275,113.3175 71.4904608,112.8755 71.7027941,112.3165 C71.9151275,111.7575 72.0212941,111.127 72.0212941,110.425 C72.0212941,109.246333 71.7547941,108.340667 71.2217941,107.708 C70.6887941,107.075333 69.9846275,106.759 69.1092941,106.759 C68.4419608,106.759 67.8916275,106.912833 67.4582941,107.2205 C67.0249608,107.528167 66.7021275,107.955 66.4897941,108.501 C66.2774608,109.047 66.1712941,109.688333 66.1712941,110.425 C66.1712941,111.127 66.2817941,111.7575 66.5027941,112.3165 C66.7237941,112.8755 67.0509608,113.3175 67.4842941,113.6425 C67.9176275,113.9675 68.4462941,114.13 69.0702941,114.13 Z M69.0962941,112.661 C68.6976275,112.661 68.4094608,112.474667 68.2317941,112.102 C68.0541275,111.729333 67.9652941,111.179 67.9652941,110.451 C67.9652941,109.705667 68.0541275,109.148833 68.2317941,108.7805 C68.4094608,108.412167 68.6976275,108.228 69.0962941,108.228 C69.4949608,108.228 69.7809608,108.41 69.9542941,108.774 C70.1276275,109.138 70.2142941,109.688333 70.2142941,110.425 C70.2142941,111.170333 70.1276275,111.729333 69.9542941,112.102 C69.7809608,112.474667 69.4949608,112.661 69.0962941,112.661 Z M75.0908235,114 L75.0908235,104.12 L73.3358235,104.12 L73.3358235,114 L75.0908235,114 Z M78.7843529,114.13 C79.1656863,114.13 79.5080196,114.043333 79.8113529,113.87 C80.1146863,113.696667 80.3573529,113.436667 80.5393529,113.09 L80.5393529,113.09 L80.6303529,113.09 L80.8513529,114 L82.2163529,114 L82.2163529,106.889 L80.4613529,106.889 L80.4613529,110.425 C80.4613529,111.127 80.3833529,111.6665 80.2273529,112.0435 C80.0713529,112.4205 79.7593529,112.609 79.2913529,112.609 C78.9966863,112.609 78.7865196,112.476833 78.6608529,112.2125 C78.5351863,111.948167 78.4723529,111.556 78.4723529,111.036 L78.4723529,111.036 L78.4723529,106.889 L76.7043529,106.889 L76.7043529,111.53 C76.7043529,112.379333 76.8841863,113.025 77.2438529,113.467 C77.6035196,113.909 78.1170196,114.13 78.7843529,114.13 Z M85.8708824,114.13 C86.1568824,114.13 86.4233824,114.099667 86.6703824,114.039 C86.9173824,113.978333 87.140549,113.900333 87.3398824,113.805 L87.3398824,113.805 L87.3398824,112.427 C87.0192157,112.557 86.711549,112.622 86.4168824,112.622 C85.9748824,112.622 85.7538824,112.349 85.7538824,111.803 L85.7538824,111.803 L85.7538824,108.306 L87.2488824,108.306 L87.2488824,106.889 L85.7538824,106.889 L85.7538824,105.394 L84.5838824,105.394 L84.1288824,106.928 L83.2318824,107.435 L83.2318824,108.306 L83.9988824,108.306 L83.9988824,111.855 C83.9988824,112.661 84.157049,113.241667 84.4733824,113.597 C84.7897157,113.952333 85.255549,114.13 85.8708824,114.13 Z M89.3174118,106.018 C89.6207451,106.018 89.8569118,105.94 90.0259118,105.784 C90.1949118,105.628 90.2794118,105.389667 90.2794118,105.069 C90.2794118,104.427667 89.9587451,104.107 89.3174118,104.107 C89.0140784,104.107 88.7779118,104.182833 88.6089118,104.3345 C88.4399118,104.486167 88.3554118,104.731 88.3554118,105.069 C88.3554118,105.389667 88.4420784,105.628 88.6154118,105.784 C88.7887451,105.94 89.0227451,106.018 89.3174118,106.018 Z M90.2014118,114 L90.2014118,106.889 L88.4334118,106.889 L88.4334118,114 L90.2014118,114 Z M94.4279412,114.13 C95.1039412,114.13 95.6586078,113.9675 96.0919412,113.6425 C96.5252745,113.3175 96.8481078,112.8755 97.0604412,112.3165 C97.2727745,111.7575 97.3789412,111.127 97.3789412,110.425 C97.3789412,109.246333 97.1124412,108.340667 96.5794412,107.708 C96.0464412,107.075333 95.3422745,106.759 94.4669412,106.759 C93.7996078,106.759 93.2492745,106.912833 92.8159412,107.2205 C92.3826078,107.528167 92.0597745,107.955 91.8474412,108.501 C91.6351078,109.047 91.5289412,109.688333 91.5289412,110.425 C91.5289412,111.127 91.6394412,111.7575 91.8604412,112.3165 C92.0814412,112.8755 92.4086078,113.3175 92.8419412,113.6425 C93.2752745,113.9675 93.8039412,114.13 94.4279412,114.13 Z M94.4539412,112.661 C94.0552745,112.661 93.7671078,112.474667 93.5894412,112.102 C93.4117745,111.729333 93.3229412,111.179 93.3229412,110.451 C93.3229412,109.705667 93.4117745,109.148833 93.5894412,108.7805 C93.7671078,108.412167 94.0552745,108.228 94.4539412,108.228 C94.8526078,108.228 95.1386078,108.41 95.3119412,108.774 C95.4852745,109.138 95.5719412,109.688333 95.5719412,110.425 C95.5719412,111.170333 95.4852745,111.729333 95.3119412,112.102 C95.1386078,112.474667 94.8526078,112.661 94.4539412,112.661 Z M100.448471,114 L100.448471,110.607 C100.448471,109.783667 100.530804,109.19 100.695471,108.826 C100.860137,108.462 101.159137,108.28 101.592471,108.28 C101.904471,108.28 102.123304,108.41 102.248971,108.67 C102.374637,108.93 102.437471,109.311333 102.437471,109.814 L102.437471,109.814 L102.437471,114 L104.205471,114 L104.205471,109.32 C104.205471,108.470667 104.021304,107.8315 103.652971,107.4025 C103.284637,106.9735 102.779804,106.759 102.138471,106.759 C101.757137,106.759 101.412637,106.845667 101.104971,107.019 C100.797304,107.192333 100.556804,107.452333 100.383471,107.799 L100.383471,107.799 L100.279471,107.799 L100.071471,106.889 L98.6934706,106.889 L98.6934706,114 L100.448471,114 Z" id="y-labels-2"></path>
			<path d="M6.48447059,12 L6.48447059,7.359 C6.48447059,7.03833333 6.47363725,6.66133333 6.45197059,6.228 C6.43030392,5.79466667 6.40647059,5.39166667 6.38047059,5.019 L6.38047059,5.019 L6.43247059,5.019 L8.39547059,12 L9.90347059,12 L11.9184706,5.032 L11.9704706,5.032 C11.9444706,5.396 11.9249706,5.786 11.9119706,6.202 C11.8989706,6.618 11.8924706,6.99066667 11.8924706,7.32 L11.8924706,7.32 L11.8924706,12 L13.6344706,12 L13.6344706,2.718 L11.1124706,2.718 L9.21447059,9.296 L9.17547059,9.296 L7.31647059,2.718 L4.79447059,2.718 L4.79447059,12 L6.48447059,12 Z M17.9679059,12.13 C18.6439059,12.13 19.1985725,11.9675 19.6319059,11.6425 C20.0652392,11.3175 20.3880725,10.8755 20.6004059,10.3165 C20.8127392,9.7575 20.9189059,9.127 20.9189059,8.425 C20.9189059,7.24633333 20.6524059,6.34066667 20.1194059,5.708 C19.5864059,5.07533333 18.8822392,4.759 18.0069059,4.759 C17.3395725,4.759 16.7892392,4.91283333 16.3559059,5.2205 C15.9225725,5.52816667 15.5997392,5.955 15.3874059,6.501 C15.1750725,7.047 15.0689059,7.68833333 15.0689059,8.425 C15.0689059,9.127 15.1794059,9.7575 15.4004059,10.3165 C15.6214059,10.8755 15.9485725,11.3175 16.3819059,11.6425 C16.8152392,11.9675 17.3439059,12.13 17.9679059,12.13 Z M17.9939059,10.661 C17.5952392,10.661 17.3070725,10.4746667 17.1294059,10.102 C16.9517392,9.72933333 16.8629059,9.179 16.8629059,8.451 C16.8629059,7.70566667 16.9517392,7.14883333 17.1294059,6.7805 C17.3070725,6.41216667 17.5952392,6.228 17.9939059,6.228 C18.3925725,6.228 18.6785725,6.41 18.8519059,6.774 C19.0252392,7.138 19.1119059,7.68833333 19.1119059,8.425 C19.1119059,9.17033333 19.0252392,9.72933333 18.8519059,10.102 C18.6785725,10.4746667 18.3925725,10.661 17.9939059,10.661 Z M23.9913412,12 L23.9913412,8.607 C23.9913412,7.78366667 24.0736745,7.19 24.2383412,6.826 C24.4030078,6.462 24.7020078,6.28 25.1353412,6.28 C25.4473412,6.28 25.6661745,6.41 25.7918412,6.67 C25.9175078,6.93 25.9803412,7.31133333 25.9803412,7.814 L25.9803412,7.814 L25.9803412,12 L27.7483412,12 L27.7483412,7.32 C27.7483412,6.47066667 27.5641745,5.8315 27.1958412,5.4025 C26.8275078,4.9735 26.3226745,4.759 25.6813412,4.759 C25.3000078,4.759 24.9555078,4.84566667 24.6478412,5.019 C24.3401745,5.19233333 24.0996745,5.45233333 23.9263412,5.799 L23.9263412,5.799 L23.8223412,5.799 L23.6143412,4.889 L22.2363412,4.889 L22.2363412,12 L23.9913412,12 Z M31.3277765,12.13 C31.7264431,12.13 32.0514431,12.0476667 32.3027765,11.883 C32.5541098,11.7183333 32.7837765,11.4843333 32.9917765,11.181 L32.9917765,11.181 L33.0827765,11.181 L33.3557765,12 L34.7467765,12 L34.7467765,2.12 L32.9917765,2.12 L32.9917765,4.538 C32.9917765,4.71133333 33.0004431,4.9085 33.0177765,5.1295 C33.0351098,5.3505 33.0524431,5.57366667 33.0697765,5.799 L33.0697765,5.799 L33.0047765,5.799 C32.8141098,5.46966667 32.5779431,5.214 32.2962765,5.032 C32.0146098,4.85 31.6831098,4.759 31.3017765,4.759 C30.6084431,4.759 30.0602765,5.07966667 29.6572765,5.721 C29.2542765,6.36233333 29.0527765,7.27233333 29.0527765,8.451 C29.0527765,9.621 29.2542765,10.5266667 29.6572765,11.168 C30.0602765,11.8093333 30.6171098,12.13 31.3277765,12.13 Z M31.8867765,10.674 C31.1847765,10.674 30.8337765,9.92866667 30.8337765,8.438 C30.8337765,7.72733333 30.9226098,7.18783333 31.1002765,6.8195 C31.2779431,6.45116667 31.5357765,6.267 31.8737765,6.267 C32.2897765,6.267 32.5866098,6.436 32.7642765,6.774 C32.9419431,7.112 33.0307765,7.62766667 33.0307765,8.321 L33.0307765,8.321 L33.0307765,8.672 C33.0221098,9.35666667 32.9289431,9.8615 32.7512765,10.1865 C32.5736098,10.5115 32.2854431,10.674 31.8867765,10.674 Z M39.1062118,12.13 C39.5395451,12.13 39.9252118,12.091 40.2632118,12.013 C40.6012118,11.935 40.9218784,11.8093333 41.2252118,11.636 L41.2252118,11.636 L41.2252118,10.206 C40.8958784,10.3966667 40.5795451,10.531 40.2762118,10.609 C39.9728784,10.687 39.6478784,10.726 39.3012118,10.726 C38.3392118,10.726 37.8495451,10.128 37.8322118,8.932 L37.8322118,8.932 L41.5762118,8.932 L41.5762118,7.983 C41.5762118,6.98633333 41.3400451,6.202 40.8677118,5.63 C40.3953784,5.058 39.7345451,4.772 38.8852118,4.772 C37.9925451,4.772 37.3013784,5.08833333 36.8117118,5.721 C36.3220451,6.35366667 36.0772118,7.27666667 36.0772118,8.49 C36.0772118,9.65133333 36.3307118,10.5483333 36.8377118,11.181 C37.3447118,11.8136667 38.1008784,12.13 39.1062118,12.13 Z M39.9252118,7.684 L37.8452118,7.684 C37.8625451,7.12933333 37.9687118,6.7285 38.1637118,6.4815 C38.3587118,6.2345 38.6078784,6.111 38.9112118,6.111 C39.2405451,6.111 39.4918784,6.254 39.6652118,6.54 C39.8385451,6.826 39.9252118,7.20733333 39.9252118,7.684 L39.9252118,7.684 Z M47.2530824,12 L47.2530824,8.607 C47.2530824,7.78366667 47.3354157,7.19 47.5000824,6.826 C47.664749,6.462 47.963749,6.28 48.3970824,6.28 C48.7090824,6.28 48.9279157,6.41 49.0535824,6.67 C49.179249,6.93 49.2420824,7.31133333 49.2420824,7.814 L49.2420824,7.814 L49.2420824,12 L51.0100824,12 L51.0100824,7.32 C51.0100824,6.47066667 50.8259157,5.8315 50.4575824,5.4025 C50.089249,4.9735 49.5844157,4.759 48.9430824,4.759 C48.561749,4.759 48.217249,4.84566667 47.9095824,5.019 C47.6019157,5.19233333 47.3614157,5.45233333 47.1880824,5.799 L47.1880824,5.799 L47.0840824,5.799 L46.8760824,4.889 L45.4980824,4.889 L45.4980824,12 L47.2530824,12 Z M54.6805176,12.13 C55.061851,12.13 55.4041843,12.0433333 55.7075176,11.87 C56.010851,11.6966667 56.2535176,11.4366667 56.4355176,11.09 L56.4355176,11.09 L56.5265176,11.09 L56.7475176,12 L58.1125176,12 L58.1125176,4.889 L56.3575176,4.889 L56.3575176,8.425 C56.3575176,9.127 56.2795176,9.6665 56.1235176,10.0435 C55.9675176,10.4205 55.6555176,10.609 55.1875176,10.609 C54.892851,10.609 54.6826843,10.4768333 54.5570176,10.2125 C54.431351,9.94816667 54.3685176,9.556 54.3685176,9.036 L54.3685176,9.036 L54.3685176,4.889 L52.6005176,4.889 L52.6005176,9.53 C52.6005176,10.3793333 52.780351,11.025 53.1400176,11.467 C53.4996843,11.909 54.0131843,12.13 54.6805176,12.13 Z M61.5099529,12 L61.5099529,8.62 C61.5099529,7.85733333 61.5857863,7.27666667 61.7374529,6.878 C61.8891196,6.47933333 62.1729529,6.28 62.5889529,6.28 C63.1176196,6.28 63.3819529,6.79133333 63.3819529,7.814 L63.3819529,7.814 L63.3819529,12 L65.1499529,12 L65.1499529,8.412 C65.1499529,7.70133333 65.2279529,7.16833333 65.3839529,6.813 C65.5399529,6.45766667 65.8129529,6.28 66.2029529,6.28 C66.7489529,6.28 67.0219529,6.79566667 67.0219529,7.827 L67.0219529,7.827 L67.0219529,12 L68.7769529,12 L68.7769529,7.333 C68.7769529,6.45766667 68.6101196,5.80983333 68.2764529,5.3895 C67.9427863,4.96916667 67.4466196,4.759 66.7879529,4.759 C65.9732863,4.759 65.3926196,5.10133333 65.0459529,5.786 L65.0459529,5.786 L64.9159529,5.786 C64.7772863,5.474 64.5692863,5.22483333 64.2919529,5.0385 C64.0146196,4.85216667 63.6549529,4.759 63.2129529,4.759 C62.8142863,4.759 62.4589529,4.84566667 62.1469529,5.019 C61.8349529,5.19233333 61.6009529,5.45233333 61.4449529,5.799 L61.4449529,5.799 L61.3409529,5.799 L61.1329529,4.889 L59.7549529,4.889 L59.7549529,12 L61.5099529,12 Z M73.0973882,4.122 C73.2967216,3.94866667 73.5263882,3.7385 73.7863882,3.4915 C74.0463882,3.2445 74.2912216,3.00183333 74.5208882,2.7635 C74.7505549,2.52516667 74.9303882,2.32366667 75.0603882,2.159 L75.0603882,2.159 L75.0603882,2.042 L73.0583882,2.042 C72.9023882,2.33666667 72.7203882,2.65083333 72.5123882,2.9845 C72.3043882,3.31816667 72.0877216,3.641 71.8623882,3.953 L71.8623882,3.953 L71.8623882,4.122 L73.0973882,4.122 Z M73.1103882,12.13 C73.5437216,12.13 73.9293882,12.091 74.2673882,12.013 C74.6053882,11.935 74.9260549,11.8093333 75.2293882,11.636 L75.2293882,11.636 L75.2293882,10.206 C74.9000549,10.3966667 74.5837216,10.531 74.2803882,10.609 C73.9770549,10.687 73.6520549,10.726 73.3053882,10.726 C72.3433882,10.726 71.8537216,10.128 71.8363882,8.932 L71.8363882,8.932 L75.5803882,8.932 L75.5803882,7.983 C75.5803882,6.98633333 75.3442216,6.202 74.8718882,5.63 C74.3995549,5.058 73.7387216,4.772 72.8893882,4.772 C71.9967216,4.772 71.3055549,5.08833333 70.8158882,5.721 C70.3262216,6.35366667 70.0813882,7.27666667 70.0813882,8.49 C70.0813882,9.65133333 70.3348882,10.5483333 70.8418882,11.181 C71.3488882,11.8136667 72.1050549,12.13 73.1103882,12.13 Z M73.9293882,7.684 L71.8493882,7.684 C71.8667216,7.12933333 71.9728882,6.7285 72.1678882,6.4815 C72.3628882,6.2345 72.6120549,6.111 72.9153882,6.111 C73.2447216,6.111 73.4960549,6.254 73.6693882,6.54 C73.8427216,6.826 73.9293882,7.20733333 73.9293882,7.684 L73.9293882,7.684 Z M78.6268235,12 L78.6268235,8.373 C78.6268235,7.79233333 78.7589902,7.346 79.0233235,7.034 C79.2876569,6.722 79.6364902,6.566 80.0698235,6.566 C80.3124902,6.566 80.5118235,6.59633333 80.6678235,6.657 L80.6678235,6.657 L80.8108235,4.837 C80.6028235,4.785 80.4034902,4.759 80.2128235,4.759 C79.8314902,4.759 79.4999902,4.89116667 79.2183235,5.1555 C78.9366569,5.41983333 78.7134902,5.72533333 78.5488235,6.072 L78.5488235,6.072 L78.4708235,6.072 L78.2108235,4.889 L76.8588235,4.889 L76.8588235,12 L78.6268235,12 Z M82.6742588,4.018 C82.9775922,4.018 83.2137588,3.94 83.3827588,3.784 C83.5517588,3.628 83.6362588,3.38966667 83.6362588,3.069 C83.6362588,2.42766667 83.3155922,2.107 82.6742588,2.107 C82.3709255,2.107 82.1347588,2.18283333 81.9657588,2.3345 C81.7967588,2.48616667 81.7122588,2.731 81.7122588,3.069 C81.7122588,3.38966667 81.7989255,3.628 81.9722588,3.784 C82.1455922,3.94 82.3795922,4.018 82.6742588,4.018 Z M83.5582588,12 L83.5582588,4.889 L81.7902588,4.889 L81.7902588,12 L83.5582588,12 Z M90.5826941,15.12 L90.5826941,4.889 L89.0746941,4.889 L88.9316941,5.799 L88.8406941,5.799 C88.6413608,5.44366667 88.4116941,5.1815 88.1516941,5.0125 C87.8916941,4.8435 87.5666941,4.759 87.1766941,4.759 C86.4660275,4.759 85.9070275,5.08183333 85.4996941,5.7275 C85.0923608,6.37316667 84.8886941,7.28966667 84.8886941,8.477 C84.8886941,9.647 85.0901941,10.5483333 85.4931941,11.181 C85.8961941,11.8136667 86.4400275,12.13 87.1246941,12.13 C87.8786941,12.13 88.4463608,11.7746667 88.8276941,11.064 L88.8276941,11.064 L88.8926941,11.064 C88.8753608,11.3326667 88.8601941,11.5688333 88.8471941,11.7725 C88.8341941,11.9761667 88.8276941,12.1516667 88.8276941,12.299 L88.8276941,12.299 L88.8276941,15.12 L90.5826941,15.12 Z M87.7356941,10.648 C87.0336941,10.648 86.6826941,9.933 86.6826941,8.503 C86.6826941,7.01233333 87.0250275,6.267 87.7096941,6.267 C88.1256941,6.267 88.4225275,6.43816667 88.6001941,6.7805 C88.7778608,7.12283333 88.8666941,7.66233333 88.8666941,8.399 L88.8666941,8.399 L88.8666941,8.724 C88.8580275,9.374 88.7648608,9.85716667 88.5871941,10.1735 C88.4095275,10.4898333 88.1256941,10.648 87.7356941,10.648 Z M94.2791294,12.13 C94.6604627,12.13 95.0027961,12.0433333 95.3061294,11.87 C95.6094627,11.6966667 95.8521294,11.4366667 96.0341294,11.09 L96.0341294,11.09 L96.1251294,11.09 L96.3461294,12 L97.7111294,12 L97.7111294,4.889 L95.9561294,4.889 L95.9561294,8.425 C95.9561294,9.127 95.8781294,9.6665 95.7221294,10.0435 C95.5661294,10.4205 95.2541294,10.609 94.7861294,10.609 C94.4914627,10.609 94.2812961,10.4768333 94.1556294,10.2125 C94.0299627,9.94816667 93.9671294,9.556 93.9671294,9.036 L93.9671294,9.036 L93.9671294,4.889 L92.1991294,4.889 L92.1991294,9.53 C92.1991294,10.3793333 92.3789627,11.025 92.7386294,11.467 C93.0982961,11.909 93.6117961,12.13 94.2791294,12.13 Z M102.070565,12.13 C102.503898,12.13 102.889565,12.091 103.227565,12.013 C103.565565,11.935 103.886231,11.8093333 104.189565,11.636 L104.189565,11.636 L104.189565,10.206 C103.860231,10.3966667 103.543898,10.531 103.240565,10.609 C102.937231,10.687 102.612231,10.726 102.265565,10.726 C101.303565,10.726 100.813898,10.128 100.796565,8.932 L100.796565,8.932 L104.540565,8.932 L104.540565,7.983 C104.540565,6.98633333 104.304398,6.202 103.832065,5.63 C103.359731,5.058 102.698898,4.772 101.849565,4.772 C100.956898,4.772 100.265731,5.08833333 99.7760647,5.721 C99.286398,6.35366667 99.0415647,7.27666667 99.0415647,8.49 C99.0415647,9.65133333 99.2950647,10.5483333 99.8020647,11.181 C100.309065,11.8136667 101.065231,12.13 102.070565,12.13 Z M102.889565,7.684 L100.809565,7.684 C100.826898,7.12933333 100.933065,6.7285 101.128065,6.4815 C101.323065,6.2345 101.572231,6.111 101.875565,6.111 C102.204898,6.111 102.456231,6.254 102.629565,6.54 C102.802898,6.826 102.889565,7.20733333 102.889565,7.684 L102.889565,7.684 Z" id="y-labels-3"></path>
		</g>
		<path id="pfeil-1" d="M362.5,203.5 L353.982062,216.631821 L350.94,211.46 L311.145086,234.868954 L310.131046,233.145086 L349.926,209.736 L346.88378,204.564742 L362.5,203.5 Z" fill="#5C5C5B" fill-rule="nonzero"></path>
		<path id="pfeil-2" d="M523.5,109.5 L514.982062,122.631821 L511.94,117.46 L472.145086,140.868954 L471.131046,139.145086 L510.926,115.736 L507.88378,110.564742 L523.5,109.5 Z" fill="#5C5C5B" fill-rule="nonzero"></path>
		<g id="Group" transform="translate(210.621401, -14.772637)">
			<path d="M1,146.105542 C42.3831806,93.5736838 88.5003889,67.3320617 139.351625,67.3806753 C190.202861,67.4300141 240.633432,90.6932115 290.643339,137.170268" id="pfeil-3" stroke="#5C5C5B" stroke-width="2" stroke-linecap="square" transform="translate(145.821669, 106.743109) rotate(-30.000000) translate(-145.821669, -106.743109) "></path>
			<polygon id="pfeil-3-1" fill="#5C5C5B" transform="translate(293.197796, 61.999020) rotate(102.000000) translate(-293.197796, -61.999020) " points="293.237582 55 300.157366 68.9980403 286.238226 68.9685343"></polygon>
		</g>
		<g id="einzahlungsschein" transform="translate(201.000000, 220.000000)">
			<circle id="Oval" fill="#ADA398" cx="50" cy="50" r="50"></circle>
			<path d="M20.9425,46 C22.0025,46 22.8325,45.7225 23.4325,45.1675 C24.0325,44.6125 24.3325,43.855 24.3325,42.895 C24.3325,42.165 24.185,41.6 23.89,41.2 C23.595,40.8 23.1675,40.53 22.6075,40.39 L22.6075,40.39 L22.6075,40.315 C23.0875,40.205 23.46,39.94 23.725,39.52 C23.99,39.1 24.1225,38.58 24.1225,37.96 C24.1225,37.03 23.82,36.3525 23.215,35.9275 C22.61,35.5025 21.7075,35.29 20.5075,35.29 L20.5075,35.29 L17.5375,35.29 L17.5375,46 L20.9425,46 Z M20.5825,39.595 L19.6525,39.595 L19.6525,37.03 L20.5225,37.03 C21.4925,37.03 21.9775,37.435 21.9775,38.245 C21.9775,38.685 21.8675,39.02 21.6475,39.25 C21.4275,39.48 21.0725,39.595 20.5825,39.595 L20.5825,39.595 Z M20.7475,44.23 L19.6525,44.23 L19.6525,41.29 L20.6725,41.29 C21.1825,41.29 21.5575,41.415 21.7975,41.665 C22.0375,41.915 22.1575,42.265 22.1575,42.715 C22.1575,43.205 22.0475,43.58 21.8275,43.84 C21.6075,44.1 21.2475,44.23 20.7475,44.23 L20.7475,44.23 Z M28.3225,46.15 C28.7625,46.15 29.1575,46.05 29.5075,45.85 C29.8575,45.65 30.1375,45.35 30.3475,44.95 L30.3475,44.95 L30.4525,44.95 L30.7075,46 L32.2825,46 L32.2825,37.795 L30.2575,37.795 L30.2575,41.875 C30.2575,42.685 30.1675,43.3075 29.9875,43.7425 C29.8075,44.1775 29.4475,44.395 28.9075,44.395 C28.5675,44.395 28.325,44.2425 28.18,43.9375 C28.035,43.6325 27.9625,43.18 27.9625,42.58 L27.9625,42.58 L27.9625,37.795 L25.9225,37.795 L25.9225,43.15 C25.9225,44.13 26.13,44.875 26.545,45.385 C26.96,45.895 27.5525,46.15 28.3225,46.15 Z M36.1975,46 L36.1975,34.6 L34.1725,34.6 L34.1725,46 L36.1975,46 Z M40.1125,46 L40.1125,34.6 L38.0875,34.6 L38.0875,46 L40.1125,46 Z M45.1375,46.15 C45.6375,46.15 46.0825,46.105 46.4725,46.015 C46.8625,45.925 47.2325,45.78 47.5825,45.58 L47.5825,45.58 L47.5825,43.93 C47.2025,44.15 46.8375,44.305 46.4875,44.395 C46.1375,44.485 45.7625,44.53 45.3625,44.53 C44.2525,44.53 43.6875,43.84 43.6675,42.46 L43.6675,42.46 L47.9875,42.46 L47.9875,41.365 C47.9875,40.215 47.715,39.31 47.17,38.65 C46.625,37.99 45.8625,37.66 44.8825,37.66 C43.8525,37.66 43.055,38.025 42.49,38.755 C41.925,39.485 41.6425,40.55 41.6425,41.95 C41.6425,43.29 41.935,44.325 42.52,45.055 C43.105,45.785 43.9775,46.15 45.1375,46.15 Z M46.0825,41.02 L43.6825,41.02 C43.7025,40.38 43.825,39.9175 44.05,39.6325 C44.275,39.3475 44.5625,39.205 44.9125,39.205 C45.2925,39.205 45.5825,39.37 45.7825,39.7 C45.9825,40.03 46.0825,40.47 46.0825,41.02 L46.0825,41.02 Z M51.7825,46.15 C52.1125,46.15 52.42,46.115 52.705,46.045 C52.99,45.975 53.2475,45.885 53.4775,45.775 L53.4775,45.775 L53.4775,44.185 C53.1075,44.335 52.7525,44.41 52.4125,44.41 C51.9025,44.41 51.6475,44.095 51.6475,43.465 L51.6475,43.465 L51.6475,39.43 L53.3725,39.43 L53.3725,37.795 L51.6475,37.795 L51.6475,36.07 L50.2975,36.07 L49.7725,37.84 L48.7375,38.425 L48.7375,39.43 L49.6225,39.43 L49.6225,43.525 C49.6225,44.455 49.805,45.125 50.17,45.535 C50.535,45.945 51.0725,46.15 51.7825,46.15 Z M55.7575,36.79 C56.1075,36.79 56.38,36.7 56.575,36.52 C56.77,36.34 56.8675,36.065 56.8675,35.695 C56.8675,34.955 56.4975,34.585 55.7575,34.585 C55.4075,34.585 55.135,34.6725 54.94,34.8475 C54.745,35.0225 54.6475,35.305 54.6475,35.695 C54.6475,36.065 54.7475,36.34 54.9475,36.52 C55.1475,36.7 55.4175,36.79 55.7575,36.79 Z M56.7775,46 L56.7775,37.795 L54.7375,37.795 L54.7375,46 L56.7775,46 Z M60.6925,46 L60.6925,42.085 C60.6925,41.135 60.7875,40.45 60.9775,40.03 C61.1675,39.61 61.5125,39.4 62.0125,39.4 C62.3725,39.4 62.625,39.55 62.77,39.85 C62.915,40.15 62.9875,40.59 62.9875,41.17 L62.9875,41.17 L62.9875,46 L65.0275,46 L65.0275,40.6 C65.0275,39.62 64.815,38.8825 64.39,38.3875 C63.965,37.8925 63.3825,37.645 62.6425,37.645 C62.2025,37.645 61.805,37.745 61.45,37.945 C61.095,38.145 60.8175,38.445 60.6175,38.845 L60.6175,38.845 L60.4975,38.845 L60.2575,37.795 L58.6675,37.795 L58.6675,46 L60.6925,46 Z M72.1975,46.15 C72.6575,46.15 73.0325,46.055 73.3225,45.865 C73.6125,45.675 73.8775,45.405 74.1175,45.055 L74.1175,45.055 L74.2225,45.055 L74.5375,46 L76.1425,46 L76.1425,34.6 L74.1175,34.6 L74.1175,37.39 C74.1175,37.59 74.1275,37.8175 74.1475,38.0725 C74.1675,38.3275 74.1875,38.585 74.2075,38.845 L74.2075,38.845 L74.1325,38.845 C73.9125,38.465 73.64,38.17 73.315,37.96 C72.99,37.75 72.6075,37.645 72.1675,37.645 C71.3675,37.645 70.735,38.015 70.27,38.755 C69.805,39.495 69.5725,40.545 69.5725,41.905 C69.5725,43.255 69.805,44.3 70.27,45.04 C70.735,45.78 71.3775,46.15 72.1975,46.15 Z M72.8425,44.47 C72.0325,44.47 71.6275,43.61 71.6275,41.89 C71.6275,41.07 71.73,40.4475 71.935,40.0225 C72.14,39.5975 72.4375,39.385 72.8275,39.385 C73.3075,39.385 73.65,39.58 73.855,39.97 C74.06,40.36 74.1625,40.955 74.1625,41.755 L74.1625,41.755 L74.1625,42.16 C74.1525,42.95 74.045,43.5325 73.84,43.9075 C73.635,44.2825 73.3025,44.47 72.8425,44.47 Z M81.1675,46.15 C81.6675,46.15 82.1125,46.105 82.5025,46.015 C82.8925,45.925 83.2625,45.78 83.6125,45.58 L83.6125,45.58 L83.6125,43.93 C83.2325,44.15 82.8675,44.305 82.5175,44.395 C82.1675,44.485 81.7925,44.53 81.3925,44.53 C80.2825,44.53 79.7175,43.84 79.6975,42.46 L79.6975,42.46 L84.0175,42.46 L84.0175,41.365 C84.0175,40.215 83.745,39.31 83.2,38.65 C82.655,37.99 81.8925,37.66 80.9125,37.66 C79.8825,37.66 79.085,38.025 78.52,38.755 C77.955,39.485 77.6725,40.55 77.6725,41.95 C77.6725,43.29 77.965,44.325 78.55,45.055 C79.135,45.785 80.0075,46.15 81.1675,46.15 Z M82.1125,41.02 L79.7125,41.02 C79.7325,40.38 79.855,39.9175 80.08,39.6325 C80.305,39.3475 80.5925,39.205 80.9425,39.205 C81.3225,39.205 81.6125,39.37 81.8125,39.7 C82.0125,40.03 82.1125,40.47 82.1125,41.02 L82.1125,41.02 Z M21.5875,66 L24.0775,57.795 L21.9625,57.795 L20.7925,62.31 C20.7125,62.63 20.65,62.93 20.605,63.21 C20.56,63.49 20.5325,63.745 20.5225,63.975 L20.5225,63.975 L20.4625,63.975 C20.4325,63.685 20.395,63.395 20.35,63.105 C20.305,62.815 20.2425,62.525 20.1625,62.235 L20.1625,62.235 L19.0375,57.795 L16.9225,57.795 L19.4125,66 L21.5875,66 Z M28.2025,66.15 C28.7025,66.15 29.1475,66.105 29.5375,66.015 C29.9275,65.925 30.2975,65.78 30.6475,65.58 L30.6475,65.58 L30.6475,63.93 C30.2675,64.15 29.9025,64.305 29.5525,64.395 C29.2025,64.485 28.8275,64.53 28.4275,64.53 C27.3175,64.53 26.7525,63.84 26.7325,62.46 L26.7325,62.46 L31.0525,62.46 L31.0525,61.365 C31.0525,60.215 30.78,59.31 30.235,58.65 C29.69,57.99 28.9275,57.66 27.9475,57.66 C26.9175,57.66 26.12,58.025 25.555,58.755 C24.99,59.485 24.7075,60.55 24.7075,61.95 C24.7075,63.29 25,64.325 25.585,65.055 C26.17,65.785 27.0425,66.15 28.2025,66.15 Z M29.1475,61.02 L26.7475,61.02 C26.7675,60.38 26.89,59.9175 27.115,59.6325 C27.34,59.3475 27.6275,59.205 27.9775,59.205 C28.3575,59.205 28.6475,59.37 28.8475,59.7 C29.0475,60.03 29.1475,60.47 29.1475,61.02 L29.1475,61.02 Z M34.5625,66 L34.5625,61.815 C34.5625,61.145 34.715,60.63 35.02,60.27 C35.325,59.91 35.7275,59.73 36.2275,59.73 C36.5075,59.73 36.7375,59.765 36.9175,59.835 L36.9175,59.835 L37.0825,57.735 C36.8425,57.675 36.6125,57.645 36.3925,57.645 C35.9525,57.645 35.57,57.7975 35.245,58.1025 C34.92,58.4075 34.6625,58.76 34.4725,59.16 L34.4725,59.16 L34.3825,59.16 L34.0825,57.795 L32.5225,57.795 L32.5225,66 L34.5625,66 Z M40.0825,66.15 C41.0025,66.15 41.715,65.93 42.22,65.49 C42.725,65.05 42.9775,64.415 42.9775,63.585 C42.9775,62.935 42.805,62.425 42.46,62.055 C42.115,61.685 41.6625,61.355 41.1025,61.065 C40.7225,60.855 40.435,60.69 40.24,60.57 C40.045,60.45 39.915,60.3375 39.85,60.2325 C39.785,60.1275 39.7525,60.005 39.7525,59.865 C39.7525,59.455 40.0225,59.25 40.5625,59.25 C40.8625,59.25 41.1575,59.305 41.4475,59.415 C41.7375,59.525 42.0225,59.66 42.3025,59.82 L42.3025,59.82 L42.8875,58.29 C42.4975,58.08 42.11,57.92 41.725,57.81 C41.34,57.7 40.9325,57.645 40.5025,57.645 C39.6525,57.645 38.9825,57.8475 38.4925,58.2525 C38.0025,58.6575 37.7575,59.225 37.7575,59.955 C37.7575,60.585 37.91,61.0925 38.215,61.4775 C38.52,61.8625 38.9675,62.2 39.5575,62.49 C39.9675,62.69 40.27,62.855 40.465,62.985 C40.66,63.115 40.79,63.24 40.855,63.36 C40.92,63.48 40.9525,63.605 40.9525,63.735 C40.9525,64.225 40.6275,64.47 39.9775,64.47 C39.6175,64.47 39.24,64.405 38.845,64.275 C38.45,64.145 38.0925,63.99 37.7725,63.81 L37.7725,63.81 L37.7725,65.685 C38.1125,65.845 38.47,65.9625 38.845,66.0375 C39.22,66.1125 39.6325,66.15 40.0825,66.15 Z M47.5075,66.15 C48.0075,66.15 48.4525,66.105 48.8425,66.015 C49.2325,65.925 49.6025,65.78 49.9525,65.58 L49.9525,65.58 L49.9525,63.93 C49.5725,64.15 49.2075,64.305 48.8575,64.395 C48.5075,64.485 48.1325,64.53 47.7325,64.53 C46.6225,64.53 46.0575,63.84 46.0375,62.46 L46.0375,62.46 L50.3575,62.46 L50.3575,61.365 C50.3575,60.215 50.085,59.31 49.54,58.65 C48.995,57.99 48.2325,57.66 47.2525,57.66 C46.2225,57.66 45.425,58.025 44.86,58.755 C44.295,59.485 44.0125,60.55 44.0125,61.95 C44.0125,63.29 44.305,64.325 44.89,65.055 C45.475,65.785 46.3475,66.15 47.5075,66.15 Z M48.4525,61.02 L46.0525,61.02 C46.0725,60.38 46.195,59.9175 46.42,59.6325 C46.645,59.3475 46.9325,59.205 47.2825,59.205 C47.6625,59.205 47.9525,59.37 48.1525,59.7 C48.3525,60.03 48.4525,60.47 48.4525,61.02 L48.4525,61.02 Z M53.8525,66 L53.8525,62.1 C53.8525,61.22 53.94,60.55 54.115,60.09 C54.29,59.63 54.6175,59.4 55.0975,59.4 C55.7075,59.4 56.0125,59.99 56.0125,61.17 L56.0125,61.17 L56.0125,66 L58.0525,66 L58.0525,61.86 C58.0525,61.04 58.1425,60.425 58.3225,60.015 C58.5025,59.605 58.8175,59.4 59.2675,59.4 C59.8975,59.4 60.2125,59.995 60.2125,61.185 L60.2125,61.185 L60.2125,66 L62.2375,66 L62.2375,60.615 C62.2375,59.605 62.045,58.8575 61.66,58.3725 C61.275,57.8875 60.7025,57.645 59.9425,57.645 C59.0025,57.645 58.3325,58.04 57.9325,58.83 L57.9325,58.83 L57.7825,58.83 C57.6225,58.47 57.3825,58.1825 57.0625,57.9675 C56.7425,57.7525 56.3275,57.645 55.8175,57.645 C55.3575,57.645 54.9475,57.745 54.5875,57.945 C54.2275,58.145 53.9575,58.445 53.7775,58.845 L53.7775,58.845 L53.6575,58.845 L53.4175,57.795 L51.8275,57.795 L51.8275,66 L53.8525,66 Z M67.2325,66.15 C67.7325,66.15 68.1775,66.105 68.5675,66.015 C68.9575,65.925 69.3275,65.78 69.6775,65.58 L69.6775,65.58 L69.6775,63.93 C69.2975,64.15 68.9325,64.305 68.5825,64.395 C68.2325,64.485 67.8575,64.53 67.4575,64.53 C66.3475,64.53 65.7825,63.84 65.7625,62.46 L65.7625,62.46 L70.0825,62.46 L70.0825,61.365 C70.0825,60.215 69.81,59.31 69.265,58.65 C68.72,57.99 67.9575,57.66 66.9775,57.66 C65.9475,57.66 65.15,58.025 64.585,58.755 C64.02,59.485 63.7375,60.55 63.7375,61.95 C63.7375,63.29 64.03,64.325 64.615,65.055 C65.2,65.785 66.0725,66.15 67.2325,66.15 Z M68.1775,61.02 L65.7775,61.02 C65.7975,60.38 65.92,59.9175 66.145,59.6325 C66.37,59.3475 66.6575,59.205 67.0075,59.205 C67.3875,59.205 67.6775,59.37 67.8775,59.7 C68.0775,60.03 68.1775,60.47 68.1775,61.02 L68.1775,61.02 Z M73.5775,66 L73.5775,62.085 C73.5775,61.135 73.6725,60.45 73.8625,60.03 C74.0525,59.61 74.3975,59.4 74.8975,59.4 C75.2575,59.4 75.51,59.55 75.655,59.85 C75.8,60.15 75.8725,60.59 75.8725,61.17 L75.8725,61.17 L75.8725,66 L77.9125,66 L77.9125,60.6 C77.9125,59.62 77.7,58.8825 77.275,58.3875 C76.85,57.8925 76.2675,57.645 75.5275,57.645 C75.0875,57.645 74.69,57.745 74.335,57.945 C73.98,58.145 73.7025,58.445 73.5025,58.845 L73.5025,58.845 L73.3825,58.845 L73.1425,57.795 L71.5525,57.795 L71.5525,66 L73.5775,66 Z M82.0975,66.15 C82.4275,66.15 82.735,66.115 83.02,66.045 C83.305,65.975 83.5625,65.885 83.7925,65.775 L83.7925,65.775 L83.7925,64.185 C83.4225,64.335 83.0675,64.41 82.7275,64.41 C82.2175,64.41 81.9625,64.095 81.9625,63.465 L81.9625,63.465 L81.9625,59.43 L83.6875,59.43 L83.6875,57.795 L81.9625,57.795 L81.9625,56.07 L80.6125,56.07 L80.0875,57.84 L79.0525,58.425 L79.0525,59.43 L79.9375,59.43 L79.9375,63.525 C79.9375,64.455 80.12,65.125 80.485,65.535 C80.85,65.945 81.3875,66.15 82.0975,66.15 Z" id="einzahlungsschein-text" fill="#FFFFFF" fill-rule="nonzero"></path>
		</g>
		<g id="qr-rechnung" transform="translate(365.000000, 120.000000)">
			<circle id="Oval" fill="#002C5F" cx="50" cy="50" r="50"></circle>
			<path d="M48.2125,39.505 C48.2125,40.7550063 48.0375017,41.8074957 47.6875,42.6625 C47.3374982,43.5175043 46.8075035,44.1399981 46.0975,44.53 L48.0925,47.425 L45.5875,47.425 L44.0875,45.01 L43.9075,45.01 C42.9774953,45.01 42.212503,44.7750024 41.6125,44.305 C41.012497,43.8349977 40.5675014,43.1850041 40.2775,42.355 C39.9874985,41.5249958 39.8425,40.5700054 39.8425,39.49 C39.8425,37.7399913 40.1924965,36.3875048 40.8925,35.4325 C41.5925035,34.4774952 42.642493,34 44.0425,34 C45.432507,34 46.4749965,34.4774952 47.17,35.4325 C47.8650035,36.3875048 48.2125,37.7449912 48.2125,39.505 Z M42.0475,39.505 C42.0475,40.705006 42.2099984,41.6174969 42.535,42.2425 C42.8600016,42.8675031 43.3574966,43.18 44.0275,43.18 C44.7075034,43.18 45.2074984,42.8725031 45.5275,42.2575 C45.8475016,41.6424969 46.0075,40.7250061 46.0075,39.505 C46.0075,38.2849939 45.8500016,37.3650031 45.535,36.745 C45.2199984,36.1249969 44.7225034,35.815 44.0425,35.815 C43.3624966,35.815 42.8600016,36.1299968 42.535,36.76 C42.2099984,37.3900031 42.0475,38.304994 42.0475,39.505 Z M52.6825,34.165 C53.9525064,34.165 54.8949969,34.4249974 55.51,34.945 C56.1250031,35.4650026 56.4325,36.2499947 56.4325,37.3 C56.4325,37.9800034 56.2875015,38.5574976 55.9975,39.0325 C55.7074985,39.5075024 55.2975026,39.8899986 54.7675,40.18 L57.2575,44.875 L54.9175,44.875 L52.9225,40.705 L52.1275,40.705 L52.1275,44.875 L50.0125,44.875 L50.0125,34.165 L52.6825,34.165 Z M52.6225,35.935 L52.1275,35.935 L52.1275,39.01 L52.6675,39.01 C53.7375053,39.01 54.2725,38.4700054 54.2725,37.39 C54.2725,36.8899975 54.1375013,36.5225012 53.8675,36.2875 C53.5974987,36.0524988 53.1825028,35.935 52.6225,35.935 Z M57.7075,41.785 L57.7075,39.925 L61.5025,39.925 L61.5025,41.785 L57.7075,41.785 Z M32.56,58.305 L31.06,58.305 L31.06,64.875 L29.02,64.875 L29.02,58.305 L28,58.305 L28,57.255 L29.02,56.67 L29.02,56.31 C29.02,55.2799949 29.2149981,54.5375023 29.605,54.0825 C29.9950019,53.6274977 30.589996,53.4 31.39,53.4 C31.7200017,53.4 32.0174987,53.4274997 32.2825,53.4825 C32.5475013,53.5375003 32.8249986,53.6199995 33.115,53.73 L32.65,55.26 C32.5,55.2099998 32.3525007,55.1675002 32.2075,55.1325 C32.0624993,55.0974998 31.9050009,55.08 31.735,55.08 C31.4949988,55.08 31.3225005,55.1724991 31.2175,55.3575 C31.1124995,55.5425009 31.06,55.8399979 31.06,56.25 L31.06,56.67 L32.56,56.67 L32.56,58.305 Z M36.64,56.52 C37.5300044,56.52 38.2074977,56.7624976 38.6725,57.2475 C39.1375023,57.7325024 39.37,58.4599951 39.37,59.43 L39.37,64.875 L37.9,64.875 L37.555,63.78 L37.51,63.78 C37.2199985,64.2100022 36.9125016,64.524999 36.5875,64.725 C36.2624984,64.925001 35.8250027,65.025 35.275,65.025 C34.5849965,65.025 34.0650017,64.7775025 33.715,64.2825 C33.3649982,63.7874975 33.19,63.1750037 33.19,62.445 C33.19,61.5849957 33.4474974,60.9400021 33.9625,60.51 C34.4775026,60.0799978 35.2249951,59.8450002 36.205,59.805 L37.345,59.76 L37.345,59.43 C37.345,58.5599957 37.0050034,58.125 36.325,58.125 C36.0449986,58.125 35.7500016,58.1724995 35.44,58.2675 C35.1299985,58.3625005 34.8050017,58.5049991 34.465,58.695 L33.865,57.225 C34.665004,56.7549977 35.5899948,56.52 36.64,56.52 Z M37.345,61.065 L36.685,61.095 C36.1849975,61.1150001 35.8200011,61.2349989 35.59,61.455 C35.3599988,61.6750011 35.245,61.984998 35.245,62.385 C35.245,62.7550018 35.3199992,63.0224992 35.47,63.1875 C35.6200008,63.3525008 35.8249987,63.435 36.085,63.435 C36.4450018,63.435 36.745,63.2900015 36.985,63 C37.2250012,62.7099986 37.345,62.3100026 37.345,61.8 L37.345,61.065 Z M44.17,65.025 C43.0799945,65.025 42.2575028,64.6825034 41.7025,63.9975 C41.1474972,63.3124966 40.87,62.2500072 40.87,60.81 C40.87,59.4899934 41.1549971,58.4450039 41.725,57.675 C42.2950029,56.9049962 43.1349945,56.52 44.245,56.52 C44.6950022,56.52 45.0974982,56.5699995 45.4525,56.67 C45.8075018,56.7700005 46.1299985,56.9049992 46.42,57.075 L45.835,58.68 C45.5749987,58.5499994 45.3225012,58.4450004 45.0775,58.365 C44.8324988,58.2849996 44.5900012,58.245 44.35,58.245 C43.4099953,58.245 42.94,59.0999915 42.94,60.81 C42.94,62.4700083 43.4149952,63.3 44.365,63.3 C44.7050017,63.3 45.0274985,63.2450006 45.3325,63.135 C45.6375015,63.0249994 45.9349985,62.870001 46.225,62.67 L46.225,64.41 C45.6649972,64.820002 44.980004,65.025 44.17,65.025 Z M50.695,63.285 C51.0350017,63.285 51.3899981,63.2100008 51.76,63.06 L51.76,64.65 C51.5299988,64.7600006 51.2725014,64.8499997 50.9875,64.92 C50.7024986,64.9900004 50.3950016,65.025 50.065,65.025 C49.3549965,65.025 48.8175018,64.820002 48.4525,64.41 C48.0874982,63.999998 47.905,63.3300047 47.905,62.4 L47.905,58.305 L47.02,58.305 L47.02,57.3 L48.055,56.715 L48.58,54.945 L49.93,54.945 L49.93,56.67 L51.655,56.67 L51.655,58.305 L49.93,58.305 L49.93,62.34 C49.93,62.9700031 50.1849974,63.285 50.695,63.285 Z M59.35,56.67 L59.35,64.875 L57.775,64.875 L57.52,63.825 L57.415,63.825 C57.2049989,64.225002 56.9250017,64.524999 56.575,64.725 C56.2249982,64.925001 55.8300022,65.025 55.39,65.025 C54.6199961,65.025 54.0275021,64.7700026 53.6125,64.26 C53.1974979,63.7499974 52.99,63.0050049 52.99,62.025 L52.99,56.67 L55.03,56.67 L55.03,61.455 C55.03,62.055003 55.1024993,62.5074985 55.2475,62.8125 C55.3925007,63.1175015 55.6349983,63.27 55.975,63.27 C56.5150027,63.27 56.8749991,63.0525022 57.055,62.6175 C57.2350009,62.1824978 57.325,61.5600041 57.325,60.75 L57.325,56.67 L59.35,56.67 Z M65.11,56.52 C65.3300011,56.52 65.5599988,56.5499997 65.8,56.61 L65.635,58.71 C65.4549991,58.6399997 65.2250014,58.605 64.945,58.605 C64.4449975,58.605 64.0425015,58.7849982 63.7375,59.145 C63.4324985,59.5050018 63.28,60.02 63.28,60.69 L63.28,64.875 L61.24,64.875 L61.24,56.67 L62.8,56.67 L63.1,58.035 L63.19,58.035 C63.3800009,57.634998 63.6374984,57.2825015 63.9625,56.9775 C64.2875016,56.6724985 64.6699978,56.52 65.11,56.52 Z M69.595,56.535 C70.5750049,56.535 71.3374973,56.8649967 71.8825,57.525 C72.4275027,58.1850033 72.7,59.0899943 72.7,60.24 L72.7,61.335 L68.38,61.335 C68.4000001,62.7150069 68.9649944,63.405 70.075,63.405 C70.475002,63.405 70.8499982,63.3600005 71.2,63.27 C71.5500017,63.1799995 71.9149981,63.0250011 72.295,62.805 L72.295,64.455 C71.9449982,64.655001 71.575002,64.7999995 71.185,64.89 C70.794998,64.9800005 70.3500025,65.025 69.85,65.025 C68.6899942,65.025 67.8175029,64.6600036 67.2325,63.93 C66.6474971,63.1999963 66.355,62.1650067 66.355,60.825 C66.355,59.424993 66.6374972,58.3600037 67.2025,57.63 C67.7675028,56.8999964 68.5649949,56.535 69.595,56.535 Z M69.625,58.08 C69.2749983,58.08 68.9875011,58.2224986 68.7625,58.5075 C68.5374989,58.7925014 68.4150001,59.2549968 68.395,59.895 L68.395,59.895 L70.795,59.895 C70.795,59.3449972 70.695001,58.9050017 70.495,58.575 C70.294999,58.2449984 70.0050019,58.08 69.625,58.08 Z" id="qr-rechnung-text" fill="#FFFFFF" fill-rule="nonzero"></path>
		</g>
		<g id="ebill" transform="translate(529.000000, 24.000000)">
			<circle id="Oval" fill="#25B9D4" cx="50" cy="50" r="50"></circle>
			<path d="M39.9425,47.66 C40.9225049,47.66 41.6849973,47.9899967 42.23,48.65 C42.7750027,49.3100033 43.0475,50.2149943 43.0475,51.365 L43.0475,52.46 L38.7275,52.46 C38.7475001,53.8400069 39.3124945,54.53 40.4225,54.53 C40.822502,54.53 41.1974983,54.4850005 41.5475,54.395 C41.8975017,54.3049995 42.2624981,54.1500011 42.6425,53.93 L42.6425,55.58 C42.2924983,55.780001 41.9225019,55.9249995 41.5325,56.015 C41.1424981,56.1050004 40.6975025,56.15 40.1975,56.15 C39.0374942,56.15 38.1650029,55.7850037 37.58,55.055 C36.9949971,54.3249963 36.7025,53.2900067 36.7025,51.95 C36.7025,50.549993 36.9849972,49.4850037 37.55,48.755 C38.1150028,48.0249964 38.9124949,47.66 39.9425,47.66 Z M39.9725,49.205 C39.6224982,49.205 39.3350011,49.3474986 39.11,49.6325 C38.8849989,49.9175014 38.7625001,50.3799968 38.7425,51.02 L41.1425,51.02 C41.1425,50.4699972 41.042501,50.0300017 40.8425,49.7 C40.642499,49.3699984 40.3525019,49.205 39.9725,49.205 Z M44.6525,45.29 L47.6225,45.29 C48.822506,45.29 49.724997,45.5024979 50.33,45.9275 C50.935003,46.3525021 51.2375,47.0299954 51.2375,47.96 C51.2375,48.5800031 51.1050013,49.0999979 50.84,49.52 C50.5749987,49.9400021 50.2025024,50.2049995 49.7225,50.315 L49.7225,50.39 C50.2825028,50.5300007 50.7099985,50.799998 51.005,51.2 C51.3000015,51.600002 51.4475,52.1649964 51.4475,52.895 C51.4475,53.8550048 51.147503,54.6124972 50.5475,55.1675 C49.947497,55.7225028 49.1175053,56 48.0575,56 L44.6525,56 L44.6525,45.29 Z M46.7675,49.595 L47.6975,49.595 C48.1875024,49.595 48.5424989,49.4800011 48.7625,49.25 C48.9825011,49.0199989 49.0925,48.6850022 49.0925,48.245 C49.0925,47.434996 48.6075048,47.03 47.6375,47.03 L46.7675,47.03 L46.7675,49.595 Z M46.7675,51.29 L46.7675,54.23 L47.8625,54.23 C48.3625025,54.23 48.7224989,54.1000013 48.9425,53.84 C49.1625011,53.5799987 49.2725,53.2050025 49.2725,52.715 C49.2725,52.2649977 49.1525012,51.9150013 48.9125,51.665 C48.6724988,51.4149987 48.2975025,51.29 47.7875,51.29 L46.7675,51.29 Z M54.0875,44.585 C54.8275037,44.585 55.1975,44.9549963 55.1975,45.695 C55.1975,46.0650019 55.100001,46.3399991 54.905,46.52 C54.709999,46.7000009 54.4375017,46.79 54.0875,46.79 C53.7474983,46.79 53.4775,46.7000009 53.2775,46.52 C53.077499,46.3399991 52.9775,46.0650019 52.9775,45.695 C52.9775,45.3049981 53.074999,45.0225009 53.27,44.8475 C53.465001,44.6724991 53.7374982,44.585 54.0875,44.585 Z M55.1075,47.795 L55.1075,56 L53.0675,56 L53.0675,47.795 L55.1075,47.795 Z M59.0225,56 L56.9975,56 L56.9975,44.6 L59.0225,44.6 L59.0225,56 Z M62.9375,56 L60.9125,56 L60.9125,44.6 L62.9375,44.6 L62.9375,56 Z" id="ebill-text" fill="#FFFFFF" fill-rule="nonzero"></path>
		</g>
	</g>
</svg>
