<svg width="655px" height="366px" viewBox="0 0 655 366" version="1.1" xmlns="http://www.w3.org/2000/svg" xmlns:xlink="http://www.w3.org/1999/xlink">
	<g id="animation" stroke="none" stroke-width="1" fill="none" fill-rule="evenodd">
		<g id="x-axis" transform="translate(124.000000, 337.000000)">
			<polygon id="x-axis-2" fill="#5C5C5B" transform="translate(525.900000, 3.000000) rotate(90.000000) translate(-525.900000, -3.000000) " points="525.9 -2 528.9 8 522.9 8"></polygon>
			<line x1="0" y1="3" x2="521" y2="3" id="x-axis-1" stroke="#5C5C5B" stroke-width="2"></line>
		</g>
		<g id="y-axis" transform="translate(122.000000, 0.000000)">
			<polygon id="y-axis-2" fill="#5C5C5B" points="3 0.1 6 10.1 0 10.1"></polygon>
			<line x1="3" y1="340" x2="3" y2="10" id="y-axis-1" stroke="#5C5C5B" stroke-width="2"></line>
		</g>
		<g id="x-labels" transform="translate(233.000000, 349.000000)" fill="#5C5C5B" fill-rule="nonzero">
			<path d="M7.319,12 L5.486,12 L5.486,7.957 L2.769,7.957 L2.769,12 L0.936,12 L0.936,2.718 L2.769,2.718 L2.769,6.384 L5.486,6.384 L5.486,2.718 L7.319,2.718 L7.319,12 Z M11.5973,4.772 C12.4466376,4.772 13.1074643,5.05799714 13.5798,5.63 C14.0521357,6.20200286 14.2883,6.98632835 14.2883,7.983 L14.2883,8.932 L10.5443,8.932 C10.5616334,10.128006 11.0512952,10.726 12.0133,10.726 C12.3599684,10.726 12.6849652,10.6870004 12.9883,10.609 C13.2916349,10.5309996 13.607965,10.3966676 13.9373,10.206 L13.9373,11.636 C13.6339652,11.8093342 13.3133017,11.9349996 12.9753,12.013 C12.6372983,12.0910004 12.2516355,12.13 11.8183,12.13 C10.8129616,12.13 10.0568025,11.8136698 9.5498,11.181 C9.04279747,10.5483302 8.7893,9.65133914 8.7893,8.49 C8.7893,7.2766606 9.03413088,6.35366983 9.5238,5.721 C10.0134691,5.08833017 10.7046289,4.772 11.5973,4.772 Z M11.6233,6.111 C11.3199652,6.111 11.070801,6.23449876 10.8758,6.4815 C10.680799,6.72850123 10.5746334,7.12933056 10.5573,7.684 L12.6373,7.684 C12.6373,7.20733095 12.5506342,6.82600143 12.3773,6.54 C12.2039658,6.25399857 11.952635,6.111 11.6233,6.111 Z M21.0756,4.889 L21.0756,12 L19.7106,12 L19.4896,11.09 L19.3986,11.09 C19.2165991,11.4366684 18.9739348,11.6966658 18.6706,11.87 C18.3672651,12.0433342 18.0249352,12.13 17.6436,12.13 C16.9762633,12.13 16.4627685,11.9090022 16.1031,11.467 C15.7434315,11.0249978 15.5636,10.3793376 15.5636,9.53 L15.5636,4.889 L17.3316,4.889 L17.3316,9.036 C17.3316,9.5560026 17.3944327,9.94816534 17.5201,10.2125 C17.6457673,10.4768347 17.8559319,10.609 18.1506,10.609 C18.6186023,10.609 18.9305992,10.4205019 19.0866,10.0435 C19.2426008,9.66649811 19.3206,9.12700351 19.3206,8.425 L19.3206,4.889 L21.0756,4.889 Z M25.3019,10.622 C25.5965681,10.622 25.9042317,10.5570006 26.2249,10.427 L26.2249,11.805 C26.0255657,11.9003338 25.8024012,11.978333 25.5554,12.039 C25.3083988,12.099667 25.0419014,12.13 24.7559,12.13 C24.1405636,12.13 23.6747349,11.9523351 23.3584,11.597 C23.0420651,11.2416649 22.8839,10.661004 22.8839,9.855 L22.8839,6.306 L22.1169,6.306 L22.1169,5.435 L23.0139,4.928 L23.4689,3.394 L24.6389,3.394 L24.6389,4.889 L26.1339,4.889 L26.1339,6.306 L24.6389,6.306 L24.6389,9.803 C24.6389,10.3490027 24.8598978,10.622 25.3019,10.622 Z M29.8402,4.772 C30.6895376,4.772 31.3503643,5.05799714 31.8227,5.63 C32.2950357,6.20200286 32.5312,6.98632835 32.5312,7.983 L32.5312,8.932 L28.7872,8.932 C28.8045334,10.128006 29.2941952,10.726 30.2562,10.726 C30.6028684,10.726 30.9278651,10.6870004 31.2312,10.609 C31.5345349,10.5309996 31.850865,10.3966676 32.1802,10.206 L32.1802,11.636 C31.8768651,11.8093342 31.5562017,11.9349996 31.2182,12.013 C30.8801983,12.0910004 30.4945355,12.13 30.0612,12.13 C29.0558616,12.13 28.2997025,11.8136698 27.7927,11.181 C27.2856975,10.5483302 27.0322,9.65133914 27.0322,8.49 C27.0322,7.2766606 27.2770309,6.35366983 27.7667,5.721 C28.2563691,5.08833017 28.9475289,4.772 29.8402,4.772 Z M29.8662,6.111 C29.5628651,6.111 29.313701,6.23449876 29.1187,6.4815 C28.923699,6.72850123 28.8175334,7.12933056 28.8002,7.684 L28.8002,7.684 L30.8802,7.684 C30.8802,7.20733095 30.7935342,6.82600143 30.6202,6.54 C30.4468658,6.25399857 30.195535,6.111 29.8662,6.111 Z" id="x-labels-1"></path>
			<path d="M135.537,13 L133.574,6.019 L133.522,6.019 L133.571111,6.80477723 L133.571111,6.80477723 L133.5935,7.228 C133.615167,7.6613355 133.626,8.03833173 133.626,8.359 L133.626,13 L131.936,13 L131.936,3.718 L134.458,3.718 L136.317,10.296 L136.356,10.296 L138.254,3.718 L140.776,3.718 L140.776,13 L139.034,13 L139.034,8.32 C139.034,8.07299876 139.037656,7.80162555 139.044969,7.50587565 L139.0535,7.202 C139.0665,6.78599792 139.086,6.39600182 139.112,6.032 L139.06,6.032 L137.045,13 L135.537,13 Z M145.123506,5.759 C145.894843,5.759 146.482004,5.96916456 146.885006,6.3895 C147.288008,6.80983543 147.489506,7.44032913 147.489506,8.281 L147.489506,13 L146.215506,13 L145.916506,12.051 L145.877506,12.051 C145.626171,12.4236685 145.359674,12.6966658 145.078006,12.87 C144.796338,13.0433342 144.417175,13.13 143.940506,13.13 C143.342503,13.13 142.891841,12.9155021 142.588506,12.4865 C142.285171,12.0574979 142.133506,11.5266698 142.133506,10.894 C142.133506,10.1486629 142.35667,9.58966853 142.803006,9.217 C143.249341,8.84433147 143.897168,8.64066684 144.746506,8.606 L145.734506,8.567 L145.734506,8.281 C145.734506,7.52699623 145.439842,7.15 144.850506,7.15 C144.607838,7.15 144.352174,7.19116625 144.083506,7.2735 C143.814838,7.35583374 143.533174,7.47933251 143.238506,7.644 L142.718506,6.37 C143.411843,5.96266463 144.213501,5.759 145.123506,5.759 Z M145.734506,9.698 L145.162506,9.724 C144.72917,9.74133342 144.41284,9.84533238 144.213506,10.036 C144.014172,10.2266676 143.914506,10.4953316 143.914506,10.842 C143.914506,11.1626683 143.979505,11.3944993 144.109506,11.5375 C144.239507,11.6805007 144.417171,11.752 144.642506,11.752 C144.954507,11.752 145.214505,11.6263346 145.422506,11.375 C145.630507,11.1236654 145.734506,10.7770022 145.734506,10.335 L145.734506,9.698 Z M152.461012,5.759 C152.651679,5.759 152.851011,5.78499974 153.059012,5.837 L152.916012,7.657 C152.760011,7.59633303 152.56068,7.566 152.318012,7.566 C151.884676,7.566 151.535846,7.72199844 151.271512,8.034 C151.007177,8.34600156 150.875012,8.79233043 150.875012,9.373 L150.875012,13 L149.107012,13 L149.107012,5.889 L150.459012,5.889 L150.719012,7.072 L150.797012,7.072 C150.961679,6.7253316 151.184844,6.41983465 151.466512,6.1555 C151.74818,5.89116534 152.079677,5.759 152.461012,5.759 Z M155.794518,3.12 L155.794518,7.462 C155.794518,8.03400286 155.768518,8.59733056 155.716518,9.152 L155.755518,9.152 C155.963519,8.77066476 156.16285,8.43700143 156.353518,8.151 L157.913518,5.889 L159.850518,5.889 L157.705518,8.853 L159.954518,13 L158.004518,13 L156.509518,10.088 L155.794518,10.738 L155.794518,13 L154.039518,13 L154.039518,3.12 L155.794518,3.12 Z M163.327024,11.622 C163.621692,11.622 163.929355,11.5570006 164.250024,11.427 L164.250024,12.805 C164.050689,12.9003338 163.827525,12.978333 163.580524,13.039 C163.333522,13.099667 163.067025,13.13 162.781024,13.13 C162.165687,13.13 161.699858,12.9523351 161.383524,12.597 C161.067189,12.2416649 160.909024,11.661004 160.909024,10.855 L160.909024,7.306 L160.142024,7.306 L160.142024,6.435 L161.039024,5.928 L161.494024,4.394 L162.664024,4.394 L162.664024,5.889 L164.159024,5.889 L164.159024,7.306 L162.664024,7.306 L162.664024,10.803 C162.664024,11.3490027 162.885021,11.622 163.327024,11.622 Z M167.843529,5.772 C168.692867,5.772 169.353694,6.05799714 169.826029,6.63 C170.298365,7.20200286 170.534529,7.98632835 170.534529,8.983 L170.534529,9.932 L166.790529,9.932 C166.807863,11.128006 167.297525,11.726 168.259529,11.726 C168.606198,11.726 168.931195,11.6870004 169.234529,11.609 C169.537864,11.5309996 169.854194,11.3966676 170.183529,11.206 L170.183529,12.636 C169.880195,12.8093342 169.559531,12.9349996 169.221529,13.013 C168.883528,13.0910004 168.497865,13.13 168.064529,13.13 C167.059191,13.13 166.303032,12.8136698 165.796029,12.181 C165.289027,11.5483302 165.035529,10.6513391 165.035529,9.49 C165.035529,8.2766606 165.28036,7.35366983 165.770029,6.721 C166.259699,6.08833017 166.950858,5.772 167.843529,5.772 Z M167.869529,7.111 C167.566195,7.111 167.31703,7.23449876 167.122029,7.4815 C166.927028,7.72850123 166.820863,8.12933056 166.803529,8.684 L168.883529,8.684 C168.883529,8.20733095 168.796864,7.82600143 168.623529,7.54 C168.450195,7.25399857 168.198864,7.111 167.869529,7.111 Z M175.259035,5.759 C175.900372,5.759 176.4052,5.97349785 176.773535,6.4025 C177.14187,6.83150214 177.326035,7.47066242 177.326035,8.32 L177.326035,13 L175.558035,13 L175.558035,8.814 C175.558035,8.31133082 175.495203,7.9300013 175.369535,7.67 C175.243868,7.4099987 175.025037,7.28 174.713035,7.28 C174.2797,7.28 173.980703,7.46199818 173.816035,7.826 C173.651368,8.19000182 173.569035,8.78366255 173.569035,9.607 L173.569035,13 L171.814035,13 L171.814035,5.889 L173.192035,5.889 L173.400035,6.799 L173.504035,6.799 C173.677369,6.4523316 173.917867,6.1923342 174.225535,6.019 C174.533203,5.8456658 174.8777,5.759 175.259035,5.759 Z M181.504541,11.622 C181.799209,11.622 182.106873,11.5570006 182.427541,11.427 L182.427541,12.805 C182.228207,12.9003338 182.005042,12.978333 181.758041,13.039 C181.51104,13.099667 181.244543,13.13 180.958541,13.13 C180.343205,13.13 179.877376,12.9523351 179.561041,12.597 C179.244706,12.2416649 179.086541,11.661004 179.086541,10.855 L179.086541,7.306 L178.319541,7.306 L178.319541,6.435 L179.216541,5.928 L179.671541,4.394 L180.841541,4.394 L180.841541,5.889 L182.336541,5.889 L182.336541,7.306 L180.841541,7.306 L180.841541,10.803 C180.841541,11.3490027 181.062539,11.622 181.504541,11.622 Z M190.493047,13 L188.504047,13 L187.763047,9.0415 L187.763047,9.0415 L187.686672,8.62062499 L187.686672,8.62062499 L187.613547,8.203 C187.56588,7.92566528 187.529047,7.69600091 187.503047,7.514 L187.464047,7.514 L187.257672,8.65475002 L187.257672,8.65475002 L187.184547,9.074 C187.13688,9.35133472 187.095714,9.5766658 187.061047,9.75 L186.424047,13 L184.448047,13 L182.797047,5.889 L184.565047,5.889 L185.163047,8.749 C185.232381,9.10433511 185.295213,9.4986645 185.351547,9.932 L185.427922,10.5527501 C185.450672,10.7499163 185.470714,10.9373324 185.488047,11.115 L185.527047,11.115 C185.547847,10.8723321 185.57974,10.5950008 185.622727,10.2830006 L185.657047,10.0425 C185.717714,9.63083128 185.782713,9.24733511 185.852047,8.892 L186.502047,5.889 L188.491047,5.889 L189.115047,8.931 L189.206047,9.44612483 C189.23638,9.6292077 189.266714,9.82366564 189.297047,10.0295 C189.357714,10.4411687 189.401047,10.8029984 189.427047,11.115 L189.479047,11.115 C189.49638,10.8376653 189.533213,10.4953354 189.589547,10.088 C189.645881,9.68066463 189.708713,9.29933511 189.778047,8.944 L190.441047,5.889 L192.170047,5.889 L190.493047,13 Z M193.982553,3.107 C194.623889,3.107 194.944553,3.42766346 194.944553,4.069 C194.944553,4.38966827 194.860054,4.62799922 194.691053,4.784 C194.522052,4.94000078 194.285888,5.018 193.982553,5.018 C193.687885,5.018 193.453887,4.94000078 193.280553,4.784 C193.107219,4.62799922 193.020553,4.38966827 193.020553,4.069 C193.020553,3.73099831 193.105052,3.48616742 193.274053,3.3345 C193.443054,3.18283257 193.679218,3.107 193.982553,3.107 Z M194.866553,5.889 L194.866553,13 L193.098553,13 L193.098553,5.889 L194.866553,5.889 Z M199.058059,13.13 C198.113387,13.13 197.400561,12.8331696 196.919559,12.2395 C196.438556,11.6458304 196.198059,10.7250062 196.198059,9.477 C196.198059,8.33299428 196.445056,7.42733667 196.939059,6.76 C197.433061,6.09266333 198.161054,5.759 199.123059,5.759 C199.513061,5.759 199.861891,5.8023329 200.169559,5.889 C200.477227,5.9756671 200.756724,6.09266593 201.008059,6.24 L200.501059,7.631 C200.275724,7.51833277 200.056893,7.42733368 199.844559,7.358 C199.632224,7.28866632 199.42206,7.254 199.214059,7.254 C198.399388,7.254 197.992059,7.99499259 197.992059,9.477 C197.992059,10.9156739 198.403721,11.635 199.227059,11.635 C199.521727,11.635 199.801224,11.5873338 200.065559,11.492 C200.329893,11.3966662 200.587724,11.2623342 200.839059,11.089 L200.839059,12.597 C200.353723,12.9523351 199.760062,13.13 199.058059,13.13 Z M203.912565,3.12 L203.912565,7.462 C203.912565,8.03400286 203.886565,8.59733056 203.834565,9.152 L203.873565,9.152 C204.081566,8.77066476 204.280897,8.43700143 204.471565,8.151 L206.031565,5.889 L207.968565,5.889 L205.823565,8.853 L208.072565,13 L206.122565,13 L204.627565,10.088 L203.912565,10.738 L203.912565,13 L202.157565,13 L202.157565,3.12 L203.912565,3.12 Z M210.639071,13 L208.884071,13 L208.884071,3.12 L210.639071,3.12 L210.639071,13 Z M217.768576,5.889 L217.768576,13 L216.403576,13 L216.182576,12.09 L216.091576,12.09 C215.909576,12.4366684 215.666911,12.6966658 215.363576,12.87 C215.060242,13.0433342 214.717912,13.13 214.336576,13.13 C213.66924,13.13 213.155745,12.9090022 212.796076,12.467 C212.436408,12.0249978 212.256576,11.3793376 212.256576,10.53 L212.256576,5.889 L214.024576,5.889 L214.024576,10.036 C214.024576,10.5560026 214.087409,10.9481653 214.213076,11.2125 C214.338744,11.4768347 214.548908,11.609 214.843576,11.609 C215.311579,11.609 215.623576,11.4205019 215.779576,11.0435 C215.935577,10.6664981 216.013576,10.1270035 216.013576,9.425 L216.013576,5.889 L217.768576,5.889 Z M222.857082,5.759 C223.498419,5.759 224.003247,5.97349785 224.371582,6.4025 C224.739918,6.83150214 224.924082,7.47066242 224.924082,8.32 L224.924082,13 L223.156082,13 L223.156082,8.814 C223.156082,8.31133082 223.09325,7.9300013 222.967582,7.67 C222.841915,7.4099987 222.623084,7.28 222.311082,7.28 C221.877747,7.28 221.57875,7.46199818 221.414082,7.826 C221.249415,8.19000182 221.167082,8.78366255 221.167082,9.607 L221.167082,13 L219.412082,13 L219.412082,5.889 L220.790082,5.889 L220.998082,6.799 L221.102082,6.799 C221.275417,6.4523316 221.515914,6.1923342 221.823582,6.019 C222.131251,5.8456658 222.475747,5.759 222.857082,5.759 Z M228.517588,5.759 C228.890257,5.759 229.208754,5.83916587 229.473088,5.9995 C229.737423,6.15983413 229.973587,6.42633147 230.181588,6.799 L230.272588,6.799 L230.415588,5.889 L231.923588,5.889 L231.923588,12.753 C231.923588,13.8363387 231.665757,14.6683304 231.150088,15.249 C230.634419,15.8296696 229.830594,16.12 228.738588,16.12 C227.923917,16.12 227.204591,15.9640016 226.580588,15.652 L226.580588,14.144 C227.299925,14.4993351 228.019251,14.677 228.738588,14.677 C229.189257,14.677 229.540254,14.5621678 229.791588,14.3325 C230.042923,14.1028322 230.168588,13.719336 230.168588,13.182 L230.168588,13.052 C230.168588,12.9133326 230.172922,12.7508343 230.181588,12.5645 C230.190255,12.3781657 230.203255,12.2113341 230.220588,12.064 L230.168588,12.064 C229.960587,12.4366685 229.717923,12.7074992 229.440588,12.8765 C229.163254,13.0455008 228.838257,13.13 228.465588,13.13 C227.763585,13.13 227.215424,12.8093365 226.821088,12.168 C226.426753,11.5266635 226.229588,10.6296724 226.229588,9.477 C226.229588,8.29832744 226.431086,7.38400325 226.834088,6.734 C227.23709,6.08399675 227.798251,5.759 228.517588,5.759 Z M229.050588,7.267 C228.365918,7.267 228.023588,8.01232588 228.023588,9.503 C228.023588,10.9330071 228.374585,11.648 229.076588,11.648 C229.457923,11.648 229.741754,11.4963349 229.928088,11.193 C230.114423,10.8896651 230.207588,10.4000034 230.207588,9.724 L230.207588,9.724 L230.207588,9.399 C230.207588,8.64499623 230.114423,8.10116834 229.928088,7.7675 C229.741754,7.43383166 229.449257,7.267 229.050588,7.267 Z" id="x-labels-2"></path>
			<path d="M328.537,12 L326.574,5.019 L326.522,5.019 L326.571111,5.80477723 L326.571111,5.80477723 L326.5935,6.228 C326.615167,6.6613355 326.626,7.03833173 326.626,7.359 L326.626,12 L324.936,12 L324.936,2.718 L327.458,2.718 L329.317,9.296 L329.356,9.296 L331.254,2.718 L333.776,2.718 L333.776,12 L332.034,12 L332.034,7.32 C332.034,7.07299876 332.037656,6.80162555 332.044969,6.50587565 L332.0535,6.202 C332.0665,5.78599792 332.086,5.39600182 332.112,5.032 L332.06,5.032 L330.045,12 L328.537,12 Z M341.065941,8.425 C341.065941,9.12700351 340.959776,9.7574972 340.747441,10.3165 C340.535107,10.8755028 340.212277,11.3174984 339.778941,11.6425 C339.345606,11.9675016 338.790945,12.13 338.114941,12.13 C337.490938,12.13 336.962277,11.9675016 336.528941,11.6425 C336.095606,11.3174984 335.768442,10.8755028 335.547441,10.3165 C335.32644,9.7574972 335.215941,9.12700351 335.215941,8.425 C335.215941,7.68832965 335.322107,7.04700273 335.534441,6.501 C335.746776,5.95499727 336.069606,5.5281682 336.502941,5.2205 C336.936277,4.91283179 337.486605,4.759 338.153941,4.759 C339.029279,4.759 339.733439,5.07533017 340.266441,5.708 C340.799444,6.34066983 341.065941,7.24632744 341.065941,8.425 Z M337.009941,8.451 C337.009941,9.17900364 337.098774,9.72933147 337.276441,10.102 C337.454109,10.4746685 337.742273,10.661 338.140941,10.661 C338.53961,10.661 338.825607,10.4746685 338.998941,10.102 C339.172275,9.72933147 339.258941,9.17033706 339.258941,8.425 C339.258941,7.68832965 339.172275,7.13800182 338.998941,6.774 C338.825607,6.40999818 338.53961,6.228 338.140941,6.228 C337.742273,6.228 337.454109,6.41216482 337.276441,6.7805 C337.098774,7.14883518 337.009941,7.70566294 337.009941,8.451 Z M345.742882,4.759 C345.93355,4.759 346.132881,4.78499974 346.340882,4.837 L346.197882,6.657 C346.041882,6.59633303 345.84255,6.566 345.599882,6.566 C345.166547,6.566 344.817717,6.72199844 344.553382,7.034 C344.289048,7.34600156 344.156882,7.79233043 344.156882,8.373 L344.156882,12 L342.388882,12 L342.388882,4.889 L343.740882,4.889 L344.000882,6.072 L344.078882,6.072 C344.24355,5.7253316 344.466714,5.41983465 344.748382,5.1555 C345.03005,4.89116534 345.361547,4.759 345.742882,4.759 Z M349.210824,4.759 C349.583492,4.759 349.901989,4.83916587 350.166324,4.9995 C350.430658,5.15983413 350.666822,5.42633147 350.874824,5.799 L350.965824,5.799 L351.108824,4.889 L352.616824,4.889 L352.616824,11.753 C352.616824,12.8363387 352.358993,13.6683304 351.843324,14.249 C351.327654,14.8296696 350.523829,15.12 349.431824,15.12 C348.617153,15.12 347.897827,14.9640016 347.273824,14.652 L347.273824,13.144 C347.99316,13.4993351 348.712487,13.677 349.431824,13.677 C349.882492,13.677 350.233489,13.5621678 350.484824,13.3325 C350.736158,13.1028322 350.861824,12.719336 350.861824,12.182 L350.861824,12.052 C350.861824,11.9133326 350.866157,11.7508343 350.874824,11.5645 C350.88349,11.3781657 350.89649,11.2113341 350.913824,11.064 L350.861824,11.064 C350.653822,11.4366685 350.411158,11.7074992 350.133824,11.8765 C349.856489,12.0455008 349.531492,12.13 349.158824,12.13 C348.45682,12.13 347.908659,11.8093365 347.514324,11.168 C347.119988,10.5266635 346.922824,9.62967243 346.922824,8.477 C346.922824,7.29832744 347.124322,6.38400325 347.527324,5.734 C347.930326,5.08399675 348.491487,4.759 349.210824,4.759 Z M349.743824,6.267 C349.059153,6.267 348.716824,7.01232588 348.716824,8.503 C348.716824,9.93300715 349.06782,10.648 349.769824,10.648 C350.151159,10.648 350.434989,10.4963349 350.621324,10.193 C350.807658,9.88966515 350.900824,9.40000338 350.900824,8.724 L350.900824,8.399 C350.900824,7.64499623 350.807658,7.10116833 350.621324,6.7675 C350.434989,6.43383166 350.142492,6.267 349.743824,6.267 Z M356.760765,4.772 C357.610102,4.772 358.270929,5.05799714 358.743265,5.63 C359.2156,6.20200286 359.451765,6.98632835 359.451765,7.983 L359.451765,8.932 L355.707765,8.932 C355.725098,10.128006 356.21476,10.726 357.176765,10.726 C357.523433,10.726 357.84843,10.6870004 358.151765,10.609 C358.4551,10.5309996 358.77143,10.3966676 359.100765,10.206 L359.100765,11.636 C358.79743,11.8093342 358.476766,11.9349996 358.138765,12.013 C357.800763,12.0910004 357.4151,12.13 356.981765,12.13 C355.976426,12.13 355.220267,11.8136698 354.713265,11.181 C354.206262,10.5483302 353.952765,9.65133914 353.952765,8.49 C353.952765,7.2766606 354.197596,6.35366983 354.687265,5.721 C355.176934,5.08833017 355.868094,4.772 356.760765,4.772 Z M356.786765,6.111 C356.48343,6.111 356.234266,6.23449876 356.039265,6.4815 C355.844264,6.72850123 355.738098,7.12933056 355.720765,7.684 L357.800765,7.684 C357.800765,7.20733095 357.714099,6.82600143 357.540765,6.54 C357.367431,6.25399857 357.1161,6.111 356.786765,6.111 Z M364.180706,4.759 C364.822042,4.759 365.326871,4.97349785 365.695206,5.4025 C366.063541,5.83150214 366.247706,6.47066242 366.247706,7.32 L366.247706,12 L364.479706,12 L364.479706,7.814 C364.479706,7.31133082 364.416873,6.9300013 364.291206,6.67 C364.165539,6.4099987 363.946707,6.28 363.634706,6.28 C363.20137,6.28 362.902373,6.46199818 362.737706,6.826 C362.573038,7.19000182 362.490706,7.78366255 362.490706,8.607 L362.490706,12 L360.735706,12 L360.735706,4.889 L362.113706,4.889 L362.321706,5.799 L362.425706,5.799 C362.59904,5.4523316 362.839538,5.1923342 363.147206,5.019 C363.454874,4.8456658 363.799371,4.759 364.180706,4.759 Z" id="x-labels-3"></path>
		</g>
		<g id="y-labels" transform="translate(41.000000, 62.000000)" fill="#5C5C5B" fill-rule="nonzero">
			<path d="M6.13214118,214 L5.59914118,211.777 L3.12914118,211.777 L2.59614118,214 L0.620141176,214 L3.18114118,204.705 L5.50814118,204.705 L8.09514118,214 L6.13214118,214 Z M5.26114118,210.191 L4.70214118,207.825 L4.64725225,207.541889 L4.64725225,207.541889 L4.52014118,206.941 C4.4508075,206.628998 4.39880802,206.351668 4.36414118,206.109 L4.29914124,206.494125 C4.27314131,206.633874 4.24280802,206.784999 4.20814118,206.9475 L4.10739116,207.407375 L4.10739116,207.407375 L3.46714118,210.191 L5.26114118,210.191 Z M12.3871294,206.759 C13.028466,206.759 13.5332942,206.973498 13.9016294,207.4025 C14.2699646,207.831502 14.4541294,208.470662 14.4541294,209.32 L14.4541294,214 L12.6861294,214 L12.6861294,209.814 C12.6861294,209.311331 12.6232967,208.930001 12.4976294,208.67 C12.3719621,208.409999 12.153131,208.28 11.8411294,208.28 C11.4077939,208.28 11.1087969,208.461998 10.9441294,208.826 C10.7794619,209.190002 10.6971294,209.783663 10.6971294,210.607 L10.6971294,214 L8.94212941,214 L8.94212941,206.889 L10.3201294,206.889 L10.5281294,207.799 L10.6321294,207.799 C10.8054636,207.452332 11.0459612,207.192334 11.3536294,207.019 C11.6612976,206.845666 12.0057942,206.759 12.3871294,206.759 Z M18.4081176,206.759 C19.1794548,206.759 19.7666156,206.969165 20.1696176,207.3895 C20.5726197,207.809835 20.7741176,208.440329 20.7741176,209.281 L20.7741176,214 L19.5001176,214 L19.2011176,213.051 L19.1621176,213.051 C18.9107831,213.423669 18.6442857,213.696666 18.3626176,213.87 C18.0809496,214.043334 17.7017867,214.13 17.2251176,214.13 C16.6271147,214.13 16.1764525,213.915502 15.8731176,213.4865 C15.5697828,213.057498 15.4181176,212.52667 15.4181176,211.894 C15.4181176,211.148663 15.6412821,210.589669 16.0876176,210.217 C16.5339532,209.844331 17.1817801,209.640667 18.0311176,209.606 L19.0191176,209.567 L19.0191176,209.281 C19.0191176,208.526996 18.7244539,208.15 18.1351176,208.15 C17.8924498,208.15 17.6367857,208.191166 17.3681176,208.2735 C17.0994496,208.355834 16.8177858,208.479333 16.5231176,208.644 L16.0031176,207.37 C16.6964544,206.962665 17.4981131,206.759 18.4081176,206.759 Z M19.0191176,210.698 L18.4471176,210.724 C18.0137821,210.741333 17.697452,210.845332 17.4981176,211.036 C17.2987833,211.226668 17.1991176,211.495332 17.1991176,211.842 C17.1991176,212.162668 17.264117,212.394499 17.3941176,212.5375 C17.5241183,212.680501 17.7017832,212.752 17.9271176,212.752 C18.2391192,212.752 18.4991166,212.626335 18.7071176,212.375 C18.9151187,212.123665 19.0191176,211.777002 19.0191176,211.335 L19.0191176,210.698 Z M23.9091059,214 L22.1541059,214 L22.1541059,204.12 L23.9091059,204.12 L23.9091059,214 Z M30.9050941,210.425 C30.9050941,211.127004 30.7989285,211.757497 30.5865941,212.3165 C30.3742597,212.875503 30.0514296,213.317498 29.6180941,213.6425 C29.1847586,213.967502 28.6300975,214.13 27.9540941,214.13 C27.330091,214.13 26.8014296,213.967502 26.3680941,213.6425 C25.9347586,213.317498 25.6075952,212.875503 25.3865941,212.3165 C25.165593,211.757497 25.0550941,211.127004 25.0550941,210.425 C25.0550941,209.68833 25.1612597,209.047003 25.3735941,208.501 C25.5859285,207.954997 25.9087586,207.528168 26.3420941,207.2205 C26.7754296,206.912832 27.3257574,206.759 27.9930941,206.759 C28.8684318,206.759 29.5725915,207.07533 30.1055941,207.708 C30.6385968,208.34067 30.9050941,209.246327 30.9050941,210.425 Z M26.8490941,210.451 C26.8490941,211.179004 26.9379266,211.729331 27.1155941,212.102 C27.2932617,212.474669 27.5814255,212.661 27.9800941,212.661 C28.3787628,212.661 28.6647599,212.474669 28.8380941,212.102 C29.0114283,211.729331 29.0980941,211.170337 29.0980941,210.425 C29.0980941,209.68833 29.0114283,209.138002 28.8380941,208.774 C28.6647599,208.409998 28.3787628,208.228 27.9800941,208.228 C27.5814255,208.228 27.2932617,208.412165 27.1155941,208.7805 C26.9379266,209.148835 26.8490941,209.705663 26.8490941,210.451 Z M34.0790824,206.759 C34.4517509,206.759 34.7702477,206.839166 35.0345824,206.9995 C35.298917,207.159834 35.5350813,207.426331 35.7430824,207.799 L35.8340824,207.799 L35.9770824,206.889 L37.4850824,206.889 L37.4850824,213.753 C37.4850824,214.836339 37.2272516,215.66833 36.7115824,216.249 C36.1959131,216.82967 35.3920878,217.12 34.3000824,217.12 C33.4854116,217.12 32.7660855,216.964002 32.1420824,216.652 L32.1420824,215.144 C32.8614193,215.499335 33.5807454,215.677 34.3000824,215.677 C34.7507513,215.677 35.1017478,215.562168 35.3530824,215.3325 C35.6044169,215.102832 35.7300824,214.719336 35.7300824,214.182 L35.7300824,214.052 C35.7300824,213.959555 35.7320083,213.856519 35.7358601,213.742889 L35.7430824,213.5645 C35.7517491,213.378166 35.7647489,213.211334 35.7820824,213.064 L35.7300824,213.064 C35.5220813,213.436669 35.2794171,213.707499 35.0020824,213.8765 C34.7247476,214.045501 34.3997509,214.13 34.0270824,214.13 C33.3250788,214.13 32.7769177,213.809337 32.3825824,213.168 C31.988247,212.526663 31.7910824,211.629672 31.7910824,210.477 C31.7910824,209.298327 31.9925803,208.384003 32.3955824,207.734 C32.7985844,207.083997 33.3597454,206.759 34.0790824,206.759 Z M34.6120824,208.267 C33.9274123,208.267 33.5850824,209.012326 33.5850824,210.503 C33.5850824,211.933007 33.9360788,212.648 34.6380824,212.648 C35.0194176,212.648 35.3032481,212.496335 35.4895824,212.193 C35.6759166,211.889665 35.7690824,211.400003 35.7690824,210.724 L35.7690824,210.399 C35.7690824,209.644996 35.6759166,209.101168 35.4895824,208.7675 C35.3032481,208.433832 35.010751,208.267 34.6120824,208.267 Z M41.4390706,206.772 C42.2884082,206.772 42.9492349,207.057997 43.4215706,207.63 C43.8939063,208.202003 44.1300706,208.986328 44.1300706,209.983 L44.1300706,210.932 L40.3860706,210.932 C40.403404,212.128006 40.8930658,212.726 41.8550706,212.726 C42.201739,212.726 42.5267357,212.687 42.8300706,212.609 C43.1334054,212.531 43.4497356,212.396668 43.7790706,212.206 L43.7790706,213.636 C43.4757357,213.809334 43.1550723,213.935 42.8170706,214.013 C42.4790689,214.091 42.0934061,214.13 41.6600706,214.13 C40.6547322,214.13 39.8985731,213.81367 39.3915706,213.181 C38.8845681,212.54833 38.6310706,211.651339 38.6310706,210.49 C38.6310706,209.276661 38.8759015,208.35367 39.3655706,207.721 C39.8552397,207.08833 40.5463995,206.772 41.4390706,206.772 Z M41.4650706,208.111 C41.1617357,208.111 40.9125716,208.234499 40.7175706,208.4815 C40.5225696,208.728501 40.416404,209.129331 40.3990706,209.684 L42.4790706,209.684 C42.4790706,209.207331 42.3924048,208.826001 42.2190706,208.54 C42.0457364,208.253999 41.7944056,208.111 41.4650706,208.111 Z M57.3550471,204.718 L55.3790471,214 L53.2730471,214 L52.2980471,209.45 L52.1566072,208.647121 L52.1566072,208.647121 L52.1160471,208.4035 C52.0467134,207.983165 51.9947139,207.586669 51.9600471,207.214 C51.9427136,207.404668 51.9145473,207.636499 51.8755471,207.9095 L51.8137971,208.319 L51.8137971,208.319 L51.7455471,208.7285 C51.6978802,209.001501 51.6567139,209.237666 51.6220471,209.437 L50.6470471,214 L48.5540471,214 L46.5650471,204.718 L48.3590471,204.718 L49.3080471,209.528 L49.4092032,210.097156 L49.4092032,210.097156 L49.4445471,210.3145 C49.492214,210.613501 49.5377135,210.912499 49.5810471,211.2115 L49.6561582,211.771944 C49.6667507,211.859092 49.6763803,211.943111 49.6850471,212.024 C49.7197139,211.755332 49.7608802,211.469335 49.8085471,211.166 L49.8816721,210.719125 L49.8816721,210.719125 L50.0880471,209.58 L50.0880471,209.58 L51.1670471,204.718 L52.7660471,204.718 L53.7930471,209.567 C53.8255472,209.716501 53.8592658,209.890375 53.8942032,210.088625 L54.0010471,210.7305 L54.0010471,210.7305 L54.0725471,211.179 C54.120214,211.482335 54.1613802,211.763999 54.1960471,212.024 C54.2237805,211.732799 54.2639935,211.408321 54.3166869,211.050561 L54.3585471,210.776 C54.4322141,210.307998 54.5037134,209.892002 54.5730471,209.528 L55.5350471,204.718 L57.3550471,204.718 Z M60.1910353,206.772 C61.0403729,206.772 61.7011996,207.057997 62.1735353,207.63 C62.645871,208.202003 62.8820353,208.986328 62.8820353,209.983 L62.8820353,210.932 L59.1380353,210.932 C59.1553687,212.128006 59.6450305,212.726 60.6070353,212.726 C60.9537037,212.726 61.2787004,212.687 61.5820353,212.609 C61.8853701,212.531 62.2017003,212.396668 62.5310353,212.206 L62.5310353,213.636 C62.2277004,213.809334 61.907037,213.935 61.5690353,214.013 C61.2310336,214.091 60.8453708,214.13 60.4120353,214.13 C59.4066969,214.13 58.6505378,213.81367 58.1435353,213.181 C57.6365328,212.54833 57.3830353,211.651339 57.3830353,210.49 C57.3830353,209.276661 57.6278662,208.35367 58.1175353,207.721 C58.6072044,207.08833 59.2983642,206.772 60.1910353,206.772 Z M60.2170353,208.111 C59.9137004,208.111 59.6645363,208.234499 59.4695353,208.4815 C59.2745343,208.728501 59.1683687,209.129331 59.1510353,209.684 L61.2310353,209.684 C61.2310353,209.207331 61.1443695,208.826001 60.9710353,208.54 C60.7977011,208.253999 60.5463703,208.111 60.2170353,208.111 Z M65.7700235,214 L64.0150235,214 L64.0150235,204.12 L65.7700235,204.12 L65.7700235,214 Z M69.7760118,212.622 C70.0706799,212.622 70.3783435,212.557001 70.6990118,212.427 L70.6990118,213.805 C70.4996774,213.900334 70.276513,213.978333 70.0295118,214.039 C69.7825105,214.099667 69.5160132,214.13 69.2300118,214.13 C68.6146754,214.13 68.1488467,213.952335 67.8325118,213.597 C67.5161768,213.241665 67.3580118,212.661004 67.3580118,211.855 L67.3580118,208.306 L66.5910118,208.306 L66.5910118,207.435 L67.4880118,206.928 L67.9430118,205.394 L69.1130118,205.394 L69.1130118,206.889 L70.6080118,206.889 L70.6080118,208.306 L69.1130118,208.306 L69.1130118,211.803 C69.1130118,212.349003 69.3340096,212.622 69.7760118,212.622 Z" id="y-labels-1"></path>
			<path d="M24.8882353,114 L20.3642353,114 L20.3642353,104.718 L24.8882353,104.718 L24.8882353,106.265 L22.1972353,106.265 L22.1972353,108.41 L24.6932353,108.41 L24.6932353,109.957 L22.1972353,109.957 L22.1972353,112.427 L24.8882353,112.427 L24.8882353,114 Z M27.6847647,114 L25.5267647,106.889 L27.3597647,106.889 L28.3347647,110.737 C28.4040984,110.988335 28.4582645,111.239665 28.4972647,111.491 C28.5362649,111.742335 28.5687646,111.993665 28.5947647,112.245 L28.6467647,112.245 C28.6554314,112.045666 28.6792645,111.824668 28.7182647,111.582 C28.7572649,111.339332 28.811431,111.079335 28.8807647,110.802 L29.8947647,106.889 L31.7277647,106.889 L29.5697647,114 L27.6847647,114 Z M38.0472941,110.425 C38.0472941,111.127004 37.9411285,111.757497 37.7287941,112.3165 C37.5164597,112.875503 37.1936296,113.317498 36.7602941,113.6425 C36.3269586,113.967502 35.7722975,114.13 35.0962941,114.13 C34.472291,114.13 33.9436296,113.967502 33.5102941,113.6425 C33.0769586,113.317498 32.7497952,112.875503 32.5287941,112.3165 C32.307793,111.757497 32.1972941,111.127004 32.1972941,110.425 C32.1972941,109.68833 32.3034597,109.047003 32.5157941,108.501 C32.7281285,107.954997 33.0509586,107.528168 33.4842941,107.2205 C33.9176296,106.912832 34.4679574,106.759 35.1352941,106.759 C36.0106318,106.759 36.7147915,107.07533 37.2477941,107.708 C37.7807968,108.34067 38.0472941,109.246327 38.0472941,110.425 Z M33.9912941,110.451 C33.9912941,111.179004 34.0801266,111.729331 34.2577941,112.102 C34.4354617,112.474669 34.7236255,112.661 35.1222941,112.661 C35.5209628,112.661 35.8069599,112.474669 35.9802941,112.102 C36.1536283,111.729331 36.2402941,111.170337 36.2402941,110.425 C36.2402941,109.68833 36.1536283,109.138002 35.9802941,108.774 C35.8069599,108.409998 35.5209628,108.228 35.1222941,108.228 C34.7236255,108.228 34.4354617,108.412165 34.2577941,108.7805 C34.0801266,109.148835 33.9912941,109.705663 33.9912941,110.451 Z M41.1298235,114 L39.3748235,114 L39.3748235,104.12 L41.1298235,104.12 L41.1298235,114 Z M48.2163529,106.889 L48.2163529,114 L46.8513529,114 L46.6303529,113.09 L46.5393529,113.09 C46.357352,113.436668 46.1146878,113.696666 45.8113529,113.87 C45.5080181,114.043334 45.1656882,114.13 44.7843529,114.13 C44.1170163,114.13 43.6035214,113.909002 43.2438529,113.467 C42.8841845,113.024998 42.7043529,112.379338 42.7043529,111.53 L42.7043529,106.889 L44.4723529,106.889 L44.4723529,111.036 C44.4723529,111.556003 44.5351856,111.948165 44.6608529,112.2125 C44.7865202,112.476835 44.9966848,112.609 45.2913529,112.609 C45.7593553,112.609 46.0713522,112.420502 46.2273529,112.0435 C46.3833537,111.666498 46.4613529,111.127004 46.4613529,110.425 L46.4613529,106.889 L48.2163529,106.889 Z M52.4168824,112.622 C52.7115505,112.622 53.0192141,112.557001 53.3398824,112.427 L53.3398824,113.805 C53.140548,113.900334 52.9173836,113.978333 52.6703824,114.039 C52.4233811,114.099667 52.1568838,114.13 51.8708824,114.13 C51.2555459,114.13 50.7897173,113.952335 50.4733824,113.597 C50.1570474,113.241665 49.9988824,112.661004 49.9988824,111.855 L49.9988824,108.306 L49.2318824,108.306 L49.2318824,107.435 L50.1288824,106.928 L50.5838824,105.394 L51.7538824,105.394 L51.7538824,106.889 L53.2488824,106.889 L53.2488824,108.306 L51.7538824,108.306 L51.7538824,111.803 C51.7538824,112.349003 51.9748801,112.622 52.4168824,112.622 Z M55.3174118,104.107 C55.9587483,104.107 56.2794118,104.427663 56.2794118,105.069 C56.2794118,105.389668 56.1949126,105.627999 56.0259118,105.784 C55.8569109,105.940001 55.6207466,106.018 55.3174118,106.018 C55.0227436,106.018 54.788746,105.940001 54.6154118,105.784 C54.4420776,105.627999 54.3554118,105.389668 54.3554118,105.069 C54.3554118,104.730998 54.4399109,104.486167 54.6089118,104.3345 C54.7779126,104.182833 55.0140769,104.107 55.3174118,104.107 Z M56.2014118,106.889 L56.2014118,114 L54.4334118,114 L54.4334118,106.889 L56.2014118,106.889 Z M63.3659412,110.425 C63.3659412,111.127004 63.2597756,111.757497 63.0474412,112.3165 C62.8351068,112.875503 62.5122767,113.317498 62.0789412,113.6425 C61.6456057,113.967502 61.0909446,114.13 60.4149412,114.13 C59.7909381,114.13 59.2622767,113.967502 58.8289412,113.6425 C58.3956057,113.317498 58.0684423,112.875503 57.8474412,112.3165 C57.6264401,111.757497 57.5159412,111.127004 57.5159412,110.425 C57.5159412,109.68833 57.6221068,109.047003 57.8344412,108.501 C58.0467756,107.954997 58.3696057,107.528168 58.8029412,107.2205 C59.2362767,106.912832 59.7866045,106.759 60.4539412,106.759 C61.3292789,106.759 62.0334385,107.07533 62.5664412,107.708 C63.0994438,108.34067 63.3659412,109.246327 63.3659412,110.425 Z M59.3099412,110.451 C59.3099412,111.179004 59.3987736,111.729331 59.5764412,112.102 C59.7541087,112.474669 60.0422725,112.661 60.4409412,112.661 C60.8396098,112.661 61.125607,112.474669 61.2989412,112.102 C61.4722754,111.729331 61.5589412,111.170337 61.5589412,110.425 C61.5589412,109.68833 61.4722754,109.138002 61.2989412,108.774 C61.125607,108.409998 60.8396098,108.228 60.4409412,108.228 C60.0422725,108.228 59.7541087,108.412165 59.5764412,108.7805 C59.3987736,109.148835 59.3099412,109.705663 59.3099412,110.451 Z M68.1384706,106.759 C68.7798071,106.759 69.2846354,106.973498 69.6529706,107.4025 C70.0213058,107.831502 70.2054706,108.470662 70.2054706,109.32 L70.2054706,114 L68.4374706,114 L68.4374706,109.814 C68.4374706,109.311331 68.3746379,108.930001 68.2489706,108.67 C68.1233033,108.409999 67.9044721,108.28 67.5924706,108.28 C67.1591351,108.28 66.8601381,108.461998 66.6954706,108.826 C66.5308031,109.190002 66.4484706,109.783663 66.4484706,110.607 L66.4484706,114 L64.6934706,114 L64.6934706,106.889 L66.0714706,106.889 L66.2794706,107.799 L66.3834706,107.799 C66.5568048,107.452332 66.7973024,107.192334 67.1049706,107.019 C67.4126388,106.845666 67.7571353,106.759 68.1384706,106.759 Z" id="y-labels-2"></path>
			<path d="M8.24334118,7.216 C8.24334118,8.76734109 7.8880114,9.9524959 7.17734118,10.7715 C6.46667096,11.5905041 5.4526811,12 4.13534118,12 L1.82134118,12 L1.82134118,2.718 L4.31734118,2.718 C5.548014,2.718 6.51000438,3.10149616 7.20334118,3.8685 C7.89667798,4.63550383 8.24334118,5.75132601 8.24334118,7.216 Z M6.34534118,7.281 C6.34534118,6.24966151 6.17417622,5.49133576 5.83184118,5.006 C5.48950613,4.52066424 4.98901114,4.278 4.33034118,4.278 L3.65434118,4.278 L3.65434118,10.414 L4.18734118,10.414 C4.92401153,10.414 5.46783942,10.1561692 5.81884118,9.6405 C6.16984293,9.12483075 6.34534118,8.33833862 6.34534118,7.281 Z M10.5617765,2.107 C11.203113,2.107 11.5237765,2.42766346 11.5237765,3.069 C11.5237765,3.38966827 11.4392773,3.62799922 11.2702765,3.784 C11.1012756,3.94000078 10.8651113,4.018 10.5617765,4.018 C10.2671083,4.018 10.0331107,3.94000078 9.85977647,3.784 C9.68644227,3.62799922 9.59977647,3.38966827 9.59977647,3.069 C9.59977647,2.73099831 9.68427563,2.48616742 9.85327647,2.3345 C10.0222773,2.18283257 10.2584416,2.107 10.5617765,2.107 Z M11.4457765,4.889 L11.4457765,12 L9.67777647,12 L9.67777647,4.889 L11.4457765,4.889 Z M15.0642118,4.759 C15.4368803,4.759 15.7553771,4.83916587 16.0197118,4.9995 C16.2840464,5.15983413 16.5202107,5.42633147 16.7282118,5.799 L16.8192118,5.799 L16.9622118,4.889 L18.4702118,4.889 L18.4702118,11.753 C18.4702118,12.8363387 18.212381,13.6683304 17.6967118,14.249 C17.1810425,14.8296696 16.3772172,15.12 15.2852118,15.12 C14.470541,15.12 13.7512149,14.9640016 13.1272118,14.652 L13.1272118,13.144 C13.8465487,13.4993351 14.5658748,13.677 15.2852118,13.677 C15.7358807,13.677 16.0868772,13.5621678 16.3382118,13.3325 C16.5895464,13.1028322 16.7152118,12.719336 16.7152118,12.182 L16.7152118,12.052 C16.7152118,11.9595551 16.7171377,11.8565186 16.7209895,11.7428891 L16.7282118,11.5645 C16.7368785,11.3781657 16.7498783,11.2113341 16.7672118,11.064 L16.7152118,11.064 C16.5072107,11.4366685 16.2645465,11.7074992 15.9872118,11.8765 C15.709877,12.0455008 15.3848803,12.13 15.0122118,12.13 C14.3102083,12.13 13.7620471,11.8093365 13.3677118,11.168 C12.9733765,10.5266635 12.7762118,9.62967243 12.7762118,8.477 C12.7762118,7.29832744 12.9777097,6.38400325 13.3807118,5.734 C13.7837138,5.08399675 14.3448748,4.759 15.0642118,4.759 Z M15.5972118,6.267 C14.9125417,6.267 14.5702118,7.01232588 14.5702118,8.503 C14.5702118,9.93300715 14.9212083,10.648 15.6232118,10.648 C16.004547,10.648 16.2883775,10.4963349 16.4747118,10.193 C16.661046,9.88966515 16.7542118,9.40000338 16.7542118,8.724 L16.7542118,8.399 C16.7542118,7.64499623 16.661046,7.10116833 16.4747118,6.7675 C16.2883775,6.43383166 15.9958804,6.267 15.5972118,6.267 Z M20.9316471,2.107 C21.5729836,2.107 21.8936471,2.42766346 21.8936471,3.069 C21.8936471,3.38966827 21.8091479,3.62799922 21.6401471,3.784 C21.4711462,3.94000078 21.2349819,4.018 20.9316471,4.018 C20.6369789,4.018 20.4029813,3.94000078 20.2296471,3.784 C20.0563129,3.62799922 19.9696471,3.38966827 19.9696471,3.069 C19.9696471,2.73099831 20.0541462,2.48616742 20.2231471,2.3345 C20.3921479,2.18283257 20.6283122,2.107 20.9316471,2.107 Z M21.8156471,4.889 L21.8156471,12 L20.0476471,12 L20.0476471,4.889 L21.8156471,4.889 Z M25.9930824,10.622 C26.2877505,10.622 26.5954141,10.5570006 26.9160824,10.427 L26.9160824,11.805 C26.716748,11.9003338 26.4935836,11.978333 26.2465824,12.039 C25.9995811,12.099667 25.7330838,12.13 25.4470824,12.13 C24.8317459,12.13 24.3659173,11.9523351 24.0495824,11.597 C23.7332474,11.2416649 23.5750824,10.661004 23.5750824,9.855 L23.5750824,6.306 L22.8080824,6.306 L22.8080824,5.435 L23.7050824,4.928 L24.1600824,3.394 L25.3300824,3.394 L25.3300824,4.889 L26.8250824,4.889 L26.8250824,6.306 L25.3300824,6.306 L25.3300824,9.803 C25.3300824,10.3490027 25.5510801,10.622 25.9930824,10.622 Z M30.7425176,4.759 C31.5138548,4.759 32.1010156,4.96916456 32.5040176,5.3895 C32.9070197,5.80983543 33.1085176,6.44032913 33.1085176,7.281 L33.1085176,12 L31.8345176,12 L31.5355176,11.051 L31.4965176,11.051 C31.2451831,11.4236685 30.9786857,11.6966658 30.6970176,11.87 C30.4153496,12.0433342 30.0361867,12.13 29.5595176,12.13 C28.9615147,12.13 28.5108525,11.9155021 28.2075176,11.4865 C27.9041828,11.0574979 27.7525176,10.5266698 27.7525176,9.894 C27.7525176,9.14866294 27.9756821,8.58966853 28.4220176,8.217 C28.8683532,7.84433147 29.5161801,7.64066684 30.3655176,7.606 L31.3535176,7.567 L31.3535176,7.281 C31.3535176,6.52699623 31.0588539,6.15 30.4695176,6.15 C30.2268498,6.15 29.9711857,6.19116625 29.7025176,6.2735 C29.4338496,6.35583374 29.1521858,6.47933251 28.8575176,6.644 L28.3375176,5.37 C29.0308544,4.96266463 29.8325131,4.759 30.7425176,4.759 Z M31.3535176,8.698 L30.7815176,8.724 C30.3481821,8.74133342 30.031852,8.84533238 29.8325176,9.036 C29.6331833,9.22666762 29.5335176,9.4953316 29.5335176,9.842 C29.5335176,10.1626683 29.598517,10.3944993 29.7285176,10.5375 C29.8585183,10.6805007 30.0361832,10.752 30.2615176,10.752 C30.5735192,10.752 30.8335166,10.6263346 31.0415176,10.375 C31.2495187,10.1236654 31.3535176,9.77700221 31.3535176,9.335 L31.3535176,8.698 Z M36.4279529,12 L34.6729529,12 L34.6729529,2.12 L36.4279529,2.12 L36.4279529,12 Z M40.5793882,4.772 C41.4287258,4.772 42.0895525,5.05799714 42.5618882,5.63 C43.0342239,6.20200286 43.2703882,6.98632835 43.2703882,7.983 L43.2703882,8.932 L39.5263882,8.932 C39.5437217,10.128006 40.0333834,10.726 40.9953882,10.726 C41.3420566,10.726 41.6670534,10.6870004 41.9703882,10.609 C42.2737231,10.5309996 42.5900533,10.3966676 42.9193882,10.206 L42.9193882,11.636 C42.6160534,11.8093342 42.2953899,11.9349996 41.9573882,12.013 C41.6193865,12.0910004 41.2337237,12.13 40.8003882,12.13 C39.7950499,12.13 39.0388908,11.8136698 38.5318882,11.181 C38.0248857,10.5483302 37.7713882,9.65133914 37.7713882,8.49 C37.7713882,7.2766606 38.0162191,6.35366983 38.5058882,5.721 C38.9955574,5.08833017 39.6867171,4.772 40.5793882,4.772 Z M40.6053882,6.111 C40.3020534,6.111 40.0528892,6.23449876 39.8578882,6.4815 C39.6628873,6.72850123 39.5567217,7.12933056 39.5393882,7.684 L41.6193882,7.684 C41.6193882,7.20733095 41.5327224,6.82600143 41.3593882,6.54 C41.186054,6.25399857 40.9347232,6.111 40.6053882,6.111 Z M56.8382588,2.718 L54.8622588,12 L52.7562588,12 L51.7812588,7.45 L51.6398189,6.64712067 L51.6398189,6.64712067 L51.5992588,6.4035 C51.5299251,5.98316456 51.4779257,5.58666853 51.4432588,5.214 L51.4091339,5.53087485 C51.3950506,5.64679122 51.3782589,5.77299932 51.3587588,5.9095 L51.2970088,6.319 L51.2970088,6.319 L51.1052588,7.437 L51.1052588,7.437 L50.1302588,12 L48.0372588,12 L46.0482588,2.718 L47.8422588,2.718 L48.7912588,7.528 L48.892415,8.09715578 L48.892415,8.09715578 L48.9277588,8.3145 C48.9754257,8.61350149 49.0209253,8.91249851 49.0642588,9.2115 L49.1393699,9.77194424 C49.1499625,9.85909222 49.1595921,9.94311071 49.1682588,10.024 L49.2462588,9.46355593 C49.2607032,9.36629682 49.2758699,9.26711162 49.2917588,9.166 L49.3648838,8.71912496 L49.3648838,8.71912496 L49.5712588,7.58 L49.5712588,7.58 L50.6502588,2.718 L52.2492588,2.718 L53.2762588,7.567 C53.308759,7.71650075 53.3424775,7.89037457 53.377415,8.08862454 L53.4842588,8.73049997 L53.4842588,8.73049997 L53.5557588,9.179 C53.6034257,9.48233485 53.644592,9.7639987 53.6792588,10.024 C53.7069923,9.73279854 53.7472053,9.40832092 53.7998987,9.05056072 L53.8417588,8.776 C53.9154259,8.30799766 53.9869251,7.89200182 54.0562588,7.528 L55.0182588,2.718 L56.8382588,2.718 Z M59.8586941,4.772 C60.7080317,4.772 61.3688584,5.05799714 61.8411941,5.63 C62.3135298,6.20200286 62.5496941,6.98632835 62.5496941,7.983 L62.5496941,8.932 L58.8056941,8.932 C58.8230275,10.128006 59.3126893,10.726 60.2746941,10.726 C60.6213625,10.726 60.9463593,10.6870004 61.2496941,10.609 C61.553029,10.5309996 61.8693591,10.3966676 62.1986941,10.206 L62.1986941,11.636 C61.8953593,11.8093342 61.5746958,11.9349996 61.2366941,12.013 C60.8986924,12.0910004 60.5130296,12.13 60.0796941,12.13 C59.0743558,12.13 58.3181967,11.8136698 57.8111941,11.181 C57.3041916,10.5483302 57.0506941,9.65133914 57.0506941,8.49 C57.0506941,7.2766606 57.295525,6.35366983 57.7851941,5.721 C58.2748632,5.08833017 58.966023,4.772 59.8586941,4.772 Z M59.8846941,6.111 C59.5813593,6.111 59.3321951,6.23449876 59.1371941,6.4815 C58.9421931,6.72850123 58.8360275,7.12933056 58.8186941,7.684 L60.8986941,7.684 C60.8986941,7.20733095 60.8120283,6.82600143 60.6386941,6.54 C60.4653599,6.25399857 60.2140291,6.111 59.8846941,6.111 Z M65.6221294,12 L63.8671294,12 L63.8671294,2.12 L65.6221294,2.12 L65.6221294,12 Z M69.7995647,10.622 C70.0942328,10.622 70.4018964,10.5570006 70.7225647,10.427 L70.7225647,11.805 C70.5232304,11.9003338 70.3000659,11.978333 70.0530647,12.039 C69.8060635,12.099667 69.5395661,12.13 69.2535647,12.13 C68.6382283,12.13 68.1723996,11.9523351 67.8560647,11.597 C67.5397298,11.2416649 67.3815647,10.661004 67.3815647,9.855 L67.3815647,6.306 L66.6145647,6.306 L66.6145647,5.435 L67.5115647,4.928 L67.9665647,3.394 L69.1365647,3.394 L69.1365647,4.889 L70.6315647,4.889 L70.6315647,6.306 L69.1365647,6.306 L69.1365647,9.803 C69.1365647,10.3490027 69.3575625,10.622 69.7995647,10.622 Z" id="y-labels-3"></path>
		</g>
		<path id="pfeil-1" d="M362.5,203.5 L353.982062,216.631821 L350.94,211.46 L311.145086,234.868954 L310.131046,233.145086 L349.926,209.736 L346.88378,204.564742 L362.5,203.5 Z" fill="#5C5C5B" fill-rule="nonzero"></path>
		<g id="Group" transform="translate(210.621401, -14.772637)">
			<path d="M1,146.105542 C42.3831806,93.5736838 88.5003889,67.3320617 139.351625,67.3806753 C190.202861,67.4300141 240.633432,90.6932115 290.643339,137.170268" id="pfeil-3" stroke="#5C5C5B" stroke-width="2" stroke-linecap="square" transform="translate(145.821669, 106.743109) rotate(-30.000000) translate(-145.821669, -106.743109) "></path>
			<polygon id="pfeil-3-1" fill="#5C5C5B" transform="translate(293.197796, 61.999020) rotate(102.000000) translate(-293.197796, -61.999020) " points="293.237582 55 300.157366 68.9980403 286.238226 68.9685343"></polygon>
		</g>
		<path id="pfeil-2" d="M523.5,109.5 L514.982062,122.631821 L511.94,117.46 L472.145086,140.868954 L471.131046,139.145086 L510.926,115.736 L507.88378,110.564742 L523.5,109.5 Z" fill="#5C5C5B" fill-rule="nonzero"></path>
		<g id="einzahlungsschein" transform="translate(201.000000, 220.000000)">
			<circle id="Oval" fill="#ADA398" cx="50" cy="50" r="50"></circle>
			<path d="M16.22,45.415 L11,45.415 L11,34.705 L16.22,34.705 L16.22,36.49 L13.115,36.49 L13.115,38.965 L15.995,38.965 L15.995,40.75 L13.115,40.75 L13.115,43.6 L16.22,43.6 L16.22,45.415 Z M18.89,34 C19.6300037,34 20,34.3699963 20,35.11 C20,35.4800019 19.902501,35.7549991 19.7075,35.935 C19.512499,36.1150009 19.2400017,36.205 18.89,36.205 C18.5499983,36.205 18.28,36.1150009 18.08,35.935 C17.879999,35.7549991 17.78,35.4800019 17.78,35.11 C17.78,34.7199981 17.877499,34.4375009 18.0725,34.2625 C18.267501,34.0874991 18.5399983,34 18.89,34 Z M19.91,37.21 L19.91,45.415 L17.87,45.415 L17.87,37.21 L19.91,37.21 Z M25.775,37.06 C26.5150037,37.06 27.0974979,37.3074975 27.5225,37.8025 C27.9475021,38.2975025 28.16,39.0349951 28.16,40.015 L28.16,45.415 L26.12,45.415 L26.12,40.585 C26.12,40.0049971 26.0475007,39.5650015 25.9025,39.265 C25.7574993,38.9649985 25.5050018,38.815 25.145,38.815 C24.6449975,38.815 24.3,39.0249979 24.11,39.445 C23.9199991,39.8650021 23.825,40.5499953 23.825,41.5 L23.825,45.415 L21.8,45.415 L21.8,37.21 L23.39,37.21 L23.63,38.26 L23.75,38.26 C23.950001,37.859998 24.2274982,37.56 24.5825,37.36 C24.9375018,37.159999 25.3349978,37.06 25.775,37.06 Z M34.73,45.415 L29.405,45.415 L29.405,44.17 L32.33,38.875 L29.585,38.875 L29.585,37.21 L34.595,37.21 L34.595,38.575 L31.79,43.765 L34.73,43.765 L34.73,45.415 Z M39.005,37.06 C39.8950044,37.06 40.5724977,37.3024976 41.0375,37.7875 C41.5025023,38.2725024 41.735,38.9999952 41.735,39.97 L41.735,45.415 L40.265,45.415 L39.92,44.32 L39.875,44.32 C39.5849985,44.7500022 39.2775016,45.064999 38.9525,45.265 C38.6274984,45.465001 38.1900028,45.565 37.64,45.565 C36.9499965,45.565 36.4300017,45.3175025 36.08,44.8225 C35.7299983,44.3274975 35.555,43.7150036 35.555,42.985 C35.555,42.1249957 35.8124974,41.4800021 36.3275,41.05 C36.8425026,40.6199978 37.5899951,40.3850002 38.57,40.345 L39.71,40.3 L39.71,39.97 C39.71,39.0999956 39.3700034,38.665 38.69,38.665 C38.4099986,38.665 38.1150016,38.7124995 37.805,38.8075 C37.4949984,38.9025005 37.1700017,39.0449991 36.83,39.235 L36.23,37.765 C37.030004,37.2949976 37.9549947,37.06 39.005,37.06 Z M39.71,41.605 L39.05,41.635 C38.5499975,41.6550001 38.1850011,41.7749989 37.955,41.995 C37.7249988,42.2150011 37.61,42.524998 37.61,42.925 C37.61,43.2950018 37.6849992,43.5624992 37.835,43.7275 C37.9850007,43.8925008 38.1899987,43.975 38.45,43.975 C38.8100018,43.975 39.11,43.8300014 39.35,43.54 C39.5900012,43.2499986 39.71,42.8500025 39.71,42.34 L39.71,41.605 Z M45.62,34.015 L45.62,36.49 C45.62,36.8100016 45.6100001,37.1274984 45.59,37.4425 C45.5699999,37.7575016 45.5350002,38.0299988 45.485,38.26 L45.605,38.26 C45.795001,37.859998 46.0599983,37.560001 46.4,37.36 C46.7400017,37.159999 47.1249978,37.06 47.555,37.06 C48.3150038,37.06 48.9049979,37.3074975 49.325,37.8025 C49.7450021,38.2975025 49.955,39.0349951 49.955,40.015 L49.955,45.415 L47.915,45.415 L47.915,40.585 C47.915,39.984997 47.8400008,39.5425014 47.69,39.2575 C47.5399992,38.9724986 47.3000016,38.83 46.97,38.83 C46.4499974,38.83 46.095,39.0499978 45.905,39.49 C45.7149991,39.9300022 45.62,40.5999955 45.62,41.5 L45.62,45.415 L43.595,45.415 L43.595,34.015 L45.62,34.015 Z M53.84,45.415 L51.815,45.415 L51.815,34.015 L53.84,34.015 L53.84,45.415 Z M62.06,37.21 L62.06,45.415 L60.485,45.415 L60.23,44.365 L60.125,44.365 C59.914999,44.765002 59.6350018,45.064999 59.285,45.265 C58.9349983,45.465001 58.5400022,45.565 58.1,45.565 C57.3299962,45.565 56.7375021,45.3100026 56.3225,44.8 C55.9074979,44.2899975 55.7,43.5450049 55.7,42.565 L55.7,37.21 L57.74,37.21 L57.74,41.995 C57.74,42.595003 57.8124993,43.0474985 57.9575,43.3525 C58.1025007,43.6575015 58.3449983,43.81 58.685,43.81 C59.2250027,43.81 59.5849991,43.5925022 59.765,43.1575 C59.9450009,42.7224978 60.035,42.1000041 60.035,41.29 L60.035,37.21 L62.06,37.21 Z M67.925,37.06 C68.6650037,37.06 69.2474979,37.3074975 69.6725,37.8025 C70.0975021,38.2975025 70.31,39.0349951 70.31,40.015 L70.31,45.415 L68.27,45.415 L68.27,40.585 C68.27,40.0049971 68.1975007,39.5650015 68.0525,39.265 C67.9074993,38.9649985 67.6550018,38.815 67.295,38.815 C66.7949975,38.815 66.45,39.0249979 66.26,39.445 C66.069999,39.8650021 65.975,40.5499953 65.975,41.5 L65.975,45.415 L63.95,45.415 L63.95,37.21 L65.54,37.21 L65.78,38.26 L65.9,38.26 C66.100001,37.859998 66.3774982,37.56 66.7325,37.36 C67.0875018,37.159999 67.4849978,37.06 67.925,37.06 Z M74.45,37.06 C74.8800021,37.06 75.2474985,37.1524991 75.5525,37.3375 C75.8575015,37.5225009 76.1299988,37.8299978 76.37,38.26 L76.475,38.26 L76.64,37.21 L78.38,37.21 L78.38,45.13 C78.38,46.3800063 78.082503,47.3399967 77.4875,48.01 C76.892497,48.6800034 75.9650063,49.015 74.705,49.015 C73.7649953,49.015 72.9350036,48.8350018 72.215,48.475 L72.215,46.735 C73.0450041,47.1450021 73.8749958,47.35 74.705,47.35 C75.2250026,47.35 75.6299985,47.2175013 75.92,46.9525 C76.2100014,46.6874987 76.355,46.2450031 76.355,45.625 L76.355,45.475 C76.355,45.3149992 76.3599999,45.1275011 76.37,44.9125 C76.38,44.6974989 76.3949999,44.5050009 76.415,44.335 L76.355,44.335 C76.1149988,44.7650022 75.8350016,45.077499 75.515,45.2725 C75.1949984,45.467501 74.8200021,45.565 74.39,45.565 C73.5799959,45.565 72.9475023,45.1950037 72.4925,44.455 C72.0374977,43.7149963 71.81,42.6800067 71.81,41.35 C71.81,39.9899932 72.0424977,38.9350037 72.5075,38.185 C72.9725023,37.4349962 73.6199958,37.06 74.45,37.06 Z M75.065,38.8 C74.274996,38.8 73.88,39.6599914 73.88,41.38 C73.88,43.0300083 74.2849959,43.855 75.095,43.855 C75.5350022,43.855 75.8624989,43.6800017 76.0775,43.33 C76.2925011,42.9799983 76.4,42.4150039 76.4,41.635 L76.4,41.26 C76.4,40.3899956 76.2925011,39.7625019 76.0775,39.3775 C75.8624989,38.9924981 75.5250023,38.8 75.065,38.8 Z M85.04,43 C85.04,43.8300042 84.7875025,44.4649978 84.2825,44.905 C83.7774975,45.3450022 83.0650046,45.565 82.145,45.565 C81.6949977,45.565 81.2825019,45.5275004 80.9075,45.4525 C80.5324981,45.3774996 80.1750017,45.2600008 79.835,45.1 L79.835,43.225 C80.1550016,43.4050009 80.512498,43.56 80.9075,43.69 C81.302502,43.8200006 81.6799982,43.885 82.04,43.885 C82.6900032,43.885 83.015,43.6400024 83.015,43.15 C83.015,43.0199993 82.9825003,42.8950006 82.9175,42.775 C82.8524997,42.6549994 82.722501,42.5300006 82.5275,42.4 C82.332499,42.2699993 82.030002,42.105001 81.62,41.905 C81.029997,41.6149986 80.5825015,41.2775019 80.2775,40.8925 C79.9724985,40.5074981 79.82,40.0000031 79.82,39.37 C79.82,38.6399963 80.0649975,38.072502 80.555,37.6675 C81.0450024,37.262498 81.7149957,37.06 82.565,37.06 C82.9950021,37.06 83.4024981,37.1149994 83.7875,37.225 C84.1725019,37.3350005 84.559998,37.494999 84.95,37.705 L84.365,39.235 C84.0849986,39.0749992 83.8000014,38.9400006 83.51,38.83 C83.2199985,38.7199994 82.9250015,38.665 82.625,38.665 C82.0849973,38.665 81.815,38.8699979 81.815,39.28 C81.815,39.4200007 81.8474997,39.5424995 81.9125,39.6475 C81.9775003,39.7525005 82.107499,39.8649994 82.3025,39.985 L82.5283333,40.12 C82.699444,40.2199998 82.9116654,40.3399993 83.165,40.48 C83.7250028,40.7700015 84.1774983,41.0999981 84.5225,41.47 C84.8675017,41.8400019 85.04,42.3499968 85.04,43 Z M85.925,42.325 L85.925,40.465 L89.72,40.465 L89.72,42.325 L85.925,42.325 Z M35.495,63 C35.495,63.8300042 35.2425025,64.4649978 34.7375,64.905 C34.2324975,65.3450022 33.5200046,65.565 32.6,65.565 C32.1499977,65.565 31.7375019,65.5275004 31.3625,65.4525 C30.9874981,65.3774996 30.6300017,65.2600008 30.29,65.1 L30.29,63.225 C30.6100016,63.4050009 30.967498,63.56 31.3625,63.69 C31.757502,63.8200007 32.1349982,63.885 32.495,63.885 C33.1450033,63.885 33.47,63.6400025 33.47,63.15 C33.47,63.0199994 33.4375003,62.8950006 33.3725,62.775 C33.3074997,62.6549994 33.177501,62.5300007 32.9825,62.4 C32.787499,62.2699994 32.4850021,62.105001 32.075,61.905 C31.484997,61.6149986 31.0375015,61.2775019 30.7325,60.8925 C30.4274985,60.5074981 30.275,60.0000031 30.275,59.37 C30.275,58.6399964 30.5199975,58.072502 31.01,57.6675 C31.5000024,57.262498 32.1699957,57.06 33.02,57.06 C33.4500022,57.06 33.8574981,57.1149994 34.2425,57.225 C34.6275019,57.3350006 35.0149981,57.4949989 35.405,57.705 L34.82,59.235 C34.5399986,59.0749992 34.2550015,58.9400006 33.965,58.83 C33.6749985,58.7199995 33.3800015,58.665 33.08,58.665 C32.5399973,58.665 32.27,58.8699979 32.27,59.28 C32.27,59.4200007 32.3024997,59.5424995 32.3675,59.6475 C32.4325003,59.7525005 32.562499,59.8649994 32.7575,59.985 L32.9833333,60.12 C33.154444,60.2199998 33.3666654,60.3399993 33.62,60.48 C34.1800028,60.7700015 34.6324983,61.0999982 34.9775,61.47 C35.3225017,61.8400019 35.495,62.3499968 35.495,63 Z M39.83,65.565 C38.7399945,65.565 37.9175028,65.2225034 37.3625,64.5375 C36.8074972,63.8524966 36.53,62.7900072 36.53,61.35 C36.53,60.0299934 36.8149972,58.9850038 37.385,58.215 C37.9550028,57.4449962 38.7949945,57.06 39.905,57.06 C40.3550022,57.06 40.7574982,57.1099995 41.1125,57.21 C41.4675018,57.3100005 41.7899985,57.4449992 42.08,57.615 L41.495,59.22 C41.2349987,59.0899993 40.9825012,58.9850004 40.7375,58.905 C40.4924988,58.8249996 40.2500012,58.785 40.01,58.785 C39.0699953,58.785 38.6,59.6399915 38.6,61.35 C38.6,63.0100083 39.0749953,63.84 40.025,63.84 C40.3650017,63.84 40.6874985,63.7850006 40.9925,63.675 C41.2975015,63.5649995 41.5949985,63.410001 41.885,63.21 L41.885,64.95 C41.3249972,65.3600021 40.6400041,65.565 39.83,65.565 Z M45.425,54.015 L45.425,56.49 C45.425,56.8100016 45.4150001,57.1274984 45.395,57.4425 C45.3749999,57.7575016 45.3400002,58.0299988 45.29,58.26 L45.41,58.26 C45.6000009,57.859998 45.8649983,57.560001 46.205,57.36 C46.5450017,57.159999 46.9299978,57.06 47.36,57.06 C48.1200038,57.06 48.7099979,57.3074975 49.13,57.8025 C49.5500021,58.2975025 49.76,59.0349951 49.76,60.015 L49.76,65.415 L47.72,65.415 L47.72,60.585 C47.72,59.984997 47.6450007,59.5425014 47.495,59.2575 C47.3449993,58.9724986 47.1050016,58.83 46.775,58.83 C46.2549974,58.83 45.9,59.0499978 45.71,59.49 C45.519999,59.9300022 45.425,60.5999955 45.425,61.5 L45.425,65.415 L43.4,65.415 L43.4,54.015 L45.425,54.015 Z M54.5,57.075 C55.4800049,57.075 56.2424973,57.4049967 56.7875,58.065 C57.3325027,58.7250033 57.605,59.6299943 57.605,60.78 L57.605,61.875 L53.285,61.875 C53.3050001,63.2550069 53.8699945,63.945 54.98,63.945 C55.380002,63.945 55.7549982,63.9000005 56.105,63.81 C56.4550017,63.7199995 56.8199981,63.5650011 57.2,63.345 L57.2,64.995 C56.8499982,65.195001 56.4800019,65.3399996 56.09,65.43 C55.699998,65.5200005 55.2550025,65.565 54.755,65.565 C53.5949942,65.565 52.7225029,65.2000036 52.1375,64.47 C51.5524971,63.7399963 51.26,62.7050067 51.26,61.365 C51.26,59.964993 51.5424972,58.9000037 52.1075,58.17 C52.6725028,57.4399964 53.4699948,57.075 54.5,57.075 Z M54.53,58.62 C54.1799982,58.62 53.8925011,58.7624986 53.6675,59.0475 C53.4424989,59.3325014 53.3200001,59.7949968 53.3,60.435 L55.7,60.435 C55.7,59.8849972 55.600001,59.4450017 55.4,59.115 C55.199999,58.7849984 54.9100019,58.62 54.53,58.62 Z M60.095,54 C60.8350037,54 61.205,54.3699963 61.205,55.11 C61.205,55.4800019 61.107501,55.7549991 60.9125,55.935 C60.717499,56.1150009 60.4450018,56.205 60.095,56.205 C59.7549983,56.205 59.485,56.1150009 59.285,55.935 C59.084999,55.7549991 58.985,55.4800019 58.985,55.11 C58.985,54.7199981 59.082499,54.4375009 59.2775,54.2625 C59.472501,54.0874991 59.7449983,54 60.095,54 Z M61.115,57.21 L61.115,65.415 L59.075,65.415 L59.075,57.21 L61.115,57.21 Z M66.98,57.06 C67.7200037,57.06 68.3024979,57.3074975 68.7275,57.8025 C69.1525021,58.2975025 69.365,59.0349951 69.365,60.015 L69.365,65.415 L67.325,65.415 L67.325,60.585 C67.325,60.0049971 67.2525007,59.5650015 67.1075,59.265 C66.9624993,58.9649985 66.7100018,58.815 66.35,58.815 C65.8499975,58.815 65.505,59.0249979 65.315,59.445 C65.1249991,59.8650021 65.03,60.5499953 65.03,61.5 L65.03,65.415 L63.005,65.415 L63.005,57.21 L64.595,57.21 L64.835,58.26 L64.955,58.26 C65.155001,57.859998 65.4324982,57.56 65.7875,57.36 C66.1425018,57.159999 66.5399978,57.06 66.98,57.06 Z" id="einzahlungsschein-text" fill="#FFFFFF" fill-rule="nonzero"></path>
		</g>
		<g id="qr-rechnung" transform="translate(365.000000, 120.000000)">
			<circle id="Oval" fill="#002C5F" cx="50" cy="50" r="50"></circle>
			<path d="M47.2525,38.505 C47.2525,39.7550063 47.0775017,40.8074957 46.7275,41.6625 C46.3774983,42.5175043 45.8475035,43.1399981 45.1375,43.53 L47.1325,46.425 L44.6275,46.425 L43.1275,44.01 L42.9475,44.01 C42.0174954,44.01 41.252503,43.7750024 40.6525,43.305 C40.052497,42.8349977 39.6075015,42.1850041 39.3175,41.355 C39.0274986,40.5249958 38.8825,39.5700054 38.8825,38.49 C38.8825,36.7399913 39.2324965,35.3875048 39.9325,34.4325 C40.6325035,33.4774952 41.682493,33 43.0825,33 C44.472507,33 45.5149965,33.4774952 46.21,34.4325 C46.9050035,35.3875048 47.2525,36.7449912 47.2525,38.505 Z M41.0875,38.505 C41.0875,39.705006 41.2499984,40.6174969 41.575,41.2425 C41.9000016,41.8675031 42.3974967,42.18 43.0675,42.18 C43.7475034,42.18 44.2474984,41.8725031 44.5675,41.2575 C44.8875016,40.6424969 45.0475,39.7250061 45.0475,38.505 C45.0475,37.2849939 44.8900016,36.3650031 44.575,35.745 C44.2599984,35.1249969 43.7625034,34.815 43.0825,34.815 C42.4024966,34.815 41.9000016,35.1299968 41.575,35.76 C41.2499984,36.3900031 41.0875,37.304994 41.0875,38.505 Z M51.7225,33.165 C52.9925063,33.165 53.9349969,33.4249974 54.55,33.945 C55.1650031,34.4650026 55.4725,35.2499947 55.4725,36.3 C55.4725,36.9800034 55.3275014,37.5574976 55.0375,38.0325 C54.7474986,38.5075024 54.3375027,38.8899986 53.8075,39.18 L56.2975,43.875 L53.9575,43.875 L51.9625,39.705 L51.1675,39.705 L51.1675,43.875 L49.0525,43.875 L49.0525,33.165 L51.7225,33.165 Z M51.6625,34.935 L51.1675,34.935 L51.1675,38.01 L51.7075,38.01 C52.7775053,38.01 53.3125,37.4700054 53.3125,36.39 C53.3125,35.8899975 53.1775013,35.5225012 52.9075,35.2875 C52.6374986,35.0524988 52.2225028,34.935 51.6625,34.935 Z M56.7475,40.785 L56.7475,38.925 L60.5425,38.925 L60.5425,40.785 L56.7475,40.785 Z M21.67,53.165 C22.9400064,53.165 23.8824969,53.4249974 24.4975,53.945 C25.1125031,54.4650026 25.42,55.2499947 25.42,56.3 C25.42,56.9800034 25.2750015,57.5574976 24.985,58.0325 C24.6949986,58.5075024 24.2850027,58.8899986 23.755,59.18 L26.245,63.875 L23.905,63.875 L21.91,59.705 L21.115,59.705 L21.115,63.875 L19,63.875 L19,53.165 L21.67,53.165 Z M21.61,54.935 L21.115,54.935 L21.115,58.01 L21.655,58.01 C22.7250054,58.01 23.26,57.4700054 23.26,56.39 C23.26,55.8899975 23.1250014,55.5225012 22.855,55.2875 C22.5849987,55.0524988 22.1700028,54.935 21.61,54.935 Z M30.085,55.535 C31.0650049,55.535 31.8274973,55.8649967 32.3725,56.525 C32.9175027,57.1850033 33.19,58.0899943 33.19,59.24 L33.19,60.335 L28.87,60.335 C28.8900001,61.7150069 29.4549945,62.405 30.565,62.405 C30.965002,62.405 31.3399983,62.3600005 31.69,62.27 C32.0400018,62.1799995 32.4049981,62.0250011 32.785,61.805 L32.785,63.455 C32.4349982,63.655001 32.065002,63.7999995 31.675,63.89 C31.2849981,63.9800005 30.8400025,64.025 30.34,64.025 C29.1799942,64.025 28.3075029,63.6600036 27.7225,62.93 C27.1374971,62.1999963 26.845,61.1650067 26.845,59.825 C26.845,58.424993 27.1274972,57.3600037 27.6925,56.63 C28.2575028,55.8999964 29.0549948,55.535 30.085,55.535 Z M30.115,57.08 C29.7649983,57.08 29.4775011,57.2224986 29.2525,57.5075 C29.0274989,57.7925014 28.9050001,58.2549968 28.885,58.895 L31.285,58.895 C31.285,58.3449972 31.185001,57.9050017 30.985,57.575 C30.784999,57.2449984 30.4950019,57.08 30.115,57.08 Z M37.6,64.025 C36.5099946,64.025 35.6875028,63.6825034 35.1325,62.9975 C34.5774972,62.3124966 34.3,61.2500072 34.3,59.81 C34.3,58.4899934 34.5849972,57.4450039 35.155,56.675 C35.7250028,55.9049962 36.5649945,55.52 37.675,55.52 C38.1250022,55.52 38.5274982,55.5699995 38.8825,55.67 C39.2375018,55.7700005 39.5599986,55.9049992 39.85,56.075 L39.265,57.68 C39.0049987,57.5499994 38.7525012,57.4450004 38.5075,57.365 C38.2624988,57.2849996 38.0200012,57.245 37.78,57.245 C36.8399953,57.245 36.37,58.0999915 36.37,59.81 C36.37,61.4700083 36.8449952,62.3 37.795,62.3 C38.1350017,62.3 38.4574985,62.2450006 38.7625,62.135 C39.0675015,62.0249994 39.3649985,61.870001 39.655,61.67 L39.655,63.41 C39.0949972,63.820002 38.410004,64.025 37.6,64.025 Z M43.195,52.475 L43.195,54.95 C43.195,55.2700016 43.1850001,55.5874984 43.165,55.9025 C43.1449999,56.2175016 43.1100002,56.4899988 43.06,56.72 L43.18,56.72 C43.370001,56.319998 43.6349983,56.020001 43.975,55.82 C44.3150017,55.619999 44.6999979,55.52 45.13,55.52 C45.8900038,55.52 46.4799979,55.7674975 46.9,56.2625 C47.3200021,56.7575025 47.53,57.4949951 47.53,58.475 L47.53,63.875 L45.49,63.875 L45.49,59.045 C45.49,58.444997 45.4150008,58.0025014 45.265,57.7175 C45.1149992,57.4324986 44.8750017,57.29 44.545,57.29 C44.0249974,57.29 43.67,57.5099978 43.48,57.95 C43.2899991,58.3900022 43.195,59.0599955 43.195,59.96 L43.195,63.875 L41.17,63.875 L41.17,52.475 L43.195,52.475 Z M53.365,55.52 C54.1050037,55.52 54.6874979,55.7674975 55.1125,56.2625 C55.5375021,56.7575025 55.75,57.4949951 55.75,58.475 L55.75,63.875 L53.71,63.875 L53.71,59.045 C53.71,58.4649971 53.6375007,58.0250015 53.4925,57.725 C53.3474993,57.4249985 53.0950018,57.275 52.735,57.275 C52.2349975,57.275 51.89,57.4849979 51.7,57.905 C51.509999,58.3250021 51.415,59.0099953 51.415,59.96 L51.415,63.875 L49.39,63.875 L49.39,55.67 L50.98,55.67 L51.22,56.72 L51.34,56.72 C51.540001,56.319998 51.8174982,56.02 52.1725,55.82 C52.5275018,55.619999 52.9249978,55.52 53.365,55.52 Z M63.94,55.67 L63.94,63.875 L62.365,63.875 L62.11,62.825 L62.005,62.825 C61.794999,63.225002 61.5150017,63.524999 61.165,63.725 C60.8149983,63.925001 60.4200022,64.025 59.98,64.025 C59.2099962,64.025 58.6175021,63.7700026 58.2025,63.26 C57.7874979,62.7499974 57.58,62.0050049 57.58,61.025 L57.58,55.67 L59.62,55.67 L59.62,60.455 C59.62,61.055003 59.6924993,61.5074985 59.8375,61.8125 C59.9825007,62.1175015 60.2249983,62.27 60.565,62.27 C61.1050027,62.27 61.4649991,62.0525022 61.645,61.6175 C61.8250009,61.1824978 61.915,60.5600041 61.915,59.75 L61.915,55.67 L63.94,55.67 Z M69.805,55.52 C70.5450037,55.52 71.1274979,55.7674975 71.5525,56.2625 C71.9775021,56.7575025 72.19,57.4949951 72.19,58.475 L72.19,63.875 L70.15,63.875 L70.15,59.045 C70.15,58.4649971 70.0775007,58.0250015 69.9325,57.725 C69.7874993,57.4249985 69.5350018,57.275 69.175,57.275 C68.6749975,57.275 68.33,57.4849979 68.14,57.905 C67.9499991,58.3250021 67.855,59.0099953 67.855,59.96 L67.855,63.875 L65.83,63.875 L65.83,55.67 L67.42,55.67 L67.66,56.72 L67.78,56.72 C67.980001,56.319998 68.2574982,56.02 68.6125,55.82 C68.9675018,55.619999 69.3649978,55.52 69.805,55.52 Z M76.33,55.52 C76.7600021,55.52 77.1274985,55.6124991 77.4325,55.7975 C77.7375015,55.9825009 78.0099988,56.2899979 78.25,56.72 L78.355,56.72 L78.52,55.67 L80.26,55.67 L80.26,63.59 C80.26,64.8400063 79.962503,65.7999966 79.3675,66.47 C78.772497,67.1400034 77.8450063,67.475 76.585,67.475 C75.6449953,67.475 74.8150036,67.2950018 74.095,66.935 L74.095,65.195 C74.9250042,65.605002 75.7549959,65.81 76.585,65.81 C77.1050026,65.81 77.5099986,65.6775013 77.8,65.4125 C78.0900015,65.1474987 78.235,64.7050031 78.235,64.085 L78.235,63.935 C78.235,63.7749992 78.2399999,63.5875011 78.25,63.3725 C78.2600001,63.1574989 78.2749999,62.9650009 78.295,62.795 L78.235,62.795 C77.9949988,63.2250022 77.7150016,63.537499 77.395,63.7325 C77.0749984,63.927501 76.7000021,64.025 76.27,64.025 C75.459996,64.025 74.8275023,63.6550037 74.3725,62.915 C73.9174977,62.1749963 73.69,61.1400067 73.69,59.81 C73.69,58.4499932 73.9224977,57.3950038 74.3875,56.645 C74.8525023,55.8949963 75.4999959,55.52 76.33,55.52 Z M76.945,57.26 C76.154996,57.26 75.76,58.1199914 75.76,59.84 C75.76,61.4900083 76.1649959,62.315 76.975,62.315 C77.4150022,62.315 77.7424989,62.1400017 77.9575,61.79 C78.1725011,61.4399983 78.28,60.8750039 78.28,60.095 L78.28,60.095 L78.28,59.72 C78.28,58.8499956 78.1725011,58.2225019 77.9575,57.8375 C77.7424989,57.4524981 77.4050023,57.26 76.945,57.26 Z" id="qr-rechnung-text" fill="#FFFFFF" fill-rule="nonzero"></path>
		</g>
		<g id="ebill" transform="translate(529.000000, 24.000000)">
			<circle id="Oval" fill="#25B9D4" cx="50" cy="50" r="50"></circle>
			<path d="M39.9425,47.66 C40.9225049,47.66 41.6849973,47.9899967 42.23,48.65 C42.7750027,49.3100033 43.0475,50.2149943 43.0475,51.365 L43.0475,52.46 L38.7275,52.46 C38.7475001,53.8400069 39.3124945,54.53 40.4225,54.53 C40.822502,54.53 41.1974983,54.4850005 41.5475,54.395 C41.8975017,54.3049995 42.2624981,54.1500011 42.6425,53.93 L42.6425,55.58 C42.2924983,55.780001 41.9225019,55.9249995 41.5325,56.015 C41.1424981,56.1050004 40.6975025,56.15 40.1975,56.15 C39.0374942,56.15 38.1650029,55.7850037 37.58,55.055 C36.9949971,54.3249963 36.7025,53.2900067 36.7025,51.95 C36.7025,50.549993 36.9849972,49.4850037 37.55,48.755 C38.1150028,48.0249964 38.9124949,47.66 39.9425,47.66 Z M39.9725,49.205 C39.6224982,49.205 39.3350011,49.3474986 39.11,49.6325 C38.8849989,49.9175014 38.7625001,50.3799968 38.7425,51.02 L41.1425,51.02 C41.1425,50.4699972 41.042501,50.0300017 40.8425,49.7 C40.642499,49.3699984 40.3525019,49.205 39.9725,49.205 Z M44.6525,45.29 L47.6225,45.29 C48.822506,45.29 49.724997,45.5024979 50.33,45.9275 C50.935003,46.3525021 51.2375,47.0299954 51.2375,47.96 C51.2375,48.5800031 51.1050013,49.0999979 50.84,49.52 C50.5749987,49.9400021 50.2025024,50.2049995 49.7225,50.315 L49.7225,50.39 C50.2825028,50.5300007 50.7099985,50.799998 51.005,51.2 C51.3000015,51.600002 51.4475,52.1649964 51.4475,52.895 C51.4475,53.8550048 51.147503,54.6124972 50.5475,55.1675 C49.947497,55.7225028 49.1175053,56 48.0575,56 L44.6525,56 L44.6525,45.29 Z M46.7675,49.595 L47.6975,49.595 C48.1875024,49.595 48.5424989,49.4800011 48.7625,49.25 C48.9825011,49.0199989 49.0925,48.6850022 49.0925,48.245 C49.0925,47.434996 48.6075048,47.03 47.6375,47.03 L46.7675,47.03 L46.7675,49.595 Z M46.7675,51.29 L46.7675,54.23 L47.8625,54.23 C48.3625025,54.23 48.7224989,54.1000013 48.9425,53.84 C49.1625011,53.5799987 49.2725,53.2050025 49.2725,52.715 C49.2725,52.2649977 49.1525012,51.9150013 48.9125,51.665 C48.6724988,51.4149987 48.2975025,51.29 47.7875,51.29 L46.7675,51.29 Z M54.0875,44.585 C54.8275037,44.585 55.1975,44.9549963 55.1975,45.695 C55.1975,46.0650019 55.100001,46.3399991 54.905,46.52 C54.709999,46.7000009 54.4375017,46.79 54.0875,46.79 C53.7474983,46.79 53.4775,46.7000009 53.2775,46.52 C53.077499,46.3399991 52.9775,46.0650019 52.9775,45.695 C52.9775,45.3049981 53.074999,45.0225009 53.27,44.8475 C53.465001,44.6724991 53.7374982,44.585 54.0875,44.585 Z M55.1075,47.795 L55.1075,56 L53.0675,56 L53.0675,47.795 L55.1075,47.795 Z M59.0225,56 L56.9975,56 L56.9975,44.6 L59.0225,44.6 L59.0225,56 Z M62.9375,56 L60.9125,56 L60.9125,44.6 L62.9375,44.6 L62.9375,56 Z" id="ebill-text" fill="#FFFFFF" fill-rule="nonzero"></path>
		</g>
	</g>
</svg>

